<?xml version="1.0" encoding="UTF-8" standalone="no"?>
<svg
   xmlns:dc="http://purl.org/dc/elements/1.1/"
   xmlns:cc="http://creativecommons.org/ns#"
   xmlns:rdf="http://www.w3.org/1999/02/22-rdf-syntax-ns#"
   xmlns:svg="http://www.w3.org/2000/svg"
   xmlns="http://www.w3.org/2000/svg"
   xmlns:sodipodi="http://sodipodi.sourceforge.net/DTD/sodipodi-0.dtd"
   xmlns:inkscape="http://www.inkscape.org/namespaces/inkscape"
   inkscape:version="1.0 (4035a4fb49, 2020-05-01)"
   sodipodi:docname="STAND_3D_TOP_COVER.svg"
   viewBox="0 0 429.12 209.91999"
   height="209.92"
   width="429.12"
   xml:space="preserve"
   id="svg7173"
   version="1.1"><metadata
     id="metadata7179"><rdf:RDF><cc:Work
         rdf:about=""><dc:format>image/svg+xml</dc:format><dc:type
           rdf:resource="http://purl.org/dc/dcmitype/StillImage" /><dc:title></dc:title></cc:Work></rdf:RDF></metadata><defs
     id="defs7177"><clipPath
       id="clipPath7189"
       clipPathUnits="userSpaceOnUse"><path
         id="path7187"
         d="m 2123,8004 h 5644 v 2904 H 2123 V 8004" /></clipPath></defs><sodipodi:namedview
     inkscape:current-layer="g7181"
     inkscape:window-maximized="1"
     inkscape:window-y="-8"
     inkscape:window-x="1912"
     inkscape:cy="141.74553"
     inkscape:cx="150.04824"
     inkscape:zoom="1.5142517"
     fit-margin-bottom="0"
     fit-margin-right="0"
     fit-margin-left="0"
     fit-margin-top="0"
     showgrid="false"
     id="namedview7175"
     inkscape:window-height="1017"
     inkscape:window-width="1920"
     inkscape:pageshadow="2"
     inkscape:pageopacity="0"
     guidetolerance="10"
     gridtolerance="10"
     objecttolerance="10"
     borderopacity="1"
     bordercolor="#666666"
     pagecolor="#ffffff" /><g
     transform="matrix(0.08,0,0,-0.08,-181.04,861.44)"
     inkscape:label="STAND_3D_TOP_COVER"
     inkscape:groupmode="layer"
     id="g7181"><g
       style="fill:none;stroke:#ff0000"
       id="g7183"><g
         style="fill:none;stroke:#ff0000"
         clip-path="url(#clipPath7189)"
         id="g7185"><g
           style="fill:none;stroke:#ff0000"
           transform="rotate(90,-2940.5,5311)"
           id="g7191"><path
             id="path7193"
             style="fill:none;stroke:#ff0000;stroke-width:24;stroke-linecap:round;stroke-linejoin:round;stroke-miterlimit:10;stroke-dasharray:none;stroke-opacity:1"
             d="M 0,94.5 C -52.19091,94.5 -94.5,52.19091 -94.5,0" /></g><path
           id="path7195"
           style="fill:none;stroke:#ff0000;stroke-width:24;stroke-linecap:round;stroke-linejoin:round;stroke-miterlimit:10;stroke-dasharray:none;stroke-opacity:1"
           d="M 2275,10661 V 8251" /><path
           id="path7197"
           style="fill:none;stroke:#ff0000;stroke-width:24;stroke-linecap:round;stroke-linejoin:round;stroke-miterlimit:10;stroke-dasharray:none;stroke-opacity:1"
           d="m 2370.5,10756 c -52.1909,0 -94.5,-42.31 -94.5,-94.5" /><g
           style="fill:none;stroke:#ff0000"
           transform="rotate(180,3760.25,4125.75)"
           id="g7199"><path
             id="path7201"
             style="fill:none;stroke:#ff0000;stroke-width:24;stroke-linecap:round;stroke-linejoin:round;stroke-miterlimit:10;stroke-dasharray:none;stroke-opacity:1"
             d="M 0,94.5 C -52.19091,94.5 -94.5,52.19091 -94.5,0" /></g><path
           id="path7203"
           style="fill:none;stroke:#ff0000;stroke-width:24;stroke-linecap:round;stroke-linejoin:round;stroke-miterlimit:10;stroke-dasharray:none;stroke-opacity:1"
           d="m 7615,8251 v 2410" /><g
           style="fill:none;stroke:#ff0000"
           transform="rotate(-90,9091,1570.5)"
           id="g7205"><path
             id="path7207"
             style="fill:none;stroke:#ff0000;stroke-width:24;stroke-linecap:round;stroke-linejoin:round;stroke-miterlimit:10;stroke-dasharray:none;stroke-opacity:1"
             d="M 0,94.5 C -52.19091,94.5 -94.5,52.19091 -94.5,0" /></g><path
           id="path7209"
           style="fill:none;stroke:#ff0000;stroke-width:24;stroke-linecap:round;stroke-linejoin:round;stroke-miterlimit:10;stroke-dasharray:none;stroke-opacity:1"
           d="m 7375,10590.5 c 0,-41.697 33.8027,-75.5 75.5,-75.5 41.6973,0 75.5,33.803 75.5,75.5 0,41.697 -33.8027,75.5 -75.5,75.5 -41.6973,0 -75.5,-33.803 -75.5,-75.5" /><path
           id="path7211"
           style="fill:none;stroke:#ff0000;stroke-width:24;stroke-linecap:round;stroke-linejoin:round;stroke-miterlimit:10;stroke-dasharray:none;stroke-opacity:1"
           d="m 7375,8322.5 c 0,-41.6973 33.8027,-75.5 75.5,-75.5 41.6973,0 75.5,33.8027 75.5,75.5 0,41.6973 -33.8027,75.5 -75.5,75.5 -41.6973,0 -75.5,-33.8027 -75.5,-75.5" /><path
           id="path7213"
           style="fill:none;stroke:#ff0000;stroke-width:24;stroke-linecap:round;stroke-linejoin:round;stroke-miterlimit:10;stroke-dasharray:none;stroke-opacity:1"
           d="M 7078,8731 H 2812 v 284 h 4266 v -284" /><path
           id="path7215"
           style="fill:none;stroke:#ff0000;stroke-width:24;stroke-linecap:round;stroke-linejoin:round;stroke-miterlimit:10;stroke-dasharray:none;stroke-opacity:1"
           d="m 2365,8322.5 c 0,-41.6973 33.8025,-75.5 75.5,-75.5 41.6975,0 75.5,33.8027 75.5,75.5 0,41.6973 -33.8025,75.5 -75.5,75.5 -41.6975,0 -75.5,-33.8027 -75.5,-75.5" /><path
           id="path7217"
           style="fill:none;stroke:#ff0000;stroke-width:24;stroke-linecap:round;stroke-linejoin:round;stroke-miterlimit:10;stroke-dasharray:none;stroke-opacity:1"
           d="m 5151,10301.5 c 0,-38.937 31.564,-70.5 70.5,-70.5 38.936,0 70.5,31.563 70.5,70.5 0,38.937 -31.564,70.5 -70.5,70.5 -38.936,0 -70.5,-31.563 -70.5,-70.5" /><path
           id="path7219"
           style="fill:none;stroke:#ff0000;stroke-width:24;stroke-linecap:round;stroke-linejoin:round;stroke-miterlimit:10;stroke-dasharray:none;stroke-opacity:1"
           d="m 2365,10590.5 c 0,-41.697 33.8025,-75.5 75.5,-75.5 41.6975,0 75.5,33.803 75.5,75.5 0,41.697 -33.8025,75.5 -75.5,75.5 -41.6975,0 -75.5,-33.803 -75.5,-75.5" /><path
           id="path7221"
           style="fill:none;stroke:#ff0000;stroke-width:24;stroke-linecap:round;stroke-linejoin:round;stroke-miterlimit:10;stroke-dasharray:none;stroke-opacity:1"
           d="M 2370,8156 H 7520" /><path
           id="path7223"
           style="fill:none;stroke:#ff0000;stroke-width:24;stroke-linecap:round;stroke-linejoin:round;stroke-miterlimit:10;stroke-dasharray:none;stroke-opacity:1"
           d="M 7520,10756 H 2370" /></g></g></g></svg>
