<?xml version="1.0" encoding="UTF-8" standalone="no"?>
<svg
   version="1.1"
   width="4.358640cm"
   height="3.037840cm"
   viewBox="0 0 43586400 30378400"
   id="svg1350"
   sodipodi:docname="testVinyle-brd.svg"
   inkscape:version="1.1 (c68e22c387, 2021-05-23)"
   xmlns:inkscape="http://www.inkscape.org/namespaces/inkscape"
   xmlns:sodipodi="http://sodipodi.sourceforge.net/DTD/sodipodi-0.dtd"
   xmlns="http://www.w3.org/2000/svg"
   xmlns:svg="http://www.w3.org/2000/svg"
   xmlns:rdf="http://www.w3.org/1999/02/22-rdf-syntax-ns#"
   xmlns:cc="http://creativecommons.org/ns#"
   xmlns:dc="http://purl.org/dc/elements/1.1/">
  <defs
     id="defs1354" />
  <sodipodi:namedview
     id="namedview1352"
     pagecolor="#ffffff"
     bordercolor="#666666"
     borderopacity="1.0"
     inkscape:pageshadow="2"
     inkscape:pageopacity="0.0"
     inkscape:pagecheckerboard="0"
     inkscape:document-units="cm"
     showgrid="false"
     inkscape:zoom="4.408257"
     inkscape:cx="64.991673"
     inkscape:cy="55.917792"
     inkscape:window-width="1920"
     inkscape:window-height="1017"
     inkscape:window-x="1912"
     inkscape:window-y="396"
     inkscape:window-maximized="1"
     inkscape:current-layer="svg1350"
     showguides="false" />
  <title
     id="title1090">SVG Picture created as testVinyle-brd.svg date 2021/11/25 20:56:46 </title>
  <desc
     id="desc1092">Picture generated by PCBNEW </desc>
  <g
     style="fill:#000000; fill-opacity:1.000000;stroke:#000000; stroke-opacity:1.000000; stroke-linecap:round; stroke-linejoin:round;"
     transform="translate(0 0) scale(1 1)"
     id="g1094" />
  <g
     style="fill:#FFFFFF; fill-opacity:0.0;  stroke:#FFFFFF; stroke-width:600000.000000; stroke-opacity:1;  stroke-linecap:round; stroke-linejoin:round;"
     id="g1346" />
  <g
     style="fill:#000000; fill-opacity:0.0;  stroke:#000000; stroke-width:600000.000000; stroke-opacity:1;  stroke-linecap:round; stroke-linejoin:round;"
     id="g1348" />
  <metadata
     id="metadata1436">
    <rdf:RDF>
      <cc:Work
         rdf:about="">
        <dc:title>SVG Picture created as testVinyle-brd.svg date 2021/11/25 20:56:46 </dc:title>
      </cc:Work>
    </rdf:RDF>
  </metadata>
  <path
     style="fill:none;stroke:#e65600;stroke-width:300000;stroke-miterlimit:4;stroke-dasharray:none;stroke-opacity:0.655955"
     d="m 12581062,25564749 c -736685,-733425 -1372042,-1395230 -1411906,-1470678 -59803,-113183 -72480,-555234 -72480,-2527300 v -2390122 h -457200 c -423333,0 -457200,-7526 -457200,-101600 0,-98409 -33867,-101600 -1078016.5,-101600 h -1078015 l -953985,-953985 -953984,-953984 V 13029376 8993272.2 l 1410712,-1410711.3 1410711,-1410712 H 12192427 c 2462167,0 3267545,-14816 3313689,-60960 40904,-40903 61053,-270713 61243,-698500 153,-350647 22769,-718476 50250,-817398 36076,-129859 224374,-352281 677347,-800100 l 627380,-620242 h 4534784 4534785 l 382158,368300 c 210187,202565 417545,448310 460794,546100 64876,146687 80167,457824 87380,1778000 4811,880110 12185,1640205 16391,1689100 6985,81197 89301,88900 949971,88900 1011250,0 1100385,18267 1339832,274574 141329,151280 461045,189854 461045,55626 0,-66040 203200,-76200 1524000,-76200 1320800,0 1524000,10160 1524000,76200 0,65465 162817,76371 1155700,77412 635635,667 1246503,22265 1357485,47996 165308,38326 323717,169635 876300,726384.5 l 674515,679600.8 v 4792893.8 4792893 l -1333500,1341567 c -733425,737863 -1395230,1374032 -1470677,1413710 -116117,61067 -1003274,72143 -5778500,72143 h -5641323 v 457200 c 0,372533 -14111,457200 -76200,457200 -65672,0 -76243,173705 -76513,1257300 -254,959080 -16654,1288616 -69207,1389328 -94630,181346 -1143018,1255994 -1312257,1345126 -114743,60430 -708406,72246 -3629994,72246 h -3492817 z m 8206986,-255195 367028,-369494 v -1052906 c 0,-902049 -10917,-1052905 -76200,-1052905 -66040,0 -76200,-203200 -76200,-1524000 v -1524000 h 787400 787400 v 431800 431800 h 5451656 5451657 l 1050743,-1061012 1050744,-1061011 v -4233694 -4233694 l -367028,-369493.7 -367029,-369495 h -1055371 c -904242,0 -1055372,10911.9 -1055372,76200 0,66040 -203200,76200 -1524000,76200 -1320800,0 -1524000,-10160 -1524000,-76200 0,-60527.2 -73658,-76200 -358123,-76200 -386132,0 -557188,-62156.3 -755632,-274573.5 -121772,-130345.2 -131551,-131826.5 -870375,-131826.5 -711419,0 -748530,5008.9 -774549,104504.3 -15030,57477.1 -97706,131069 -183725,163537.3 -148583,56083.8 -156396,73008.8 -156396,338801 0,279248.4 681,280454.4 367028,649262.1 l 367029,369495 356871,777 c 196280,407 386765,19737 423301,42909 44822,28427 61345,131441 50800,316722 l -15629,274592 h -965200 -965200 l -15071,-258512 c -10844,-186009 7083,-276898 63917,-324066 69610,-57771 54812,-91783 -124629,-286453 l -203617,-220899 v -432934.7 c 0,-350964.6 -14428,-432935 -76200,-432935 -41910,0 -120500,-44299.6 -174644,-98444.3 -94829,-94828.3 -97942,-180187.6 -84759,-2324100.1 11742,-1909447 2957,-2238286 -61829,-2314556 -70734,-83271 -328209,-88900 -4066774,-88900 h -3991260 l -318867,316033 -318867,316032 v 702491 c 0,509721 -19852,740132 -72346,839667 -84788,160768 -614494,684452 -775214,766401 -78039,39790 -1057595,56576 -3301567,56576 H 9497341.5 l -1079933,1079057 -1079933,1079057.5 v 3479508.6 3479510 l 621538,623033 621537,623034 h 800863 c 678011.5,0 800862.5,-11689 800862.5,-76200 0,-66040 203200,-76200 1524000,-76200 h 1524000 v 787400 787400 h -457200 -457200 v 2171266 2171268 l 1079057,1079932 1079057,1079934 h 2973515 2973514 z m -5347972,57015 c -158817,-86585 -1192490,-1119393 -1273562,-1272498 -60922,-115051 -72638,-692948 -72638,-3582867 v -3445691 l -318867,-316032 c -332572,-329616 -544733,-413132 -544733,-214432 0,99342 -33867,101600 -1524000,101600 -1490133,0 -1524000,-2256 -1524000,-101600 0,-90404 -33867,-101600 -307323.5,-101600 -169027,0 -370245,-32539 -447151,-72308 -193273,-99946 -1270212,-1226722 -1304400,-1364764 -15300,-61781 -21228,-1101448 -13173,-2310373 l 14647,-2198043 1170638,-1167456.1 1170639.5,-1167456 3960161,-1615 c 3401629,-1388 3974070,-12135 4058771,-76200 79862,-60404 311659,-74436 1219200,-73806 616325,426 1154813,22412 1196641,48854 56445,35682 121927,3521 254000,-124753 240563,-233642 389596,-280480 892457,-280480 339534,0 428493,-15221 428493,-73319 0,-161481 210804,-231481 697104,-231481 676418,0 674496,-2677 674496,939800 0,668867.3 -9343,745943 -101600,838200.4 -55880,55880 -135890,101600 -177800,101600 -61019,0 -76200,76570.9 -76200,384339.6 0,417729.1 -36793,524811.1 -262277,763329.1 -131095,138674 -139306,164688 -70104,222121 99339,82443 105159,475146 8234,555586 -48410,40177 -351450,53911 -977900,44321 l -907753,-13897 v -304800 -304800 l 406400,-14670 406400,-14672 368300,-365057 368300,-365057.7 v -282234.1 c 0,-268546.5 -7585,-285097.2 -156396,-341267.3 -86019,-32468.3 -168695,-106060.2 -183725,-163537.3 -22755,-87011.8 -67811,-104504.3 -269184,-104504.3 -163981,0 -264304,27262.3 -311575,84669.4 -175947,213674.4 -467598,372530.6 -683944,372530.6 -119889,0 -232108,22860 -249376,50800 -42614,68950.9 -2497386,68950.9 -2540000,0 -20465,-33112.9 -1317281,-50800 -3724659,-50800 h -3693262 l -850339,851444.7 -850340.5,851444 v 1702527 1702527 l 369495,367028 c 365504.5,363065 494105.5,438759 494105.5,290829 0,-66040 203200,-76200 1524000,-76200 1320800,0 1524000,10160 1524000,76200 0,61142 77371,76200 391544,76200 h 391543 l 649857,649856 649856,649857 v 3504511 3504511 l 318867,316032 318867,316033 h 1248060 c 1144584,0 1255030,-7703 1332133,-92900 118648,-131105 125681,-1227900 7873,-1227900 -66040,0 -76200,-203200 -76200,-1524000 0,-1320800 10160,-1524000 76200,-1524000 59174,0 76200,-67366 76200,-301493 0,-165822 24017,-365847 53370,-444500 71308,-191070 1097237,-1227080 1303898,-1316710 132035,-57264 612505,-70897 2498593,-70897 1304560,0 2389573,20701 2458496,46905 67855,25799 328703,254399 579663,508000 l 456291,461095 h 3225315 3225315 l 591965,-596900 591965,-596900 564,-2439672 564,-2439671 -369495,-367029 c -365503,-363065 -494104,-438759 -494104,-290828 0,66040 -203200,76200 -1524000,76200 h -1524000 v -787400 -787400 h 1524000 c 1490133,0 1524000,2256 1524000,101600 0,90434 33867,101600 308140,101600 169477,0 358072,25354 419100,56342 159202,80838 1196509,1111444 1282922,1274635 107306,202649 108200,5921213 955,6126445 -39425,75448 -445190,505068 -901700,954712 -643734,634052 -868499,825024 -1001469,850900 -226137,44008 -7055845,43327 -7276107,-726 -122241,-24449 -308600,-168140 -658842,-508000 l -488384,-473908 h -1977998 -1977998 l -290509,293573 c -210375,212593 -290510,331702 -290510,431800 0,89002 27136,138227 76200,138227 66040,0 76200,203200 76200,1524000 0,1320800 -10160,1524000 -76200,1524000 -64332,0 -76200,118166 -76200,758693 0,417281 -23169,819631 -51486,894111 -70641,185799 -631190,760484 -837073,858182 -142351,67550 -420710,79576 -1811518,78269 -1087510,-1021 -1677687,-20279 -1744923,-56935 z m 482600,-4056320 c 0,-1124278 15491,-1524000 59063,-1524000 44473,0 50770,-518413 25488,-2098610 -28309,-1769380 -22278,-2114062 38441,-2197100 63463,-86792 136350,-98490 613608,-98490 477258,0 550145,11698 613608,98490 60719,83038 66750,427720 38441,2197100 l -33576,2098610 h 109864 109863 v 1524000 1524000 h -787400 -787400 z m 10677328,-3691286 c -110762,-90324 -113966,-117737 -99979,-855314 l 14451,-762000 164001,-76200 164000,-76200 1098,-416676 1097,-416676 -317500,-15124 -317500,-15124 -15644,-245247 c -24736,-387753 -19448,-389864 974364,-388976 478544,407 899973,19737 936509,42909 44822,28427 61345,131442 50800,316722 l -15625,274592 -317500,15124 -317500,15124 v 429376 c 0,338259 15400,429376 72571,429376 39915,0 108495,35922 152400,79828 65399,65399 79688,214621 79051,825500 -406,410119 -22424,779962 -48881,821872 -36090,57170 -172681,80474 -546943,93314 -424992,14580 -515780,3302 -613270,-76200 z m 3092471,-4471 -120758,-97784 67284,-2268830 67283,-2268829 h 1515596 1515596 v 787400 787400 h -700410 -700409 l -241870,245562 -241870,245562 31457,1240338 c 20822,820974 13721,1266101 -21001,1316538 -39088,56778 -179604,80562 -551299,93314 -432447,14836 -514912,4099 -619599,-80671 z m -10518599,-520643 c -91790,-91790 -101600,-169333 -101600,-803091 0,-911253 -12606,-893313 643552,-915908 l 499448,-17198 513336,-503502 513335,-503501 h 937005 c 661047,0 954957,17953 997964,60960 33528,33528 60960,145958 60960,249845 0,361257 30293,349595 -908043,349595 h -846372 l -519793,521567 -519792,521568 v 457729 c 0,660430 -22421,683536 -663280,683536 -437387,0 -518744,-13624 -606720,-101600 z m -4085771,-2975429 c -43906,-43905 -79829,-112485 -79829,-152400 0,-60130 -152400,-72571 -889000,-72571 -855133,0 -889000,3871 -889000,101600 0,99342 -33867,101600 -1524000,101600 h -1524000 v -787400 -787400 h 1524000 c 1320800,0 1524000,10160 1524000,76200 0,64830 132644,76200 889000,76200 740833,0 889000,-12220 889000,-73320 0,-157267 211726,-231480 660400,-231480 667306,0 660400,-9562 660400,914400 0,723888 -4831,759622 -112904,835319 -161339,113007 -1014879,112441 -1128067,-746 z m 3098800,0 c -65399,-65398 -79688,-214620 -79051,-825500 406,-410119 22431,-779961 48896,-821871 35873,-56810 171751,-80691 533983,-93850 643528,-23378 737143,30624 737143,425221 v 278229 h 1844040 c 1366520,0 1859826,15785 1905000,60960 33528,33528 60960,145958 60960,249845 0,375892 145616,349595 -1935835,349595 h -1874165 v 149519 c 0,240955 -150391,307681 -693475,307681 -357419,0 -486487,-18819 -547496,-79829 z m 8032323,-410152 c -59025,-59026 -38696,-501955 26008,-566659 71062,-71062 1750266,-86659 1859669,-17274 44822,28427 61345,131442 50800,316722 l -15629,274592 -942948,13785 c -518621,7583 -958676,-1940 -977900,-21166 z m -4941785,-1307174 c -14764,-38475 -19762,-181350 -11105,-317500 l 15738,-247545 907753,-13897 c 626450,-9591 929490,4145 977900,44320 86398,71704 92958,459846 9187,543617 -93933,93933 -1863191,85555 -1899473,-8995 z m 4941785,37174 c -59025,-59026 -38696,-501955 26008,-566659 71062,-71062 1750266,-86659 1859669,-17274 44822,28427 61345,131442 50800,316722 l -15629,274592 -942948,13785 c -518621,7583 -958676,-1940 -977900,-21166 z m -3685506,-5887999.1 -101929,-129581 -778058,28874 c -427933,15880 -1289412,40750 -1914399,55266 -1461547,33945 -1378260,76942 -1378260,-711521 0,-458994 16589,-595990 79829,-659229 68112,-68112 257795,-79829 1292401,-79829 753585,0 1224458,19229 1243970,50800 18559,30030 328010,50800 756844,50800 724513,0 725522,-162 783313,-127000 56834,-124737 68262,-127000 641367,-127000 524899,0 588783,9869 636089,98261 28923,54043 52587,403286 52587,776096 0,914309 8085,903643 -684993,903643 -504247,0 -531203,-5555 -628761,-129580 z"
     id="path3632" />
</svg>
