999
"DXF R12 Output" (www.mydxf.blogspot.com)
 0 
SECTION
 2 
HEADER
 9 
$ACADVER
 1 
AC1009
 9 
$EXTMIN
 10 
 0 
 20 
 0 
 9 
$EXTMAX
 10 
 8.5 
 20 
 11 
 0 
ENDSEC
 0 
SECTION
 2 
ENTITIES
0
LINE
8
Layer 1
10
3.000000
20
-3.000000
11
-3.000000
21
3.000000
0
LINE
8
Layer 1
10
0.000000
20
-5.000000
11
0.000000
21
5.000000
0
LINE
8
Layer 1
10
8.000000
20
4.000000
11
4.000000
21
8.000000
0
LINE
8
Layer 1
10
6.000000
20
2.000000
11
2.000000
21
6.000000
0
LINE
8
Layer 1
10
4.000000
20
0.000000
11
0.000000
21
4.000000
0
LINE
8
Layer 1
10
81.306000
20
854.342000
11
81.306000
21
370.140000
0
LINE
8
Layer 1
10
96.046200
20
355.400000
11
94.539114
21
355.476101
0
LINE
8
Layer 1
10
94.539114
20
355.476101
11
93.075563
21
355.699463
0
LINE
8
Layer 1
10
93.075563
20
355.699463
11
90.308697
21
356.558338
0
LINE
8
Layer 1
10
90.308697
20
356.558338
11
87.804877
21
357.917352
0
LINE
8
Layer 1
10
87.804877
20
357.917352
11
85.623375
21
359.717234
0
LINE
8
Layer 1
10
85.623375
20
359.717234
11
83.823464
21
361.898712
0
LINE
8
Layer 1
10
83.823464
20
361.898712
11
82.464416
21
364.402513
0
LINE
8
Layer 1
10
82.464416
20
364.402513
11
81.605503
21
367.169367
0
LINE
8
Layer 1
10
81.605503
20
367.169367
11
81.382121
21
368.632915
0
LINE
8
Layer 1
10
81.382121
20
368.632915
11
81.306000
21
370.140000
0
LINE
8
Layer 1
10
96.046200
20
355.400000
11
300.897000
21
355.400000
0
LINE
8
Layer 1
10
300.897000
20
355.400000
11
303.786099
21
355.114154
0
LINE
8
Layer 1
10
303.786099
20
355.114154
11
306.537830
21
354.277969
0
LINE
8
Layer 1
10
306.537830
20
354.277969
11
309.074870
21
352.923473
0
LINE
8
Layer 1
10
309.074870
20
352.923473
11
311.319895
21
351.082695
0
LINE
8
Layer 1
10
311.319895
20
351.082695
11
313.160673
21
348.837670
0
LINE
8
Layer 1
10
313.160673
20
348.837670
11
314.515169
21
346.300630
0
LINE
8
Layer 1
10
314.515169
20
346.300630
11
315.351354
21
343.548899
0
LINE
8
Layer 1
10
315.351354
20
343.548899
11
315.637200
21
340.659800
0
LINE
8
Layer 1
10
315.637000
20
340.660000
11
315.637000
21
339.904100
0
LINE
8
Layer 1
10
315.637000
20
339.904000
11
315.560880
21
338.396929
0
LINE
8
Layer 1
10
315.560880
20
338.396929
11
315.337502
21
336.933394
0
LINE
8
Layer 1
10
315.337502
20
336.933394
11
314.478605
21
334.166562
0
LINE
8
Layer 1
10
314.478605
20
334.166562
11
313.119579
21
331.662775
0
LINE
8
Layer 1
10
313.119579
20
331.662775
11
311.319695
21
329.481305
0
LINE
8
Layer 1
10
311.319695
20
329.481305
11
309.138225
21
327.681421
0
LINE
8
Layer 1
10
309.138225
20
327.681421
11
306.634438
21
326.322395
0
LINE
8
Layer 1
10
306.634438
20
326.322395
11
303.867606
21
325.463498
0
LINE
8
Layer 1
10
303.867606
20
325.463498
11
302.404071
21
325.240120
0
LINE
8
Layer 1
10
302.404071
20
325.240120
11
300.897000
21
325.164000
0
LINE
8
Layer 1
10
300.897000
20
325.164000
11
96.046200
21
325.164000
0
LINE
8
Layer 1
10
81.306000
20
310.424000
11
81.591846
21
313.313099
0
LINE
8
Layer 1
10
81.591846
20
313.313099
11
82.428031
21
316.064830
0
LINE
8
Layer 1
10
82.428031
20
316.064830
11
83.782527
21
318.601870
0
LINE
8
Layer 1
10
83.782527
20
318.601870
11
85.623305
21
320.846895
0
LINE
8
Layer 1
10
85.623305
20
320.846895
11
87.868330
21
322.687673
0
LINE
8
Layer 1
10
87.868330
20
322.687673
11
90.405370
21
324.042169
0
LINE
8
Layer 1
10
90.405370
20
324.042169
11
93.157101
21
324.878354
0
LINE
8
Layer 1
10
93.157101
20
324.878354
11
96.046200
21
325.164200
0
LINE
8
Layer 1
10
81.306000
20
310.424000
11
81.306000
21
279.432000
0
LINE
8
Layer 1
10
96.046200
20
264.691000
11
93.157002
21
264.976866
0
LINE
8
Layer 1
10
93.157002
20
264.976866
11
90.405185
21
265.813107
0
LINE
8
Layer 1
10
90.405185
20
265.813107
11
87.868081
21
267.167692
0
LINE
8
Layer 1
10
87.868081
20
267.167692
11
85.623022
21
269.008587
0
LINE
8
Layer 1
10
85.623022
20
269.008587
11
83.782249
21
271.253747
0
LINE
8
Layer 1
10
83.782249
20
271.253747
11
82.427801
21
273.790924
0
LINE
8
Layer 1
10
82.427801
20
273.790924
11
81.591709
21
276.542786
0
LINE
8
Layer 1
10
81.591709
20
276.542786
11
81.306000
21
279.432000
0
LINE
8
Layer 1
10
96.046200
20
264.691000
11
300.897000
21
264.691000
0
LINE
8
Layer 1
10
300.897000
20
264.691000
11
303.786099
21
264.405154
0
LINE
8
Layer 1
10
303.786099
20
264.405154
11
306.537830
21
263.568969
0
LINE
8
Layer 1
10
306.537830
20
263.568969
11
309.074870
21
262.214473
0
LINE
8
Layer 1
10
309.074870
20
262.214473
11
311.319895
21
260.373695
0
LINE
8
Layer 1
10
311.319895
20
260.373695
11
313.160673
21
258.128670
0
LINE
8
Layer 1
10
313.160673
20
258.128670
11
314.515169
21
255.591630
0
LINE
8
Layer 1
10
314.515169
20
255.591630
11
315.351354
21
252.839899
0
LINE
8
Layer 1
10
315.351354
20
252.839899
11
315.637200
21
249.950800
0
LINE
8
Layer 1
10
315.637000
20
249.951000
11
315.637000
21
249.195100
0
LINE
8
Layer 1
10
315.637000
20
249.195000
11
315.560880
21
247.687929
0
LINE
8
Layer 1
10
315.560880
20
247.687929
11
315.337502
21
246.224394
0
LINE
8
Layer 1
10
315.337502
20
246.224394
11
314.478605
21
243.457562
0
LINE
8
Layer 1
10
314.478605
20
243.457562
11
313.119579
21
240.953775
0
LINE
8
Layer 1
10
313.119579
20
240.953775
11
311.319695
21
238.772305
0
LINE
8
Layer 1
10
311.319695
20
238.772305
11
309.138225
21
236.972421
0
LINE
8
Layer 1
10
309.138225
20
236.972421
11
306.634438
21
235.613395
0
LINE
8
Layer 1
10
306.634438
20
235.613395
11
303.867606
21
234.754498
0
LINE
8
Layer 1
10
303.867606
20
234.754498
11
302.404071
21
234.531120
0
LINE
8
Layer 1
10
302.404071
20
234.531120
11
300.897000
21
234.455000
0
LINE
8
Layer 1
10
300.897000
20
234.455000
11
96.046200
21
234.455000
0
LINE
8
Layer 1
10
81.306000
20
219.714000
11
81.382112
21
221.221092
0
LINE
8
Layer 1
10
81.382112
20
221.221092
11
81.605486
21
222.684649
0
LINE
8
Layer 1
10
81.605486
20
222.684649
11
82.464387
21
225.451519
0
LINE
8
Layer 1
10
82.464387
20
225.451519
11
83.823429
21
227.955337
0
LINE
8
Layer 1
10
83.823429
20
227.955337
11
85.623340
21
230.136831
0
LINE
8
Layer 1
10
85.623340
20
230.136831
11
87.804846
21
231.936727
0
LINE
8
Layer 1
10
87.804846
20
231.936727
11
90.308673
21
233.295752
0
LINE
8
Layer 1
10
90.308673
20
233.295752
11
93.075549
21
234.154634
0
LINE
8
Layer 1
10
93.075549
20
234.154634
11
94.539107
21
234.377999
0
LINE
8
Layer 1
10
94.539107
20
234.377999
11
96.046200
21
234.454100
0
LINE
8
Layer 1
10
81.306000
20
219.714000
11
81.306000
21
130.139000
0
LINE
8
Layer 1
10
90.376900
20
121.069000
11
88.548805
21
121.253288
0
LINE
8
Layer 1
10
88.548805
20
121.253288
11
86.846110
21
121.781833
0
LINE
8
Layer 1
10
86.846110
20
121.781833
11
85.305293
21
122.618160
0
LINE
8
Layer 1
10
85.305293
20
122.618160
11
83.962830
21
123.725793
0
LINE
8
Layer 1
10
83.962830
20
123.725793
11
82.855196
21
125.068255
0
LINE
8
Layer 1
10
82.855196
20
125.068255
11
82.018867
21
126.609071
0
LINE
8
Layer 1
10
82.018867
20
126.609071
11
81.490320
21
128.311765
0
LINE
8
Layer 1
10
81.490320
20
128.311765
11
81.306030
21
130.139860
0
LINE
8
Layer 1
10
90.376900
20
121.069000
11
125.149000
21
121.069000
0
LINE
8
Layer 1
10
134.219000
20
130.139000
11
134.034711
21
128.310906
0
LINE
8
Layer 1
10
134.034711
20
128.310906
11
133.506164
21
126.608214
0
LINE
8
Layer 1
10
133.506164
20
126.608214
11
132.669837
21
125.067398
0
LINE
8
Layer 1
10
132.669837
20
125.067398
11
131.562204
21
123.724936
0
LINE
8
Layer 1
10
131.562204
20
123.724936
11
130.219742
21
122.617303
0
LINE
8
Layer 1
10
130.219742
20
122.617303
11
128.678926
21
121.780976
0
LINE
8
Layer 1
10
128.678926
20
121.780976
11
126.976234
21
121.252429
0
LINE
8
Layer 1
10
126.976234
20
121.252429
11
125.148140
21
121.068140
0
LINE
8
Layer 1
10
134.219000
20
130.895000
11
134.219000
21
130.139090
0
LINE
8
Layer 1
10
125.149000
20
139.966000
11
126.977094
21
139.781711
0
LINE
8
Layer 1
10
126.977094
20
139.781711
11
128.679786
21
139.253164
0
LINE
8
Layer 1
10
128.679786
20
139.253164
11
130.220602
21
138.416837
0
LINE
8
Layer 1
10
130.220602
20
138.416837
11
131.563064
21
137.309204
0
LINE
8
Layer 1
10
131.563064
20
137.309204
11
132.670697
21
135.966742
0
LINE
8
Layer 1
10
132.670697
20
135.966742
11
133.507024
21
134.425926
0
LINE
8
Layer 1
10
133.507024
20
134.425926
11
134.035571
21
132.723234
0
LINE
8
Layer 1
10
134.035571
20
132.723234
11
134.219860
21
130.895140
0
LINE
8
Layer 1
10
109.275000
20
139.966000
11
125.149000
21
139.966000
0
LINE
8
Layer 1
10
109.275000
20
139.966000
11
107.497097
21
140.141905
0
LINE
8
Layer 1
10
107.497097
20
140.141905
11
105.803728
21
140.656479
0
LINE
8
Layer 1
10
105.803728
20
140.656479
11
104.242477
21
141.490013
0
LINE
8
Layer 1
10
104.242477
20
141.490013
11
102.860926
21
142.622796
0
LINE
8
Layer 1
10
102.860926
20
142.622796
11
101.728143
21
144.004347
0
LINE
8
Layer 1
10
101.728143
20
144.004347
11
100.894609
21
145.565598
0
LINE
8
Layer 1
10
100.894609
20
145.565598
11
100.380035
21
147.258967
0
LINE
8
Layer 1
10
100.380035
20
147.258967
11
100.204130
21
149.036870
0
LINE
8
Layer 1
10
100.204000
20
149.793000
11
100.204000
21
149.037090
0
LINE
8
Layer 1
10
100.204000
20
149.793000
11
100.388290
21
151.621095
0
LINE
8
Layer 1
10
100.388290
20
151.621095
11
100.916837
21
153.323789
0
LINE
8
Layer 1
10
100.916837
20
153.323789
11
101.753166
21
154.864605
0
LINE
8
Layer 1
10
101.753166
20
154.864605
11
102.860800
21
156.207067
0
LINE
8
Layer 1
10
102.860800
20
156.207067
11
104.203263
21
157.314700
0
LINE
8
Layer 1
10
104.203263
20
157.314700
11
105.744080
21
158.151027
0
LINE
8
Layer 1
10
105.744080
20
158.151027
11
107.446775
21
158.679572
0
LINE
8
Layer 1
10
107.446775
20
158.679572
11
109.274870
21
158.863860
0
LINE
8
Layer 1
10
372.330000
20
158.864000
11
109.275000
21
158.864000
0
LINE
8
Layer 1
10
383.668000
20
170.202000
11
383.437551
21
167.917051
0
LINE
8
Layer 1
10
383.437551
20
167.917051
11
382.776845
21
165.788843
0
LINE
8
Layer 1
10
382.776845
20
165.788843
11
381.731466
21
163.862964
0
LINE
8
Layer 1
10
381.731466
20
163.862964
11
380.347001
21
162.184999
0
LINE
8
Layer 1
10
380.347001
20
162.184999
11
378.669036
21
160.800534
0
LINE
8
Layer 1
10
378.669036
20
160.800534
11
376.743157
21
159.755155
0
LINE
8
Layer 1
10
376.743157
20
159.755155
11
374.614949
21
159.094449
0
LINE
8
Layer 1
10
374.614949
20
159.094449
11
372.330000
21
158.864000
0
LINE
8
Layer 1
10
383.668000
20
170.202000
11
383.668000
21
462.950000
0
LINE
8
Layer 1
10
383.668000
20
462.950000
11
676.415000
21
462.950000
0
LINE
8
Layer 1
10
687.753000
20
474.288000
11
687.522551
21
472.003051
0
LINE
8
Layer 1
10
687.522551
20
472.003051
11
686.861845
21
469.874843
0
LINE
8
Layer 1
10
686.861845
20
469.874843
11
685.816466
21
467.948964
0
LINE
8
Layer 1
10
685.816466
20
467.948964
11
684.432001
21
466.270999
0
LINE
8
Layer 1
10
684.432001
20
466.270999
11
682.754036
21
464.886534
0
LINE
8
Layer 1
10
682.754036
20
464.886534
11
680.828157
21
463.841155
0
LINE
8
Layer 1
10
680.828157
20
463.841155
11
678.699949
21
463.180449
0
LINE
8
Layer 1
10
678.699949
20
463.180449
11
676.415000
21
462.950000
0
LINE
8
Layer 1
10
687.753000
20
474.288000
11
687.753000
21
750.194000
0
LINE
8
Layer 1
10
676.415000
20
761.532000
11
678.637381
21
761.312119
0
LINE
8
Layer 1
10
678.637381
20
761.312119
11
680.754094
21
760.668900
0
LINE
8
Layer 1
10
680.754094
20
760.668900
11
682.705661
21
759.626982
0
LINE
8
Layer 1
10
682.705661
20
759.626982
11
684.432601
21
758.211001
0
LINE
8
Layer 1
10
684.432601
20
758.211001
11
685.848582
21
756.484061
0
LINE
8
Layer 1
10
685.848582
20
756.484061
11
686.890500
21
754.532494
0
LINE
8
Layer 1
10
686.890500
20
754.532494
11
687.533719
21
752.415781
0
LINE
8
Layer 1
10
687.533719
20
752.415781
11
687.753600
21
750.193400
0
LINE
8
Layer 1
10
383.668000
20
761.532000
11
676.415000
21
761.532000
0
LINE
8
Layer 1
10
383.668000
20
761.532000
11
383.668000
21
1054.280000
0
LINE
8
Layer 1
10
372.330000
20
1065.620000
11
374.552381
21
1065.400119
0
LINE
8
Layer 1
10
374.552381
20
1065.400119
11
376.669094
21
1064.756900
0
LINE
8
Layer 1
10
376.669094
20
1064.756900
11
378.620661
21
1063.714982
0
LINE
8
Layer 1
10
378.620661
20
1063.714982
11
380.347601
21
1062.299001
0
LINE
8
Layer 1
10
380.347601
20
1062.299001
11
381.763582
21
1060.572061
0
LINE
8
Layer 1
10
381.763582
20
1060.572061
11
382.805500
21
1058.620494
0
LINE
8
Layer 1
10
382.805500
20
1058.620494
11
383.448719
21
1056.503781
0
LINE
8
Layer 1
10
383.448719
20
1056.503781
11
383.668600
21
1054.281400
0
LINE
8
Layer 1
10
109.275000
20
1065.620000
11
372.330000
21
1065.620000
0
LINE
8
Layer 1
10
109.275000
20
1065.620000
11
107.497094
21
1065.795905
0
LINE
8
Layer 1
10
107.497094
20
1065.795905
11
105.803721
21
1066.310482
0
LINE
8
Layer 1
10
105.803721
20
1066.310482
11
104.242467
21
1067.144019
0
LINE
8
Layer 1
10
104.242467
20
1067.144019
11
102.860916
21
1068.276807
0
LINE
8
Layer 1
10
102.860916
20
1068.276807
11
101.728132
21
1069.658362
0
LINE
8
Layer 1
10
101.728132
20
1069.658362
11
100.894600
21
1071.219619
0
LINE
8
Layer 1
10
100.894600
20
1071.219619
11
100.380030
21
1072.912993
0
LINE
8
Layer 1
10
100.380030
20
1072.912993
11
100.204130
21
1074.690900
0
LINE
8
Layer 1
10
100.204000
20
1075.440000
11
100.204000
21
1074.684100
0
LINE
8
Layer 1
10
100.204000
20
1075.440000
11
100.379900
21
1077.217907
0
LINE
8
Layer 1
10
100.379900
20
1077.217907
11
100.894470
21
1078.911281
0
LINE
8
Layer 1
10
100.894470
20
1078.911281
11
101.728002
21
1080.472538
0
LINE
8
Layer 1
10
101.728002
20
1080.472538
11
102.860786
21
1081.854093
0
LINE
8
Layer 1
10
102.860786
20
1081.854093
11
104.242337
21
1082.986881
0
LINE
8
Layer 1
10
104.242337
20
1082.986881
11
105.803591
21
1083.820418
0
LINE
8
Layer 1
10
105.803591
20
1083.820418
11
107.496964
21
1084.334995
0
LINE
8
Layer 1
10
107.496964
20
1084.334995
11
109.274870
21
1084.510900
0
LINE
8
Layer 1
10
125.149000
20
1084.520000
11
109.275000
21
1084.520000
0
LINE
8
Layer 1
10
134.219000
20
1093.590000
11
134.034700
21
1091.761916
0
LINE
8
Layer 1
10
134.034700
20
1091.761916
11
133.506147
21
1090.059233
0
LINE
8
Layer 1
10
133.506147
20
1090.059233
11
132.669816
21
1088.518428
0
LINE
8
Layer 1
10
132.669816
20
1088.518428
11
131.562182
21
1087.175975
0
LINE
8
Layer 1
10
131.562182
20
1087.175975
11
130.219723
21
1086.068351
0
LINE
8
Layer 1
10
130.219723
20
1086.068351
11
128.678912
21
1085.232030
0
LINE
8
Layer 1
10
128.678912
20
1085.232030
11
126.976226
21
1084.703488
0
LINE
8
Layer 1
10
126.976226
20
1084.703488
11
125.148140
21
1084.519200
0
LINE
8
Layer 1
10
134.219000
20
1094.340000
11
134.219000
21
1093.584100
0
LINE
8
Layer 1
10
125.149000
20
1103.410000
11
126.926905
21
1103.234093
0
LINE
8
Layer 1
10
126.926905
20
1103.234093
11
128.620276
21
1102.719515
0
LINE
8
Layer 1
10
128.620276
20
1102.719515
11
130.181528
21
1101.885978
0
LINE
8
Layer 1
10
130.181528
20
1101.885978
11
131.563078
21
1100.753190
0
LINE
8
Layer 1
10
131.563078
20
1100.753190
11
132.695860
21
1099.371635
0
LINE
8
Layer 1
10
132.695860
20
1099.371635
11
133.529391
21
1097.810379
0
LINE
8
Layer 1
10
133.529391
20
1097.810379
11
134.043961
21
1096.117006
0
LINE
8
Layer 1
10
134.043961
20
1096.117006
11
134.219860
21
1094.339100
0
LINE
8
Layer 1
10
125.149000
20
1103.410000
11
90.376900
21
1103.410000
0
LINE
8
Layer 1
10
81.306000
20
1094.340000
11
81.481900
21
1096.117907
0
LINE
8
Layer 1
10
81.481900
20
1096.117907
11
81.996470
21
1097.811281
0
LINE
8
Layer 1
10
81.996470
20
1097.811281
11
82.830002
21
1099.372538
0
LINE
8
Layer 1
10
82.830002
20
1099.372538
11
83.962786
21
1100.754093
0
LINE
8
Layer 1
10
83.962786
20
1100.754093
11
85.344337
21
1101.886881
0
LINE
8
Layer 1
10
85.344337
20
1101.886881
11
86.905591
21
1102.720418
0
LINE
8
Layer 1
10
86.905591
20
1102.720418
11
88.598964
21
1103.234995
0
LINE
8
Layer 1
10
88.598964
20
1103.234995
11
90.376870
21
1103.410900
0
LINE
8
Layer 1
10
81.306000
20
1094.340000
11
81.306000
21
1004.765200
0
LINE
8
Layer 1
10
96.046200
20
990.027000
11
93.156753
21
990.312915
0
LINE
8
Layer 1
10
93.156753
20
990.312915
11
90.404723
21
991.149299
0
LINE
8
Layer 1
10
90.404723
20
991.149299
11
87.867460
21
992.504106
0
LINE
8
Layer 1
10
87.867460
20
992.504106
11
85.622315
21
994.345295
0
LINE
8
Layer 1
10
85.622315
20
994.345295
11
83.781553
21
996.590790
0
LINE
8
Layer 1
10
83.781553
20
996.590790
11
82.427227
21
999.128310
0
LINE
8
Layer 1
10
82.427227
20
999.128310
11
81.591366
21
1001.880499
0
LINE
8
Layer 1
10
81.591366
20
1001.880499
11
81.306000
21
1004.770000
0
LINE
8
Layer 1
10
96.046200
20
990.027000
11
300.897000
21
990.027000
0
LINE
8
Layer 1
10
300.897000
20
990.027000
11
303.786099
21
989.741154
0
LINE
8
Layer 1
10
303.786099
20
989.741154
11
306.537830
21
988.904969
0
LINE
8
Layer 1
10
306.537830
20
988.904969
11
309.074870
21
987.550473
0
LINE
8
Layer 1
10
309.074870
20
987.550473
11
311.319895
21
985.709695
0
LINE
8
Layer 1
10
311.319895
20
985.709695
11
313.160673
21
983.464670
0
LINE
8
Layer 1
10
313.160673
20
983.464670
11
314.515169
21
980.927630
0
LINE
8
Layer 1
10
314.515169
20
980.927630
11
315.351354
21
978.175899
0
LINE
8
Layer 1
10
315.351354
20
978.175899
11
315.637200
21
975.286800
0
LINE
8
Layer 1
10
315.637000
20
975.286000
11
315.637000
21
974.530100
0
LINE
8
Layer 1
10
315.637000
20
974.531000
11
315.351296
21
971.641811
0
LINE
8
Layer 1
10
315.351296
20
971.641811
11
314.515218
21
968.889970
0
LINE
8
Layer 1
10
314.515218
20
968.889970
11
313.160793
21
966.352809
0
LINE
8
Layer 1
10
313.160793
20
966.352809
11
311.320049
21
964.107658
0
LINE
8
Layer 1
10
311.320049
20
964.107658
11
309.075023
21
962.266762
0
LINE
8
Layer 1
10
309.075023
20
962.266762
11
306.537954
21
960.912165
0
LINE
8
Layer 1
10
306.537954
20
960.912165
11
303.786170
21
960.075900
0
LINE
8
Layer 1
10
303.786170
20
960.075900
11
300.897000
21
959.790000
0
LINE
8
Layer 1
10
300.897000
20
959.790000
11
96.046200
21
959.790000
0
LINE
8
Layer 1
10
81.306000
20
945.050000
11
81.591846
21
947.939099
0
LINE
8
Layer 1
10
81.591846
20
947.939099
11
82.428031
21
950.690830
0
LINE
8
Layer 1
10
82.428031
20
950.690830
11
83.782527
21
953.227870
0
LINE
8
Layer 1
10
83.782527
20
953.227870
11
85.623305
21
955.472895
0
LINE
8
Layer 1
10
85.623305
20
955.472895
11
87.868330
21
957.313673
0
LINE
8
Layer 1
10
87.868330
20
957.313673
11
90.405370
21
958.668169
0
LINE
8
Layer 1
10
90.405370
20
958.668169
11
93.157101
21
959.504354
0
LINE
8
Layer 1
10
93.157101
20
959.504354
11
96.046200
21
959.790200
0
LINE
8
Layer 1
10
81.306000
20
945.050000
11
81.306000
21
914.058000
0
LINE
8
Layer 1
10
96.046200
20
899.318000
11
94.539114
21
899.394101
0
LINE
8
Layer 1
10
94.539114
20
899.394101
11
93.075563
21
899.617463
0
LINE
8
Layer 1
10
93.075563
20
899.617463
11
90.308697
21
900.476338
0
LINE
8
Layer 1
10
90.308697
20
900.476338
11
87.804877
21
901.835352
0
LINE
8
Layer 1
10
87.804877
20
901.835352
11
85.623375
21
903.635234
0
LINE
8
Layer 1
10
85.623375
20
903.635234
11
83.823464
21
905.816712
0
LINE
8
Layer 1
10
83.823464
20
905.816712
11
82.464416
21
908.320513
0
LINE
8
Layer 1
10
82.464416
20
908.320513
11
81.605503
21
911.087367
0
LINE
8
Layer 1
10
81.605503
20
911.087367
11
81.382121
21
912.550915
0
LINE
8
Layer 1
10
81.382121
20
912.550915
11
81.306000
21
914.058000
0
LINE
8
Layer 1
10
96.046200
20
899.318000
11
300.897000
21
899.318000
0
LINE
8
Layer 1
10
300.897000
20
899.318000
11
303.786099
21
899.032154
0
LINE
8
Layer 1
10
303.786099
20
899.032154
11
306.537830
21
898.195969
0
LINE
8
Layer 1
10
306.537830
20
898.195969
11
309.074870
21
896.841473
0
LINE
8
Layer 1
10
309.074870
20
896.841473
11
311.319895
21
895.000695
0
LINE
8
Layer 1
10
311.319895
20
895.000695
11
313.160673
21
892.755670
0
LINE
8
Layer 1
10
313.160673
20
892.755670
11
314.515169
21
890.218630
0
LINE
8
Layer 1
10
314.515169
20
890.218630
11
315.351354
21
887.466899
0
LINE
8
Layer 1
10
315.351354
20
887.466899
11
315.637200
21
884.577800
0
LINE
8
Layer 1
10
315.637000
20
884.578000
11
315.637000
21
883.822100
0
LINE
8
Layer 1
10
315.637000
20
883.822000
11
315.560880
21
882.314929
0
LINE
8
Layer 1
10
315.560880
20
882.314929
11
315.337502
21
880.851394
0
LINE
8
Layer 1
10
315.337502
20
880.851394
11
314.478605
21
878.084562
0
LINE
8
Layer 1
10
314.478605
20
878.084562
11
313.119579
21
875.580775
0
LINE
8
Layer 1
10
313.119579
20
875.580775
11
311.319695
21
873.399305
0
LINE
8
Layer 1
10
311.319695
20
873.399305
11
309.138225
21
871.599421
0
LINE
8
Layer 1
10
309.138225
20
871.599421
11
306.634438
21
870.240395
0
LINE
8
Layer 1
10
306.634438
20
870.240395
11
303.867606
21
869.381498
0
LINE
8
Layer 1
10
303.867606
20
869.381498
11
302.404071
21
869.158120
0
LINE
8
Layer 1
10
302.404071
20
869.158120
11
300.897000
21
869.082000
0
LINE
8
Layer 1
10
300.897000
20
869.082000
11
96.046200
21
869.082000
0
LINE
8
Layer 1
10
81.306000
20
854.342000
11
81.591846
21
857.231099
0
LINE
8
Layer 1
10
81.591846
20
857.231099
11
82.428031
21
859.982830
0
LINE
8
Layer 1
10
82.428031
20
859.982830
11
83.782527
21
862.519870
0
LINE
8
Layer 1
10
83.782527
20
862.519870
11
85.623305
21
864.764895
0
LINE
8
Layer 1
10
85.623305
20
864.764895
11
87.868330
21
866.605673
0
LINE
8
Layer 1
10
87.868330
20
866.605673
11
90.405370
21
867.960169
0
LINE
8
Layer 1
10
90.405370
20
867.960169
11
93.157101
21
868.796354
0
LINE
8
Layer 1
10
93.157101
20
868.796354
11
96.046200
21
869.082200
0
LINE
8
Layer 1
10
372.330000
20
723.737000
11
372.549881
21
725.959381
0
LINE
8
Layer 1
10
372.549881
20
725.959381
11
373.193100
21
728.076094
0
LINE
8
Layer 1
10
373.193100
20
728.076094
11
374.235018
21
730.027661
0
LINE
8
Layer 1
10
374.235018
20
730.027661
11
375.650999
21
731.754601
0
LINE
8
Layer 1
10
375.650999
20
731.754601
11
377.377939
21
733.170582
0
LINE
8
Layer 1
10
377.377939
20
733.170582
11
379.329506
21
734.212500
0
LINE
8
Layer 1
10
379.329506
20
734.212500
11
381.446219
21
734.855719
0
LINE
8
Layer 1
10
381.446219
20
734.855719
11
383.668600
21
735.075600
0
LINE
8
Layer 1
10
372.330000
20
699.170000
11
372.330000
21
723.736900
0
LINE
8
Layer 1
10
372.330000
20
699.170000
11
372.110177
21
696.947512
0
LINE
8
Layer 1
10
372.110177
20
696.947512
11
371.466977
21
694.830690
0
LINE
8
Layer 1
10
371.466977
20
694.830690
11
370.425038
21
692.879023
0
LINE
8
Layer 1
10
370.425038
20
692.879023
11
369.009001
21
691.151999
0
LINE
8
Layer 1
10
369.009001
20
691.151999
11
367.281977
21
689.735962
0
LINE
8
Layer 1
10
367.281977
20
689.735962
11
365.330310
21
688.694023
0
LINE
8
Layer 1
10
365.330310
20
688.694023
11
363.213488
21
688.050823
0
LINE
8
Layer 1
10
363.213488
20
688.050823
11
360.991000
21
687.831000
0
LINE
8
Layer 1
10
345.873000
20
687.831000
11
360.991100
21
687.831000
0
LINE
8
Layer 1
10
308.078000
20
650.036000
11
308.262945
21
653.771601
0
LINE
8
Layer 1
10
308.262945
20
653.771601
11
308.810936
21
657.443929
0
LINE
8
Layer 1
10
308.810936
20
657.443929
11
309.711709
21
661.028202
0
LINE
8
Layer 1
10
309.711709
20
661.028202
11
310.954996
21
664.499635
0
LINE
8
Layer 1
10
310.954996
20
664.499635
11
312.530533
21
667.833446
0
LINE
8
Layer 1
10
312.530533
20
667.833446
11
314.428054
21
671.004852
0
LINE
8
Layer 1
10
314.428054
20
671.004852
11
316.637294
21
673.989068
0
LINE
8
Layer 1
10
316.637294
20
673.989068
11
319.147987
21
676.761313
0
LINE
8
Layer 1
10
319.147987
20
676.761313
11
321.920232
21
679.272006
0
LINE
8
Layer 1
10
321.920232
20
679.272006
11
324.904448
21
681.481246
0
LINE
8
Layer 1
10
324.904448
20
681.481246
11
328.075854
21
683.378767
0
LINE
8
Layer 1
10
328.075854
20
683.378767
11
331.409665
21
684.954304
0
LINE
8
Layer 1
10
331.409665
20
684.954304
11
334.881098
21
686.197591
0
LINE
8
Layer 1
10
334.881098
20
686.197591
11
338.465371
21
687.098364
0
LINE
8
Layer 1
10
338.465371
20
687.098364
11
342.137699
21
687.646355
0
LINE
8
Layer 1
10
342.137699
20
687.646355
11
345.873300
21
687.831300
0
LINE
8
Layer 1
10
308.078000
20
650.036000
11
308.078000
21
574.446000
0
LINE
8
Layer 1
10
345.873000
20
536.650000
11
342.137375
21
536.834977
0
LINE
8
Layer 1
10
342.137375
20
536.834977
11
338.465027
21
537.383005
0
LINE
8
Layer 1
10
338.465027
20
537.383005
11
334.880739
21
538.283818
0
LINE
8
Layer 1
10
334.880739
20
538.283818
11
331.409295
21
539.527149
0
LINE
8
Layer 1
10
331.409295
20
539.527149
11
328.075479
21
541.102733
0
LINE
8
Layer 1
10
328.075479
20
541.102733
11
324.904075
21
543.000304
0
LINE
8
Layer 1
10
324.904075
20
543.000304
11
321.919865
21
545.209595
0
LINE
8
Layer 1
10
321.919865
20
545.209595
11
319.147634
21
547.720341
0
LINE
8
Layer 1
10
319.147634
20
547.720341
11
316.636961
21
550.492638
0
LINE
8
Layer 1
10
316.636961
20
550.492638
11
314.427749
21
553.476907
0
LINE
8
Layer 1
10
314.427749
20
553.476907
11
312.530262
21
556.648362
0
LINE
8
Layer 1
10
312.530262
20
556.648362
11
310.954766
21
559.982219
0
LINE
8
Layer 1
10
310.954766
20
559.982219
11
309.711527
21
563.453696
0
LINE
8
Layer 1
10
309.711527
20
563.453696
11
308.810809
21
567.038007
0
LINE
8
Layer 1
10
308.810809
20
567.038007
11
308.262878
21
570.710370
0
LINE
8
Layer 1
10
308.262878
20
570.710370
11
308.078000
21
574.446000
0
LINE
8
Layer 1
10
345.873000
20
536.650000
11
360.991100
21
536.650000
0
LINE
8
Layer 1
10
360.991000
20
536.650000
11
363.213381
21
536.430119
0
LINE
8
Layer 1
10
363.213381
20
536.430119
11
365.330094
21
535.786900
0
LINE
8
Layer 1
10
365.330094
20
535.786900
11
367.281661
21
534.744982
0
LINE
8
Layer 1
10
367.281661
20
534.744982
11
369.008601
21
533.329001
0
LINE
8
Layer 1
10
369.008601
20
533.329001
11
370.424582
21
531.602061
0
LINE
8
Layer 1
10
370.424582
20
531.602061
11
371.466500
21
529.650494
0
LINE
8
Layer 1
10
371.466500
20
529.650494
11
372.109719
21
527.533781
0
LINE
8
Layer 1
10
372.109719
20
527.533781
11
372.329600
21
525.311400
0
LINE
8
Layer 1
10
372.330000
20
500.745000
11
372.330000
21
525.311900
0
LINE
8
Layer 1
10
383.668000
20
489.406000
11
381.445619
21
489.625881
0
LINE
8
Layer 1
10
381.445619
20
489.625881
11
379.328906
21
490.269100
0
LINE
8
Layer 1
10
379.328906
20
490.269100
11
377.377339
21
491.311018
0
LINE
8
Layer 1
10
377.377339
20
491.311018
11
375.650399
21
492.726999
0
LINE
8
Layer 1
10
375.650399
20
492.726999
11
374.234418
21
494.453939
0
LINE
8
Layer 1
10
374.234418
20
494.453939
11
373.192500
21
496.405506
0
LINE
8
Layer 1
10
373.192500
20
496.405506
11
372.549281
21
498.522219
0
LINE
8
Layer 1
10
372.549281
20
498.522219
11
372.329400
21
500.744600
0
LINE
8
Layer 1
10
383.668000
20
489.406000
11
404.288200
21
489.406000
0
LINE
8
Layer 1
10
415.627000
20
500.745000
11
415.407177
21
498.522512
0
LINE
8
Layer 1
10
415.407177
20
498.522512
11
414.763977
21
496.405690
0
LINE
8
Layer 1
10
414.763977
20
496.405690
11
413.722038
21
494.454023
0
LINE
8
Layer 1
10
413.722038
20
494.454023
11
412.306001
21
492.726999
0
LINE
8
Layer 1
10
412.306001
20
492.726999
11
410.578977
21
491.310962
0
LINE
8
Layer 1
10
410.578977
20
491.310962
11
408.627310
21
490.269023
0
LINE
8
Layer 1
10
408.627310
20
490.269023
11
406.510488
21
489.625823
0
LINE
8
Layer 1
10
406.510488
20
489.625823
11
404.288000
21
489.406000
0
LINE
8
Layer 1
10
415.627000
20
500.745000
11
415.627000
21
525.311900
0
LINE
8
Layer 1
10
415.627000
20
525.312000
11
415.846881
21
527.534381
0
LINE
8
Layer 1
10
415.846881
20
527.534381
11
416.490100
21
529.651094
0
LINE
8
Layer 1
10
416.490100
20
529.651094
11
417.532018
21
531.602661
0
LINE
8
Layer 1
10
417.532018
20
531.602661
11
418.947999
21
533.329601
0
LINE
8
Layer 1
10
418.947999
20
533.329601
11
420.674939
21
534.745582
0
LINE
8
Layer 1
10
420.674939
20
534.745582
11
422.626506
21
535.787500
0
LINE
8
Layer 1
10
422.626506
20
535.787500
11
424.743219
21
536.430719
0
LINE
8
Layer 1
10
424.743219
20
536.430719
11
426.965600
21
536.650600
0
LINE
8
Layer 1
10
426.966000
20
536.650000
11
430.745530
21
536.650000
0
LINE
8
Layer 1
10
430.745000
20
687.831000
11
434.630301
21
687.726538
0
LINE
8
Layer 1
10
434.630301
20
687.726538
11
438.464398
21
687.429030
0
LINE
8
Layer 1
10
438.464398
20
687.429030
11
442.242561
21
686.943214
0
LINE
8
Layer 1
10
442.242561
20
686.943214
11
445.960059
21
686.273829
0
LINE
8
Layer 1
10
445.960059
20
686.273829
11
449.612162
21
685.425612
0
LINE
8
Layer 1
10
449.612162
20
685.425612
11
453.194137
21
684.403304
0
LINE
8
Layer 1
10
453.194137
20
684.403304
11
456.701255
21
683.211642
0
LINE
8
Layer 1
10
456.701255
20
683.211642
11
460.128784
21
681.855365
0
LINE
8
Layer 1
10
460.128784
20
681.855365
11
463.471994
21
680.339212
0
LINE
8
Layer 1
10
463.471994
20
680.339212
11
466.726153
21
678.667920
0
LINE
8
Layer 1
10
466.726153
20
678.667920
11
469.886531
21
676.846230
0
LINE
8
Layer 1
10
469.886531
20
676.846230
11
472.948397
21
674.878878
0
LINE
8
Layer 1
10
472.948397
20
674.878878
11
475.907021
21
672.770605
0
LINE
8
Layer 1
10
475.907021
20
672.770605
11
478.757670
21
670.526148
0
LINE
8
Layer 1
10
478.757670
20
670.526148
11
481.495615
21
668.150245
0
LINE
8
Layer 1
10
481.495615
20
668.150245
11
484.116124
21
665.647637
0
LINE
8
Layer 1
10
484.116124
20
665.647637
11
486.614467
21
663.023060
0
LINE
8
Layer 1
10
486.614467
20
663.023060
11
488.985912
21
660.281255
0
LINE
8
Layer 1
10
488.985912
20
660.281255
11
491.225729
21
657.426958
0
LINE
8
Layer 1
10
491.225729
20
657.426958
11
493.329188
21
654.464909
0
LINE
8
Layer 1
10
493.329188
20
654.464909
11
495.291556
21
651.399847
0
LINE
8
Layer 1
10
495.291556
20
651.399847
11
497.108104
21
648.236510
0
LINE
8
Layer 1
10
497.108104
20
648.236510
11
498.774100
21
644.979636
0
LINE
8
Layer 1
10
498.774100
20
644.979636
11
500.284813
21
641.633965
0
LINE
8
Layer 1
10
500.284813
20
641.633965
11
501.635513
21
638.204234
0
LINE
8
Layer 1
10
501.635513
20
638.204234
11
502.821469
21
634.695183
0
LINE
8
Layer 1
10
502.821469
20
634.695183
11
503.837949
21
631.111549
0
LINE
8
Layer 1
10
503.837949
20
631.111549
11
504.680224
21
627.458072
0
LINE
8
Layer 1
10
504.680224
20
627.458072
11
505.343561
21
623.739490
0
LINE
8
Layer 1
10
505.343561
20
623.739490
11
505.823231
21
619.960542
0
LINE
8
Layer 1
10
505.823231
20
619.960542
11
506.114503
21
616.125966
0
LINE
8
Layer 1
10
506.114503
20
616.125966
11
506.212644
21
612.240500
0
LINE
8
Layer 1
10
506.212644
20
612.240500
11
506.114503
21
608.355034
0
LINE
8
Layer 1
10
506.114503
20
608.355034
11
505.823231
21
604.520458
0
LINE
8
Layer 1
10
505.823231
20
604.520458
11
505.343561
21
600.741510
0
LINE
8
Layer 1
10
505.343561
20
600.741510
11
504.680224
21
597.022928
0
LINE
8
Layer 1
10
504.680224
20
597.022928
11
503.837949
21
593.369451
0
LINE
8
Layer 1
10
503.837949
20
593.369451
11
502.821469
21
589.785817
0
LINE
8
Layer 1
10
502.821469
20
589.785817
11
501.635513
21
586.276766
0
LINE
8
Layer 1
10
501.635513
20
586.276766
11
500.284813
21
582.847035
0
LINE
8
Layer 1
10
500.284813
20
582.847035
11
498.774100
21
579.501364
0
LINE
8
Layer 1
10
498.774100
20
579.501364
11
497.108104
21
576.244490
0
LINE
8
Layer 1
10
497.108104
20
576.244490
11
495.291556
21
573.081153
0
LINE
8
Layer 1
10
495.291556
20
573.081153
11
493.329188
21
570.016091
0
LINE
8
Layer 1
10
493.329188
20
570.016091
11
491.225729
21
567.054042
0
LINE
8
Layer 1
10
491.225729
20
567.054042
11
488.985912
21
564.199745
0
LINE
8
Layer 1
10
488.985912
20
564.199745
11
486.614467
21
561.457940
0
LINE
8
Layer 1
10
486.614467
20
561.457940
11
484.116124
21
558.833363
0
LINE
8
Layer 1
10
484.116124
20
558.833363
11
481.495615
21
556.330755
0
LINE
8
Layer 1
10
481.495615
20
556.330755
11
478.757670
21
553.954852
0
LINE
8
Layer 1
10
478.757670
20
553.954852
11
475.907021
21
551.710395
0
LINE
8
Layer 1
10
475.907021
20
551.710395
11
472.948397
21
549.602122
0
LINE
8
Layer 1
10
472.948397
20
549.602122
11
469.886531
21
547.634770
0
LINE
8
Layer 1
10
469.886531
20
547.634770
11
466.726153
21
545.813080
0
LINE
8
Layer 1
10
466.726153
20
545.813080
11
463.471994
21
544.141788
0
LINE
8
Layer 1
10
463.471994
20
544.141788
11
460.128784
21
542.625635
0
LINE
8
Layer 1
10
460.128784
20
542.625635
11
456.701255
21
541.269358
0
LINE
8
Layer 1
10
456.701255
20
541.269358
11
453.194137
21
540.077696
0
LINE
8
Layer 1
10
453.194137
20
540.077696
11
449.612162
21
539.055388
0
LINE
8
Layer 1
10
449.612162
20
539.055388
11
445.960059
21
538.207171
0
LINE
8
Layer 1
10
445.960059
20
538.207171
11
442.242561
21
537.537786
0
LINE
8
Layer 1
10
442.242561
20
537.537786
11
438.464398
21
537.051970
0
LINE
8
Layer 1
10
438.464398
20
537.051970
11
434.630301
21
536.754462
0
LINE
8
Layer 1
10
434.630301
20
536.754462
11
430.745000
21
536.650000
0
LINE
8
Layer 1
10
426.966000
20
687.831000
11
430.745530
21
687.831000
0
LINE
8
Layer 1
10
426.966000
20
687.831000
11
424.743619
21
688.050881
0
LINE
8
Layer 1
10
424.743619
20
688.050881
11
422.626906
21
688.694100
0
LINE
8
Layer 1
10
422.626906
20
688.694100
11
420.675339
21
689.736018
0
LINE
8
Layer 1
10
420.675339
20
689.736018
11
418.948399
21
691.151999
0
LINE
8
Layer 1
10
418.948399
20
691.151999
11
417.532418
21
692.878939
0
LINE
8
Layer 1
10
417.532418
20
692.878939
11
416.490500
21
694.830506
0
LINE
8
Layer 1
10
416.490500
20
694.830506
11
415.847281
21
696.947219
0
LINE
8
Layer 1
10
415.847281
20
696.947219
11
415.627400
21
699.169600
0
LINE
8
Layer 1
10
415.627000
20
699.170000
11
415.627000
21
723.736900
0
LINE
8
Layer 1
10
404.288000
20
735.076000
11
406.510381
21
734.856119
0
LINE
8
Layer 1
10
406.510381
20
734.856119
11
408.627094
21
734.212900
0
LINE
8
Layer 1
10
408.627094
20
734.212900
11
410.578661
21
733.170982
0
LINE
8
Layer 1
10
410.578661
20
733.170982
11
412.305601
21
731.755001
0
LINE
8
Layer 1
10
412.305601
20
731.755001
11
413.721582
21
730.028061
0
LINE
8
Layer 1
10
413.721582
20
730.028061
11
414.763500
21
728.076494
0
LINE
8
Layer 1
10
414.763500
20
728.076494
11
415.406719
21
725.959781
0
LINE
8
Layer 1
10
415.406719
20
725.959781
11
415.626600
21
723.737400
0
LINE
8
Layer 1
10
383.668000
20
735.076000
11
404.288200
21
735.076000
0
LINE
8
Layer 1
10
390.199000
20
735.076000
11
390.199000
21
761.532700
0
LINE
8
Layer 1
10
390.199000
20
462.950000
11
390.199000
21
489.406700
0
LINE
8
Layer 1
10
81.306000
20
456.419000
11
383.668000
21
456.419000
0
LINE
8
Layer 1
10
383.668000
20
768.063000
11
81.306000
21
768.063000
0
LINE
8
Layer 1
10
-63.300300
20
521.859000
11
-63.300300
21
457.607000
0
LINE
8
Layer 1
10
-63.300300
20
457.607000
11
-121.716000
21
457.607000
0
LINE
8
Layer 1
10
-121.716000
20
457.607000
11
-121.716000
21
431.150300
0
LINE
8
Layer 1
10
-121.716000
20
431.150000
11
-63.300400
21
431.150000
0
LINE
8
Layer 1
10
-63.300300
20
431.150000
11
-63.300300
21
353.670000
0
LINE
8
Layer 1
10
-63.300300
20
353.670000
11
231.503000
21
353.670000
0
LINE
8
Layer 1
10
231.503000
20
353.670000
11
231.503000
21
431.150300
0
LINE
8
Layer 1
10
289.918000
20
431.150000
11
231.503000
21
431.150000
0
LINE
8
Layer 1
10
289.918000
20
457.607000
11
289.918000
21
431.150300
0
LINE
8
Layer 1
10
231.503000
20
457.607000
11
289.918600
21
457.607000
0
LINE
8
Layer 1
10
231.503000
20
457.607000
11
231.503000
21
521.859000
0
LINE
8
Layer 1
10
289.918000
20
521.859000
11
231.503000
21
521.859000
0
LINE
8
Layer 1
10
289.918000
20
548.316000
11
289.918000
21
521.859000
0
LINE
8
Layer 1
10
231.503000
20
548.316000
11
289.918600
21
548.316000
0
LINE
8
Layer 1
10
231.503000
20
548.316000
11
231.503000
21
644.694000
0
LINE
8
Layer 1
10
231.503000
20
644.694000
11
-63.300300
21
644.694000
0
LINE
8
Layer 1
10
-63.300300
20
644.694000
11
-63.300300
21
548.316000
0
LINE
8
Layer 1
10
-63.300300
20
548.316000
11
-121.716000
21
548.316000
0
LINE
8
Layer 1
10
-121.716000
20
548.316000
11
-121.716000
21
521.859000
0
LINE
8
Layer 1
10
-121.716000
20
521.859000
11
-63.300400
21
521.859000
0
LINE
8
Layer 1
10
-96.287600
20
431.150000
11
-96.287600
21
457.606700
0
LINE
8
Layer 1
10
-96.287600
20
521.859000
11
-96.287600
21
548.315700
0
LINE
8
Layer 1
10
264.490000
20
521.859000
11
264.490000
21
548.315700
0
LINE
8
Layer 1
10
264.490000
20
431.150000
11
264.490000
21
457.606700
 0 
ENDSEC
 0 
EOF