<?xml version="1.0" encoding="UTF-8" standalone="no"?>
<svg
   xmlns:dc="http://purl.org/dc/elements/1.1/"
   xmlns:cc="http://creativecommons.org/ns#"
   xmlns:rdf="http://www.w3.org/1999/02/22-rdf-syntax-ns#"
   xmlns:svg="http://www.w3.org/2000/svg"
   xmlns="http://www.w3.org/2000/svg"
   xmlns:sodipodi="http://sodipodi.sourceforge.net/DTD/sodipodi-0.dtd"
   xmlns:inkscape="http://www.inkscape.org/namespaces/inkscape"
   inkscape:version="1.0 (4035a4fb49, 2020-05-01)"
   sodipodi:docname="CutBoite.svg"
   id="svg1347"
   version="1.1"
   height="607.44708"
   width="1065.5498"
   viewBox="0 0 1065.5498 607.4471">
  <metadata
     id="metadata1351">
    <rdf:RDF>
      <cc:Work
         rdf:about="">
        <dc:format>image/svg+xml</dc:format>
        <dc:type
           rdf:resource="http://purl.org/dc/dcmitype/StillImage" />
        <dc:title></dc:title>
      </cc:Work>
    </rdf:RDF>
  </metadata>
  <sodipodi:namedview
     inkscape:current-layer="g1343"
     inkscape:window-maximized="1"
     inkscape:window-y="161"
     inkscape:window-x="1072"
     inkscape:cy="385.46871"
     inkscape:cx="493.44971"
     inkscape:zoom="0.85582587"
     fit-margin-bottom="0"
     fit-margin-right="0"
     fit-margin-left="0"
     fit-margin-top="0"
     showgrid="false"
     id="namedview1349"
     inkscape:window-height="1017"
     inkscape:window-width="1920"
     inkscape:pageshadow="2"
     inkscape:pageopacity="0"
     guidetolerance="10"
     gridtolerance="10"
     objecttolerance="10"
     borderopacity="1"
     bordercolor="#666666"
     pagecolor="#ffffff" />
  <defs
     id="defs1161">
    <marker
       style="overflow:visible"
       refY="0"
       refX="0"
       orient="auto"
       id="DistanceX">
      <path
         id="path1149"
         style="stroke:#000000;stroke-width:0.5"
         d="M 3,-3 -3,3 M 0,-5 V 5" />
    </marker>
    <pattern
       y="0"
       x="0"
       height="8"
       width="8"
       patternUnits="userSpaceOnUse"
       id="Hatch">
      <path
         id="path1152"
         linecap="square"
         stroke-width="0.25"
         stroke="#000000"
         d="M8 4 l-4,4" />
      <path
         id="path1154"
         linecap="square"
         stroke-width="0.25"
         stroke="#000000"
         d="M6 2 l-4,4" />
      <path
         id="path1156"
         linecap="square"
         stroke-width="0.25"
         stroke="#000000"
         d="M4 0 l-4,4" />
    </pattern>
    <symbol
       id="*MODEL_SPACE" />
    <symbol
       id="*PAPER_SPACE" />
  </defs>
  <g
     transform="translate(-12.22687,-20.945277)"
     id="g1163"
     inkscape:label="0"
     inkscape:groupmode="layer" />
  <g
     transform="translate(-12.22687,-20.945277)"
     id="g1165"
     inkscape:label="none"
     inkscape:groupmode="layer" />
  <g
     transform="translate(-12.22687,-20.945277)"
     id="g1343"
     inkscape:label="Unfold_Sketch"
     inkscape:groupmode="layer">
    <g
       transform="rotate(90,588.00042,528.13965)"
       id="g2008">
      <path
         d="M 81.306047,854.34157 V 370.14025"
         style="fill:none;stroke:#ff0000"
         id="path1167" />
      <path
         d="M 96.046205,355.40009 A 14.740157,14.740157 0 0 0 81.306047,370.14025"
         style="fill:none;stroke:#ff0000"
         id="path1169" />
      <path
         d="M 96.046205,355.40009 H 300.8966"
         style="fill:none;stroke:#ff0000"
         id="path1171" />
      <path
         d="m 300.8966,355.40009 a 14.740157,14.740157 0 0 0 14.74016,-14.74016"
         style="fill:none;stroke:#ff0000"
         id="path1173" />
      <path
         d="m 315.63676,340.65993 v -0.7559"
         style="fill:none;stroke:#ff0000"
         id="path1175" />
      <path
         d="M 315.63676,339.90403 A 14.740157,14.740157 0 0 0 300.8966,325.16387"
         style="fill:none;stroke:#ff0000"
         id="path1177" />
      <path
         d="M 300.8966,325.16387 H 96.046205"
         style="fill:none;stroke:#ff0000"
         id="path1179" />
      <path
         d="m 81.306047,310.42371 a 14.740157,14.740157 0 0 0 14.740158,14.74016"
         style="fill:none;stroke:#ff0000"
         id="path1181" />
      <path
         d="M 81.306047,310.42371 V 279.43159"
         style="fill:none;stroke:#ff0000"
         id="path1183" />
      <path
         d="M 96.046205,264.69143 A 14.740157,14.740157 0 0 0 81.306047,279.43159"
         style="fill:none;stroke:#ff0000"
         id="path1185" />
      <path
         d="M 96.046205,264.69143 H 300.8966"
         style="fill:none;stroke:#ff0000"
         id="path1187" />
      <path
         d="m 300.8966,264.69143 a 14.740157,14.740157 0 0 0 14.74016,-14.74016"
         style="fill:none;stroke:#ff0000"
         id="path1189" />
      <path
         d="m 315.63676,249.95127 v -0.7559"
         style="fill:none;stroke:#ff0000"
         id="path1191" />
      <path
         d="M 315.63676,249.19537 A 14.740157,14.740157 0 0 0 300.8966,234.45521"
         style="fill:none;stroke:#ff0000"
         id="path1193" />
      <path
         d="M 300.8966,234.45521 H 96.046205"
         style="fill:none;stroke:#ff0000"
         id="path1195" />
      <path
         d="m 81.306047,219.7143 a 14.740157,14.740157 0 0 0 14.740158,14.74015"
         style="fill:none;stroke:#ff0000"
         id="path1197" />
      <path
         d="M 81.306047,219.7143 V 130.13949"
         style="fill:none;stroke:#ff0000"
         id="path1199" />
      <path
         d="m 90.376913,121.06863 a 9.070866,9.070866 0 0 0 -9.070866,9.07086"
         style="fill:none;stroke:#ff0000"
         id="path1201" />
      <path
         d="M 90.376913,121.06863 H 125.14857"
         style="fill:none;stroke:#ff0000"
         id="path1203" />
      <path
         d="m 134.21943,130.13949 a 9.070866,9.070866 0 0 0 -9.07086,-9.07086"
         style="fill:none;stroke:#ff0000"
         id="path1205" />
      <path
         d="m 134.21943,130.8954 v -0.75591"
         style="fill:none;stroke:#ff0000"
         id="path1207" />
      <path
         d="m 125.14857,139.96626 a 9.070866,9.070866 0 0 0 9.07086,-9.07086"
         style="fill:none;stroke:#ff0000"
         id="path1209" />
      <path
         d="m 109.27455,139.96626 h 15.87402"
         style="fill:none;stroke:#ff0000"
         id="path1211" />
      <path
         d="m 109.27455,139.96626 a 9.070866,9.070866 0 0 0 -9.07087,9.07087"
         style="fill:none;stroke:#ff0000"
         id="path1213" />
      <path
         d="m 100.20368,149.79304 v -0.75591"
         style="fill:none;stroke:#ff0000"
         id="path1215" />
      <path
         d="m 100.20368,149.79304 a 9.070866,9.070866 0 0 0 9.07087,9.07086"
         style="fill:none;stroke:#ff0000"
         id="path1217" />
      <path
         d="M 372.32967,158.8639 H 109.27455"
         style="fill:none;stroke:#ff0000"
         id="path1219" />
      <path
         d="M 383.66825,170.20248 A 11.338583,11.338583 0 0 0 372.32967,158.8639"
         style="fill:none;stroke:#ff0000"
         id="path1221" />
      <path
         d="M 383.66825,170.20248 V 462.94957"
         style="fill:none;stroke:#ff0000"
         id="path1223" />
      <path
         d="M 383.66825,462.94957 H 676.41458"
         style="fill:none;stroke:#ff0000"
         id="path1225" />
      <path
         d="M 687.75316,474.28815 A 11.338583,11.338583 0 0 0 676.41458,462.94957"
         style="fill:none;stroke:#ff0000"
         id="path1227" />
      <path
         d="M 687.75316,474.28815 V 750.19367"
         style="fill:none;stroke:#ff0000"
         id="path1229" />
      <path
         d="m 676.41458,761.53225 a 11.338583,11.338583 0 0 0 11.33858,-11.33858"
         style="fill:none;stroke:#ff0000"
         id="path1231" />
      <path
         d="M 383.66825,761.53225 H 676.41458"
         style="fill:none;stroke:#ff0000"
         id="path1233" />
      <path
         d="M 383.66825,761.53225 V 1054.2793"
         style="fill:none;stroke:#ff0000"
         id="path1235" />
      <path
         d="m 372.32967,1065.6179 a 11.338583,11.338583 0 0 0 11.33858,-11.3386"
         style="fill:none;stroke:#ff0000"
         id="path1237" />
      <path
         d="M 109.27455,1065.6179 H 372.32967"
         style="fill:none;stroke:#ff0000"
         id="path1239" />
      <path
         d="m 109.27455,1065.6179 a 9.070866,9.070866 0 0 0 -9.07087,9.0709"
         style="fill:none;stroke:#ff0000"
         id="path1241" />
      <path
         d="m 100.20368,1075.4447 v -0.7559"
         style="fill:none;stroke:#ff0000"
         id="path1243" />
      <path
         d="m 100.20368,1075.4447 a 9.070866,9.070866 0 0 0 9.07087,9.0709"
         style="fill:none;stroke:#ff0000"
         id="path1245" />
      <path
         d="M 125.14857,1084.5156 H 109.27455"
         style="fill:none;stroke:#ff0000"
         id="path1247" />
      <path
         d="m 134.21943,1093.5864 a 9.070866,9.070866 0 0 0 -9.07086,-9.0708"
         style="fill:none;stroke:#ff0000"
         id="path1249" />
      <path
         d="m 134.21943,1094.3423 v -0.7559"
         style="fill:none;stroke:#ff0000"
         id="path1251" />
      <path
         d="m 125.14857,1103.4132 a 9.070866,9.070866 0 0 0 9.07086,-9.0709"
         style="fill:none;stroke:#ff0000"
         id="path1253" />
      <path
         d="M 125.14857,1103.4132 H 90.376913"
         style="fill:none;stroke:#ff0000"
         id="path1255" />
      <path
         d="m 81.306047,1094.3423 a 9.070866,9.070866 0 0 0 9.070866,9.0709"
         style="fill:none;stroke:#ff0000"
         id="path1257" />
      <path
         d="m 81.306047,1094.3423 v -89.5748"
         style="fill:none;stroke:#ff0000"
         id="path1259" />
      <path
         d="M 96.046205,990.02737 A 14.740157,14.740157 0 0 0 81.306047,1004.7675"
         style="fill:none;stroke:#ff0000"
         id="path1261" />
      <path
         d="M 96.046205,990.02661 H 300.8966"
         style="fill:none;stroke:#ff0000"
         id="path1263" />
      <path
         d="m 300.8966,990.02661 a 14.740157,14.740157 0 0 0 14.74016,-14.74016"
         style="fill:none;stroke:#ff0000"
         id="path1265" />
      <path
         d="m 315.63676,975.28645 v -0.7559"
         style="fill:none;stroke:#ff0000"
         id="path1267" />
      <path
         d="M 315.63676,974.53055 A 14.740157,14.740157 0 0 0 300.8966,959.79039"
         style="fill:none;stroke:#ff0000"
         id="path1269" />
      <path
         d="M 300.8966,959.79039 H 96.046205"
         style="fill:none;stroke:#ff0000"
         id="path1271" />
      <path
         d="m 81.306047,945.05023 a 14.740157,14.740157 0 0 0 14.740158,14.74016"
         style="fill:none;stroke:#ff0000"
         id="path1273" />
      <path
         d="M 81.306047,945.05023 V 914.05811"
         style="fill:none;stroke:#ff0000"
         id="path1275" />
      <path
         d="M 96.046205,899.31795 A 14.740157,14.740157 0 0 0 81.306047,914.05811"
         style="fill:none;stroke:#ff0000"
         id="path1277" />
      <path
         d="M 96.046205,899.31795 H 300.8966"
         style="fill:none;stroke:#ff0000"
         id="path1279" />
      <path
         d="m 300.8966,899.31795 a 14.740157,14.740157 0 0 0 14.74016,-14.74016"
         style="fill:none;stroke:#ff0000"
         id="path1281" />
      <path
         d="m 315.63676,884.57779 v -0.7559"
         style="fill:none;stroke:#ff0000"
         id="path1283" />
      <path
         d="M 315.63676,883.82189 A 14.740157,14.740157 0 0 0 300.8966,869.08173"
         style="fill:none;stroke:#ff0000"
         id="path1285" />
      <path
         d="M 300.8966,869.08173 H 96.046205"
         style="fill:none;stroke:#ff0000"
         id="path1287" />
      <path
         d="m 81.306047,854.34157 a 14.740157,14.740157 0 0 0 14.740158,14.74016"
         style="fill:none;stroke:#ff0000"
         id="path1289" />
      <path
         d="m 372.32967,723.73697 a 11.338583,11.338583 0 0 0 11.33858,11.33859"
         style="fill:none;stroke:#ff0000"
         id="path1291" />
      <path
         d="m 372.32967,699.17004 v 24.56693"
         style="fill:none;stroke:#ff0000"
         id="path1293" />
      <path
         d="M 372.32967,699.17004 A 11.338583,11.338583 0 0 0 360.99109,687.83146"
         style="fill:none;stroke:#ff0000"
         id="path1295" />
      <path
         d="m 345.87298,687.83146 h 15.11811"
         style="fill:none;stroke:#ff0000"
         id="path1297" />
      <path
         d="m 308.0777,650.03619 a 37.795276,37.795276 0 0 0 37.79528,37.79527"
         style="fill:none;stroke:#ff0000"
         id="path1299" />
      <path
         d="M 308.0777,650.03619 V 574.44563"
         style="fill:none;stroke:#ff0000"
         id="path1301" />
      <path
         d="M 345.87298,536.65036 A 37.795276,37.795276 0 0 0 308.0777,574.44563"
         style="fill:none;stroke:#ff0000"
         id="path1303" />
      <path
         d="m 345.87298,536.65036 h 15.11811"
         style="fill:none;stroke:#ff0000"
         id="path1305" />
      <path
         d="m 360.99109,536.65036 a 11.338583,11.338583 0 0 0 11.33858,-11.33858"
         style="fill:none;stroke:#ff0000"
         id="path1307" />
      <path
         d="m 372.32967,500.74485 v 24.56693"
         style="fill:none;stroke:#ff0000"
         id="path1309" />
      <path
         d="m 383.66825,489.40626 a 11.338583,11.338583 0 0 0 -11.33858,11.33859"
         style="fill:none;stroke:#ff0000"
         id="path1311" />
      <path
         d="m 383.66825,489.40626 h 20.62016"
         style="fill:none;stroke:#ff0000"
         id="path1313" />
      <path
         d="M 415.62699,500.74485 A 11.338583,11.338583 0 0 0 404.28841,489.40626"
         style="fill:none;stroke:#ff0000"
         id="path1315" />
      <path
         d="m 415.62699,500.74485 v 24.56693"
         style="fill:none;stroke:#ff0000"
         id="path1317" />
      <path
         d="m 415.62718,525.31178 a 11.338583,11.338583 0 0 0 11.33858,11.33858"
         style="fill:none;stroke:#ff0000"
         id="path1319" />
      <path
         d="m 426.96576,536.65036 h 3.77953"
         style="fill:none;stroke:#ff0000"
         id="path1321" />
      <path
         d="m 430.74529,687.83146 a 75.590551,75.590551 0 0 0 0,-151.1811"
         style="fill:none;stroke:#ff0000"
         id="path1323" />
      <path
         d="m 426.96576,687.83146 h 3.77953"
         style="fill:none;stroke:#ff0000"
         id="path1325" />
      <path
         d="m 426.96576,687.83146 a 11.338583,11.338583 0 0 0 -11.33858,11.33858"
         style="fill:none;stroke:#ff0000"
         id="path1327" />
      <path
         d="m 415.62699,699.17004 v 24.56693"
         style="fill:none;stroke:#ff0000"
         id="path1329" />
      <path
         d="m 404.28841,735.07556 a 11.338583,11.338583 0 0 0 11.33858,-11.33859"
         style="fill:none;stroke:#ff0000"
         id="path1331" />
      <path
         d="m 383.66825,735.07556 h 20.62016"
         style="fill:none;stroke:#ff0000"
         id="path1333" />
      <path
         d="m 390.19882,735.07556 v 26.45669"
         style="fill:#0000ff;fill-opacity:1;stroke:#0000ff;stroke-opacity:1"
         id="path1335" />
      <path
         d="m 390.19882,462.94957 v 26.45669"
         style="fill:#0000ff;fill-opacity:1;stroke:#0000ff;stroke-opacity:1"
         id="path1337" />
      <path
         d="M 81.306047,456.41893 H 383.66825"
         style="fill:#0000ff;fill-opacity:1;stroke:#0000ff;stroke-opacity:1"
         id="path1339" />
      <path
         d="M 383.66825,768.06289 H 81.306047"
         style="fill:#0000ff;fill-opacity:1;stroke:#0000ff;stroke-opacity:1"
         id="path1341" />
    </g>
    <g
       transform="translate(787.35826,-17.405726)"
       id="g2761">
      <path
         id="path2028"
         style="fill:none;stroke:#ff0000"
         d="M -63.300297,521.85889 V 457.60692" />
      <path
         id="path2030"
         style="fill:none;stroke:#ff0000"
         d="M -63.300297,457.60692 H -121.71593" />
      <path
         id="path2032"
         style="fill:none;stroke:#ff0000"
         d="m -121.71593,457.60692 v -26.4567" />
      <path
         id="path2034"
         style="fill:none;stroke:#ff0000"
         d="m -121.71593,431.15022 h 58.415633" />
      <path
         id="path2036"
         style="fill:none;stroke:#ff0000"
         d="M -63.300297,431.15022 V 353.66991" />
      <path
         id="path2038"
         style="fill:none;stroke:#ff0000"
         d="M -63.300297,353.66991 H 231.50284" />
      <path
         id="path2040"
         style="fill:none;stroke:#ff0000"
         d="m 231.50284,353.66991 v 77.48031" />
      <path
         id="path2042"
         style="fill:none;stroke:#ff0000"
         d="M 289.91847,431.15022 H 231.50284" />
      <path
         id="path2044"
         style="fill:none;stroke:#ff0000"
         d="m 289.91847,457.60692 v -26.4567" />
      <path
         id="path2046"
         style="fill:none;stroke:#ff0000"
         d="m 231.50284,457.60692 h 58.41563" />
      <path
         id="path2048"
         style="fill:none;stroke:#ff0000"
         d="m 231.50284,457.60692 v 64.25197" />
      <path
         id="path2050"
         style="fill:none;stroke:#ff0000"
         d="M 289.91847,521.85889 H 231.50284" />
      <path
         id="path2052"
         style="fill:none;stroke:#ff0000"
         d="M 289.91847,548.31557 V 521.85889" />
      <path
         id="path2054"
         style="fill:none;stroke:#ff0000"
         d="m 231.50284,548.31557 h 58.41563" />
      <path
         id="path2056"
         style="fill:none;stroke:#ff0000"
         d="m 231.50284,548.31557 v 96.378" />
      <path
         id="path2058"
         style="fill:none;stroke:#ff0000"
         d="M 231.50284,644.69357 H -63.300297" />
      <path
         id="path2060"
         style="fill:none;stroke:#ff0000"
         d="m -63.300297,644.69357 v -96.378" />
      <path
         id="path2062"
         style="fill:none;stroke:#ff0000"
         d="M -63.300297,548.31557 H -121.71593" />
      <path
         id="path2064"
         style="fill:none;stroke:#ff0000"
         d="M -121.71593,548.31557 V 521.85889" />
      <path
         id="path2066"
         style="fill:none;stroke:#ff0000"
         d="m -121.71593,521.85889 h 58.415633" />
      <path
         id="path2068"
         style="fill:none;stroke:#0000f9;stroke-opacity:1"
         d="m -96.287637,431.15022 v 26.4567" />
      <path
         id="path2070"
         style="fill:none;stroke:#0000f9;stroke-opacity:1"
         d="m -96.287637,521.85889 v 26.45668" />
      <path
         id="path2072"
         style="fill:none;stroke:#0000f9;stroke-opacity:1"
         d="m 264.49018,521.85889 v 26.45668" />
      <path
         id="path2074"
         style="fill:none;stroke:#0000f9;stroke-opacity:1"
         d="m 264.49018,431.15022 v 26.4567" />
    </g>
  </g>
  <desc
     id="desc1345">CutBoite.dxf - scale = 1.000000, origin = (0.000000, 0.000000), method = manual</desc>
</svg>
