999
FreeCAD v2020.11.12 22739 +2746 (Git)
  0
SECTION
  2
HEADER
  9
$ACADVER
  1
AC1014
  9
$ACADMAINTVER
 70
     9
  9
$DWGCODEPAGE
  3
ANSI_1252
  9
$TEXTSTYLE
  7
STANDARD
  9
$DIMSTYLE
  2
STANDARD
  9
$DIMTXSTY
  7
STANDARD
  9
$CMLSTYLE
  2
STANDARD
  9
$PEXTMAX
 10
50
 20
50
 30
50
  9
$PEXTMIN
 10
0
 20
0
 30
0
  9
$HANDSEED
  5
FFFF
  0
ENDSEC
  0
SECTION
  2
CLASSES
  0
CLASS
  1
ACDBDICTIONARYWDFLT
  2
AcDbDictionaryWithDefault
  3
ObjectDBX Classes
 90
        0
280
     0
281
     0
  0
CLASS
  1
XRECORD
  2
AcDbXrecord
  3
ObjectDBX Classes
 90
        0
280
     0
281
     0
  0
CLASS
  1
LWPOLYLINE
  2
AcDbPolyline
  3
ObjectDBX Classes
 90
        0
280
     0
281
     1
  0
ENDSEC
  0
SECTION
  2
TABLES
  0
TABLE
  2
VPORT
  5
20
330
0
100
AcDbSymbolTable
 70
     1
  0
VPORT
  5
21
330
20
100
AcDbSymbolTableRecord
100
AcDbViewportTableRecord
  2
*ACTIVE
 70
     0
  0
ENDTAB
  0
TABLE
  2
LTYPE
  5
22
330
0
100
AcDbSymbolTable
 70
     1
  0
LTYPE
  5
23
330
21
100
AcDbSymbolTableRecord
100
AcDbLinetypeTableRecord
  2
BYBLOCK
 70
     0
  3

 72
    65
 73
     0
 40
0.0
  0
LTYPE
  5
24
330
21
100
AcDbSymbolTableRecord
100
AcDbLinetypeTableRecord
  2
BYLAYER
 70
     0
  3

 72
    65
 73
     0
 40
0.0
  0
LTYPE
  5
25
330
21
100
AcDbSymbolTableRecord
100
AcDbLinetypeTableRecord
  2
CONTINUOUS
 70
     0
  3
Solid line
 72
    65
 73
     0
 40
0.0
  0
ENDTAB
  0
TABLE
  2
LAYER
  5
A40
330
0
100
AcDbSymbolTable
 70
2
  0
LAYER
  5
A41
330
A40
100
AcDbSymbolTableRecord
100
AcDbLayerTableRecord
  2
0
 70
   0
 62
   7
  6
CONTINUOUS
  0
LAYER
  5
A42
330
A40
100
AcDbSymbolTableRecord
100
AcDbLayerTableRecord
  2
ProjItem
 70
    0
 62
    7
  6
CONTINUOUS
  0
ENDTAB
  0
TABLE
  2
STYLE
  5
70
330
0
100
AcDbSymbolTable
 70
     2
  0
STYLE
  5
71
330
70
100
AcDbSymbolTableRecord
100
AcDbTextStyleTableRecord
  2
STANDARD
 70
     0
 40
0.0
 41
1.0
 50
0.0
 71
     0
 42
2.5
  3
arial.ttf
  4

  0
STYLE
  5
72
330
70
100
AcDbSymbolTableRecord
100
AcDbTextStyleTableRecord
  2
ANNOTATIVE
 70
     0
 40
0.0
 41
1.0
 50
0.0
 71
     0
 42
2.5
  3
arial.ttf
  4

  0
ENDTAB
  0
TABLE
  2
VIEW
  5
73
330
0
100
AcDbSymbolTable
 70
     0
  0
ENDTAB
  0
TABLE
  2
UCS
  5
74
330
0
100
AcDbSymbolTable
 70
     0
  0
ENDTAB
  0
TABLE
  2
APPID
  5
75
330
0
100
AcDbSymbolTable
 70
     2
  0
APPID
  5
76
330
75
100
AcDbSymbolTableRecord
100
AcDbRegAppTableRecord
  2
ACAD
 70
     0
  0
APPID
  5
77
330
75
100
AcDbSymbolTableRecord
100
AcDbRegAppTableRecord
  2
ACADANNOTATIVE
 70
     0
  0
ENDTAB
  0
TABLE
  2
DIMSTYLE
  5
78
330
0
100
AcDbSymbolTable
 70
     2
  0
DIMSTYLE
105
79
330
78
100
AcDbSymbolTableRecord
100
AcDbDimStyleTableRecord
  2
STANDARD
 70
     0
  3

  4

  5

  6

  7

 40
0.0
 41
2.5
 42
0.625
 43
3.75
 44
1.25
 45
0.0
 46
0.0
 47
0.0
 48
0.0
140
2.5
141
2.5
142
0.0
143
0.03937007874016
144
1.0
145
0.0
146
1.0
147
0.625
 71
     0
 72
     0
 73
     0
 74
     0
 75
     0
 76
     0
 77
     1
 78
     8
170
     0
171
     3
172
     1
173
     0
174
     0
175
     0
176
     0
177
     0
178
     0
270
     2
271
     2
272
     2
273
     2
274
     3
340
71
275
     0
280
     0
281
     0
282
     0
283
     0
284
     8
285
     0
286
     0
287
     3
288
     0
  0
ENDTAB
  0
TABLE
  2
BLOCK_RECORD
  5
A01
330
0
100
AcDbSymbolTable
  70
5
  0
BLOCK_RECORD
  5
A02
330
A01
100
AcDbSymbolTableRecord
100
AcDbBlockTableRecord
  2
*MODEL_SPACE
  0
BLOCK_RECORD
  5
A03
330
A01
100
AcDbSymbolTableRecord
100
AcDbBlockTableRecord
  2
*PAPER_SPACE
  0
ENDTAB
  0
ENDSEC
  0
SECTION
  2
BLOCKS
  0
BLOCK
  5
A04
330
A02
100
AcDbEntity
  8
0
100
AcDbBlockBegin
  2
*MODEL_SPACE
 70
   0
 10
0
 20
0
 30
0
  3
*MODEL_SPACE
  1
 
  0
ENDBLK
  5
A05
330
A02
100
AcDbEntity
  8
0
100
AcDbBlockEnd
  0
BLOCK
  5
A06
330
A03
100
AcDbEntity
 67
1
  8
0
100
AcDbBlockBegin
  2
*PAPER_SPACE
 70
   0
 10
0
 20
0
 30
0
  3
*PAPER_SPACE
  1
 
  0
ENDBLK
  5
A07
330
A03
100
AcDbEntity
 67
    1
  8
0
100
AcDbBlockEnd
  0
ENDSEC
  0
SECTION
  2
ENTITIES
  0
ARC
  5
A08
330
A02
100
AcDbEntity
  8
ProjItem
100
AcDbCircle
 10
35.0481
 20
-20.0989
 30
0
 40
2.4
100
AcDbArc
 50
180
 51
-90
  0
LINE
  5
A09
330
A02
100
AcDbEntity
  8
ProjItem
100
AcDbLine
 10
44.2481
 20
-22.4989
 30
0
 11
35.0481
 21
-22.4989
 31
0
  0
ARC
  5
A0A
330
A02
100
AcDbEntity
  8
ProjItem
100
AcDbCircle
 10
44.2481
 20
-20.0989
 30
0
 40
2.4
100
AcDbArc
 50
-90
 51
0
  0
LINE
  5
A0B
330
A02
100
AcDbEntity
  8
ProjItem
100
AcDbLine
 10
46.6481
 20
-20.0989
 30
0
 11
46.6481
 21
-19.8989
 31
0
  0
ARC
  5
A0C
330
A02
100
AcDbEntity
  8
ProjItem
100
AcDbCircle
 10
44.2481
 20
-19.8989
 30
0
 40
2.4
100
AcDbArc
 50
0
 51
90
  0
LINE
  5
A0D
330
A02
100
AcDbEntity
  8
ProjItem
100
AcDbLine
 10
44.2481
 20
-17.4989
 30
0
 11
40.0481
 21
-17.4989
 31
0
  0
ARC
  5
A0E
330
A02
100
AcDbEntity
  8
ProjItem
100
AcDbCircle
 10
40.0481
 20
-15.0989
 30
0
 40
2.4
100
AcDbArc
 50
180
 51
-90
  0
LINE
  5
A0F
330
A02
100
AcDbEntity
  8
ProjItem
100
AcDbLine
 10
37.6481
 20
-15.0989
 30
0
 11
37.6481
 21
-14.8989
 31
0
  0
ARC
  5
A10
330
A02
100
AcDbEntity
  8
ProjItem
100
AcDbCircle
 10
40.0481
 20
-14.8989
 30
0
 40
2.4
100
AcDbArc
 50
90
 51
180
  0
LINE
  5
A11
330
A02
100
AcDbEntity
  8
ProjItem
100
AcDbLine
 10
40.0481
 20
-12.4989
 30
0
 11
109.648
 21
-12.4989
 31
0
  0
ARC
  5
A12
330
A02
100
AcDbEntity
  8
ProjItem
100
AcDbCircle
 10
109.648
 20
-9.49892
 30
0
 40
3
100
AcDbArc
 50
-90
 51
0
  0
LINE
  5
A13
330
A02
100
AcDbEntity
  8
ProjItem
100
AcDbLine
 10
112.648
 20
67.9568
 30
0
 11
112.648
 21
-9.49892
 31
0
  0
LINE
  5
A14
330
A02
100
AcDbEntity
  8
ProjItem
100
AcDbLine
 10
112.648
 20
67.9568
 30
0
 11
190.104
 21
67.9568
 31
0
  0
ARC
  5
A15
330
A02
100
AcDbEntity
  8
ProjItem
100
AcDbCircle
 10
190.104
 20
70.9568
 30
0
 40
3
100
AcDbArc
 50
-90
 51
0
  0
LINE
  5
A16
330
A02
100
AcDbEntity
  8
ProjItem
100
AcDbLine
 10
193.104
 20
143.957
 30
0
 11
193.104
 21
70.9568
 31
0
  0
ARC
  5
A17
330
A02
100
AcDbEntity
  8
ProjItem
100
AcDbCircle
 10
190.104
 20
143.957
 30
0
 40
3
100
AcDbArc
 50
0
 51
90
  0
LINE
  5
A18
330
A02
100
AcDbEntity
  8
ProjItem
100
AcDbLine
 10
112.648
 20
146.957
 30
0
 11
190.104
 21
146.957
 31
0
  0
LINE
  5
A19
330
A02
100
AcDbEntity
  8
ProjItem
100
AcDbLine
 10
112.648
 20
224.413
 30
0
 11
112.648
 21
146.957
 31
0
  0
ARC
  5
A1A
330
A02
100
AcDbEntity
  8
ProjItem
100
AcDbCircle
 10
109.648
 20
224.413
 30
0
 40
3
100
AcDbArc
 50
0
 51
90
  0
LINE
  5
A1B
330
A02
100
AcDbEntity
  8
ProjItem
100
AcDbLine
 10
109.648
 20
227.413
 30
0
 11
40.0481
 21
227.413
 31
0
  0
ARC
  5
A1C
330
A02
100
AcDbEntity
  8
ProjItem
100
AcDbCircle
 10
40.0481
 20
229.813
 30
0
 40
2.4
100
AcDbArc
 50
180
 51
-90
  0
LINE
  5
A1D
330
A02
100
AcDbEntity
  8
ProjItem
100
AcDbLine
 10
37.6481
 20
229.813
 30
0
 11
37.6481
 21
230.013
 31
0
  0
ARC
  5
A1E
330
A02
100
AcDbEntity
  8
ProjItem
100
AcDbCircle
 10
40.0481
 20
230.013
 30
0
 40
2.4
100
AcDbArc
 50
90
 51
180
  0
LINE
  5
A1F
330
A02
100
AcDbEntity
  8
ProjItem
100
AcDbLine
 10
40.0481
 20
232.413
 30
0
 11
44.2481
 21
232.413
 31
0
  0
ARC
  5
A20
330
A02
100
AcDbEntity
  8
ProjItem
100
AcDbCircle
 10
44.2481
 20
234.813
 30
0
 40
2.4
100
AcDbArc
 50
-90
 51
0
  0
LINE
  5
A21
330
A02
100
AcDbEntity
  8
ProjItem
100
AcDbLine
 10
46.6481
 20
234.813
 30
0
 11
46.6481
 21
235.013
 31
0
  0
ARC
  5
A22
330
A02
100
AcDbEntity
  8
ProjItem
100
AcDbCircle
 10
44.2481
 20
235.013
 30
0
 40
2.4
100
AcDbArc
 50
0
 51
90
  0
LINE
  5
A23
330
A02
100
AcDbEntity
  8
ProjItem
100
AcDbLine
 10
35.0481
 20
237.413
 30
0
 11
44.2481
 21
237.413
 31
0
  0
ARC
  5
A24
330
A02
100
AcDbEntity
  8
ProjItem
100
AcDbCircle
 10
35.0481
 20
235.013
 30
0
 40
2.4
100
AcDbArc
 50
90
 51
180
  0
LINE
  5
A25
330
A02
100
AcDbEntity
  8
ProjItem
100
AcDbLine
 10
32.6481
 20
-20.0989
 30
0
 11
32.6481
 21
235.013
 31
0
  0
ARC
  5
A26
330
A02
100
AcDbEntity
  8
ProjItem
100
AcDbCircle
 10
111.648
 20
78.9568
 30
0
 40
4
100
AcDbArc
 50
180
 51
-90
  0
LINE
  5
A27
330
A02
100
AcDbEntity
  8
ProjItem
100
AcDbLine
 10
107.648
 20
83.4568
 30
0
 11
107.648
 21
78.9568
 31
0
  0
ARC
  5
A28
330
A02
100
AcDbEntity
  8
ProjItem
100
AcDbCircle
 10
103.648
 20
83.4568
 30
0
 40
4
100
AcDbArc
 50
0
 51
90
  0
LINE
  5
A29
330
A02
100
AcDbEntity
  8
ProjItem
100
AcDbLine
 10
102.648
 20
87.4568
 30
0
 11
103.648
 21
87.4568
 31
0
  0
ARC
  5
A2A
330
A02
100
AcDbEntity
  8
ProjItem
100
AcDbCircle
 10
102.648
 20
97.4568
 30
0
 40
10
100
AcDbArc
 50
180
 51
-90
  0
LINE
  5
A2B
330
A02
100
AcDbEntity
  8
ProjItem
100
AcDbLine
 10
92.6481
 20
97.4568
 30
0
 11
92.6481
 21
117.457
 31
0
  0
ARC
  5
A2C
330
A02
100
AcDbEntity
  8
ProjItem
100
AcDbCircle
 10
102.648
 20
117.457
 30
0
 40
10
100
AcDbArc
 50
90
 51
180
  0
LINE
  5
A2D
330
A02
100
AcDbEntity
  8
ProjItem
100
AcDbLine
 10
102.648
 20
127.457
 30
0
 11
103.648
 21
127.457
 31
0
  0
ARC
  5
A2E
330
A02
100
AcDbEntity
  8
ProjItem
100
AcDbCircle
 10
103.648
 20
131.457
 30
0
 40
4
100
AcDbArc
 50
-90
 51
0
  0
LINE
  5
A2F
330
A02
100
AcDbEntity
  8
ProjItem
100
AcDbLine
 10
107.648
 20
135.957
 30
0
 11
107.648
 21
131.457
 31
0
  0
ARC
  5
A30
330
A02
100
AcDbEntity
  8
ProjItem
100
AcDbCircle
 10
111.648
 20
135.957
 30
0
 40
4
100
AcDbArc
 50
90
 51
180
  0
LINE
  5
A31
330
A02
100
AcDbEntity
  8
ProjItem
100
AcDbLine
 10
117.104
 20
139.957
 30
0
 11
111.648
 21
139.957
 31
0
  0
ARC
  5
A32
330
A02
100
AcDbEntity
  8
ProjItem
100
AcDbCircle
 10
117.104
 20
135.957
 30
0
 40
4
100
AcDbArc
 50
0
 51
90
  0
LINE
  5
A33
330
A02
100
AcDbEntity
  8
ProjItem
100
AcDbLine
 10
121.104
 20
135.957
 30
0
 11
121.104
 21
131.457
 31
0
  0
ARC
  5
A34
330
A02
100
AcDbEntity
  8
ProjItem
100
AcDbCircle
 10
125.104
 20
131.457
 30
0
 40
4
100
AcDbArc
 50
180
 51
-90
  0
LINE
  5
A35
330
A02
100
AcDbEntity
  8
ProjItem
100
AcDbLine
 10
125.104
 20
127.457
 30
0
 11
150.104
 21
127.457
 31
0
  0
ARC
  5
A36
330
A02
100
AcDbEntity
  8
ProjItem
100
AcDbCircle
 10
150.104
 20
107.457
 30
0
 40
20
100
AcDbArc
 50
-90
 51
90
  0
LINE
  5
A37
330
A02
100
AcDbEntity
  8
ProjItem
100
AcDbLine
 10
125.104
 20
87.4568
 30
0
 11
150.104
 21
87.4568
 31
0
  0
ARC
  5
A38
330
A02
100
AcDbEntity
  8
ProjItem
100
AcDbCircle
 10
125.104
 20
83.4568
 30
0
 40
4
100
AcDbArc
 50
90
 51
180
  0
LINE
  5
A39
330
A02
100
AcDbEntity
  8
ProjItem
100
AcDbLine
 10
121.104
 20
83.4568
 30
0
 11
121.104
 21
78.9568
 31
0
  0
ARC
  5
A3A
330
A02
100
AcDbEntity
  8
ProjItem
100
AcDbCircle
 10
117.104
 20
78.9568
 30
0
 40
4
100
AcDbArc
 50
-90
 51
0
  0
LINE
  5
A3B
330
A02
100
AcDbEntity
  8
ProjItem
100
AcDbLine
 10
111.648
 20
74.9568
 30
0
 11
117.104
 21
74.9568
 31
0
  0
LINE
  5
A3C
330
A02
100
AcDbEntity
  8
ProjItem
100
AcDbLine
 10
114.376
 20
74.9568
 30
0
 11
114.376
 21
67.9568
 31
0
  0
LINE
  5
A3D
330
A02
100
AcDbEntity
  8
ProjItem
100
AcDbLine
 10
114.376
 20
146.957
 30
0
 11
114.376
 21
139.957
 31
0
  0
LINE
  5
A3E
330
A02
100
AcDbEntity
  8
ProjItem
100
AcDbLine
 10
32.6481
 20
148.685
 30
0
 11
112.648
 21
148.685
 31
0
  0
LINE
  5
A3F
330
A02
100
AcDbEntity
  8
ProjItem
100
AcDbLine
 10
112.648
 20
66.229
 30
0
 11
32.6481
 21
66.229
 31
0
  0
ENDSEC
  0
SECTION
  2
OBJECTS
  0
DICTIONARY
  5
F000
330
0
100
AcDbDictionary
  3
ACAD_GROUP
350
F001
  0
DICTIONARY
  5
F001
330
F000
100
AcDbDictionary
  0
ENDSEC
  0
EOF