<?xml version="1.0" encoding="UTF-8" standalone="no"?>
<svg
   xmlns:dc="http://purl.org/dc/elements/1.1/"
   xmlns:cc="http://creativecommons.org/ns#"
   xmlns:rdf="http://www.w3.org/1999/02/22-rdf-syntax-ns#"
   xmlns:svg="http://www.w3.org/2000/svg"
   xmlns="http://www.w3.org/2000/svg"
   xmlns:sodipodi="http://sodipodi.sourceforge.net/DTD/sodipodi-0.dtd"
   xmlns:inkscape="http://www.inkscape.org/namespaces/inkscape"
   version="1.2"
   height="49.186501mm"
   viewBox="0 0 2041.547 491.865"
   width="204.15469mm"
   id="svg12535"
   sodipodi:docname="cacheParois.svg"
   inkscape:version="1.0 (4035a4fb49, 2020-05-01)">
  <metadata
     id="metadata12539">
    <rdf:RDF>
      <cc:Work
         rdf:about="">
        <dc:format>image/svg+xml</dc:format>
        <dc:type
           rdf:resource="http://purl.org/dc/dcmitype/StillImage" />
        <dc:title>FreeCAD SVG Export</dc:title>
      </cc:Work>
    </rdf:RDF>
  </metadata>
  <sodipodi:namedview
     inkscape:document-rotation="0"
     pagecolor="#ffffff"
     bordercolor="#666666"
     borderopacity="1"
     objecttolerance="10"
     gridtolerance="10"
     guidetolerance="10"
     inkscape:pageopacity="0"
     inkscape:pageshadow="2"
     inkscape:window-width="1920"
     inkscape:window-height="1017"
     id="namedview12537"
     showgrid="false"
     inkscape:zoom="1.1439136"
     inkscape:cx="263.4492"
     inkscape:cy="211.40964"
     inkscape:window-x="1072"
     inkscape:window-y="161"
     inkscape:window-maximized="1"
     inkscape:current-layer="svg12535"
     fit-margin-top="0"
     fit-margin-left="0"
     fit-margin-right="0"
     fit-margin-bottom="0"
     inkscape:showpageshadow="false" />
  <title
     id="title12223">FreeCAD SVG Export</title>
  <desc
     id="desc12225">Drawing page: Page exported from FreeCAD document: miniGraveuseCI_V2Mini</desc>
  <defs
     id="defs12227" />
  <rect
     style="font-style:normal;font-weight:400;font-size:29.1042px;font-family:'MS Shell Dlg 2';fill:none;fill-rule:evenodd;stroke:#000000;stroke-width:1;stroke-linecap:square;stroke-linejoin:bevel;stroke-opacity:1"
     y="258.92432"
     height="0"
     width="0"
     x="540.14716"
     id="rect12229-3" />
  <rect
     style="font-style:normal;font-weight:400;font-size:29.1042px;font-family:'MS Shell Dlg 2';fill:none;fill-rule:evenodd;stroke:#000000;stroke-width:1;stroke-linecap:square;stroke-linejoin:bevel;stroke-opacity:1"
     y="258.92432"
     height="0"
     width="0"
     x="540.14716"
     id="rect12237-7" />
  <rect
     style="font-style:normal;font-weight:400;font-size:29.1042px;font-family:'MS Shell Dlg 2';fill:none;fill-rule:evenodd;stroke:#000000;stroke-width:1;stroke-linecap:square;stroke-linejoin:bevel;stroke-opacity:1"
     y="258.92432"
     height="0"
     width="0"
     x="540.14716"
     id="rect12245-3" />
  <rect
     style="font-style:normal;font-weight:400;font-size:29.1042px;font-family:'MS Shell Dlg 2';fill:none;fill-rule:evenodd;stroke:#000000;stroke-width:1;stroke-linecap:square;stroke-linejoin:bevel;stroke-opacity:1"
     y="258.92432"
     height="0"
     width="0"
     x="540.14716"
     id="rect12253-3" />
  <rect
     style="font-style:normal;font-weight:400;font-size:29.1042px;font-family:'MS Shell Dlg 2';fill:none;fill-rule:evenodd;stroke:#000000;stroke-width:1;stroke-linecap:square;stroke-linejoin:bevel;stroke-opacity:1"
     y="258.92432"
     height="0"
     width="0"
     x="540.14716"
     id="rect12261-6" />
  <rect
     style="font-style:normal;font-weight:400;font-size:29.1042px;font-family:'MS Shell Dlg 2';fill:none;fill-rule:evenodd;stroke:#000000;stroke-width:1;stroke-linecap:square;stroke-linejoin:bevel;stroke-opacity:1"
     y="258.92432"
     height="0"
     width="0"
     x="540.14716"
     id="rect12269-2" />
  <rect
     style="font-style:normal;font-weight:400;font-size:29.1042px;font-family:'MS Shell Dlg 2';fill:none;fill-rule:evenodd;stroke:#000000;stroke-width:1;stroke-linecap:square;stroke-linejoin:bevel;stroke-opacity:1"
     y="258.92432"
     height="0"
     width="0"
     x="540.14716"
     id="rect12277-6" />
  <rect
     style="font-style:normal;font-weight:400;font-size:29.1042px;font-family:'MS Shell Dlg 2';fill:none;fill-rule:evenodd;stroke:#000000;stroke-width:1;stroke-linecap:square;stroke-linejoin:bevel;stroke-opacity:1"
     y="258.92432"
     height="0"
     width="0"
     x="540.14716"
     id="rect12285-8" />
  <rect
     style="font-style:normal;font-weight:400;font-size:29.1042px;font-family:'MS Shell Dlg 2';fill:none;fill-rule:evenodd;stroke:#000000;stroke-width:1;stroke-linecap:square;stroke-linejoin:bevel;stroke-opacity:1"
     y="258.92432"
     height="0"
     width="0"
     x="540.14716"
     id="rect12293-8" />
  <rect
     style="font-style:normal;font-weight:400;font-size:29.1042px;font-family:'MS Shell Dlg 2';fill:none;fill-rule:evenodd;stroke:#000000;stroke-width:1;stroke-linecap:square;stroke-linejoin:bevel;stroke-opacity:1"
     y="258.92432"
     height="0"
     width="0"
     x="540.14716"
     id="rect12301-9" />
  <rect
     style="font-style:normal;font-weight:400;font-size:29.1042px;font-family:'MS Shell Dlg 2';fill:none;fill-rule:evenodd;stroke:#000000;stroke-width:1;stroke-linecap:square;stroke-linejoin:bevel;stroke-opacity:1"
     y="258.92432"
     height="0"
     width="0"
     x="540.14716"
     id="rect12309-5" />
  <rect
     style="font-style:normal;font-weight:400;font-size:29.1042px;font-family:'MS Shell Dlg 2';fill:none;fill-rule:evenodd;stroke:#000000;stroke-width:1;stroke-linecap:square;stroke-linejoin:bevel;stroke-opacity:1"
     y="258.92432"
     height="0"
     width="0"
     x="540.14716"
     id="rect12317-4" />
  <rect
     style="font-style:normal;font-weight:400;font-size:29.1042px;font-family:'MS Shell Dlg 2';fill:none;fill-rule:evenodd;stroke:#000000;stroke-width:1;stroke-linecap:square;stroke-linejoin:bevel;stroke-opacity:1"
     y="258.92432"
     height="0"
     width="0"
     x="540.14716"
     id="rect12325-9" />
  <rect
     style="font-style:normal;font-weight:400;font-size:29.1042px;font-family:'MS Shell Dlg 2';fill:none;fill-rule:evenodd;stroke:#000000;stroke-width:1;stroke-linecap:square;stroke-linejoin:bevel;stroke-opacity:1"
     y="258.92432"
     height="0"
     width="0"
     x="540.14716"
     id="rect12333-8" />
  <rect
     style="font-style:normal;font-weight:400;font-size:29.1042px;font-family:'MS Shell Dlg 2';fill:none;fill-rule:evenodd;stroke:#000000;stroke-width:1;stroke-linecap:square;stroke-linejoin:bevel;stroke-opacity:1"
     y="258.92432"
     height="0"
     width="0"
     x="540.14716"
     id="rect12341-1" />
  <rect
     style="font-style:normal;font-weight:400;font-size:29.1042px;font-family:'MS Shell Dlg 2';fill:none;fill-rule:evenodd;stroke:#000000;stroke-width:1;stroke-linecap:square;stroke-linejoin:bevel;stroke-opacity:1"
     y="258.92432"
     height="0"
     width="0"
     x="540.14716"
     id="rect12349-3" />
  <rect
     style="font-style:normal;font-weight:400;font-size:29.1042px;font-family:'MS Shell Dlg 2';fill:none;fill-rule:evenodd;stroke:#000000;stroke-width:1;stroke-linecap:square;stroke-linejoin:bevel;stroke-opacity:1"
     y="258.92432"
     height="0"
     width="0"
     x="540.14716"
     id="rect12357-6" />
  <rect
     style="font-style:normal;font-weight:400;font-size:29.1042px;font-family:'MS Shell Dlg 2';fill:none;fill-rule:evenodd;stroke:#000000;stroke-width:1;stroke-linecap:square;stroke-linejoin:bevel;stroke-opacity:1"
     y="258.92432"
     height="0"
     width="0"
     x="540.14716"
     id="rect12365-4" />
  <rect
     style="font-style:normal;font-weight:400;font-size:29.1042px;font-family:'MS Shell Dlg 2';fill:none;fill-rule:evenodd;stroke:#000000;stroke-width:1;stroke-linecap:square;stroke-linejoin:bevel;stroke-opacity:1"
     y="258.92432"
     height="0"
     width="0"
     x="540.14716"
     id="rect12373-5" />
  <rect
     style="font-style:normal;font-weight:400;font-size:29.1042px;font-family:'MS Shell Dlg 2';fill:none;fill-rule:evenodd;stroke:#000000;stroke-width:1;stroke-linecap:square;stroke-linejoin:bevel;stroke-opacity:1"
     id="rect12229-3-4"
     x="2631.1453"
     width="0"
     height="0"
     y="406.57495" />
  <rect
     style="font-style:normal;font-weight:400;font-size:29.1042px;font-family:'MS Shell Dlg 2';fill:none;fill-rule:evenodd;stroke:#000000;stroke-width:1;stroke-linecap:square;stroke-linejoin:bevel;stroke-opacity:1"
     id="rect12237-7-1"
     x="2631.1453"
     width="0"
     height="0"
     y="406.57495" />
  <rect
     style="font-style:normal;font-weight:400;font-size:29.1042px;font-family:'MS Shell Dlg 2';fill:none;fill-rule:evenodd;stroke:#000000;stroke-width:1;stroke-linecap:square;stroke-linejoin:bevel;stroke-opacity:1"
     id="rect12245-3-9"
     x="2631.1453"
     width="0"
     height="0"
     y="406.57495" />
  <rect
     style="font-style:normal;font-weight:400;font-size:29.1042px;font-family:'MS Shell Dlg 2';fill:none;fill-rule:evenodd;stroke:#000000;stroke-width:1;stroke-linecap:square;stroke-linejoin:bevel;stroke-opacity:1"
     id="rect12253-3-2"
     x="2631.1453"
     width="0"
     height="0"
     y="406.57495" />
  <rect
     style="font-style:normal;font-weight:400;font-size:29.1042px;font-family:'MS Shell Dlg 2';fill:none;fill-rule:evenodd;stroke:#000000;stroke-width:1;stroke-linecap:square;stroke-linejoin:bevel;stroke-opacity:1"
     id="rect12261-6-2"
     x="2631.1453"
     width="0"
     height="0"
     y="406.57495" />
  <rect
     style="font-style:normal;font-weight:400;font-size:29.1042px;font-family:'MS Shell Dlg 2';fill:none;fill-rule:evenodd;stroke:#000000;stroke-width:1;stroke-linecap:square;stroke-linejoin:bevel;stroke-opacity:1"
     id="rect12269-2-5"
     x="2631.1453"
     width="0"
     height="0"
     y="406.57495" />
  <rect
     style="font-style:normal;font-weight:400;font-size:29.1042px;font-family:'MS Shell Dlg 2';fill:none;fill-rule:evenodd;stroke:#000000;stroke-width:1;stroke-linecap:square;stroke-linejoin:bevel;stroke-opacity:1"
     id="rect12277-6-6"
     x="2631.1453"
     width="0"
     height="0"
     y="406.57495" />
  <rect
     style="font-style:normal;font-weight:400;font-size:29.1042px;font-family:'MS Shell Dlg 2';fill:none;fill-rule:evenodd;stroke:#000000;stroke-width:1;stroke-linecap:square;stroke-linejoin:bevel;stroke-opacity:1"
     id="rect12285-8-1"
     x="2631.1453"
     width="0"
     height="0"
     y="406.57495" />
  <rect
     style="font-style:normal;font-weight:400;font-size:29.1042px;font-family:'MS Shell Dlg 2';fill:none;fill-rule:evenodd;stroke:#000000;stroke-width:1;stroke-linecap:square;stroke-linejoin:bevel;stroke-opacity:1"
     id="rect12293-8-0"
     x="2631.1453"
     width="0"
     height="0"
     y="406.57495" />
  <rect
     style="font-style:normal;font-weight:400;font-size:29.1042px;font-family:'MS Shell Dlg 2';fill:none;fill-rule:evenodd;stroke:#000000;stroke-width:1;stroke-linecap:square;stroke-linejoin:bevel;stroke-opacity:1"
     id="rect12301-9-0"
     x="2631.1453"
     width="0"
     height="0"
     y="406.57495" />
  <rect
     style="font-style:normal;font-weight:400;font-size:29.1042px;font-family:'MS Shell Dlg 2';fill:none;fill-rule:evenodd;stroke:#000000;stroke-width:1;stroke-linecap:square;stroke-linejoin:bevel;stroke-opacity:1"
     id="rect12309-5-3"
     x="2631.1453"
     width="0"
     height="0"
     y="406.57495" />
  <rect
     style="font-style:normal;font-weight:400;font-size:29.1042px;font-family:'MS Shell Dlg 2';fill:none;fill-rule:evenodd;stroke:#000000;stroke-width:1;stroke-linecap:square;stroke-linejoin:bevel;stroke-opacity:1"
     id="rect12317-4-8"
     x="2631.1453"
     width="0"
     height="0"
     y="406.57495" />
  <rect
     style="font-style:normal;font-weight:400;font-size:29.1042px;font-family:'MS Shell Dlg 2';fill:none;fill-rule:evenodd;stroke:#000000;stroke-width:1;stroke-linecap:square;stroke-linejoin:bevel;stroke-opacity:1"
     id="rect12325-9-5"
     x="2631.1453"
     width="0"
     height="0"
     y="406.57495" />
  <rect
     style="font-style:normal;font-weight:400;font-size:29.1042px;font-family:'MS Shell Dlg 2';fill:none;fill-rule:evenodd;stroke:#000000;stroke-width:1;stroke-linecap:square;stroke-linejoin:bevel;stroke-opacity:1"
     id="rect12333-8-3"
     x="2631.1453"
     width="0"
     height="0"
     y="406.57495" />
  <rect
     style="font-style:normal;font-weight:400;font-size:29.1042px;font-family:'MS Shell Dlg 2';fill:none;fill-rule:evenodd;stroke:#000000;stroke-width:1;stroke-linecap:square;stroke-linejoin:bevel;stroke-opacity:1"
     id="rect12341-1-2"
     x="2631.1453"
     width="0"
     height="0"
     y="406.57495" />
  <rect
     style="font-style:normal;font-weight:400;font-size:29.1042px;font-family:'MS Shell Dlg 2';fill:none;fill-rule:evenodd;stroke:#000000;stroke-width:1;stroke-linecap:square;stroke-linejoin:bevel;stroke-opacity:1"
     id="rect12349-3-3"
     x="2631.1453"
     width="0"
     height="0"
     y="406.57495" />
  <rect
     style="font-style:normal;font-weight:400;font-size:29.1042px;font-family:'MS Shell Dlg 2';fill:none;fill-rule:evenodd;stroke:#000000;stroke-width:1;stroke-linecap:square;stroke-linejoin:bevel;stroke-opacity:1"
     id="rect12357-6-2"
     x="2631.1453"
     width="0"
     height="0"
     y="406.57495" />
  <rect
     style="font-style:normal;font-weight:400;font-size:29.1042px;font-family:'MS Shell Dlg 2';fill:none;fill-rule:evenodd;stroke:#000000;stroke-width:1;stroke-linecap:square;stroke-linejoin:bevel;stroke-opacity:1"
     id="rect12365-4-0"
     x="2631.1453"
     width="0"
     height="0"
     y="406.57495" />
  <rect
     style="font-style:normal;font-weight:400;font-size:29.1042px;font-family:'MS Shell Dlg 2';fill:none;fill-rule:evenodd;stroke:#000000;stroke-width:1;stroke-linecap:square;stroke-linejoin:bevel;stroke-opacity:1"
     id="rect12373-5-6"
     x="2631.1453"
     width="0"
     height="0"
     y="406.57495" />
  <path
     d="m 1800.4985,190.4987 -9.9994,10.0046 h -182.6813 c -10.718,0 -20.6239,5.7147 -25.9829,14.9965 l -27.0061,46.7827 c -0.893,1.547 -2.5445,2.5011 -4.3305,2.5011 -1.786,0 -3.4375,-0.9541 -4.3305,-2.5011 l -27.0112,-46.7827 c -5.3589,-9.2818 -15.2598,-14.9965 -25.9778,-14.9965 H 240.4957 c -22.091,0 -39.9976,17.9065 -39.9976,39.9976 V 441.69789 H 0.5 V 40.5027 L 40.4975,0.5 h 1750.0016 l 9.9994,9.9994 z m -146.668,-89.9996 c 0,-11.0461 -8.9528,-19.9988 -19.9988,-19.9988 -11.045,0 -20.0039,8.9527 -20.0039,19.9988 0,11.0461 8.9589,20.0039 20.0039,20.0039 11.046,0 19.9988,-8.9578 19.9988,-20.0039 z m -266.6659,0 c 0,-11.0461 -8.9538,-19.9988 -19.9988,-19.9988 -11.046,0 -20.0039,8.9527 -20.0039,19.9988 0,11.0461 8.9579,20.0039 20.0039,20.0039 11.045,0 19.9988,-8.9578 19.9988,-20.0039 z m -266.6657,0 c 0,-11.0461 -8.958,-19.9988 -20.004,-19.9988 -11.0461,0 -19.9987,8.9527 -19.9987,19.9988 0,11.0461 8.9526,20.0039 19.9987,20.0039 11.046,0 20.004,-8.9578 20.004,-20.0039 z m -266.666,0 c 0,-11.0461 -8.9583,-19.9988 -20.004,-19.9988 -11.0456,0 -19.9987,8.9527 -19.9987,19.9988 0,11.0461 8.953,20.0039 19.9987,20.0039 11.0457,0 20.004,-8.9578 20.004,-20.0039 z m -266.6711,0 c 0,-11.0461 -8.9538,-19.9988 -19.9988,-19.9988 -11.0459,0 -19.9986,8.9527 -19.9986,19.9988 0,11.0461 8.9527,20.0039 19.9986,20.0039 11.045,0 19.9988,-8.9578 19.9988,-20.0039 z m -266.6659,0 c 0,-11.0461 -8.9527,-19.9988 -19.9988,-19.9988 -11.0459,0 -19.9987,8.9527 -19.9987,19.9988 0,11.0461 8.9528,20.0039 19.9987,20.0039 11.0461,0 19.9988,-8.9578 19.9988,-20.0039 z M 120.4978,300.50241 c 0,-11.0461 -8.9527,-19.9988 -19.9987,-19.9988 -11.046,0 -20.0039,8.9527 -20.0039,19.9988 0,11.0461 8.9579,19.9987 20.0039,19.9987 11.0459,0 19.9987,-8.9526 19.9987,-19.9987 z"
     style="font-style:normal;font-weight:400;font-size:29.1042px;font-family:'MS Shell Dlg 2';fill:#ffffff;fill-opacity:1;fill-rule:evenodd;stroke:#ff0000;stroke-width:1;stroke-linecap:square;stroke-linejoin:bevel"
     id="path14055-9" />
  <path
     d="m 241.0484,481.36045 9.9994,10.00456 h 1750.0016 l 39.9976,-40.00273 V 50.1671 h -199.9981 v 201.197 c 0,22.091 -17.9066,39.99761 -39.9976,39.99761 H 251.0478 l -9.9994,9.9994 z m 146.668,-89.99967 c 0,-11.046 8.9528,-19.99879 19.9988,-19.99879 11.045,0 20.004,8.95279 20.004,19.99879 0,11.046 -8.959,20.00396 -20.004,20.00396 -11.046,0 -19.9988,-8.95796 -19.9988,-20.00396 z m 266.6659,0 c 0,-11.046 8.9538,-19.99877 19.9988,-19.99879 11.046,0 20.004,8.95279 20.004,19.99879 0,11.046 -8.958,20.00396 -20.004,20.00396 -11.045,0 -19.9988,-8.95796 -19.9988,-20.00396 z m 266.6659,0 c 0,-11.046 8.958,-19.99877 20.004,-19.99879 11.046,0 19.9987,8.95279 19.9987,19.99879 0,11.046 -8.9527,20.00396 -19.9987,20.00396 -11.046,0 -20.004,-8.95796 -20.004,-20.00396 z m 266.6659,0 c 0,-11.046 8.9583,-19.99877 20.004,-19.99879 11.0456,0 19.9987,8.95279 19.9987,19.99879 0,11.046 -8.953,20.00396 -19.9987,20.00396 -11.0457,0 -20.004,-8.95796 -20.004,-20.00396 z m 266.6711,0 c 0,-11.046 8.9538,-19.99877 19.9988,-19.99879 11.046,0 19.9987,8.95279 19.9987,19.99879 0,11.046 -8.9527,20.00396 -19.9987,20.00396 -11.045,0 -19.9988,-8.95796 -19.9988,-20.00396 z m 266.6658,0 c 0,-11.046 8.9528,-19.99877 19.9988,-19.99879 11.046,0 19.9988,8.95279 19.9988,19.99879 0,11.046 -8.9528,20.00396 -19.9988,20.00396 -11.046,0 -19.9988,-8.95796 -19.9988,-20.00396 z M 1921.0492,191.3627 c 0,-11.0461 8.9526,-19.9988 19.9987,-19.9988 11.0459,0 20.004,8.9527 20.004,19.9988 0,11.0459 -8.9581,19.9987 -20.004,19.9987 -11.046,0 -19.9987,-8.9528 -19.9987,-19.9987 z"
     style="font-style:normal;font-weight:400;font-size:29.1042px;font-family:'MS Shell Dlg 2';fill:#ffffff;fill-opacity:1;fill-rule:evenodd;stroke:#ff0000;stroke-width:1;stroke-linecap:square;stroke-linejoin:bevel"
     id="path12233-2-3" />
</svg>
