<?xml version="1.0" encoding="UTF-8" standalone="no"?>
<svg
   xmlns:dc="http://purl.org/dc/elements/1.1/"
   xmlns:cc="http://creativecommons.org/ns#"
   xmlns:rdf="http://www.w3.org/1999/02/22-rdf-syntax-ns#"
   xmlns:svg="http://www.w3.org/2000/svg"
   xmlns="http://www.w3.org/2000/svg"
   xmlns:sodipodi="http://sodipodi.sourceforge.net/DTD/sodipodi-0.dtd"
   xmlns:inkscape="http://www.inkscape.org/namespaces/inkscape"
   inkscape:version="1.0 (4035a4fb49, 2020-05-01)"
   sodipodi:docname="COTE_LATERAL.svg"
   id="svg1305"
   height="181.71584mm"
   version="1.2"
   width="281.97562mm"
   viewBox="0 0 2819.7562 1817.1584">
  <metadata
     id="metadata1309">
    <rdf:RDF>
      <cc:Work
         rdf:about="">
        <dc:format>image/svg+xml</dc:format>
        <dc:type
           rdf:resource="http://purl.org/dc/dcmitype/StillImage" />
        <dc:title>FreeCAD SVG Export</dc:title>
      </cc:Work>
    </rdf:RDF>
  </metadata>
  <sodipodi:namedview
     fit-margin-bottom="0"
     fit-margin-right="0"
     fit-margin-left="0"
     fit-margin-top="0"
     inkscape:current-layer="svg1305"
     inkscape:window-maximized="1"
     inkscape:window-y="161"
     inkscape:window-x="1072"
     inkscape:cy="441.05927"
     inkscape:cx="651.65301"
     inkscape:zoom="0.73720644"
     showgrid="false"
     id="namedview1307"
     inkscape:window-height="1017"
     inkscape:window-width="1920"
     inkscape:pageshadow="2"
     inkscape:pageopacity="0"
     guidetolerance="10"
     gridtolerance="10"
     objecttolerance="10"
     borderopacity="1"
     bordercolor="#666666"
     pagecolor="#ffffff" />
  <title
     id="title1121">FreeCAD SVG Export</title>
  <desc
     id="desc1123">Drawing page: Page exported from FreeCAD document: miniGraveuseCI_V2Mini</desc>
  <defs
     id="defs1125" />
  <rect
     y="1463.2084"
     width="0"
     x="1008.2293"
     height="0"
     id="rect1127"
     style="font-style:normal;font-weight:400;font-size:29.1042px;font-family:'MS Shell Dlg 2';fill:none;fill-rule:evenodd;stroke:#000000;stroke-width:1;stroke-linecap:square;stroke-linejoin:bevel;stroke-opacity:1" />
  <path
     d="m 2108.5912,92.952835 c -6.0998,-50.06175 -48.5181,-87.74902 -98.9503,-87.90636 L 547.7291,0.50475502 c -15.69305,-0.0483 -31.3849,0.27132 -47.06362,0.96072998 l -26.31883,31.54748 10.75051,88.230965 c 1.42201,11.67069 -5.47938,22.75519 -16.57943,26.62818 -11.09991,3.87409 -23.39837,-0.50758 -29.54555,-10.52864 -6.14808,-10.02096 -4.48578,-22.9734 3.99699,-31.11315 L 434.50566,36.769025 401.09635,10.593635 88.410015,48.692925 c -53.507272,6.5196 -92.2147844,54.273485 -87.52542745,107.972535 0.32743005,3.67941 2.64931905,6.88521 6.04922205,8.33161 l 10.5646374,4.50165 c 3.29316,1.39795 5.575181,4.44108 6.007338,7.98785 0.432156,3.54677 -1.051737,7.05399 -3.912862,9.20182 l -9.227839,6.93925 c -2.8512974,2.14663 -4.3501794,5.65568 -3.9180234,9.20245 L 104.87853,1010.6713 c 0.43215,3.5468 2.72916,6.5881 6.0125,7.9873 l 10.62477,4.5255 c 3.29316,1.398 5.57518,4.4411 6.00733,7.9879 0.43216,3.5467 -1.05173,7.054 -3.91286,9.2018 l -9.17457,6.9068 c -2.95312,2.2204 -4.43791,5.8848 -3.87224,9.5352 8.34234,53.254 57.38487,90.3211 110.89214,83.8015 l 312.68635,-38.0993 26.14645,-33.4319 -8.46351,-69.46133 c -10.18914,-5.8646 -14.91301,-18.039 -11.3511,-29.24298 3.56102,-11.204 14.44749,-18.4106 26.1529,-17.3154 11.70529,1.0943 21.06581,10.1922 22.48782,21.8629 l 10.75051,88.23101 33.12414,24.3046 c 15.38554,-3.0956 30.69564,-6.5482 45.91795,-10.3633 L 2096.9549,721.64573 c 48.919,-12.26275 81.0472,-59.02799 74.9474,-109.08965 z M 1659.8034,411.29155 c 1.0688,8.77172 -5.1737,16.75295 -13.9459,17.8218 -8.7712,1.06872 -16.7537,-5.17926 -17.8224,-13.95099 -1.0688,-8.77172 5.1804,-16.74864 13.9516,-17.81736 8.7722,-1.06885 16.7479,5.17482 17.8167,13.94655 z m -529.4164,64.50677 c 1.0688,8.77173 -5.1793,16.75364 -13.951,17.82242 -8.7717,1.0688 -16.7484,-5.17989 -17.8172,-13.95161 -1.0688,-8.77173 5.1747,-16.74794 13.9464,-17.81674 8.7717,-1.06877 16.753,5.1742 17.8218,13.94593 z m -529.42155,64.50741 c 1.0688,8.77172 -5.17469,16.75307 -13.94582,17.82179 -8.77213,1.06884 -16.74847,-5.17989 -17.81726,-13.95162 -1.0688,-8.77172 5.17432,-16.74789 13.94644,-17.81673 8.77113,-1.06872 16.74785,5.17483 17.81664,13.94656 z"
     style="font-style:normal;font-weight:400;font-size:29.1042px;font-family:'MS Shell Dlg 2';fill:none;fill-opacity:1;stroke:#ff0000;stroke-width:1;stroke-linecap:square;stroke-linejoin:bevel"
     id="path1131" />
  <rect
     y="1463.2084"
     width="0"
     x="1008.2293"
     height="0"
     id="rect1135"
     style="font-style:normal;font-weight:400;font-size:29.1042px;font-family:'MS Shell Dlg 2';fill:none;fill-rule:evenodd;stroke:#000000;stroke-width:1;stroke-linecap:square;stroke-linejoin:bevel;stroke-opacity:1" />
  <rect
     y="1463.2084"
     width="0"
     x="1008.2293"
     height="0"
     id="rect1143"
     style="font-style:normal;font-weight:400;font-size:29.1042px;font-family:'MS Shell Dlg 2';fill:none;fill-rule:evenodd;stroke:#000000;stroke-width:1;stroke-linecap:square;stroke-linejoin:bevel;stroke-opacity:1" />
  <rect
     y="1463.2084"
     width="0"
     x="1008.2293"
     height="0"
     id="rect1151"
     style="font-style:normal;font-weight:400;font-size:29.1042px;font-family:'MS Shell Dlg 2';fill:none;fill-rule:evenodd;stroke:#000000;stroke-width:1;stroke-linecap:square;stroke-linejoin:bevel;stroke-opacity:1" />
  <rect
     y="1463.2084"
     width="0"
     x="1008.2293"
     height="0"
     id="rect1159"
     style="font-style:normal;font-weight:400;font-size:29.1042px;font-family:'MS Shell Dlg 2';fill:none;fill-rule:evenodd;stroke:#000000;stroke-width:1;stroke-linecap:square;stroke-linejoin:bevel;stroke-opacity:1" />
  <path
     id="path1131-5"
     style="font-style:normal;font-weight:400;font-size:29.1042px;font-family:'MS Shell Dlg 2';fill:none;fill-opacity:1;stroke:#ff0000;stroke-width:1;stroke-linecap:square;stroke-linejoin:bevel"
     d="m 711.28008,1727.3667 c 6.20101,50.0493 48.69547,87.6506 99.12796,87.7061 l 1461.91786,1.5851 c 15.6931,0.016 31.3843,-0.3346 47.0615,-1.0559 l 26.2551,-31.6007 -10.929,-88.209 c -1.4456,-11.6678 5.4333,-22.7663 16.5256,-26.6617 11.092,-3.8965 23.3993,0.4603 29.5668,10.4689 6.1683,10.0085 4.5322,22.9643 -3.9341,31.1212 l 8.604,69.444 33.4621,26.1078 312.6087,-38.7316 c 53.494,-6.6278 92.1048,-54.4599 87.3069,-108.1493 -0.3349,-3.6787 -2.6633,-6.8799 -6.0661,-8.3194 l -10.5737,-4.4803 c -3.296,-1.3912 -5.5841,-4.4297 -6.0235,-7.9756 -0.4394,-3.5459 1.0375,-7.0561 3.8942,-9.2098 l 9.2138,-6.9578 c 2.847,-2.1524 4.3388,-5.6645 3.8994,-9.2104 l -100.065,-807.64049 c -0.4393,-3.54589 -2.7425,-6.58254 -6.0286,-7.97505 l -10.6339,-4.50405 c -3.296,-1.39129 -5.5842,-4.4298 -6.0235,-7.97568 -0.4394,-3.5459 1.0375,-7.05611 3.8942,-9.20971 l 9.1606,-6.92533 c 2.9486,-2.22645 4.426,-5.89372 3.853,-9.54294 -8.45,-53.23698 -57.5674,-90.20487 -111.0614,-83.57707 l -312.6087,38.73158 -26.0788,33.48468 8.604,69.44407 c 10.2009,5.84394 14.9495,18.00869 11.4102,29.21993 -3.5383,11.21114 -14.4102,18.43978 -26.1178,17.36819 -11.7075,-1.0706 -21.0864,-10.14958 -22.532,-21.81737 l -10.929,-88.20897 -33.1732,-24.23761 c -15.3792,3.12673 -30.6823,6.61029 -45.8969,10.45623 L 721.6449,1098.6516 c -48.89405,12.3617 -80.92761,59.1918 -74.72662,109.241 z m 448.14312,-319.2456 c -1.0866,-8.7696 5.1398,-16.7635 13.9098,-17.8501 8.7689,-1.0864 16.7641,5.1454 17.8506,13.9151 1.0865,8.7694 -5.1466,16.7589 -13.9156,17.8454 -8.7699,1.0865 -16.7583,-5.141 -17.8448,-13.9104 z m 529.2848,-65.5773 c -1.0866,-8.7697 5.1455,-16.7642 13.9149,-17.8508 8.7695,-1.0864 16.7589,5.1461 17.8454,13.9157 1.0866,8.7695 -5.1408,16.7583 -13.9104,17.8449 -8.7694,1.0864 -16.7634,-5.1404 -17.8499,-13.9098 z m 529.29,-65.578 c -1.0866,-8.7697 5.1408,-16.7636 13.9097,-17.8501 8.7699,-1.0866 16.7589,5.146 17.8455,13.9157 1.0865,8.7695 -5.1405,16.7583 -13.9104,17.8448 -8.769,1.0865 -16.7584,-5.1409 -17.8448,-13.9104 z" />
</svg>
