999
"DXF R12 Output" (www.mydxf.blogspot.com)
 0 
SECTION
 2 
HEADER
 9 
$ACADVER
 1 
AC1009
 9 
$EXTMIN
 10 
 0 
 20 
 0 
 9 
$EXTMAX
 10 
 8.5 
 20 
 11 
 0 
ENDSEC
 0 
SECTION
 2 
ENTITIES
0
LINE
8
Layer 1
10
1040.000000
20
1190.000000
11
1930.000000
21
1190.000000
0
LINE
8
Layer 1
10
1930.000000
20
1190.000000
11
1960.000000
21
1160.000000
0
LINE
8
Layer 1
10
1960.000000
20
940.000000
11
1960.000000
21
1160.000000
0
LINE
8
Layer 1
10
1960.000000
20
940.000000
11
1930.000000
21
910.000000
0
LINE
8
Layer 1
10
1040.000000
20
910.000000
11
1930.000000
21
910.000000
0
LINE
8
Layer 1
10
1040.000000
20
910.000000
11
1010.000000
21
940.000000
0
LINE
8
Layer 1
10
1010.000000
20
1160.000000
11
1010.000000
21
940.000000
0
LINE
8
Layer 1
10
1040.000000
20
1190.000000
11
1010.000000
21
1160.000000
0
LINE
8
Layer 1
10
1530.000000
20
995.000000
11
1529.921928
21
998.087593
0
LINE
8
Layer 1
10
1529.921928
20
998.087593
11
1529.690227
21
1001.134654
0
LINE
8
Layer 1
10
1529.690227
20
1001.134654
11
1529.308665
21
1004.137412
0
LINE
8
Layer 1
10
1529.308665
20
1004.137412
11
1528.781014
21
1007.092097
0
LINE
8
Layer 1
10
1528.781014
20
1007.092097
11
1527.302520
21
1012.842170
0
LINE
8
Layer 1
10
1527.302520
20
1012.842170
11
1525.284905
21
1018.354714
0
LINE
8
Layer 1
10
1525.284905
20
1018.354714
11
1522.758327
21
1023.599569
0
LINE
8
Layer 1
10
1522.758327
20
1023.599569
11
1519.752946
21
1028.546577
0
LINE
8
Layer 1
10
1519.752946
20
1028.546577
11
1516.298922
21
1033.165578
0
LINE
8
Layer 1
10
1516.298922
20
1033.165578
11
1512.426412
21
1037.426412
0
LINE
8
Layer 1
10
1512.426412
20
1037.426412
11
1508.165578
21
1041.298922
0
LINE
8
Layer 1
10
1508.165578
20
1041.298922
11
1503.546577
21
1044.752946
0
LINE
8
Layer 1
10
1503.546577
20
1044.752946
11
1498.599569
21
1047.758327
0
LINE
8
Layer 1
10
1498.599569
20
1047.758327
11
1493.354714
21
1050.284905
0
LINE
8
Layer 1
10
1493.354714
20
1050.284905
11
1487.842170
21
1052.302520
0
LINE
8
Layer 1
10
1487.842170
20
1052.302520
11
1482.092097
21
1053.781014
0
LINE
8
Layer 1
10
1482.092097
20
1053.781014
11
1479.137412
21
1054.308665
0
LINE
8
Layer 1
10
1479.137412
20
1054.308665
11
1476.134654
21
1054.690227
0
LINE
8
Layer 1
10
1476.134654
20
1054.690227
11
1473.087593
21
1054.921928
0
LINE
8
Layer 1
10
1473.087593
20
1054.921928
11
1470.000000
21
1055.000000
0
LINE
8
Layer 1
10
1470.000000
20
1055.000000
11
1466.912407
21
1054.921928
0
LINE
8
Layer 1
10
1466.912407
20
1054.921928
11
1463.865346
21
1054.690227
0
LINE
8
Layer 1
10
1463.865346
20
1054.690227
11
1460.862588
21
1054.308665
0
LINE
8
Layer 1
10
1460.862588
20
1054.308665
11
1457.907903
21
1053.781014
0
LINE
8
Layer 1
10
1457.907903
20
1053.781014
11
1452.157830
21
1052.302520
0
LINE
8
Layer 1
10
1452.157830
20
1052.302520
11
1446.645286
21
1050.284905
0
LINE
8
Layer 1
10
1446.645286
20
1050.284905
11
1441.400431
21
1047.758327
0
LINE
8
Layer 1
10
1441.400431
20
1047.758327
11
1436.453423
21
1044.752946
0
LINE
8
Layer 1
10
1436.453423
20
1044.752946
11
1431.834422
21
1041.298922
0
LINE
8
Layer 1
10
1431.834422
20
1041.298922
11
1427.573588
21
1037.426412
0
LINE
8
Layer 1
10
1427.573588
20
1037.426412
11
1423.701078
21
1033.165578
0
LINE
8
Layer 1
10
1423.701078
20
1033.165578
11
1420.247054
21
1028.546577
0
LINE
8
Layer 1
10
1420.247054
20
1028.546577
11
1417.241673
21
1023.599569
0
LINE
8
Layer 1
10
1417.241673
20
1023.599569
11
1414.715095
21
1018.354714
0
LINE
8
Layer 1
10
1414.715095
20
1018.354714
11
1412.697480
21
1012.842170
0
LINE
8
Layer 1
10
1412.697480
20
1012.842170
11
1411.218986
21
1007.092097
0
LINE
8
Layer 1
10
1411.218986
20
1007.092097
11
1410.691335
21
1004.137412
0
LINE
8
Layer 1
10
1410.691335
20
1004.137412
11
1410.309773
21
1001.134654
0
LINE
8
Layer 1
10
1410.309773
20
1001.134654
11
1410.078072
21
998.087593
0
LINE
8
Layer 1
10
1410.078072
20
998.087593
11
1410.000000
21
995.000000
0
LINE
8
Layer 1
10
1410.000000
20
995.000000
11
1410.078072
21
991.912407
0
LINE
8
Layer 1
10
1410.078072
20
991.912407
11
1410.309773
21
988.865346
0
LINE
8
Layer 1
10
1410.309773
20
988.865346
11
1410.691335
21
985.862588
0
LINE
8
Layer 1
10
1410.691335
20
985.862588
11
1411.218986
21
982.907903
0
LINE
8
Layer 1
10
1411.218986
20
982.907903
11
1412.697480
21
977.157830
0
LINE
8
Layer 1
10
1412.697480
20
977.157830
11
1414.715095
21
971.645286
0
LINE
8
Layer 1
10
1414.715095
20
971.645286
11
1417.241673
21
966.400431
0
LINE
8
Layer 1
10
1417.241673
20
966.400431
11
1420.247054
21
961.453423
0
LINE
8
Layer 1
10
1420.247054
20
961.453423
11
1423.701078
21
956.834422
0
LINE
8
Layer 1
10
1423.701078
20
956.834422
11
1427.573588
21
952.573588
0
LINE
8
Layer 1
10
1427.573588
20
952.573588
11
1431.834422
21
948.701078
0
LINE
8
Layer 1
10
1431.834422
20
948.701078
11
1436.453423
21
945.247054
0
LINE
8
Layer 1
10
1436.453423
20
945.247054
11
1441.400431
21
942.241673
0
LINE
8
Layer 1
10
1441.400431
20
942.241673
11
1446.645286
21
939.715095
0
LINE
8
Layer 1
10
1446.645286
20
939.715095
11
1452.157830
21
937.697480
0
LINE
8
Layer 1
10
1452.157830
20
937.697480
11
1457.907903
21
936.218986
0
LINE
8
Layer 1
10
1457.907903
20
936.218986
11
1460.862588
21
935.691335
0
LINE
8
Layer 1
10
1460.862588
20
935.691335
11
1463.865346
21
935.309773
0
LINE
8
Layer 1
10
1463.865346
20
935.309773
11
1466.912407
21
935.078072
0
LINE
8
Layer 1
10
1466.912407
20
935.078072
11
1470.000000
21
935.000000
0
LINE
8
Layer 1
10
1470.000000
20
935.000000
11
1473.087593
21
935.078072
0
LINE
8
Layer 1
10
1473.087593
20
935.078072
11
1476.134654
21
935.309773
0
LINE
8
Layer 1
10
1476.134654
20
935.309773
11
1479.137412
21
935.691335
0
LINE
8
Layer 1
10
1479.137412
20
935.691335
11
1482.092097
21
936.218986
0
LINE
8
Layer 1
10
1482.092097
20
936.218986
11
1487.842170
21
937.697480
0
LINE
8
Layer 1
10
1487.842170
20
937.697480
11
1493.354714
21
939.715095
0
LINE
8
Layer 1
10
1493.354714
20
939.715095
11
1498.599569
21
942.241673
0
LINE
8
Layer 1
10
1498.599569
20
942.241673
11
1503.546577
21
945.247054
0
LINE
8
Layer 1
10
1503.546577
20
945.247054
11
1508.165578
21
948.701078
0
LINE
8
Layer 1
10
1508.165578
20
948.701078
11
1512.426412
21
952.573588
0
LINE
8
Layer 1
10
1512.426412
20
952.573588
11
1516.298922
21
956.834422
0
LINE
8
Layer 1
10
1516.298922
20
956.834422
11
1519.752946
21
961.453423
0
LINE
8
Layer 1
10
1519.752946
20
961.453423
11
1522.758327
21
966.400431
0
LINE
8
Layer 1
10
1522.758327
20
966.400431
11
1525.284905
21
971.645286
0
LINE
8
Layer 1
10
1525.284905
20
971.645286
11
1527.302520
21
977.157830
0
LINE
8
Layer 1
10
1527.302520
20
977.157830
11
1528.781014
21
982.907903
0
LINE
8
Layer 1
10
1528.781014
20
982.907903
11
1529.308665
21
985.862588
0
LINE
8
Layer 1
10
1529.308665
20
985.862588
11
1529.690227
21
988.865346
0
LINE
8
Layer 1
10
1529.690227
20
988.865346
11
1529.921928
21
991.912407
0
LINE
8
Layer 1
10
1529.921928
20
991.912407
11
1530.000000
21
995.000000
0
LINE
8
Layer 1
10
1924.000000
20
1136.500000
11
1923.909650
21
1138.289276
0
LINE
8
Layer 1
10
1923.909650
20
1138.289276
11
1923.644463
21
1140.026865
0
LINE
8
Layer 1
10
1923.644463
20
1140.026865
11
1923.213236
21
1141.703971
0
LINE
8
Layer 1
10
1923.213236
20
1141.703971
11
1922.624766
21
1143.311797
0
LINE
8
Layer 1
10
1922.624766
20
1143.311797
11
1921.887848
21
1144.841547
0
LINE
8
Layer 1
10
1921.887848
20
1144.841547
11
1921.011279
21
1146.284424
0
LINE
8
Layer 1
10
1921.011279
20
1146.284424
11
1920.003856
21
1147.631632
0
LINE
8
Layer 1
10
1920.003856
20
1147.631632
11
1918.874375
21
1148.874375
0
LINE
8
Layer 1
10
1918.874375
20
1148.874375
11
1917.631632
21
1150.003856
0
LINE
8
Layer 1
10
1917.631632
20
1150.003856
11
1916.284424
21
1151.011279
0
LINE
8
Layer 1
10
1916.284424
20
1151.011279
11
1914.841547
21
1151.887848
0
LINE
8
Layer 1
10
1914.841547
20
1151.887848
11
1913.311797
21
1152.624766
0
LINE
8
Layer 1
10
1913.311797
20
1152.624766
11
1911.703971
21
1153.213236
0
LINE
8
Layer 1
10
1911.703971
20
1153.213236
11
1910.026865
21
1153.644463
0
LINE
8
Layer 1
10
1910.026865
20
1153.644463
11
1908.289276
21
1153.909650
0
LINE
8
Layer 1
10
1908.289276
20
1153.909650
11
1906.500000
21
1154.000000
0
LINE
8
Layer 1
10
1906.500000
20
1154.000000
11
1904.710724
21
1153.909650
0
LINE
8
Layer 1
10
1904.710724
20
1153.909650
11
1902.973135
21
1153.644463
0
LINE
8
Layer 1
10
1902.973135
20
1153.644463
11
1901.296029
21
1153.213236
0
LINE
8
Layer 1
10
1901.296029
20
1153.213236
11
1899.688203
21
1152.624766
0
LINE
8
Layer 1
10
1899.688203
20
1152.624766
11
1898.158453
21
1151.887848
0
LINE
8
Layer 1
10
1898.158453
20
1151.887848
11
1896.715576
21
1151.011279
0
LINE
8
Layer 1
10
1896.715576
20
1151.011279
11
1895.368368
21
1150.003856
0
LINE
8
Layer 1
10
1895.368368
20
1150.003856
11
1894.125625
21
1148.874375
0
LINE
8
Layer 1
10
1894.125625
20
1148.874375
11
1892.996144
21
1147.631632
0
LINE
8
Layer 1
10
1892.996144
20
1147.631632
11
1891.988721
21
1146.284424
0
LINE
8
Layer 1
10
1891.988721
20
1146.284424
11
1891.112152
21
1144.841547
0
LINE
8
Layer 1
10
1891.112152
20
1144.841547
11
1890.375234
21
1143.311797
0
LINE
8
Layer 1
10
1890.375234
20
1143.311797
11
1889.786764
21
1141.703971
0
LINE
8
Layer 1
10
1889.786764
20
1141.703971
11
1889.355537
21
1140.026865
0
LINE
8
Layer 1
10
1889.355537
20
1140.026865
11
1889.090350
21
1138.289276
0
LINE
8
Layer 1
10
1889.090350
20
1138.289276
11
1889.000000
21
1136.500000
0
LINE
8
Layer 1
10
1889.000000
20
1136.500000
11
1889.090350
21
1134.710724
0
LINE
8
Layer 1
10
1889.090350
20
1134.710724
11
1889.355537
21
1132.973135
0
LINE
8
Layer 1
10
1889.355537
20
1132.973135
11
1889.786764
21
1131.296029
0
LINE
8
Layer 1
10
1889.786764
20
1131.296029
11
1890.375234
21
1129.688203
0
LINE
8
Layer 1
10
1890.375234
20
1129.688203
11
1891.112152
21
1128.158453
0
LINE
8
Layer 1
10
1891.112152
20
1128.158453
11
1891.988721
21
1126.715576
0
LINE
8
Layer 1
10
1891.988721
20
1126.715576
11
1892.996144
21
1125.368368
0
LINE
8
Layer 1
10
1892.996144
20
1125.368368
11
1894.125625
21
1124.125625
0
LINE
8
Layer 1
10
1894.125625
20
1124.125625
11
1895.368368
21
1122.996144
0
LINE
8
Layer 1
10
1895.368368
20
1122.996144
11
1896.715576
21
1121.988721
0
LINE
8
Layer 1
10
1896.715576
20
1121.988721
11
1898.158453
21
1121.112152
0
LINE
8
Layer 1
10
1898.158453
20
1121.112152
11
1899.688203
21
1120.375234
0
LINE
8
Layer 1
10
1899.688203
20
1120.375234
11
1901.296029
21
1119.786764
0
LINE
8
Layer 1
10
1901.296029
20
1119.786764
11
1902.973135
21
1119.355537
0
LINE
8
Layer 1
10
1902.973135
20
1119.355537
11
1904.710724
21
1119.090350
0
LINE
8
Layer 1
10
1904.710724
20
1119.090350
11
1906.500000
21
1119.000000
0
LINE
8
Layer 1
10
1906.500000
20
1119.000000
11
1908.289276
21
1119.090350
0
LINE
8
Layer 1
10
1908.289276
20
1119.090350
11
1910.026865
21
1119.355537
0
LINE
8
Layer 1
10
1910.026865
20
1119.355537
11
1911.703971
21
1119.786764
0
LINE
8
Layer 1
10
1911.703971
20
1119.786764
11
1913.311797
21
1120.375234
0
LINE
8
Layer 1
10
1913.311797
20
1120.375234
11
1914.841547
21
1121.112152
0
LINE
8
Layer 1
10
1914.841547
20
1121.112152
11
1916.284424
21
1121.988721
0
LINE
8
Layer 1
10
1916.284424
20
1121.988721
11
1917.631632
21
1122.996144
0
LINE
8
Layer 1
10
1917.631632
20
1122.996144
11
1918.874375
21
1124.125625
0
LINE
8
Layer 1
10
1918.874375
20
1124.125625
11
1920.003856
21
1125.368368
0
LINE
8
Layer 1
10
1920.003856
20
1125.368368
11
1921.011279
21
1126.715576
0
LINE
8
Layer 1
10
1921.011279
20
1126.715576
11
1921.887848
21
1128.158453
0
LINE
8
Layer 1
10
1921.887848
20
1128.158453
11
1922.624766
21
1129.688203
0
LINE
8
Layer 1
10
1922.624766
20
1129.688203
11
1923.213236
21
1131.296029
0
LINE
8
Layer 1
10
1923.213236
20
1131.296029
11
1923.644463
21
1132.973135
0
LINE
8
Layer 1
10
1923.644463
20
1132.973135
11
1923.909650
21
1134.710724
0
LINE
8
Layer 1
10
1923.909650
20
1134.710724
11
1924.000000
21
1136.500000
0
LINE
8
Layer 1
10
1081.000000
20
1136.500000
11
1080.909650
21
1138.289276
0
LINE
8
Layer 1
10
1080.909650
20
1138.289276
11
1080.644463
21
1140.026865
0
LINE
8
Layer 1
10
1080.644463
20
1140.026865
11
1080.213236
21
1141.703971
0
LINE
8
Layer 1
10
1080.213236
20
1141.703971
11
1079.624766
21
1143.311797
0
LINE
8
Layer 1
10
1079.624766
20
1143.311797
11
1078.887848
21
1144.841547
0
LINE
8
Layer 1
10
1078.887848
20
1144.841547
11
1078.011279
21
1146.284424
0
LINE
8
Layer 1
10
1078.011279
20
1146.284424
11
1077.003856
21
1147.631632
0
LINE
8
Layer 1
10
1077.003856
20
1147.631632
11
1075.874375
21
1148.874375
0
LINE
8
Layer 1
10
1075.874375
20
1148.874375
11
1074.631632
21
1150.003856
0
LINE
8
Layer 1
10
1074.631632
20
1150.003856
11
1073.284424
21
1151.011279
0
LINE
8
Layer 1
10
1073.284424
20
1151.011279
11
1071.841547
21
1151.887848
0
LINE
8
Layer 1
10
1071.841547
20
1151.887848
11
1070.311797
21
1152.624766
0
LINE
8
Layer 1
10
1070.311797
20
1152.624766
11
1068.703971
21
1153.213236
0
LINE
8
Layer 1
10
1068.703971
20
1153.213236
11
1067.026865
21
1153.644463
0
LINE
8
Layer 1
10
1067.026865
20
1153.644463
11
1065.289276
21
1153.909650
0
LINE
8
Layer 1
10
1065.289276
20
1153.909650
11
1063.500000
21
1154.000000
0
LINE
8
Layer 1
10
1063.500000
20
1154.000000
11
1061.710724
21
1153.909650
0
LINE
8
Layer 1
10
1061.710724
20
1153.909650
11
1059.973135
21
1153.644463
0
LINE
8
Layer 1
10
1059.973135
20
1153.644463
11
1058.296029
21
1153.213236
0
LINE
8
Layer 1
10
1058.296029
20
1153.213236
11
1056.688203
21
1152.624766
0
LINE
8
Layer 1
10
1056.688203
20
1152.624766
11
1055.158453
21
1151.887848
0
LINE
8
Layer 1
10
1055.158453
20
1151.887848
11
1053.715576
21
1151.011279
0
LINE
8
Layer 1
10
1053.715576
20
1151.011279
11
1052.368368
21
1150.003856
0
LINE
8
Layer 1
10
1052.368368
20
1150.003856
11
1051.125625
21
1148.874375
0
LINE
8
Layer 1
10
1051.125625
20
1148.874375
11
1049.996144
21
1147.631632
0
LINE
8
Layer 1
10
1049.996144
20
1147.631632
11
1048.988721
21
1146.284424
0
LINE
8
Layer 1
10
1048.988721
20
1146.284424
11
1048.112152
21
1144.841547
0
LINE
8
Layer 1
10
1048.112152
20
1144.841547
11
1047.375234
21
1143.311797
0
LINE
8
Layer 1
10
1047.375234
20
1143.311797
11
1046.786764
21
1141.703971
0
LINE
8
Layer 1
10
1046.786764
20
1141.703971
11
1046.355537
21
1140.026865
0
LINE
8
Layer 1
10
1046.355537
20
1140.026865
11
1046.090350
21
1138.289276
0
LINE
8
Layer 1
10
1046.090350
20
1138.289276
11
1046.000000
21
1136.500000
0
LINE
8
Layer 1
10
1046.000000
20
1136.500000
11
1046.090350
21
1134.710724
0
LINE
8
Layer 1
10
1046.090350
20
1134.710724
11
1046.355537
21
1132.973135
0
LINE
8
Layer 1
10
1046.355537
20
1132.973135
11
1046.786764
21
1131.296029
0
LINE
8
Layer 1
10
1046.786764
20
1131.296029
11
1047.375234
21
1129.688203
0
LINE
8
Layer 1
10
1047.375234
20
1129.688203
11
1048.112152
21
1128.158453
0
LINE
8
Layer 1
10
1048.112152
20
1128.158453
11
1048.988721
21
1126.715576
0
LINE
8
Layer 1
10
1048.988721
20
1126.715576
11
1049.996144
21
1125.368368
0
LINE
8
Layer 1
10
1049.996144
20
1125.368368
11
1051.125625
21
1124.125625
0
LINE
8
Layer 1
10
1051.125625
20
1124.125625
11
1052.368368
21
1122.996144
0
LINE
8
Layer 1
10
1052.368368
20
1122.996144
11
1053.715576
21
1121.988721
0
LINE
8
Layer 1
10
1053.715576
20
1121.988721
11
1055.158453
21
1121.112152
0
LINE
8
Layer 1
10
1055.158453
20
1121.112152
11
1056.688203
21
1120.375234
0
LINE
8
Layer 1
10
1056.688203
20
1120.375234
11
1058.296029
21
1119.786764
0
LINE
8
Layer 1
10
1058.296029
20
1119.786764
11
1059.973135
21
1119.355537
0
LINE
8
Layer 1
10
1059.973135
20
1119.355537
11
1061.710724
21
1119.090350
0
LINE
8
Layer 1
10
1061.710724
20
1119.090350
11
1063.500000
21
1119.000000
0
LINE
8
Layer 1
10
1063.500000
20
1119.000000
11
1065.289276
21
1119.090350
0
LINE
8
Layer 1
10
1065.289276
20
1119.090350
11
1067.026865
21
1119.355537
0
LINE
8
Layer 1
10
1067.026865
20
1119.355537
11
1068.703971
21
1119.786764
0
LINE
8
Layer 1
10
1068.703971
20
1119.786764
11
1070.311797
21
1120.375234
0
LINE
8
Layer 1
10
1070.311797
20
1120.375234
11
1071.841547
21
1121.112152
0
LINE
8
Layer 1
10
1071.841547
20
1121.112152
11
1073.284424
21
1121.988721
0
LINE
8
Layer 1
10
1073.284424
20
1121.988721
11
1074.631632
21
1122.996144
0
LINE
8
Layer 1
10
1074.631632
20
1122.996144
11
1075.874375
21
1124.125625
0
LINE
8
Layer 1
10
1075.874375
20
1124.125625
11
1077.003856
21
1125.368368
0
LINE
8
Layer 1
10
1077.003856
20
1125.368368
11
1078.011279
21
1126.715576
0
LINE
8
Layer 1
10
1078.011279
20
1126.715576
11
1078.887848
21
1128.158453
0
LINE
8
Layer 1
10
1078.887848
20
1128.158453
11
1079.624766
21
1129.688203
0
LINE
8
Layer 1
10
1079.624766
20
1129.688203
11
1080.213236
21
1131.296029
0
LINE
8
Layer 1
10
1080.213236
20
1131.296029
11
1080.644463
21
1132.973135
0
LINE
8
Layer 1
10
1080.644463
20
1132.973135
11
1080.909650
21
1134.710724
0
LINE
8
Layer 1
10
1080.909650
20
1134.710724
11
1081.000000
21
1136.500000
 0 
ENDSEC
 0 
EOF