<?xml version="1.0" encoding="UTF-8" standalone="no"?>
<svg
   xmlns:dc="http://purl.org/dc/elements/1.1/"
   xmlns:cc="http://creativecommons.org/ns#"
   xmlns:rdf="http://www.w3.org/1999/02/22-rdf-syntax-ns#"
   xmlns:svg="http://www.w3.org/2000/svg"
   xmlns="http://www.w3.org/2000/svg"
   xmlns:sodipodi="http://sodipodi.sourceforge.net/DTD/sodipodi-0.dtd"
   xmlns:inkscape="http://www.inkscape.org/namespaces/inkscape"
   inkscape:version="1.0 (4035a4fb49, 2020-05-01)"
   sodipodi:docname="FRONT_LASER.svg"
   id="svg6312"
   version="1.1"
   height="594.38434"
   width="454.5433"
   viewBox="0 0 454.54329 594.38436">
  <metadata
     id="metadata6316">
    <rdf:RDF>
      <cc:Work
         rdf:about="">
        <dc:format>image/svg+xml</dc:format>
        <dc:type
           rdf:resource="http://purl.org/dc/dcmitype/StillImage" />
        <dc:title></dc:title>
      </cc:Work>
    </rdf:RDF>
  </metadata>
  <sodipodi:namedview
     inkscape:current-layer="g6232"
     inkscape:window-maximized="1"
     inkscape:window-y="161"
     inkscape:window-x="1072"
     inkscape:cy="683.45688"
     inkscape:cx="103.81435"
     inkscape:zoom="0.36860323"
     fit-margin-bottom="0"
     fit-margin-right="0"
     fit-margin-left="0"
     fit-margin-top="0"
     showgrid="false"
     id="namedview6314"
     inkscape:window-height="1017"
     inkscape:window-width="1920"
     inkscape:pageshadow="2"
     inkscape:pageopacity="0"
     guidetolerance="10"
     gridtolerance="10"
     objecttolerance="10"
     borderopacity="1"
     bordercolor="#666666"
     pagecolor="#ffffff" />
  <defs
     id="defs6230">
    <marker
       style="overflow:visible"
       refY="0"
       refX="0"
       orient="auto"
       id="DistanceX">
      <path
         id="path6218"
         style="stroke:#000000;stroke-width:0.5"
         d="M 3,-3 -3,3 M 0,-5 V 5" />
    </marker>
    <pattern
       y="0"
       x="0"
       height="8"
       width="8"
       patternUnits="userSpaceOnUse"
       id="Hatch">
      <path
         id="path6221"
         linecap="square"
         stroke-width="0.25"
         stroke="#000000"
         d="M8 4 l-4,4" />
      <path
         id="path6223"
         linecap="square"
         stroke-width="0.25"
         stroke="#000000"
         d="M6 2 l-4,4" />
      <path
         id="path6225"
         linecap="square"
         stroke-width="0.25"
         stroke="#000000"
         d="M4 0 l-4,4" />
    </pattern>
    <symbol
       id="*MODEL_SPACE" />
    <symbol
       id="*PAPER_SPACE" />
  </defs>
  <g
     transform="translate(-87.31293,43.11034)"
     id="g6232"
     inkscape:label="0"
     inkscape:groupmode="layer">
    <g
       transform="rotate(180,198.53663,370.67025)"
       id="g7086">
      <g
         id="g5399"
         transform="translate(-950.8057,151.76981)"
         style="fill:none;stroke:#ff0000;stroke-width:1.1;stroke-miterlimit:4;stroke-dasharray:none">
        <path
           id="path1694"
           style="fill:none;stroke:#ff0000;stroke-width:1.1;stroke-linecap:round;stroke-linejoin:round;stroke-miterlimit:4;stroke-dasharray:none;paint-order:stroke markers fill"
           d="m 1036.7269,104.56401 -1.7305,2.9961 8.252,14.29101 h 16.5019 l 8.252,-14.29101 -0.1289,-0.22266 c -10.2978,-1.70515 -20.7094,-2.63225 -31.1465,-2.77344 z m -39.21293,3.19727 c -9.69465,1.72436 -19.25453,4.13537 -28.60742,7.21484 l 3.96875,6.875 h 16.50195 z m 10.59383,5.84765 -8.25008,14.29297 8.25008,14.29102 h 16.5019 l 8.252,-14.29102 -8.252,-14.29297 z m 70.373,0 -8.2519,14.29297 8.2519,14.29102 h 16.502 l 8.2519,-14.29102 -8.1777,-14.16406 c -0.1399,-0.0431 -0.2799,-0.0861 -0.4199,-0.12891 z m -121.05277,5.52539 c -8.89603,3.52159 -17.53832,7.65316 -25.86523,12.36524 l 6.17383,10.69336 h 16.50195 l 8.25,-14.29102 z m 14.58399,13.58399 -8.25,14.29297 8.25,14.29101 h 16.50195 l 8.25195,-14.29101 -8.25195,-14.29297 z m 70.37308,0 -8.252,14.29297 8.252,14.29101 h 16.502 l 8.2519,-14.29101 -8.2519,-14.29297 z m 70.373,0 -8.2519,14.29297 8.2519,14.29101 h 16.502 l 8.25,-14.29101 -8.25,-14.29297 z M 921.096,137.8355 c -8.06869,5.21465 -15.76618,10.98238 -23.03711,17.26171 l 3.58203,6.20508 h 16.50196 l 8.25,-14.29101 z m 16.59375,13.64843 -8.25195,14.29297 8.25195,14.29102 h 16.50196 l 8.25195,-14.29102 -8.25195,-14.29297 z m 70.37305,0 -8.25195,14.29297 8.25195,14.29102 h 16.502 l 8.25,-14.29102 -8.25,-14.29297 z m 70.3711,0 -8.25,14.29297 8.25,14.29102 h 16.502 l 8.2519,-14.29102 -8.2519,-14.29297 z m 70.3731,0 -8.252,14.29297 8.252,14.29102 h 16.5019 l 8.252,-14.29102 -8.252,-14.29297 z m -258.71686,10.86328 c -5.82425,5.58259 -11.31857,11.4995 -16.45507,17.72071 h 10.18359 l 8.25195,-14.29102 z m 12.45899,9.47852 -8.25,14.29102 8.25,14.29296 h 16.5039 l 8.25,-14.29296 -8.25,-14.29102 z m 70.37305,0 -8.25,14.29102 8.25,14.29296 h 16.50195 l 8.25195,-14.29296 -8.25195,-14.29102 z m 70.37312,0 -8.252,14.29102 8.252,14.29296 h 16.5019 l 8.25,-14.29296 -8.25,-14.29102 z m 70.3711,0 -8.25,14.29102 8.25,14.29296 h 16.5019 l 8.252,-14.29296 -8.252,-14.29102 z m 70.373,0 -8.252,14.29102 8.252,14.29296 h 16.502 l 3.9433,-6.82812 c -5.3197,-7.63409 -11.1459,-14.90239 -17.4394,-21.75586 z m -317.58598,18.83398 -8.25,14.29102 8.25,14.29102 h 16.50196 l 8.25195,-14.29102 -8.25195,-14.29102 z m 70.37305,0 -8.25195,14.29102 8.25195,14.29102 h 16.50195 l 8.25196,-14.29102 -8.25196,-14.29102 z m 70.37313,0 -8.25203,14.29102 8.25203,14.29102 h 16.5019 l 8.25,-14.29102 -8.25,-14.29102 z m 70.371,0 -8.25,14.29102 8.25,14.29102 h 16.502 l 8.252,-14.29102 -8.252,-14.29102 z m 70.3731,0 -8.252,14.29102 8.252,14.29102 h 16.5019 l 8.252,-14.29102 -8.252,-14.29102 z m -245.43949,18.76563 -8.25196,14.29101 8.25196,14.29102 h 16.50195 l 8.25,-14.29102 -8.25,-14.29101 z m 70.37109,0 -8.25,14.29101 8.25,14.29102 h 16.50195 l 8.25196,-14.29102 -8.25196,-14.29101 z m 70.3731,0 -8.252,14.29101 8.252,14.29102 h 16.5019 l 8.252,-14.29102 -8.252,-14.29101 z m 70.373,0 -8.2519,14.29101 8.2519,14.29102 h 16.502 l 8.25,-14.29102 -8.25,-14.29101 z m 70.3711,0 -8.25,14.29101 8.25,14.29102 h 16.502 l 8.2519,-14.29102 -8.2519,-14.29101 z m -332.94728,4.17773 c -4.25977,7.88456 -8.00522,16.03634 -11.21289,24.4043 h 8.80078 l 8.25196,-14.29102 z m 16.31836,16.16407 -8.25195,14.29101 8.25195,14.29102 h 16.50195 l 8.25196,-14.29102 -8.25196,-14.29101 z m 70.37305,0 -8.25195,14.29101 8.25195,14.29102 h 16.50195 l 8.25,-14.29102 -8.25,-14.29101 z m 70.37117,0 -8.25008,14.29101 8.25008,14.29102 h 16.5039 l 8.25,-14.29102 -8.25,-14.29101 z m 70.373,0 -8.2519,14.29101 8.2519,14.29102 h 16.502 l 8.2519,-14.29102 -8.2519,-14.29101 z m 70.3731,0 -8.252,14.29101 8.252,14.29102 h 16.5019 l 8.25,-14.29102 -8.25,-14.29101 z m 70.371,0 -8.25,14.29101 8.25,14.29102 h 15.4239 c -2.6283,-9.75731 -5.9646,-19.30998 -9.9824,-28.58203 z m -383.21874,19.10937 c -2.69342,8.389 -4.85077,16.94076 -6.45898,25.60352 l 1.7207,2.97851 h 16.50195 l 8.25195,-14.29101 -8.25195,-14.29102 z m 65.63476,0 -8.25195,14.29102 8.25195,14.29101 h 16.50196 l 8.25,-14.29101 -8.25,-14.29102 z m 70.3711,0 -8.25,14.29102 8.25,14.29101 h 16.50195 l 8.25195,-14.29101 -8.25195,-14.29102 z m 70.37308,0 -8.252,14.29102 8.252,14.29101 h 16.502 l 8.2519,-14.29101 -8.2519,-14.29102 z m 70.373,0 -8.2519,14.29102 8.2519,14.29101 h 16.502 l 8.25,-14.29101 -8.25,-14.29102 z m 70.3711,0 -8.25,14.29102 8.25,14.29101 h 16.502 l 8.2519,-14.29101 -8.2519,-14.29102 z m -315.81249,18.76563 -8.25,14.29101 8.25,14.29102 h 16.50195 l 8.25195,-14.29102 -8.25195,-14.29101 z m 70.37304,0 -8.25195,14.29101 8.25195,14.29102 h 16.50196 l 8.25195,-14.29102 -8.25195,-14.29101 z m 70.37305,0 -8.25195,14.29101 8.25195,14.29102 h 16.502 l 8.25,-14.29102 -8.25,-14.29101 z m 70.3711,0 -8.25,14.29101 8.25,14.29102 h 16.502 l 8.2519,-14.29102 -8.2519,-14.29101 z m 70.3731,0 -8.252,14.29101 8.252,14.29102 h 16.5019 l 8.252,-14.29102 -8.252,-14.29101 z m 70.373,0 -8.2519,14.29101 8.2519,14.29102 h 16.502 l 4.6933,-8.12891 c -0.6746,-5.72229 -1.5868,-11.41405 -2.7343,-17.06055 l -1.959,-3.39257 z m -387.00197,20.33984 -5.59765,9.69531 c -0.20056,2.81385 -0.34382,5.63149 -0.42969,8.45117 l 6.02734,10.4375 h 16.50196 l 8.25,-14.29101 -8.25,-14.29297 z m 70.3711,0 -8.25,14.29297 8.25,14.29101 h 16.5039 l 8.25,-14.29101 -8.25,-14.29297 z m 70.37305,0 -8.25196,14.29297 8.25196,14.29101 h 16.50195 l 8.25195,-14.29101 -8.25195,-14.29297 z m 70.37312,0 -8.252,14.29297 8.252,14.29101 h 16.5019 l 8.25,-14.29101 -8.25,-14.29297 z m 70.3711,0 -8.25,14.29297 8.25,14.29101 h 16.5039 l 8.25,-14.29101 -8.25,-14.29297 z m 70.373,0 -8.252,14.29297 8.252,14.29101 h 16.502 l 8.2519,-14.29101 -8.2519,-14.29297 z m -317.58598,20.29297 -8.25,14.29101 8.25,14.29102 h 16.50196 l 8.25195,-14.29102 -8.25195,-14.29101 z m 70.37305,0 -8.25195,14.29101 8.25195,14.29102 h 16.50195 l 8.25196,-14.29102 -8.25196,-14.29101 z m 70.37313,0 -8.25203,14.29101 8.25203,14.29102 h 16.5019 l 8.25,-14.29102 -8.25,-14.29101 z m 70.371,0 -8.25,14.29101 8.25,14.29102 h 16.502 l 8.252,-14.29102 -8.252,-14.29101 z m 70.3731,0 -8.252,14.29101 8.252,14.29102 h 16.5019 l 8.252,-14.29102 -8.252,-14.29101 z m 70.373,0 -8.2519,14.29101 8.2519,14.29102 h 16.502 l 6.5742,-11.38867 c 0.1115,-1.78004 0.2,-3.56143 0.2656,-5.34375 l -6.8398,-11.84961 z m -386.18554,18.76562 -4.80469,8.32227 c 0.6015,5.4186 1.41593,10.81144 2.44141,16.16601 l 2.36328,4.09376 h 16.50195 l 8.25196,-14.29102 -8.25196,-14.29102 z m 70.37305,0 -8.25196,14.29102 8.25196,14.29102 h 16.50195 l 8.25,-14.29102 -8.25,-14.29102 z m 70.37109,0 -8.25,14.29102 8.25,14.29102 h 16.50195 l 8.25196,-14.29102 -8.25196,-14.29102 z m 70.3731,0 -8.252,14.29102 8.252,14.29102 h 16.5019 l 8.252,-14.29102 -8.252,-14.29102 z m 70.373,0 -8.2519,14.29102 8.2519,14.29102 h 16.502 l 8.25,-14.29102 -8.25,-14.29102 z m 70.3711,0 -8.25,14.29102 8.25,14.29102 h 16.502 l 8.2519,-14.29102 -8.2519,-14.29102 z m -316.62892,20.33985 -8.25195,14.29297 8.25195,14.29101 h 16.50195 l 8.25196,-14.29101 -8.25196,-14.29297 z m 70.37305,0 -8.25195,14.29297 8.25195,14.29101 h 16.50195 l 8.25,-14.29101 -8.25,-14.29297 z m 70.37117,0 -8.25008,14.29297 8.25008,14.29101 h 16.5039 l 8.25,-14.29101 -8.25,-14.29297 z m 70.373,0 -8.2519,14.29297 8.2519,14.29101 h 16.502 l 8.2519,-14.29101 -8.2519,-14.29297 z m 70.3731,0 -8.252,14.29297 8.252,14.29101 h 16.5019 l 8.25,-14.29101 -8.25,-14.29297 z m 70.371,0 -8.25,14.29297 8.25,14.29101 h 12.627 c 2.5763,-8.02469 4.6622,-16.19863 6.2461,-24.47656 l -2.3711,-4.10742 z m -386.01366,19.10937 c 2.62888,9.75803 5.96586,19.31136 9.98437,28.58399 h 4.57422 l 8.25195,-14.29102 -8.25195,-14.29297 z m 68.42968,0 -8.25195,14.29297 8.25195,14.29102 h 16.50196 l 8.25,-14.29102 -8.25,-14.29297 z m 70.3711,0 -8.25,14.29297 8.25,14.29102 h 16.50195 l 8.25195,-14.29102 -8.25195,-14.29297 z m 70.37308,0 -8.252,14.29297 8.252,14.29102 h 16.502 l 8.2519,-14.29102 -8.2519,-14.29297 z m 70.373,0 -8.2519,14.29297 8.2519,14.29102 h 16.502 l 8.25,-14.29102 -8.25,-14.29297 z m 70.3711,0 -8.25,14.29297 8.25,14.29102 h 16.502 l 8.2519,-14.29102 -8.2519,-14.29297 z m -315.81249,18.76563 -8.25,14.29297 8.25,14.29101 h 16.50195 l 8.25195,-14.29101 -8.25195,-14.29297 z m 70.37304,0 -8.25195,14.29297 8.25195,14.29101 h 16.50196 l 8.25195,-14.29101 -8.25195,-14.29297 z m 70.37305,0 -8.25195,14.29297 8.25195,14.29101 h 16.502 l 8.25,-14.29101 -8.25,-14.29297 z m 70.3711,0 -8.25,14.29297 8.25,14.29101 h 16.502 l 8.2519,-14.29101 -8.2519,-14.29297 z m 70.3731,0 -8.252,14.29297 8.252,14.29101 h 16.5019 l 8.252,-14.29101 -8.252,-14.29297 z m 70.373,0 -8.2519,14.29297 6.3008,10.91406 c 4.3543,-8.13997 8.1615,-16.56096 11.3964,-25.20703 z m -316.63087,20.34179 -8.25,14.29102 8.25,14.29297 h 16.5039 l 8.25,-14.29297 -8.25,-14.29102 z m 70.37305,0 -8.25196,14.29102 8.25196,14.29297 h 16.50195 l 8.25195,-14.29297 -8.25195,-14.29102 z m 70.37312,0 -8.252,14.29102 8.252,14.29297 h 16.5019 l 8.25,-14.29297 -8.25,-14.29102 z m 70.3711,0 -8.25,14.29102 8.25,14.29297 h 16.5019 l 8.252,-14.29297 -8.252,-14.29102 z m 70.373,0 -8.252,14.29102 8.252,14.29297 h 16.502 l 8.2519,-14.29297 -8.2519,-14.29102 z m -317.58598,18.83399 -3.54882,6.14844 c 5.44535,7.88157 11.42901,15.3773 17.9082,22.43358 h 2.14258 l 8.25195,-14.29101 -8.25195,-14.29101 z m 70.37305,0 -8.25195,14.29101 8.25195,14.29101 h 16.50195 l 8.25196,-14.29101 -8.25196,-14.29101 z m 70.37313,0 -8.25203,14.29101 8.25203,14.29101 h 16.5019 l 8.25,-14.29101 -8.25,-14.29101 z m 70.371,0 -8.25,14.29101 8.25,14.29101 h 16.502 l 8.252,-14.29101 -8.252,-14.29101 z m 70.3731,0 -8.252,14.29101 8.252,14.29101 h 16.5019 l 8.252,-14.29101 -8.252,-14.29101 z m -245.43949,18.76561 -8.25196,14.29102 8.25196,14.29101 h 16.50195 l 8.25,-14.29101 -8.25,-14.29102 z m 70.37109,0 -8.25,14.29102 8.25,14.29101 h 16.50195 l 8.25196,-14.29101 -8.25196,-14.29102 z m 70.3731,0 -8.252,14.29102 8.252,14.29101 h 16.5019 l 8.252,-14.29101 -8.252,-14.29102 z m 70.373,0 -8.2519,14.29102 8.2519,14.29101 h 16.502 l 8.25,-14.29101 -8.25,-14.29102 z m 70.3711,0 -8.25,14.29102 2.5821,4.4707 c 6.1069,-5.89708 11.8468,-12.16272 17.1875,-18.76172 z m -246.25587,20.3418 -8.25195,14.29102 8.25195,14.29101 h 16.50195 l 8.25,-14.29101 -8.25,-14.29102 z m 70.37117,0 -8.25008,14.29102 8.25008,14.29101 h 16.5019 l 8.252,-14.29101 -8.252,-14.29102 z m 70.373,0 -8.2519,14.29102 8.2519,14.29101 h 16.502 l 8.2519,-14.29101 -8.2519,-14.29102 z m 70.3731,0 -8.252,14.29102 5.5312,9.58007 c 8.084,-5.18374 15.7992,-10.92144 23.0899,-17.17187 l -3.8672,-6.69922 z m -176.84188,19.10938 -8.25,14.29101 7.98828,13.83789 c 0.48837,0.15285 0.97731,0.30389 1.4668,0.45313 h 15.29687 l 8.25195,-14.29102 -8.25195,-14.29101 z m 70.37308,0 -8.252,14.29101 8.252,14.29102 h 16.502 l 8.2519,-14.29102 -8.2519,-14.29101 z m 70.373,0 -8.2519,14.29101 5.2207,9.04102 c 8.9115,-3.48901 17.5714,-7.58926 25.918,-12.27149 l -6.3848,-11.06054 z m -104.6953,18.76562 -8.25195,14.29102 1.12895,1.95507 c 9.6752,1.5548 19.4483,2.4235 29.2461,2.59961 l 2.6289,-4.55468 -8.25,-14.29102 z m 70.3711,0 -8.25,14.29102 0.7344,1.27148 c 9.7489,-1.76276 19.3593,-4.22019 28.7578,-7.35351 l -4.7402,-8.20899 z"
           sodipodi:nodetypes="ccccccccccccccccccccccccccccccccccccccccccccccccccccccccccccccccccccccccccccccccccccccccccccccccccccccccccccccccccccccccccccccccccccccccccccccccccccccccccccccccccccccccccccccccccccccccccccccccccccccccccccccccccccccccccccccccccccccccccccccccccccccccccccccccccccccccccccccccccccccccccccccccccccccccccccccccccccccccccccccccccccccccccccccccccccccccccccccccccccccccccccccccccccccccccccccccccccccccccccccccccccccccccccccccccccccccccccccccccccccccccccccccccccccccccccccccccccccccccccccccccccccccccccccccccccccccccccccccccccccccccccccccccccccccccccccccccccccccccccccccccccccccccccccccccccccccccccccccccccccccccccccccccccccccccccccccccccccccccccccccccccccccccccccccccccccccccccccccccccccccccccccccccccccccccccccccccccccccccccccccccccccccccccccccccccccccc" />
      </g>
      <g
         id="g6956"
         transform="translate(-241.09794,-39.06968)">
        <g
           id="g6928">
          <path
             id="path6256"
             style="fill:none;stroke:#ff0000"
             d="M 196.05402,229.6362 H 100.59449" />
          <path
             id="path6258"
             style="fill:none;stroke:#ff0000"
             d="m 204.07161,232.9572 a 11.338583,11.338583 0 0 0 -8.01759,-3.321" />
          <path
             id="path6260"
             style="fill:none;stroke:#ff0000"
             d="m 96.814963,233.41573 3.779527,-3.77953" />
          <path
             id="path6262"
             style="fill:none;stroke:#ff0000"
             d="m 204.0704,232.95463 38.7137,38.7137" />
          <path
             id="path6264"
             style="fill:none;stroke:#ff0000"
             d="M 96.814963,233.41573 V 773.88666" />
          <path
             id="path6266"
             style="fill:none;stroke:#ff0000"
             d="m 242.78289,271.66954 a 11.338583,11.338583 0 0 0 8.01758,3.32099" />
          <path
             id="path6268"
             style="fill:none;stroke:#ff0000"
             d="m 96.814963,773.88666 3.779527,3.77953" />
          <path
             id="path6270"
             style="fill:none;stroke:#ff0000"
             d="M 250.80047,274.99053 H 396.36898" />
          <path
             id="path6272"
             style="fill:none;stroke:#ff0000"
             d="M 100.59449,777.66619 H 202.64173" />
          <path
             id="path6274"
             style="fill:none;stroke:#ff0000"
             d="m 396.36898,274.99053 a 11.338583,11.338583 0 0 0 8.01759,-3.32099" />
          <path
             id="path6276"
             style="fill:none;stroke:#ff0000"
             d="m 202.64173,777.66619 45.35434,45.35433" />
          <path
             id="path6278"
             style="fill:none;stroke:#ff0000"
             d="m 404.38536,271.66833 38.7137,-38.7137" />
          <path
             id="path6280"
             style="fill:none;stroke:#ff0000"
             d="m 247.99607,823.02052 h 151.1811" />
          <path
             id="path6282"
             style="fill:none;stroke:#ff0000"
             d="m 451.11544,229.6362 a 11.338583,11.338583 0 0 0 -8.01759,3.321" />
          <path
             id="path6284"
             style="fill:none;stroke:#ff0000"
             d="M 399.17717,823.02052 444.5315,777.66619" />
          <path
             id="path6286"
             style="fill:none;stroke:#ff0000"
             d="m 546.57874,229.6362 h -95.4633" />
          <path
             id="path6288"
             style="fill:none;stroke:#ff0000"
             d="M 444.5315,777.66619 H 546.57874" />
          <path
             id="path6290"
             style="fill:none;stroke:#ff0000"
             d="m 550.35827,233.41573 -3.77953,-3.77953" />
          <path
             id="path6292"
             style="fill:none;stroke:#ff0000"
             d="m 546.57874,777.66619 3.77953,-3.77953" />
          <path
             id="path6294"
             style="fill:none;stroke:#ff0000"
             d="M 550.35827,773.88666 V 233.41573" />
          <path
             id="path6296"
             style="fill:none;stroke:#ff0000"
             d="m 130.52835,702.75406 a 6.047245,6.047245 0 1 0 -12.09449,0 6.047245,6.047245 0 1 0 12.09449,0 z" />
          <path
             id="path6298"
             style="fill:none;stroke:#ff0000"
             d="m 351.93307,781.44572 a 28.346457,28.346457 0 1 0 -56.69291,0 28.346457,28.346457 0 1 0 56.69291,0 z" />
          <path
             id="path6300"
             style="fill:none;stroke:#ff0000"
             d="m 528.73559,304.54644 a 6.047245,6.047245 0 1 0 -12.09449,0 6.047245,6.047245 0 1 0 12.09449,0 z" />
          <path
             id="path6304"
             style="fill:none;stroke:#ff0000"
             d="m 130.52835,304.54644 a 6.047245,6.047245 0 1 0 -12.09449,0 6.047245,6.047245 0 1 0 12.09449,0 z" />
          <path
             id="path6306"
             style="fill:none;stroke:#ff0000"
             d="m 528.73559,702.75406 a 6.047245,6.047245 0 1 0 -12.09449,0 6.047245,6.047245 0 1 0 12.09449,0 z" />
        </g>
      </g>
    </g>
  </g>
  <desc
     id="desc6310">FRONT_LASER.dxf - scale = 1.000000, origin = (0.000000, 0.000000), method = manual</desc>
</svg>
