999
"DXF R12 Output" (www.mydxf.blogspot.com)
 0 
SECTION
 2 
HEADER
 9 
$ACADVER
 1 
AC1009
 9 
$EXTMIN
 10 
 0 
 20 
 0 
 9 
$EXTMAX
 10 
 8.5 
 20 
 11 
 0 
ENDSEC
 0 
SECTION
 2 
ENTITIES
0
LINE
8
Layer 1
10
3.000000
20
-3.000000
11
-3.000000
21
3.000000
0
LINE
8
Layer 1
10
0.000000
20
-5.000000
11
0.000000
21
5.000000
0
LINE
8
Layer 1
10
8.000000
20
4.000000
11
4.000000
21
8.000000
0
LINE
8
Layer 1
10
6.000000
20
2.000000
11
2.000000
21
6.000000
0
LINE
8
Layer 1
10
4.000000
20
0.000000
11
0.000000
21
4.000000
0
LINE
8
Layer 1
10
1036.730000
20
104.564000
11
1034.999500
21
107.560100
0
LINE
8
Layer 1
10
1034.999500
20
107.560100
11
1043.251500
21
121.851100
0
LINE
8
Layer 1
10
1043.251500
20
121.851100
11
1059.753400
21
121.851100
0
LINE
8
Layer 1
10
1059.753400
20
121.851100
11
1068.005400
21
107.560100
0
LINE
8
Layer 1
10
1068.005400
20
107.560100
11
1067.876500
21
107.337440
0
LINE
8
Layer 1
10
1067.876500
20
107.337440
11
1060.133192
21
106.204585
0
LINE
8
Layer 1
10
1060.133192
20
106.204585
11
1052.355488
21
105.364235
0
LINE
8
Layer 1
10
1052.355488
20
105.364235
11
1044.551664
21
104.817128
0
LINE
8
Layer 1
10
1044.551664
20
104.817128
11
1036.730000
21
104.564000
0
LINE
8
Layer 1
10
1036.730000
20
104.564000
11
1036.730000
21
104.564000
0
LINE
8
Layer 1
10
997.517100
20
107.761270
11
990.272515
21
109.183003
0
LINE
8
Layer 1
10
990.272515
20
109.183003
11
983.085244
21
110.860524
0
LINE
8
Layer 1
10
983.085244
20
110.860524
11
975.962051
21
112.792128
0
LINE
8
Layer 1
10
975.962051
20
112.792128
11
968.909700
21
114.976110
0
LINE
8
Layer 1
10
968.909700
20
114.976110
11
972.878450
21
121.851110
0
LINE
8
Layer 1
10
972.878450
20
121.851110
11
989.380450
21
121.851110
0
LINE
8
Layer 1
10
989.380450
20
121.851110
11
997.517100
21
107.761270
0
LINE
8
Layer 1
10
1008.110900
20
113.608920
11
999.860820
21
127.901920
0
LINE
8
Layer 1
10
999.860820
20
127.901920
11
1008.110900
21
142.192920
0
LINE
8
Layer 1
10
1008.110900
20
142.192920
11
1024.612800
21
142.192920
0
LINE
8
Layer 1
10
1024.612800
20
142.192920
11
1032.864800
21
127.901920
0
LINE
8
Layer 1
10
1032.864800
20
127.901920
11
1024.612800
21
113.608920
0
LINE
8
Layer 1
10
1024.612800
20
113.608920
11
1008.110900
21
113.608920
0
LINE
8
Layer 1
10
1078.483900
20
113.608920
11
1070.232000
21
127.901920
0
LINE
8
Layer 1
10
1070.232000
20
127.901920
11
1078.483900
21
142.192920
0
LINE
8
Layer 1
10
1078.483900
20
142.192920
11
1094.985900
21
142.192920
0
LINE
8
Layer 1
10
1094.985900
20
142.192920
11
1103.237800
21
127.901920
0
LINE
8
Layer 1
10
1103.237800
20
127.901920
11
1095.060100
21
113.737820
0
LINE
8
Layer 1
10
1095.060100
20
113.737820
11
1094.640200
21
113.608910
0
LINE
8
Layer 1
10
1094.640200
20
113.608910
11
1078.483900
21
113.608920
0
LINE
8
Layer 1
10
957.430900
20
119.134310
11
950.807420
21
121.889413
0
LINE
8
Layer 1
10
950.807420
20
121.889413
11
944.284876
21
124.870491
0
LINE
8
Layer 1
10
944.284876
20
124.870491
11
937.869044
21
128.074779
0
LINE
8
Layer 1
10
937.869044
20
128.074779
11
931.565700
21
131.499510
0
LINE
8
Layer 1
10
931.565700
20
131.499510
11
937.739530
21
142.192910
0
LINE
8
Layer 1
10
937.739530
20
142.192910
11
954.241530
21
142.192910
0
LINE
8
Layer 1
10
954.241530
20
142.192910
11
962.491530
21
127.901910
0
LINE
8
Layer 1
10
962.491530
20
127.901910
11
957.430900
21
119.134310
0
LINE
8
Layer 1
10
972.014900
20
132.718310
11
963.764900
21
147.011310
0
LINE
8
Layer 1
10
963.764900
20
147.011310
11
972.014900
21
161.302310
0
LINE
8
Layer 1
10
972.014900
20
161.302310
11
988.516900
21
161.302310
0
LINE
8
Layer 1
10
988.516900
20
161.302310
11
996.768850
21
147.011310
0
LINE
8
Layer 1
10
996.768850
20
147.011310
11
988.516900
21
132.718310
0
LINE
8
Layer 1
10
988.516900
20
132.718310
11
972.014900
21
132.718310
0
LINE
8
Layer 1
10
1042.388000
20
132.718310
11
1034.136000
21
147.011310
0
LINE
8
Layer 1
10
1034.136000
20
147.011310
11
1042.388000
21
161.302310
0
LINE
8
Layer 1
10
1042.388000
20
161.302310
11
1058.890000
21
161.302310
0
LINE
8
Layer 1
10
1058.890000
20
161.302310
11
1067.141900
21
147.011310
0
LINE
8
Layer 1
10
1067.141900
20
147.011310
11
1058.890000
21
132.718310
0
LINE
8
Layer 1
10
1058.890000
20
132.718310
11
1042.388000
21
132.718310
0
LINE
8
Layer 1
10
1112.761000
20
132.718310
11
1104.509100
21
147.011310
0
LINE
8
Layer 1
10
1104.509100
20
147.011310
11
1112.761000
21
161.302310
0
LINE
8
Layer 1
10
1112.761000
20
161.302310
11
1129.263000
21
161.302310
0
LINE
8
Layer 1
10
1129.263000
20
161.302310
11
1137.513000
21
147.011310
0
LINE
8
Layer 1
10
1137.513000
20
147.011310
11
1129.263000
21
132.718310
0
LINE
8
Layer 1
10
1129.263000
20
132.718310
11
1112.761000
21
132.718310
0
LINE
8
Layer 1
10
921.096000
20
137.835000
11
915.114945
21
141.849045
0
LINE
8
Layer 1
10
915.114945
20
141.849045
11
909.278279
21
146.066606
0
LINE
8
Layer 1
10
909.278279
20
146.066606
11
903.591198
21
150.483790
0
LINE
8
Layer 1
10
903.591198
20
150.483790
11
898.058900
21
155.096700
0
LINE
8
Layer 1
10
898.058900
20
155.096700
11
901.640930
21
161.301780
0
LINE
8
Layer 1
10
901.640930
20
161.301780
11
918.142930
21
161.301780
0
LINE
8
Layer 1
10
918.142930
20
161.301780
11
926.392930
21
147.010780
0
LINE
8
Layer 1
10
926.392930
20
147.010780
11
921.096000
21
137.835000
0
LINE
8
Layer 1
10
937.689800
20
151.483400
11
929.437850
21
165.776400
0
LINE
8
Layer 1
10
929.437850
20
165.776400
11
937.689800
21
180.067400
0
LINE
8
Layer 1
10
937.689800
20
180.067400
11
954.191800
21
180.067400
0
LINE
8
Layer 1
10
954.191800
20
180.067400
11
962.443750
21
165.776400
0
LINE
8
Layer 1
10
962.443750
20
165.776400
11
954.191800
21
151.483400
0
LINE
8
Layer 1
10
954.191800
20
151.483400
11
937.689800
21
151.483400
0
LINE
8
Layer 1
10
1008.062900
20
151.483400
11
999.810950
21
165.776400
0
LINE
8
Layer 1
10
999.810950
20
165.776400
11
1008.062900
21
180.067400
0
LINE
8
Layer 1
10
1008.062900
20
180.067400
11
1024.564900
21
180.067400
0
LINE
8
Layer 1
10
1024.564900
20
180.067400
11
1032.814900
21
165.776400
0
LINE
8
Layer 1
10
1032.814900
20
165.776400
11
1024.564900
21
151.483400
0
LINE
8
Layer 1
10
1024.564900
20
151.483400
11
1008.062900
21
151.483400
0
LINE
8
Layer 1
10
1078.434000
20
151.483400
11
1070.184000
21
165.776400
0
LINE
8
Layer 1
10
1070.184000
20
165.776400
11
1078.434000
21
180.067400
0
LINE
8
Layer 1
10
1078.434000
20
180.067400
11
1094.936000
21
180.067400
0
LINE
8
Layer 1
10
1094.936000
20
180.067400
11
1103.187900
21
165.776400
0
LINE
8
Layer 1
10
1103.187900
20
165.776400
11
1094.936000
21
151.483400
0
LINE
8
Layer 1
10
1094.936000
20
151.483400
11
1078.434000
21
151.483400
0
LINE
8
Layer 1
10
1148.807100
20
151.483400
11
1140.555100
21
165.776400
0
LINE
8
Layer 1
10
1140.555100
20
165.776400
11
1148.807100
21
180.067400
0
LINE
8
Layer 1
10
1148.807100
20
180.067400
11
1165.309000
21
180.067400
0
LINE
8
Layer 1
10
1165.309000
20
180.067400
11
1173.561000
21
165.776400
0
LINE
8
Layer 1
10
1173.561000
20
165.776400
11
1165.309000
21
151.483400
0
LINE
8
Layer 1
10
1165.309000
20
151.483400
11
1148.807100
21
151.483400
0
LINE
8
Layer 1
10
890.090100
20
162.346700
11
885.784205
21
166.595858
0
LINE
8
Layer 1
10
885.784205
20
166.595858
11
881.604644
21
170.967571
0
LINE
8
Layer 1
10
881.604644
20
170.967571
11
877.554035
21
175.459024
0
LINE
8
Layer 1
10
877.554035
20
175.459024
11
873.635000
21
180.067400
0
LINE
8
Layer 1
10
873.635000
20
180.067400
11
883.818600
21
180.067400
0
LINE
8
Layer 1
10
883.818600
20
180.067400
11
892.070550
21
165.776400
0
LINE
8
Layer 1
10
892.070550
20
165.776400
11
890.090100
21
162.346700
0
LINE
8
Layer 1
10
902.549100
20
171.825220
11
894.299100
21
186.116220
0
LINE
8
Layer 1
10
894.299100
20
186.116220
11
902.549100
21
200.409220
0
LINE
8
Layer 1
10
902.549100
20
200.409220
11
919.053000
21
200.409220
0
LINE
8
Layer 1
10
919.053000
20
200.409220
11
927.303000
21
186.116220
0
LINE
8
Layer 1
10
927.303000
20
186.116220
11
919.053000
21
171.825220
0
LINE
8
Layer 1
10
919.053000
20
171.825220
11
902.549100
21
171.825220
0
LINE
8
Layer 1
10
972.922200
20
171.825220
11
964.672200
21
186.116220
0
LINE
8
Layer 1
10
964.672200
20
186.116220
11
972.922200
21
200.409220
0
LINE
8
Layer 1
10
972.922200
20
200.409220
11
989.424200
21
200.409220
0
LINE
8
Layer 1
10
989.424200
20
200.409220
11
997.676150
21
186.116220
0
LINE
8
Layer 1
10
997.676150
20
186.116220
11
989.424200
21
171.825220
0
LINE
8
Layer 1
10
989.424200
20
171.825220
11
972.922200
21
171.825220
0
LINE
8
Layer 1
10
1043.295300
20
171.825220
11
1035.043300
21
186.116220
0
LINE
8
Layer 1
10
1035.043300
20
186.116220
11
1043.295300
21
200.409220
0
LINE
8
Layer 1
10
1043.295300
20
200.409220
11
1059.797200
21
200.409220
0
LINE
8
Layer 1
10
1059.797200
20
200.409220
11
1068.047200
21
186.116220
0
LINE
8
Layer 1
10
1068.047200
20
186.116220
11
1059.797200
21
171.825220
0
LINE
8
Layer 1
10
1059.797200
20
171.825220
11
1043.295300
21
171.825220
0
LINE
8
Layer 1
10
1113.666400
20
171.825220
11
1105.416400
21
186.116220
0
LINE
8
Layer 1
10
1105.416400
20
186.116220
11
1113.666400
21
200.409220
0
LINE
8
Layer 1
10
1113.666400
20
200.409220
11
1130.168300
21
200.409220
0
LINE
8
Layer 1
10
1130.168300
20
200.409220
11
1138.420300
21
186.116220
0
LINE
8
Layer 1
10
1138.420300
20
186.116220
11
1130.168300
21
171.825220
0
LINE
8
Layer 1
10
1130.168300
20
171.825220
11
1113.666400
21
171.825220
0
LINE
8
Layer 1
10
1184.039400
20
171.825220
11
1175.787400
21
186.116220
0
LINE
8
Layer 1
10
1175.787400
20
186.116220
11
1184.039400
21
200.409220
0
LINE
8
Layer 1
10
1184.039400
20
200.409220
11
1200.541400
21
200.409220
0
LINE
8
Layer 1
10
1200.541400
20
200.409220
11
1204.484700
21
193.581100
0
LINE
8
Layer 1
10
1204.484700
20
193.581100
11
1200.400569
21
187.924882
0
LINE
8
Layer 1
10
1200.400569
20
187.924882
11
1196.130175
21
182.410429
0
LINE
8
Layer 1
10
1196.130175
20
182.410429
11
1191.677194
21
177.042336
0
LINE
8
Layer 1
10
1191.677194
20
177.042336
11
1187.045300
21
171.825200
0
LINE
8
Layer 1
10
1187.045300
20
171.825200
11
1184.039400
21
171.825220
0
LINE
8
Layer 1
10
866.453400
20
190.659220
11
858.203400
21
204.950220
0
LINE
8
Layer 1
10
858.203400
20
204.950220
11
866.453400
21
219.241220
0
LINE
8
Layer 1
10
866.453400
20
219.241220
11
882.955400
21
219.241220
0
LINE
8
Layer 1
10
882.955400
20
219.241220
11
891.207350
21
204.950220
0
LINE
8
Layer 1
10
891.207350
20
204.950220
11
882.955400
21
190.659220
0
LINE
8
Layer 1
10
882.955400
20
190.659220
11
866.453400
21
190.659220
0
LINE
8
Layer 1
10
936.826500
20
190.659220
11
928.574550
21
204.950220
0
LINE
8
Layer 1
10
928.574550
20
204.950220
11
936.826500
21
219.241220
0
LINE
8
Layer 1
10
936.826500
20
219.241220
11
953.328500
21
219.241220
0
LINE
8
Layer 1
10
953.328500
20
219.241220
11
961.580460
21
204.950220
0
LINE
8
Layer 1
10
961.580460
20
204.950220
11
953.328500
21
190.659220
0
LINE
8
Layer 1
10
953.328500
20
190.659220
11
936.826500
21
190.659220
0
LINE
8
Layer 1
10
1007.199600
20
190.659220
11
998.947570
21
204.950220
0
LINE
8
Layer 1
10
998.947570
20
204.950220
11
1007.199600
21
219.241220
0
LINE
8
Layer 1
10
1007.199600
20
219.241220
11
1023.701500
21
219.241220
0
LINE
8
Layer 1
10
1023.701500
20
219.241220
11
1031.951500
21
204.950220
0
LINE
8
Layer 1
10
1031.951500
20
204.950220
11
1023.701500
21
190.659220
0
LINE
8
Layer 1
10
1023.701500
20
190.659220
11
1007.199600
21
190.659220
0
LINE
8
Layer 1
10
1077.570600
20
190.659220
11
1069.320600
21
204.950220
0
LINE
8
Layer 1
10
1069.320600
20
204.950220
11
1077.570600
21
219.241220
0
LINE
8
Layer 1
10
1077.570600
20
219.241220
11
1094.072600
21
219.241220
0
LINE
8
Layer 1
10
1094.072600
20
219.241220
11
1102.324600
21
204.950220
0
LINE
8
Layer 1
10
1102.324600
20
204.950220
11
1094.072600
21
190.659220
0
LINE
8
Layer 1
10
1094.072600
20
190.659220
11
1077.570600
21
190.659220
0
LINE
8
Layer 1
10
1147.943700
20
190.659220
11
1139.691700
21
204.950220
0
LINE
8
Layer 1
10
1139.691700
20
204.950220
11
1147.943700
21
219.241220
0
LINE
8
Layer 1
10
1147.943700
20
219.241220
11
1164.445600
21
219.241220
0
LINE
8
Layer 1
10
1164.445600
20
219.241220
11
1172.697600
21
204.950220
0
LINE
8
Layer 1
10
1172.697600
20
204.950220
11
1164.445600
21
190.659220
0
LINE
8
Layer 1
10
1164.445600
20
190.659220
11
1147.943700
21
190.659220
0
LINE
8
Layer 1
10
902.504700
20
209.424820
11
894.252740
21
223.715820
0
LINE
8
Layer 1
10
894.252740
20
223.715820
11
902.504700
21
238.006820
0
LINE
8
Layer 1
10
902.504700
20
238.006820
11
919.006700
21
238.006820
0
LINE
8
Layer 1
10
919.006700
20
238.006820
11
927.256700
21
223.715820
0
LINE
8
Layer 1
10
927.256700
20
223.715820
11
919.006700
21
209.424820
0
LINE
8
Layer 1
10
919.006700
20
209.424820
11
902.504700
21
209.424820
0
LINE
8
Layer 1
10
972.875800
20
209.424820
11
964.625800
21
223.715820
0
LINE
8
Layer 1
10
964.625800
20
223.715820
11
972.875800
21
238.006820
0
LINE
8
Layer 1
10
972.875800
20
238.006820
11
989.377800
21
238.006820
0
LINE
8
Layer 1
10
989.377800
20
238.006820
11
997.629760
21
223.715820
0
LINE
8
Layer 1
10
997.629760
20
223.715820
11
989.377800
21
209.424820
0
LINE
8
Layer 1
10
989.377800
20
209.424820
11
972.875800
21
209.424820
0
LINE
8
Layer 1
10
1043.248900
20
209.424820
11
1034.996900
21
223.715820
0
LINE
8
Layer 1
10
1034.996900
20
223.715820
11
1043.248900
21
238.006820
0
LINE
8
Layer 1
10
1043.248900
20
238.006820
11
1059.750800
21
238.006820
0
LINE
8
Layer 1
10
1059.750800
20
238.006820
11
1068.002800
21
223.715820
0
LINE
8
Layer 1
10
1068.002800
20
223.715820
11
1059.750800
21
209.424820
0
LINE
8
Layer 1
10
1059.750800
20
209.424820
11
1043.248900
21
209.424820
0
LINE
8
Layer 1
10
1113.621900
20
209.424820
11
1105.370000
21
223.715820
0
LINE
8
Layer 1
10
1105.370000
20
223.715820
11
1113.621900
21
238.006820
0
LINE
8
Layer 1
10
1113.621900
20
238.006820
11
1130.123900
21
238.006820
0
LINE
8
Layer 1
10
1130.123900
20
238.006820
11
1138.373900
21
223.715820
0
LINE
8
Layer 1
10
1138.373900
20
223.715820
11
1130.123900
21
209.424820
0
LINE
8
Layer 1
10
1130.123900
20
209.424820
11
1113.621900
21
209.424820
0
LINE
8
Layer 1
10
1183.993000
20
209.424820
11
1175.743000
21
223.715820
0
LINE
8
Layer 1
10
1175.743000
20
223.715820
11
1183.993000
21
238.006820
0
LINE
8
Layer 1
10
1183.993000
20
238.006820
11
1200.495000
21
238.006820
0
LINE
8
Layer 1
10
1200.495000
20
238.006820
11
1208.746900
21
223.715820
0
LINE
8
Layer 1
10
1208.746900
20
223.715820
11
1200.495000
21
209.424820
0
LINE
8
Layer 1
10
1200.495000
20
209.424820
11
1183.993000
21
209.424820
0
LINE
8
Layer 1
10
851.046000
20
213.602550
11
847.947974
21
219.565271
0
LINE
8
Layer 1
10
847.947974
20
219.565271
11
845.045016
21
225.623410
0
LINE
8
Layer 1
10
845.045016
20
225.623410
11
842.339325
21
231.772194
0
LINE
8
Layer 1
10
842.339325
20
231.772194
11
839.833100
21
238.006850
0
LINE
8
Layer 1
10
839.833100
20
238.006850
11
848.633880
21
238.006850
0
LINE
8
Layer 1
10
848.633880
20
238.006850
11
856.885840
21
223.715850
0
LINE
8
Layer 1
10
856.885840
20
223.715850
11
851.046000
21
213.602550
0
LINE
8
Layer 1
10
867.364400
20
229.766650
11
859.112450
21
244.057650
0
LINE
8
Layer 1
10
859.112450
20
244.057650
11
867.364400
21
258.348650
0
LINE
8
Layer 1
10
867.364400
20
258.348650
11
883.866400
21
258.348650
0
LINE
8
Layer 1
10
883.866400
20
258.348650
11
892.118360
21
244.057650
0
LINE
8
Layer 1
10
892.118360
20
244.057650
11
883.866400
21
229.766650
0
LINE
8
Layer 1
10
883.866400
20
229.766650
11
867.364400
21
229.766650
0
LINE
8
Layer 1
10
937.737500
20
229.766650
11
929.485550
21
244.057650
0
LINE
8
Layer 1
10
929.485550
20
244.057650
11
937.737500
21
258.348650
0
LINE
8
Layer 1
10
937.737500
20
258.348650
11
954.239500
21
258.348650
0
LINE
8
Layer 1
10
954.239500
20
258.348650
11
962.489500
21
244.057650
0
LINE
8
Layer 1
10
962.489500
20
244.057650
11
954.239500
21
229.766650
0
LINE
8
Layer 1
10
954.239500
20
229.766650
11
937.737500
21
229.766650
0
LINE
8
Layer 1
10
1008.108700
20
229.766650
11
999.858620
21
244.057650
0
LINE
8
Layer 1
10
999.858620
20
244.057650
11
1008.108700
21
258.348650
0
LINE
8
Layer 1
10
1008.108700
20
258.348650
11
1024.612600
21
258.348650
0
LINE
8
Layer 1
10
1024.612600
20
258.348650
11
1032.862600
21
244.057650
0
LINE
8
Layer 1
10
1032.862600
20
244.057650
11
1024.612600
21
229.766650
0
LINE
8
Layer 1
10
1024.612600
20
229.766650
11
1008.108700
21
229.766650
0
LINE
8
Layer 1
10
1078.481700
20
229.766650
11
1070.229800
21
244.057650
0
LINE
8
Layer 1
10
1070.229800
20
244.057650
11
1078.481700
21
258.348650
0
LINE
8
Layer 1
10
1078.481700
20
258.348650
11
1094.983700
21
258.348650
0
LINE
8
Layer 1
10
1094.983700
20
258.348650
11
1103.235600
21
244.057650
0
LINE
8
Layer 1
10
1103.235600
20
244.057650
11
1094.983700
21
229.766650
0
LINE
8
Layer 1
10
1094.983700
20
229.766650
11
1078.481700
21
229.766650
0
LINE
8
Layer 1
10
1148.854800
20
229.766650
11
1140.602800
21
244.057650
0
LINE
8
Layer 1
10
1140.602800
20
244.057650
11
1148.854800
21
258.348650
0
LINE
8
Layer 1
10
1148.854800
20
258.348650
11
1165.356700
21
258.348650
0
LINE
8
Layer 1
10
1165.356700
20
258.348650
11
1173.606700
21
244.057650
0
LINE
8
Layer 1
10
1173.606700
20
244.057650
11
1165.356700
21
229.766650
0
LINE
8
Layer 1
10
1165.356700
20
229.766650
11
1148.854800
21
229.766650
0
LINE
8
Layer 1
10
1219.225800
20
229.766650
11
1210.975800
21
244.057650
0
LINE
8
Layer 1
10
1210.975800
20
244.057650
11
1219.225800
21
258.348650
0
LINE
8
Layer 1
10
1219.225800
20
258.348650
11
1234.649700
21
258.348650
0
LINE
8
Layer 1
10
1234.649700
20
258.348650
11
1232.546139
21
251.070222
0
LINE
8
Layer 1
10
1232.546139
20
251.070222
11
1230.179563
21
243.875659
0
LINE
8
Layer 1
10
1230.179563
20
243.875659
11
1227.552455
21
236.772091
0
LINE
8
Layer 1
10
1227.552455
20
236.772091
11
1224.667300
21
229.766650
0
LINE
8
Layer 1
10
1224.667300
20
229.766650
11
1219.225800
21
229.766650
0
LINE
8
Layer 1
10
836.006800
20
248.876050
11
834.087452
21
255.197514
0
LINE
8
Layer 1
10
834.087452
20
255.197514
11
832.370356
21
261.575163
0
LINE
8
Layer 1
10
832.370356
20
261.575163
11
830.856737
21
268.004130
0
LINE
8
Layer 1
10
830.856737
20
268.004130
11
829.547820
21
274.479550
0
LINE
8
Layer 1
10
829.547820
20
274.479550
11
831.268520
21
277.458060
0
LINE
8
Layer 1
10
831.268520
20
277.458060
11
847.770520
21
277.458060
0
LINE
8
Layer 1
10
847.770520
20
277.458060
11
856.022470
21
263.167060
0
LINE
8
Layer 1
10
856.022470
20
263.167060
11
847.770520
21
248.876060
0
LINE
8
Layer 1
10
847.770520
20
248.876060
11
836.006800
21
248.876050
0
LINE
8
Layer 1
10
901.641600
20
248.876050
11
893.389650
21
263.167050
0
LINE
8
Layer 1
10
893.389650
20
263.167050
11
901.641600
21
277.458050
0
LINE
8
Layer 1
10
901.641600
20
277.458050
11
918.143600
21
277.458050
0
LINE
8
Layer 1
10
918.143600
20
277.458050
11
926.393600
21
263.167050
0
LINE
8
Layer 1
10
926.393600
20
263.167050
11
918.143600
21
248.876050
0
LINE
8
Layer 1
10
918.143600
20
248.876050
11
901.641600
21
248.876050
0
LINE
8
Layer 1
10
972.012700
20
248.876050
11
963.762700
21
263.167050
0
LINE
8
Layer 1
10
963.762700
20
263.167050
11
972.012700
21
277.458050
0
LINE
8
Layer 1
10
972.012700
20
277.458050
11
988.514700
21
277.458050
0
LINE
8
Layer 1
10
988.514700
20
277.458050
11
996.766650
21
263.167050
0
LINE
8
Layer 1
10
996.766650
20
263.167050
11
988.514700
21
248.876050
0
LINE
8
Layer 1
10
988.514700
20
248.876050
11
972.012700
21
248.876050
0
LINE
8
Layer 1
10
1042.385800
20
248.876050
11
1034.133800
21
263.167050
0
LINE
8
Layer 1
10
1034.133800
20
263.167050
11
1042.385800
21
277.458050
0
LINE
8
Layer 1
10
1042.385800
20
277.458050
11
1058.887800
21
277.458050
0
LINE
8
Layer 1
10
1058.887800
20
277.458050
11
1067.139700
21
263.167050
0
LINE
8
Layer 1
10
1067.139700
20
263.167050
11
1058.887800
21
248.876050
0
LINE
8
Layer 1
10
1058.887800
20
248.876050
11
1042.385800
21
248.876050
0
LINE
8
Layer 1
10
1112.758800
20
248.876050
11
1104.506900
21
263.167050
0
LINE
8
Layer 1
10
1104.506900
20
263.167050
11
1112.758800
21
277.458050
0
LINE
8
Layer 1
10
1112.758800
20
277.458050
11
1129.260800
21
277.458050
0
LINE
8
Layer 1
10
1129.260800
20
277.458050
11
1137.510800
21
263.167050
0
LINE
8
Layer 1
10
1137.510800
20
263.167050
11
1129.260800
21
248.876050
0
LINE
8
Layer 1
10
1129.260800
20
248.876050
11
1112.758800
21
248.876050
0
LINE
8
Layer 1
10
1183.129900
20
248.876050
11
1174.879900
21
263.167050
0
LINE
8
Layer 1
10
1174.879900
20
263.167050
11
1183.129900
21
277.458050
0
LINE
8
Layer 1
10
1183.129900
20
277.458050
11
1199.631900
21
277.458050
0
LINE
8
Layer 1
10
1199.631900
20
277.458050
11
1207.883800
21
263.167050
0
LINE
8
Layer 1
10
1207.883800
20
263.167050
11
1199.631900
21
248.876050
0
LINE
8
Layer 1
10
1199.631900
20
248.876050
11
1183.129900
21
248.876050
0
LINE
8
Layer 1
10
867.317900
20
267.641650
11
859.067900
21
281.932650
0
LINE
8
Layer 1
10
859.067900
20
281.932650
11
867.317900
21
296.223650
0
LINE
8
Layer 1
10
867.317900
20
296.223650
11
883.819900
21
296.223650
0
LINE
8
Layer 1
10
883.819900
20
296.223650
11
892.071850
21
281.932650
0
LINE
8
Layer 1
10
892.071850
20
281.932650
11
883.819900
21
267.641650
0
LINE
8
Layer 1
10
883.819900
20
267.641650
11
867.317900
21
267.641650
0
LINE
8
Layer 1
10
937.690900
20
267.641650
11
929.438950
21
281.932650
0
LINE
8
Layer 1
10
929.438950
20
281.932650
11
937.690900
21
296.223650
0
LINE
8
Layer 1
10
937.690900
20
296.223650
11
954.192900
21
296.223650
0
LINE
8
Layer 1
10
954.192900
20
296.223650
11
962.444850
21
281.932650
0
LINE
8
Layer 1
10
962.444850
20
281.932650
11
954.192900
21
267.641650
0
LINE
8
Layer 1
10
954.192900
20
267.641650
11
937.690900
21
267.641650
0
LINE
8
Layer 1
10
1008.064000
20
267.641650
11
999.812050
21
281.932650
0
LINE
8
Layer 1
10
999.812050
20
281.932650
11
1008.064000
21
296.223650
0
LINE
8
Layer 1
10
1008.064000
20
296.223650
11
1024.566000
21
296.223650
0
LINE
8
Layer 1
10
1024.566000
20
296.223650
11
1032.816000
21
281.932650
0
LINE
8
Layer 1
10
1032.816000
20
281.932650
11
1024.566000
21
267.641650
0
LINE
8
Layer 1
10
1024.566000
20
267.641650
11
1008.064000
21
267.641650
0
LINE
8
Layer 1
10
1078.435100
20
267.641650
11
1070.185100
21
281.932650
0
LINE
8
Layer 1
10
1070.185100
20
281.932650
11
1078.435100
21
296.223650
0
LINE
8
Layer 1
10
1078.435100
20
296.223650
11
1094.937100
21
296.223650
0
LINE
8
Layer 1
10
1094.937100
20
296.223650
11
1103.189000
21
281.932650
0
LINE
8
Layer 1
10
1103.189000
20
281.932650
11
1094.937100
21
267.641650
0
LINE
8
Layer 1
10
1094.937100
20
267.641650
11
1078.435100
21
267.641650
0
LINE
8
Layer 1
10
1148.808200
20
267.641650
11
1140.556200
21
281.932650
0
LINE
8
Layer 1
10
1140.556200
20
281.932650
11
1148.808200
21
296.223650
0
LINE
8
Layer 1
10
1148.808200
20
296.223650
11
1165.310100
21
296.223650
0
LINE
8
Layer 1
10
1165.310100
20
296.223650
11
1173.562100
21
281.932650
0
LINE
8
Layer 1
10
1173.562100
20
281.932650
11
1165.310100
21
267.641650
0
LINE
8
Layer 1
10
1165.310100
20
267.641650
11
1148.808200
21
267.641650
0
LINE
8
Layer 1
10
1219.181200
20
267.641650
11
1210.929300
21
281.932650
0
LINE
8
Layer 1
10
1210.929300
20
281.932650
11
1219.181200
21
296.223650
0
LINE
8
Layer 1
10
1219.181200
20
296.223650
11
1235.683200
21
296.223650
0
LINE
8
Layer 1
10
1235.683200
20
296.223650
11
1240.376500
21
288.094740
0
LINE
8
Layer 1
10
1240.376500
20
288.094740
11
1239.186688
21
279.536069
0
LINE
8
Layer 1
10
1239.186688
20
279.536069
11
1237.642200
21
271.034240
0
LINE
8
Layer 1
10
1237.642200
20
271.034240
11
1235.683200
21
267.641670
0
LINE
8
Layer 1
10
1235.683200
20
267.641670
11
1219.181200
21
267.641650
0
LINE
8
Layer 1
10
832.179200
20
287.981450
11
826.581550
21
297.676760
0
LINE
8
Layer 1
10
826.581550
20
297.676760
11
826.151860
21
306.127930
0
LINE
8
Layer 1
10
826.151860
20
306.127930
11
832.179200
21
316.565430
0
LINE
8
Layer 1
10
832.179200
20
316.565430
11
848.681200
21
316.565430
0
LINE
8
Layer 1
10
848.681200
20
316.565430
11
856.931200
21
302.274430
0
LINE
8
Layer 1
10
856.931200
20
302.274430
11
848.681200
21
287.981430
0
LINE
8
Layer 1
10
848.681200
20
287.981430
11
832.179200
21
287.981450
0
LINE
8
Layer 1
10
902.550300
20
287.981450
11
894.300300
21
302.274450
0
LINE
8
Layer 1
10
894.300300
20
302.274450
11
902.550300
21
316.565450
0
LINE
8
Layer 1
10
902.550300
20
316.565450
11
919.054200
21
316.565450
0
LINE
8
Layer 1
10
919.054200
20
316.565450
11
927.304200
21
302.274450
0
LINE
8
Layer 1
10
927.304200
20
302.274450
11
919.054200
21
287.981450
0
LINE
8
Layer 1
10
919.054200
20
287.981450
11
902.550300
21
287.981450
0
LINE
8
Layer 1
10
972.923400
20
287.981450
11
964.671440
21
302.274450
0
LINE
8
Layer 1
10
964.671440
20
302.274450
11
972.923400
21
316.565450
0
LINE
8
Layer 1
10
972.923400
20
316.565450
11
989.425400
21
316.565450
0
LINE
8
Layer 1
10
989.425400
20
316.565450
11
997.677350
21
302.274450
0
LINE
8
Layer 1
10
997.677350
20
302.274450
11
989.425400
21
287.981450
0
LINE
8
Layer 1
10
989.425400
20
287.981450
11
972.923400
21
287.981450
0
LINE
8
Layer 1
10
1043.296500
20
287.981450
11
1035.044500
21
302.274450
0
LINE
8
Layer 1
10
1035.044500
20
302.274450
11
1043.296500
21
316.565450
0
LINE
8
Layer 1
10
1043.296500
20
316.565450
11
1059.798400
21
316.565450
0
LINE
8
Layer 1
10
1059.798400
20
316.565450
11
1068.048400
21
302.274450
0
LINE
8
Layer 1
10
1068.048400
20
302.274450
11
1059.798400
21
287.981450
0
LINE
8
Layer 1
10
1059.798400
20
287.981450
11
1043.296500
21
287.981450
0
LINE
8
Layer 1
10
1113.667600
20
287.981450
11
1105.417600
21
302.274450
0
LINE
8
Layer 1
10
1105.417600
20
302.274450
11
1113.667600
21
316.565450
0
LINE
8
Layer 1
10
1113.667600
20
316.565450
11
1130.171500
21
316.565450
0
LINE
8
Layer 1
10
1130.171500
20
316.565450
11
1138.421500
21
302.274450
0
LINE
8
Layer 1
10
1138.421500
20
302.274450
11
1130.171500
21
287.981450
0
LINE
8
Layer 1
10
1130.171500
20
287.981450
11
1113.667600
21
287.981450
0
LINE
8
Layer 1
10
1184.040600
20
287.981450
11
1175.788600
21
302.274450
0
LINE
8
Layer 1
10
1175.788600
20
302.274450
11
1184.040600
21
316.565450
0
LINE
8
Layer 1
10
1184.040600
20
316.565450
11
1200.542600
21
316.565450
0
LINE
8
Layer 1
10
1200.542600
20
316.565450
11
1208.794500
21
302.274450
0
LINE
8
Layer 1
10
1208.794500
20
302.274450
11
1200.542600
21
287.981450
0
LINE
8
Layer 1
10
1200.542600
20
287.981450
11
1184.040600
21
287.981450
0
LINE
8
Layer 1
10
866.454600
20
308.274450
11
858.204600
21
322.565450
0
LINE
8
Layer 1
10
858.204600
20
322.565450
11
866.454600
21
336.856450
0
LINE
8
Layer 1
10
866.454600
20
336.856450
11
882.956600
21
336.856450
0
LINE
8
Layer 1
10
882.956600
20
336.856450
11
891.208550
21
322.565450
0
LINE
8
Layer 1
10
891.208550
20
322.565450
11
882.956600
21
308.274450
0
LINE
8
Layer 1
10
882.956600
20
308.274450
11
866.454600
21
308.274450
0
LINE
8
Layer 1
10
936.827700
20
308.274450
11
928.575750
21
322.565450
0
LINE
8
Layer 1
10
928.575750
20
322.565450
11
936.827700
21
336.856450
0
LINE
8
Layer 1
10
936.827700
20
336.856450
11
953.329700
21
336.856450
0
LINE
8
Layer 1
10
953.329700
20
336.856450
11
961.581660
21
322.565450
0
LINE
8
Layer 1
10
961.581660
20
322.565450
11
953.329700
21
308.274450
0
LINE
8
Layer 1
10
953.329700
20
308.274450
11
936.827700
21
308.274450
0
LINE
8
Layer 1
10
1007.200800
20
308.274450
11
998.948770
21
322.565450
0
LINE
8
Layer 1
10
998.948770
20
322.565450
11
1007.200800
21
336.856450
0
LINE
8
Layer 1
10
1007.200800
20
336.856450
11
1023.702700
21
336.856450
0
LINE
8
Layer 1
10
1023.702700
20
336.856450
11
1031.952700
21
322.565450
0
LINE
8
Layer 1
10
1031.952700
20
322.565450
11
1023.702700
21
308.274450
0
LINE
8
Layer 1
10
1023.702700
20
308.274450
11
1007.200800
21
308.274450
0
LINE
8
Layer 1
10
1077.571800
20
308.274450
11
1069.321800
21
322.565450
0
LINE
8
Layer 1
10
1069.321800
20
322.565450
11
1077.571800
21
336.856450
0
LINE
8
Layer 1
10
1077.571800
20
336.856450
11
1094.073800
21
336.856450
0
LINE
8
Layer 1
10
1094.073800
20
336.856450
11
1102.325800
21
322.565450
0
LINE
8
Layer 1
10
1102.325800
20
322.565450
11
1094.073800
21
308.274450
0
LINE
8
Layer 1
10
1094.073800
20
308.274450
11
1077.571800
21
308.274450
0
LINE
8
Layer 1
10
1147.944900
20
308.274450
11
1139.692900
21
322.565450
0
LINE
8
Layer 1
10
1139.692900
20
322.565450
11
1147.944900
21
336.856450
0
LINE
8
Layer 1
10
1147.944900
20
336.856450
11
1164.446800
21
336.856450
0
LINE
8
Layer 1
10
1164.446800
20
336.856450
11
1172.698800
21
322.565450
0
LINE
8
Layer 1
10
1172.698800
20
322.565450
11
1164.446800
21
308.274450
0
LINE
8
Layer 1
10
1164.446800
20
308.274450
11
1147.944900
21
308.274450
0
LINE
8
Layer 1
10
1218.317900
20
308.274450
11
1210.066000
21
322.565450
0
LINE
8
Layer 1
10
1210.066000
20
322.565450
11
1218.317900
21
336.856450
0
LINE
8
Layer 1
10
1218.317900
20
336.856450
11
1234.819900
21
336.856450
0
LINE
8
Layer 1
10
1234.819900
20
336.856450
11
1241.394100
21
325.467750
0
LINE
8
Layer 1
10
1241.394100
20
325.467750
11
1241.659700
21
320.124000
0
LINE
8
Layer 1
10
1241.659700
20
320.124000
11
1234.819900
21
308.274400
0
LINE
8
Layer 1
10
1234.819900
20
308.274400
11
1218.317900
21
308.274450
0
LINE
8
Layer 1
10
832.131900
20
327.040050
11
827.327210
21
335.362320
0
LINE
8
Layer 1
10
827.327210
20
335.362320
11
828.388923
21
343.469320
0
LINE
8
Layer 1
10
828.388923
20
343.469320
11
829.768620
21
351.528320
0
LINE
8
Layer 1
10
829.768620
20
351.528320
11
832.131900
21
355.622080
0
LINE
8
Layer 1
10
832.131900
20
355.622080
11
848.633900
21
355.622080
0
LINE
8
Layer 1
10
848.633900
20
355.622080
11
856.885860
21
341.331080
0
LINE
8
Layer 1
10
856.885860
20
341.331080
11
848.633900
21
327.040080
0
LINE
8
Layer 1
10
848.633900
20
327.040080
11
832.131900
21
327.040050
0
LINE
8
Layer 1
10
902.505000
20
327.040050
11
894.253040
21
341.331050
0
LINE
8
Layer 1
10
894.253040
20
341.331050
11
902.505000
21
355.622050
0
LINE
8
Layer 1
10
902.505000
20
355.622050
11
919.007000
21
355.622050
0
LINE
8
Layer 1
10
919.007000
20
355.622050
11
927.257000
21
341.331050
0
LINE
8
Layer 1
10
927.257000
20
341.331050
11
919.007000
21
327.040050
0
LINE
8
Layer 1
10
919.007000
20
327.040050
11
902.505000
21
327.040050
0
LINE
8
Layer 1
10
972.876100
20
327.040050
11
964.626100
21
341.331050
0
LINE
8
Layer 1
10
964.626100
20
341.331050
11
972.876100
21
355.622050
0
LINE
8
Layer 1
10
972.876100
20
355.622050
11
989.378100
21
355.622050
0
LINE
8
Layer 1
10
989.378100
20
355.622050
11
997.630060
21
341.331050
0
LINE
8
Layer 1
10
997.630060
20
341.331050
11
989.378100
21
327.040050
0
LINE
8
Layer 1
10
989.378100
20
327.040050
11
972.876100
21
327.040050
0
LINE
8
Layer 1
10
1043.249200
20
327.040050
11
1034.997200
21
341.331050
0
LINE
8
Layer 1
10
1034.997200
20
341.331050
11
1043.249200
21
355.622050
0
LINE
8
Layer 1
10
1043.249200
20
355.622050
11
1059.751100
21
355.622050
0
LINE
8
Layer 1
10
1059.751100
20
355.622050
11
1068.003100
21
341.331050
0
LINE
8
Layer 1
10
1068.003100
20
341.331050
11
1059.751100
21
327.040050
0
LINE
8
Layer 1
10
1059.751100
20
327.040050
11
1043.249200
21
327.040050
0
LINE
8
Layer 1
10
1113.622200
20
327.040050
11
1105.370300
21
341.331050
0
LINE
8
Layer 1
10
1105.370300
20
341.331050
11
1113.622200
21
355.622050
0
LINE
8
Layer 1
10
1113.622200
20
355.622050
11
1130.124200
21
355.622050
0
LINE
8
Layer 1
10
1130.124200
20
355.622050
11
1138.374200
21
341.331050
0
LINE
8
Layer 1
10
1138.374200
20
341.331050
11
1130.124200
21
327.040050
0
LINE
8
Layer 1
10
1130.124200
20
327.040050
11
1113.622200
21
327.040050
0
LINE
8
Layer 1
10
1183.993300
20
327.040050
11
1175.743300
21
341.331050
0
LINE
8
Layer 1
10
1175.743300
20
341.331050
11
1183.993300
21
355.622050
0
LINE
8
Layer 1
10
1183.993300
20
355.622050
11
1200.495300
21
355.622050
0
LINE
8
Layer 1
10
1200.495300
20
355.622050
11
1208.747200
21
341.331050
0
LINE
8
Layer 1
10
1208.747200
20
341.331050
11
1200.495300
21
327.040050
0
LINE
8
Layer 1
10
1200.495300
20
327.040050
11
1183.993300
21
327.040050
0
LINE
8
Layer 1
10
867.364300
20
347.379850
11
859.112350
21
361.672850
0
LINE
8
Layer 1
10
859.112350
20
361.672850
11
867.364300
21
375.963850
0
LINE
8
Layer 1
10
867.364300
20
375.963850
11
883.866300
21
375.963850
0
LINE
8
Layer 1
10
883.866300
20
375.963850
11
892.118260
21
361.672850
0
LINE
8
Layer 1
10
892.118260
20
361.672850
11
883.866300
21
347.379850
0
LINE
8
Layer 1
10
883.866300
20
347.379850
11
867.364300
21
347.379850
0
LINE
8
Layer 1
10
937.737400
20
347.379850
11
929.485450
21
361.672850
0
LINE
8
Layer 1
10
929.485450
20
361.672850
11
937.737400
21
375.963850
0
LINE
8
Layer 1
10
937.737400
20
375.963850
11
954.239400
21
375.963850
0
LINE
8
Layer 1
10
954.239400
20
375.963850
11
962.489400
21
361.672850
0
LINE
8
Layer 1
10
962.489400
20
361.672850
11
954.239400
21
347.379850
0
LINE
8
Layer 1
10
954.239400
20
347.379850
11
937.737400
21
347.379850
0
LINE
8
Layer 1
10
1008.108600
20
347.379850
11
999.858520
21
361.672850
0
LINE
8
Layer 1
10
999.858520
20
361.672850
11
1008.108600
21
375.963850
0
LINE
8
Layer 1
10
1008.108600
20
375.963850
11
1024.612500
21
375.963850
0
LINE
8
Layer 1
10
1024.612500
20
375.963850
11
1032.862500
21
361.672850
0
LINE
8
Layer 1
10
1032.862500
20
361.672850
11
1024.612500
21
347.379850
0
LINE
8
Layer 1
10
1024.612500
20
347.379850
11
1008.108600
21
347.379850
0
LINE
8
Layer 1
10
1078.481600
20
347.379850
11
1070.229700
21
361.672850
0
LINE
8
Layer 1
10
1070.229700
20
361.672850
11
1078.481600
21
375.963850
0
LINE
8
Layer 1
10
1078.481600
20
375.963850
11
1094.983600
21
375.963850
0
LINE
8
Layer 1
10
1094.983600
20
375.963850
11
1103.235500
21
361.672850
0
LINE
8
Layer 1
10
1103.235500
20
361.672850
11
1094.983600
21
347.379850
0
LINE
8
Layer 1
10
1094.983600
20
347.379850
11
1078.481600
21
347.379850
0
LINE
8
Layer 1
10
1148.854700
20
347.379850
11
1140.602700
21
361.672850
0
LINE
8
Layer 1
10
1140.602700
20
361.672850
11
1148.854700
21
375.963850
0
LINE
8
Layer 1
10
1148.854700
20
375.963850
11
1165.356600
21
375.963850
0
LINE
8
Layer 1
10
1165.356600
20
375.963850
11
1173.606600
21
361.672850
0
LINE
8
Layer 1
10
1173.606600
20
361.672850
11
1165.356600
21
347.379850
0
LINE
8
Layer 1
10
1165.356600
20
347.379850
11
1148.854700
21
347.379850
0
LINE
8
Layer 1
10
1219.225700
20
347.379850
11
1210.975700
21
361.672850
0
LINE
8
Layer 1
10
1210.975700
20
361.672850
11
1219.225700
21
375.963850
0
LINE
8
Layer 1
10
1219.225700
20
375.963850
11
1231.852700
21
375.963850
0
LINE
8
Layer 1
10
1231.852700
20
375.963850
11
1233.692794
21
369.918059
0
LINE
8
Layer 1
10
1233.692794
20
369.918059
11
1235.347900
21
363.820541
0
LINE
8
Layer 1
10
1235.347900
20
363.820541
11
1236.816931
21
357.675528
0
LINE
8
Layer 1
10
1236.816931
20
357.675528
11
1238.098800
21
351.487250
0
LINE
8
Layer 1
10
1238.098800
20
351.487250
11
1235.727700
21
347.379830
0
LINE
8
Layer 1
10
1235.727700
20
347.379830
11
1219.225700
21
347.379850
0
LINE
8
Layer 1
10
833.211700
20
366.489250
11
835.315714
21
373.768210
0
LINE
8
Layer 1
10
835.315714
20
373.768210
11
837.682774
21
380.963286
0
LINE
8
Layer 1
10
837.682774
20
380.963286
11
840.310390
21
388.067345
0
LINE
8
Layer 1
10
840.310390
20
388.067345
11
843.196070
21
395.073250
0
LINE
8
Layer 1
10
843.196070
20
395.073250
11
847.770290
21
395.073250
0
LINE
8
Layer 1
10
847.770290
20
395.073250
11
856.022240
21
380.782250
0
LINE
8
Layer 1
10
856.022240
20
380.782250
11
847.770290
21
366.489250
0
LINE
8
Layer 1
10
847.770290
20
366.489250
11
833.211700
21
366.489250
0
LINE
8
Layer 1
10
901.641400
20
366.489250
11
893.389450
21
380.782250
0
LINE
8
Layer 1
10
893.389450
20
380.782250
11
901.641400
21
395.073250
0
LINE
8
Layer 1
10
901.641400
20
395.073250
11
918.143400
21
395.073250
0
LINE
8
Layer 1
10
918.143400
20
395.073250
11
926.393400
21
380.782250
0
LINE
8
Layer 1
10
926.393400
20
380.782250
11
918.143400
21
366.489250
0
LINE
8
Layer 1
10
918.143400
20
366.489250
11
901.641400
21
366.489250
0
LINE
8
Layer 1
10
972.012500
20
366.489250
11
963.762500
21
380.782250
0
LINE
8
Layer 1
10
963.762500
20
380.782250
11
972.012500
21
395.073250
0
LINE
8
Layer 1
10
972.012500
20
395.073250
11
988.514500
21
395.073250
0
LINE
8
Layer 1
10
988.514500
20
395.073250
11
996.766450
21
380.782250
0
LINE
8
Layer 1
10
996.766450
20
380.782250
11
988.514500
21
366.489250
0
LINE
8
Layer 1
10
988.514500
20
366.489250
11
972.012500
21
366.489250
0
LINE
8
Layer 1
10
1042.385600
20
366.489250
11
1034.133600
21
380.782250
0
LINE
8
Layer 1
10
1034.133600
20
380.782250
11
1042.385600
21
395.073250
0
LINE
8
Layer 1
10
1042.385600
20
395.073250
11
1058.887600
21
395.073250
0
LINE
8
Layer 1
10
1058.887600
20
395.073250
11
1067.139500
21
380.782250
0
LINE
8
Layer 1
10
1067.139500
20
380.782250
11
1058.887600
21
366.489250
0
LINE
8
Layer 1
10
1058.887600
20
366.489250
11
1042.385600
21
366.489250
0
LINE
8
Layer 1
10
1112.758600
20
366.489250
11
1104.506700
21
380.782250
0
LINE
8
Layer 1
10
1104.506700
20
380.782250
11
1112.758600
21
395.073250
0
LINE
8
Layer 1
10
1112.758600
20
395.073250
11
1129.260600
21
395.073250
0
LINE
8
Layer 1
10
1129.260600
20
395.073250
11
1137.510600
21
380.782250
0
LINE
8
Layer 1
10
1137.510600
20
380.782250
11
1129.260600
21
366.489250
0
LINE
8
Layer 1
10
1129.260600
20
366.489250
11
1112.758600
21
366.489250
0
LINE
8
Layer 1
10
1183.129700
20
366.489250
11
1174.879700
21
380.782250
0
LINE
8
Layer 1
10
1174.879700
20
380.782250
11
1183.129700
21
395.073250
0
LINE
8
Layer 1
10
1183.129700
20
395.073250
11
1199.631700
21
395.073250
0
LINE
8
Layer 1
10
1199.631700
20
395.073250
11
1207.883600
21
380.782250
0
LINE
8
Layer 1
10
1207.883600
20
380.782250
11
1199.631700
21
366.489250
0
LINE
8
Layer 1
10
1199.631700
20
366.489250
11
1183.129700
21
366.489250
0
LINE
8
Layer 1
10
867.317700
20
385.254850
11
859.067700
21
399.547850
0
LINE
8
Layer 1
10
859.067700
20
399.547850
11
867.317700
21
413.838850
0
LINE
8
Layer 1
10
867.317700
20
413.838850
11
883.819700
21
413.838850
0
LINE
8
Layer 1
10
883.819700
20
413.838850
11
892.071650
21
399.547850
0
LINE
8
Layer 1
10
892.071650
20
399.547850
11
883.819700
21
385.254850
0
LINE
8
Layer 1
10
883.819700
20
385.254850
11
867.317700
21
385.254850
0
LINE
8
Layer 1
10
937.690700
20
385.254850
11
929.438750
21
399.547850
0
LINE
8
Layer 1
10
929.438750
20
399.547850
11
937.690700
21
413.838850
0
LINE
8
Layer 1
10
937.690700
20
413.838850
11
954.192700
21
413.838850
0
LINE
8
Layer 1
10
954.192700
20
413.838850
11
962.444650
21
399.547850
0
LINE
8
Layer 1
10
962.444650
20
399.547850
11
954.192700
21
385.254850
0
LINE
8
Layer 1
10
954.192700
20
385.254850
11
937.690700
21
385.254850
0
LINE
8
Layer 1
10
1008.063800
20
385.254850
11
999.811850
21
399.547850
0
LINE
8
Layer 1
10
999.811850
20
399.547850
11
1008.063800
21
413.838850
0
LINE
8
Layer 1
10
1008.063800
20
413.838850
11
1024.565800
21
413.838850
0
LINE
8
Layer 1
10
1024.565800
20
413.838850
11
1032.815800
21
399.547850
0
LINE
8
Layer 1
10
1032.815800
20
399.547850
11
1024.565800
21
385.254850
0
LINE
8
Layer 1
10
1024.565800
20
385.254850
11
1008.063800
21
385.254850
0
LINE
8
Layer 1
10
1078.434900
20
385.254850
11
1070.184900
21
399.547850
0
LINE
8
Layer 1
10
1070.184900
20
399.547850
11
1078.434900
21
413.838850
0
LINE
8
Layer 1
10
1078.434900
20
413.838850
11
1094.936900
21
413.838850
0
LINE
8
Layer 1
10
1094.936900
20
413.838850
11
1103.188800
21
399.547850
0
LINE
8
Layer 1
10
1103.188800
20
399.547850
11
1094.936900
21
385.254850
0
LINE
8
Layer 1
10
1094.936900
20
385.254850
11
1078.434900
21
385.254850
0
LINE
8
Layer 1
10
1148.808000
20
385.254850
11
1140.556000
21
399.547850
0
LINE
8
Layer 1
10
1140.556000
20
399.547850
11
1148.808000
21
413.838850
0
LINE
8
Layer 1
10
1148.808000
20
413.838850
11
1165.309900
21
413.838850
0
LINE
8
Layer 1
10
1165.309900
20
413.838850
11
1173.561900
21
399.547850
0
LINE
8
Layer 1
10
1173.561900
20
399.547850
11
1165.309900
21
385.254850
0
LINE
8
Layer 1
10
1165.309900
20
385.254850
11
1148.808000
21
385.254850
0
LINE
8
Layer 1
10
1219.181000
20
385.254850
11
1210.929100
21
399.547850
0
LINE
8
Layer 1
10
1210.929100
20
399.547850
11
1217.229900
21
410.461950
0
LINE
8
Layer 1
10
1217.229900
20
410.461950
11
1220.392650
21
404.305150
0
LINE
8
Layer 1
10
1220.392650
20
404.305150
11
1223.347875
21
398.048211
0
LINE
8
Layer 1
10
1223.347875
20
398.048211
11
1226.093213
21
391.696392
0
LINE
8
Layer 1
10
1226.093213
20
391.696392
11
1228.626300
21
385.254950
0
LINE
8
Layer 1
10
1228.626300
20
385.254950
11
1219.181000
21
385.254850
0
LINE
8
Layer 1
10
902.550000
20
405.596650
11
894.300000
21
419.887650
0
LINE
8
Layer 1
10
894.300000
20
419.887650
11
902.550000
21
434.180650
0
LINE
8
Layer 1
10
902.550000
20
434.180650
11
919.053900
21
434.180650
0
LINE
8
Layer 1
10
919.053900
20
434.180650
11
927.303900
21
419.887650
0
LINE
8
Layer 1
10
927.303900
20
419.887650
11
919.053900
21
405.596650
0
LINE
8
Layer 1
10
919.053900
20
405.596650
11
902.550000
21
405.596650
0
LINE
8
Layer 1
10
972.923100
20
405.596650
11
964.671140
21
419.887650
0
LINE
8
Layer 1
10
964.671140
20
419.887650
11
972.923100
21
434.180650
0
LINE
8
Layer 1
10
972.923100
20
434.180650
11
989.425100
21
434.180650
0
LINE
8
Layer 1
10
989.425100
20
434.180650
11
997.677050
21
419.887650
0
LINE
8
Layer 1
10
997.677050
20
419.887650
11
989.425100
21
405.596650
0
LINE
8
Layer 1
10
989.425100
20
405.596650
11
972.923100
21
405.596650
0
LINE
8
Layer 1
10
1043.296200
20
405.596650
11
1035.044200
21
419.887650
0
LINE
8
Layer 1
10
1035.044200
20
419.887650
11
1043.296200
21
434.180650
0
LINE
8
Layer 1
10
1043.296200
20
434.180650
11
1059.798100
21
434.180650
0
LINE
8
Layer 1
10
1059.798100
20
434.180650
11
1068.048100
21
419.887650
0
LINE
8
Layer 1
10
1068.048100
20
419.887650
11
1059.798100
21
405.596650
0
LINE
8
Layer 1
10
1059.798100
20
405.596650
11
1043.296200
21
405.596650
0
LINE
8
Layer 1
10
1113.667300
20
405.596650
11
1105.417300
21
419.887650
0
LINE
8
Layer 1
10
1105.417300
20
419.887650
11
1113.667300
21
434.180650
0
LINE
8
Layer 1
10
1113.667300
20
434.180650
11
1130.169200
21
434.180650
0
LINE
8
Layer 1
10
1130.169200
20
434.180650
11
1138.421200
21
419.887650
0
LINE
8
Layer 1
10
1138.421200
20
419.887650
11
1130.169200
21
405.596650
0
LINE
8
Layer 1
10
1130.169200
20
405.596650
11
1113.667300
21
405.596650
0
LINE
8
Layer 1
10
1184.040300
20
405.596650
11
1175.788300
21
419.887650
0
LINE
8
Layer 1
10
1175.788300
20
419.887650
11
1184.040300
21
434.180650
0
LINE
8
Layer 1
10
1184.040300
20
434.180650
11
1200.542300
21
434.180650
0
LINE
8
Layer 1
10
1200.542300
20
434.180650
11
1208.794200
21
419.887650
0
LINE
8
Layer 1
10
1208.794200
20
419.887650
11
1200.542300
21
405.596650
0
LINE
8
Layer 1
10
1200.542300
20
405.596650
11
1184.040300
21
405.596650
0
LINE
8
Layer 1
10
866.454300
20
424.430650
11
862.905480
21
430.579090
0
LINE
8
Layer 1
10
862.905480
20
430.579090
11
867.089756
21
436.417085
0
LINE
8
Layer 1
10
867.089756
20
436.417085
11
871.471886
21
442.105366
0
LINE
8
Layer 1
10
871.471886
20
442.105366
11
876.047864
21
447.638909
0
LINE
8
Layer 1
10
876.047864
20
447.638909
11
880.813680
21
453.012690
0
LINE
8
Layer 1
10
880.813680
20
453.012690
11
882.956260
21
453.012690
0
LINE
8
Layer 1
10
882.956260
20
453.012690
11
891.208210
21
438.721690
0
LINE
8
Layer 1
10
891.208210
20
438.721690
11
882.956260
21
424.430690
0
LINE
8
Layer 1
10
882.956260
20
424.430690
11
866.454300
21
424.430650
0
LINE
8
Layer 1
10
936.827400
20
424.430650
11
928.575450
21
438.721650
0
LINE
8
Layer 1
10
928.575450
20
438.721650
11
936.827400
21
453.012650
0
LINE
8
Layer 1
10
936.827400
20
453.012650
11
953.329400
21
453.012650
0
LINE
8
Layer 1
10
953.329400
20
453.012650
11
961.581360
21
438.721650
0
LINE
8
Layer 1
10
961.581360
20
438.721650
11
953.329400
21
424.430650
0
LINE
8
Layer 1
10
953.329400
20
424.430650
11
936.827400
21
424.430650
0
LINE
8
Layer 1
10
1007.200500
20
424.430650
11
998.948470
21
438.721650
0
LINE
8
Layer 1
10
998.948470
20
438.721650
11
1007.200500
21
453.012650
0
LINE
8
Layer 1
10
1007.200500
20
453.012650
11
1023.702400
21
453.012650
0
LINE
8
Layer 1
10
1023.702400
20
453.012650
11
1031.952400
21
438.721650
0
LINE
8
Layer 1
10
1031.952400
20
438.721650
11
1023.702400
21
424.430650
0
LINE
8
Layer 1
10
1023.702400
20
424.430650
11
1007.200500
21
424.430650
0
LINE
8
Layer 1
10
1077.571500
20
424.430650
11
1069.321500
21
438.721650
0
LINE
8
Layer 1
10
1069.321500
20
438.721650
11
1077.571500
21
453.012650
0
LINE
8
Layer 1
10
1077.571500
20
453.012650
11
1094.073500
21
453.012650
0
LINE
8
Layer 1
10
1094.073500
20
453.012650
11
1102.325500
21
438.721650
0
LINE
8
Layer 1
10
1102.325500
20
438.721650
11
1094.073500
21
424.430650
0
LINE
8
Layer 1
10
1094.073500
20
424.430650
11
1077.571500
21
424.430650
0
LINE
8
Layer 1
10
1147.944600
20
424.430650
11
1139.692600
21
438.721650
0
LINE
8
Layer 1
10
1139.692600
20
438.721650
11
1147.944600
21
453.012650
0
LINE
8
Layer 1
10
1147.944600
20
453.012650
11
1164.446500
21
453.012650
0
LINE
8
Layer 1
10
1164.446500
20
453.012650
11
1172.698500
21
438.721650
0
LINE
8
Layer 1
10
1172.698500
20
438.721650
11
1164.446500
21
424.430650
0
LINE
8
Layer 1
10
1164.446500
20
424.430650
11
1147.944600
21
424.430650
0
LINE
8
Layer 1
10
902.505600
20
443.196250
11
894.253640
21
457.487250
0
LINE
8
Layer 1
10
894.253640
20
457.487250
11
902.505600
21
471.778250
0
LINE
8
Layer 1
10
902.505600
20
471.778250
11
919.007600
21
471.778250
0
LINE
8
Layer 1
10
919.007600
20
471.778250
11
927.257600
21
457.487250
0
LINE
8
Layer 1
10
927.257600
20
457.487250
11
919.007600
21
443.196250
0
LINE
8
Layer 1
10
919.007600
20
443.196250
11
902.505600
21
443.196250
0
LINE
8
Layer 1
10
972.876700
20
443.196250
11
964.626700
21
457.487250
0
LINE
8
Layer 1
10
964.626700
20
457.487250
11
972.876700
21
471.778250
0
LINE
8
Layer 1
10
972.876700
20
471.778250
11
989.378700
21
471.778250
0
LINE
8
Layer 1
10
989.378700
20
471.778250
11
997.630660
21
457.487250
0
LINE
8
Layer 1
10
997.630660
20
457.487250
11
989.378700
21
443.196250
0
LINE
8
Layer 1
10
989.378700
20
443.196250
11
972.876700
21
443.196250
0
LINE
8
Layer 1
10
1043.249800
20
443.196250
11
1034.997800
21
457.487250
0
LINE
8
Layer 1
10
1034.997800
20
457.487250
11
1043.249800
21
471.778250
0
LINE
8
Layer 1
10
1043.249800
20
471.778250
11
1059.751700
21
471.778250
0
LINE
8
Layer 1
10
1059.751700
20
471.778250
11
1068.003700
21
457.487250
0
LINE
8
Layer 1
10
1068.003700
20
457.487250
11
1059.751700
21
443.196250
0
LINE
8
Layer 1
10
1059.751700
20
443.196250
11
1043.249800
21
443.196250
0
LINE
8
Layer 1
10
1113.622800
20
443.196250
11
1105.370900
21
457.487250
0
LINE
8
Layer 1
10
1105.370900
20
457.487250
11
1113.622800
21
471.778250
0
LINE
8
Layer 1
10
1113.622800
20
471.778250
11
1130.124800
21
471.778250
0
LINE
8
Layer 1
10
1130.124800
20
471.778250
11
1138.374800
21
457.487250
0
LINE
8
Layer 1
10
1138.374800
20
457.487250
11
1130.124800
21
443.196250
0
LINE
8
Layer 1
10
1130.124800
20
443.196250
11
1113.622800
21
443.196250
0
LINE
8
Layer 1
10
1183.993900
20
443.196250
11
1175.743900
21
457.487250
0
LINE
8
Layer 1
10
1175.743900
20
457.487250
11
1178.326000
21
461.957950
0
LINE
8
Layer 1
10
1178.326000
20
461.957950
11
1182.836859
21
457.466588
0
LINE
8
Layer 1
10
1182.836859
20
457.466588
11
1187.207075
21
452.840320
0
LINE
8
Layer 1
10
1187.207075
20
452.840320
11
1191.433628
21
448.082442
0
LINE
8
Layer 1
10
1191.433628
20
448.082442
11
1195.513500
21
443.196250
0
LINE
8
Layer 1
10
1195.513500
20
443.196250
11
1183.993900
21
443.196250
0
LINE
8
Layer 1
10
937.737900
20
463.538050
11
929.485950
21
477.829050
0
LINE
8
Layer 1
10
929.485950
20
477.829050
11
937.737900
21
492.120050
0
LINE
8
Layer 1
10
937.737900
20
492.120050
11
954.239900
21
492.120050
0
LINE
8
Layer 1
10
954.239900
20
492.120050
11
962.489900
21
477.829050
0
LINE
8
Layer 1
10
962.489900
20
477.829050
11
954.239900
21
463.538050
0
LINE
8
Layer 1
10
954.239900
20
463.538050
11
937.737900
21
463.538050
0
LINE
8
Layer 1
10
1008.109100
20
463.538050
11
999.859020
21
477.829050
0
LINE
8
Layer 1
10
999.859020
20
477.829050
11
1008.109100
21
492.120050
0
LINE
8
Layer 1
10
1008.109100
20
492.120050
11
1024.611000
21
492.120050
0
LINE
8
Layer 1
10
1024.611000
20
492.120050
11
1032.863000
21
477.829050
0
LINE
8
Layer 1
10
1032.863000
20
477.829050
11
1024.611000
21
463.538050
0
LINE
8
Layer 1
10
1024.611000
20
463.538050
11
1008.109100
21
463.538050
0
LINE
8
Layer 1
10
1078.482100
20
463.538050
11
1070.230200
21
477.829050
0
LINE
8
Layer 1
10
1070.230200
20
477.829050
11
1078.482100
21
492.120050
0
LINE
8
Layer 1
10
1078.482100
20
492.120050
11
1094.984100
21
492.120050
0
LINE
8
Layer 1
10
1094.984100
20
492.120050
11
1103.236000
21
477.829050
0
LINE
8
Layer 1
10
1103.236000
20
477.829050
11
1094.984100
21
463.538050
0
LINE
8
Layer 1
10
1094.984100
20
463.538050
11
1078.482100
21
463.538050
0
LINE
8
Layer 1
10
1148.855200
20
463.538050
11
1140.603200
21
477.829050
0
LINE
8
Layer 1
10
1140.603200
20
477.829050
11
1146.134400
21
487.409120
0
LINE
8
Layer 1
10
1146.134400
20
487.409120
11
1152.127380
21
483.418097
0
LINE
8
Layer 1
10
1152.127380
20
483.418097
11
1157.976838
21
479.223205
0
LINE
8
Layer 1
10
1157.976838
20
479.223205
11
1163.677552
21
474.828296
0
LINE
8
Layer 1
10
1163.677552
20
474.828296
11
1169.224300
21
470.237220
0
LINE
8
Layer 1
10
1169.224300
20
470.237220
11
1165.357100
21
463.538000
0
LINE
8
Layer 1
10
1165.357100
20
463.538000
11
1148.855200
21
463.538050
0
LINE
8
Layer 1
10
972.013200
20
482.647450
11
963.763200
21
496.938450
0
LINE
8
Layer 1
10
963.763200
20
496.938450
11
971.751480
21
510.776350
0
LINE
8
Layer 1
10
971.751480
20
510.776350
11
973.218280
21
511.229480
0
LINE
8
Layer 1
10
973.218280
20
511.229480
11
988.515180
21
511.229480
0
LINE
8
Layer 1
10
988.515180
20
511.229480
11
996.767130
21
496.938480
0
LINE
8
Layer 1
10
996.767130
20
496.938480
11
988.515180
21
482.647480
0
LINE
8
Layer 1
10
988.515180
20
482.647480
11
972.013200
21
482.647450
0
LINE
8
Layer 1
10
1042.386300
20
482.647450
11
1034.134300
21
496.938450
0
LINE
8
Layer 1
10
1034.134300
20
496.938450
11
1042.386300
21
511.229450
0
LINE
8
Layer 1
10
1042.386300
20
511.229450
11
1058.888300
21
511.229450
0
LINE
8
Layer 1
10
1058.888300
20
511.229450
11
1067.140200
21
496.938450
0
LINE
8
Layer 1
10
1067.140200
20
496.938450
11
1058.888300
21
482.647450
0
LINE
8
Layer 1
10
1058.888300
20
482.647450
11
1042.386300
21
482.647450
0
LINE
8
Layer 1
10
1112.759300
20
482.647450
11
1104.507400
21
496.938450
0
LINE
8
Layer 1
10
1104.507400
20
496.938450
11
1109.728100
21
505.979470
0
LINE
8
Layer 1
10
1109.728100
20
505.979470
11
1116.363586
21
503.248562
0
LINE
8
Layer 1
10
1116.363586
20
503.248562
11
1122.898938
21
500.291181
0
LINE
8
Layer 1
10
1122.898938
20
500.291181
11
1129.328370
21
497.110070
0
LINE
8
Layer 1
10
1129.328370
20
497.110070
11
1135.646100
21
493.707970
0
LINE
8
Layer 1
10
1135.646100
20
493.707970
11
1129.261300
21
482.647470
0
LINE
8
Layer 1
10
1129.261300
20
482.647470
11
1112.759300
21
482.647450
0
LINE
8
Layer 1
10
1008.064300
20
501.413050
11
999.812350
21
515.704050
0
LINE
8
Layer 1
10
999.812350
20
515.704050
11
1000.941300
21
517.659120
0
LINE
8
Layer 1
10
1000.941300
20
517.659120
11
1008.214913
21
518.696475
0
LINE
8
Layer 1
10
1008.214913
20
518.696475
11
1015.518375
21
519.475934
0
LINE
8
Layer 1
10
1015.518375
20
519.475934
11
1022.844825
21
519.996888
0
LINE
8
Layer 1
10
1022.844825
20
519.996888
11
1030.187400
21
520.258730
0
LINE
8
Layer 1
10
1030.187400
20
520.258730
11
1032.816300
21
515.704050
0
LINE
8
Layer 1
10
1032.816300
20
515.704050
11
1024.566300
21
501.413050
0
LINE
8
Layer 1
10
1024.566300
20
501.413050
11
1008.064300
21
501.413050
0
LINE
8
Layer 1
10
1078.435400
20
501.413050
11
1070.185400
21
515.704050
0
LINE
8
Layer 1
10
1070.185400
20
515.704050
11
1070.919800
21
516.975530
0
LINE
8
Layer 1
10
1070.919800
20
516.975530
11
1078.204359
21
515.523503
0
LINE
8
Layer 1
10
1078.204359
20
515.523503
11
1085.430100
21
513.812735
0
LINE
8
Layer 1
10
1085.430100
20
513.812735
11
1092.590141
21
511.844987
0
LINE
8
Layer 1
10
1092.590141
20
511.844987
11
1099.677600
21
509.622020
0
LINE
8
Layer 1
10
1099.677600
20
509.622020
11
1094.937400
21
501.413030
0
LINE
8
Layer 1
10
1094.937400
20
501.413030
11
1078.435400
21
501.413050
0
LINE
8
Layer 1
10
196.054000
20
229.636000
11
100.594000
21
229.636000
0
LINE
8
Layer 1
10
204.072000
20
232.957000
11
202.345062
21
231.541020
0
LINE
8
Layer 1
10
202.345062
20
231.541020
11
200.393499
21
230.499102
0
LINE
8
Layer 1
10
200.393499
20
230.499102
11
198.276788
21
229.855883
0
LINE
8
Layer 1
10
198.276788
20
229.855883
11
196.054410
21
229.636000
0
LINE
8
Layer 1
10
96.815000
20
233.416000
11
100.594530
21
229.636470
0
LINE
8
Layer 1
10
204.070000
20
232.955000
11
242.783700
21
271.668700
0
LINE
8
Layer 1
10
96.815000
20
233.416000
11
96.815000
21
773.887000
0
LINE
8
Layer 1
10
242.783000
20
271.670000
11
244.509936
21
273.085976
0
LINE
8
Layer 1
10
244.509936
20
273.085976
11
246.461498
21
274.127891
0
LINE
8
Layer 1
10
246.461498
20
274.127891
11
248.578206
21
274.771108
0
LINE
8
Layer 1
10
248.578206
20
274.771108
11
250.800580
21
274.990990
0
LINE
8
Layer 1
10
96.815000
20
773.887000
11
100.594530
21
777.666530
0
LINE
8
Layer 1
10
250.800000
20
274.991000
11
396.369000
21
274.991000
0
LINE
8
Layer 1
10
100.594000
20
777.666000
11
202.642000
21
777.666000
0
LINE
8
Layer 1
10
396.369000
20
274.991000
11
398.591377
21
274.771119
0
LINE
8
Layer 1
10
398.591377
20
274.771119
11
400.708087
21
274.127903
0
LINE
8
Layer 1
10
400.708087
20
274.127903
11
402.659652
21
273.085987
0
LINE
8
Layer 1
10
402.659652
20
273.085987
11
404.386590
21
271.670010
0
LINE
8
Layer 1
10
202.642000
20
777.666000
11
247.996300
21
823.020300
0
LINE
8
Layer 1
10
404.385000
20
271.668000
11
443.098700
21
232.954300
0
LINE
8
Layer 1
10
247.996000
20
823.021000
11
399.177000
21
823.021000
0
LINE
8
Layer 1
10
451.115000
20
229.636000
11
448.892622
21
229.855883
0
LINE
8
Layer 1
10
448.892622
20
229.855883
11
446.775911
21
230.499102
0
LINE
8
Layer 1
10
446.775911
20
230.499102
11
444.824348
21
231.541020
0
LINE
8
Layer 1
10
444.824348
20
231.541020
11
443.097410
21
232.957000
0
LINE
8
Layer 1
10
399.177000
20
823.021000
11
444.531000
21
777.666000
0
LINE
8
Layer 1
10
546.579000
20
229.636000
11
451.115700
21
229.636000
0
LINE
8
Layer 1
10
444.531000
20
777.666000
11
546.579000
21
777.666000
0
LINE
8
Layer 1
10
550.358000
20
233.416000
11
546.578470
21
229.636470
0
LINE
8
Layer 1
10
546.579000
20
777.666000
11
550.358530
21
773.886470
0
LINE
8
Layer 1
10
550.358000
20
773.887000
11
550.358000
21
233.416000
0
LINE
8
Layer 1
10
130.528000
20
702.754000
11
130.318672
21
701.176166
0
LINE
8
Layer 1
10
130.318672
20
701.176166
11
129.717822
21
699.730375
0
LINE
8
Layer 1
10
129.717822
20
699.730375
11
128.766155
21
698.487129
0
LINE
8
Layer 1
10
128.766155
20
698.487129
11
127.504375
21
697.516928
0
LINE
8
Layer 1
10
127.504375
20
697.516928
11
126.033266
21
696.909294
0
LINE
8
Layer 1
10
126.033266
20
696.909294
11
124.480750
21
696.706750
0
LINE
8
Layer 1
10
124.480750
20
696.706750
11
122.928234
21
696.909294
0
LINE
8
Layer 1
10
122.928234
20
696.909294
11
121.457125
21
697.516928
0
LINE
8
Layer 1
10
121.457125
20
697.516928
11
120.195345
21
698.487129
0
LINE
8
Layer 1
10
120.195345
20
698.487129
11
119.243678
21
699.730375
0
LINE
8
Layer 1
10
119.243678
20
699.730375
11
118.642828
21
701.176166
0
LINE
8
Layer 1
10
118.642828
20
701.176166
11
118.433500
21
702.754000
0
LINE
8
Layer 1
10
118.433500
20
702.754000
11
118.642828
21
704.331834
0
LINE
8
Layer 1
10
118.642828
20
704.331834
11
119.243678
21
705.777625
0
LINE
8
Layer 1
10
119.243678
20
705.777625
11
120.195345
21
707.020871
0
LINE
8
Layer 1
10
120.195345
20
707.020871
11
121.457125
21
707.991072
0
LINE
8
Layer 1
10
121.457125
20
707.991072
11
122.928234
21
708.598706
0
LINE
8
Layer 1
10
122.928234
20
708.598706
11
124.480750
21
708.801250
0
LINE
8
Layer 1
10
124.480750
20
708.801250
11
126.033266
21
708.598706
0
LINE
8
Layer 1
10
126.033266
20
708.598706
11
127.504375
21
707.991072
0
LINE
8
Layer 1
10
127.504375
20
707.991072
11
128.766155
21
707.020871
0
LINE
8
Layer 1
10
128.766155
20
707.020871
11
129.717822
21
705.777625
0
LINE
8
Layer 1
10
129.717822
20
705.777625
11
130.318672
21
704.331834
0
LINE
8
Layer 1
10
130.318672
20
704.331834
11
130.528000
21
702.754000
0
LINE
8
Layer 1
10
130.528000
20
702.754000
11
130.528000
21
702.754000
0
LINE
8
Layer 1
10
351.933000
20
781.446000
11
351.690169
21
777.686177
0
LINE
8
Layer 1
10
351.690169
20
777.686177
11
350.963314
21
774.039288
0
LINE
8
Layer 1
10
350.963314
20
774.039288
11
349.776319
21
770.546819
0
LINE
8
Layer 1
10
349.776319
20
770.546819
11
348.153067
21
767.250259
0
LINE
8
Layer 1
10
348.153067
20
767.250259
11
346.117442
21
764.191094
0
LINE
8
Layer 1
10
346.117442
20
764.191094
11
343.693328
21
761.410812
0
LINE
8
Layer 1
10
343.693328
20
761.410812
11
340.904609
21
758.950901
0
LINE
8
Layer 1
10
340.904609
20
758.950901
11
337.775167
21
756.852848
0
LINE
8
Layer 1
10
337.775167
20
756.852848
11
334.395561
21
755.187465
0
LINE
8
Layer 1
10
334.395561
20
755.187465
11
330.872343
21
753.997906
0
LINE
8
Layer 1
10
330.872343
20
753.997906
11
327.253382
21
753.284170
0
LINE
8
Layer 1
10
327.253382
20
753.284170
11
323.586550
21
753.046259
0
LINE
8
Layer 1
10
323.586550
20
753.046259
11
319.919718
21
753.284170
0
LINE
8
Layer 1
10
319.919718
20
753.284170
11
316.300757
21
753.997906
0
LINE
8
Layer 1
10
316.300757
20
753.997906
11
312.777539
21
755.187465
0
LINE
8
Layer 1
10
312.777539
20
755.187465
11
309.397933
21
756.852848
0
LINE
8
Layer 1
10
309.397933
20
756.852848
11
306.268491
21
758.950901
0
LINE
8
Layer 1
10
306.268491
20
758.950901
11
303.479772
21
761.410812
0
LINE
8
Layer 1
10
303.479772
20
761.410812
11
301.055658
21
764.191094
0
LINE
8
Layer 1
10
301.055658
20
764.191094
11
299.020033
21
767.250259
0
LINE
8
Layer 1
10
299.020033
20
767.250259
11
297.396781
21
770.546819
0
LINE
8
Layer 1
10
297.396781
20
770.546819
11
296.209786
21
774.039288
0
LINE
8
Layer 1
10
296.209786
20
774.039288
11
295.482931
21
777.686177
0
LINE
8
Layer 1
10
295.482931
20
777.686177
11
295.240100
21
781.446000
0
LINE
8
Layer 1
10
295.240100
20
781.446000
11
295.482931
21
785.205823
0
LINE
8
Layer 1
10
295.482931
20
785.205823
11
296.209786
21
788.852712
0
LINE
8
Layer 1
10
296.209786
20
788.852712
11
297.396781
21
792.345181
0
LINE
8
Layer 1
10
297.396781
20
792.345181
11
299.020033
21
795.641741
0
LINE
8
Layer 1
10
299.020033
20
795.641741
11
301.055658
21
798.700906
0
LINE
8
Layer 1
10
301.055658
20
798.700906
11
303.479772
21
801.481188
0
LINE
8
Layer 1
10
303.479772
20
801.481188
11
306.268491
21
803.941099
0
LINE
8
Layer 1
10
306.268491
20
803.941099
11
309.397933
21
806.039152
0
LINE
8
Layer 1
10
309.397933
20
806.039152
11
312.777539
21
807.704535
0
LINE
8
Layer 1
10
312.777539
20
807.704535
11
316.300757
21
808.894094
0
LINE
8
Layer 1
10
316.300757
20
808.894094
11
319.919718
21
809.607830
0
LINE
8
Layer 1
10
319.919718
20
809.607830
11
323.586550
21
809.845741
0
LINE
8
Layer 1
10
323.586550
20
809.845741
11
327.253382
21
809.607830
0
LINE
8
Layer 1
10
327.253382
20
809.607830
11
330.872343
21
808.894094
0
LINE
8
Layer 1
10
330.872343
20
808.894094
11
334.395561
21
807.704535
0
LINE
8
Layer 1
10
334.395561
20
807.704535
11
337.775167
21
806.039152
0
LINE
8
Layer 1
10
337.775167
20
806.039152
11
340.904609
21
803.941099
0
LINE
8
Layer 1
10
340.904609
20
803.941099
11
343.693328
21
801.481188
0
LINE
8
Layer 1
10
343.693328
20
801.481188
11
346.117442
21
798.700906
0
LINE
8
Layer 1
10
346.117442
20
798.700906
11
348.153067
21
795.641741
0
LINE
8
Layer 1
10
348.153067
20
795.641741
11
349.776319
21
792.345181
0
LINE
8
Layer 1
10
349.776319
20
792.345181
11
350.963314
21
788.852712
0
LINE
8
Layer 1
10
350.963314
20
788.852712
11
351.690169
21
785.205823
0
LINE
8
Layer 1
10
351.690169
20
785.205823
11
351.933000
21
781.446000
0
LINE
8
Layer 1
10
351.933000
20
781.446000
11
351.933000
21
781.446000
0
LINE
8
Layer 1
10
528.736000
20
304.546000
11
528.526672
21
302.968166
0
LINE
8
Layer 1
10
528.526672
20
302.968166
11
527.925822
21
301.522375
0
LINE
8
Layer 1
10
527.925822
20
301.522375
11
526.974155
21
300.279129
0
LINE
8
Layer 1
10
526.974155
20
300.279129
11
525.712375
21
299.308928
0
LINE
8
Layer 1
10
525.712375
20
299.308928
11
524.241266
21
298.701294
0
LINE
8
Layer 1
10
524.241266
20
298.701294
11
522.688750
21
298.498750
0
LINE
8
Layer 1
10
522.688750
20
298.498750
11
521.136234
21
298.701294
0
LINE
8
Layer 1
10
521.136234
20
298.701294
11
519.665125
21
299.308928
0
LINE
8
Layer 1
10
519.665125
20
299.308928
11
518.403345
21
300.279129
0
LINE
8
Layer 1
10
518.403345
20
300.279129
11
517.451678
21
301.522375
0
LINE
8
Layer 1
10
517.451678
20
301.522375
11
516.850828
21
302.968166
0
LINE
8
Layer 1
10
516.850828
20
302.968166
11
516.641500
21
304.546000
0
LINE
8
Layer 1
10
516.641500
20
304.546000
11
516.850828
21
306.123834
0
LINE
8
Layer 1
10
516.850828
20
306.123834
11
517.451678
21
307.569625
0
LINE
8
Layer 1
10
517.451678
20
307.569625
11
518.403345
21
308.812871
0
LINE
8
Layer 1
10
518.403345
20
308.812871
11
519.665125
21
309.783072
0
LINE
8
Layer 1
10
519.665125
20
309.783072
11
521.136234
21
310.390706
0
LINE
8
Layer 1
10
521.136234
20
310.390706
11
522.688750
21
310.593250
0
LINE
8
Layer 1
10
522.688750
20
310.593250
11
524.241266
21
310.390706
0
LINE
8
Layer 1
10
524.241266
20
310.390706
11
525.712375
21
309.783072
0
LINE
8
Layer 1
10
525.712375
20
309.783072
11
526.974155
21
308.812871
0
LINE
8
Layer 1
10
526.974155
20
308.812871
11
527.925822
21
307.569625
0
LINE
8
Layer 1
10
527.925822
20
307.569625
11
528.526672
21
306.123834
0
LINE
8
Layer 1
10
528.526672
20
306.123834
11
528.736000
21
304.546000
0
LINE
8
Layer 1
10
528.736000
20
304.546000
11
528.736000
21
304.546000
0
LINE
8
Layer 1
10
130.528000
20
304.546000
11
130.318672
21
302.968166
0
LINE
8
Layer 1
10
130.318672
20
302.968166
11
129.717822
21
301.522375
0
LINE
8
Layer 1
10
129.717822
20
301.522375
11
128.766155
21
300.279129
0
LINE
8
Layer 1
10
128.766155
20
300.279129
11
127.504375
21
299.308928
0
LINE
8
Layer 1
10
127.504375
20
299.308928
11
126.033266
21
298.701294
0
LINE
8
Layer 1
10
126.033266
20
298.701294
11
124.480750
21
298.498750
0
LINE
8
Layer 1
10
124.480750
20
298.498750
11
122.928234
21
298.701294
0
LINE
8
Layer 1
10
122.928234
20
298.701294
11
121.457125
21
299.308928
0
LINE
8
Layer 1
10
121.457125
20
299.308928
11
120.195345
21
300.279129
0
LINE
8
Layer 1
10
120.195345
20
300.279129
11
119.243678
21
301.522375
0
LINE
8
Layer 1
10
119.243678
20
301.522375
11
118.642828
21
302.968166
0
LINE
8
Layer 1
10
118.642828
20
302.968166
11
118.433500
21
304.546000
0
LINE
8
Layer 1
10
118.433500
20
304.546000
11
118.642828
21
306.123834
0
LINE
8
Layer 1
10
118.642828
20
306.123834
11
119.243678
21
307.569625
0
LINE
8
Layer 1
10
119.243678
20
307.569625
11
120.195345
21
308.812871
0
LINE
8
Layer 1
10
120.195345
20
308.812871
11
121.457125
21
309.783072
0
LINE
8
Layer 1
10
121.457125
20
309.783072
11
122.928234
21
310.390706
0
LINE
8
Layer 1
10
122.928234
20
310.390706
11
124.480750
21
310.593250
0
LINE
8
Layer 1
10
124.480750
20
310.593250
11
126.033266
21
310.390706
0
LINE
8
Layer 1
10
126.033266
20
310.390706
11
127.504375
21
309.783072
0
LINE
8
Layer 1
10
127.504375
20
309.783072
11
128.766155
21
308.812871
0
LINE
8
Layer 1
10
128.766155
20
308.812871
11
129.717822
21
307.569625
0
LINE
8
Layer 1
10
129.717822
20
307.569625
11
130.318672
21
306.123834
0
LINE
8
Layer 1
10
130.318672
20
306.123834
11
130.528000
21
304.546000
0
LINE
8
Layer 1
10
130.528000
20
304.546000
11
130.528000
21
304.546000
0
LINE
8
Layer 1
10
528.736000
20
702.754000
11
528.526672
21
701.176166
0
LINE
8
Layer 1
10
528.526672
20
701.176166
11
527.925822
21
699.730375
0
LINE
8
Layer 1
10
527.925822
20
699.730375
11
526.974155
21
698.487129
0
LINE
8
Layer 1
10
526.974155
20
698.487129
11
525.712375
21
697.516928
0
LINE
8
Layer 1
10
525.712375
20
697.516928
11
524.241266
21
696.909294
0
LINE
8
Layer 1
10
524.241266
20
696.909294
11
522.688750
21
696.706750
0
LINE
8
Layer 1
10
522.688750
20
696.706750
11
521.136234
21
696.909294
0
LINE
8
Layer 1
10
521.136234
20
696.909294
11
519.665125
21
697.516928
0
LINE
8
Layer 1
10
519.665125
20
697.516928
11
518.403345
21
698.487129
0
LINE
8
Layer 1
10
518.403345
20
698.487129
11
517.451678
21
699.730375
0
LINE
8
Layer 1
10
517.451678
20
699.730375
11
516.850828
21
701.176166
0
LINE
8
Layer 1
10
516.850828
20
701.176166
11
516.641500
21
702.754000
0
LINE
8
Layer 1
10
516.641500
20
702.754000
11
516.850828
21
704.331834
0
LINE
8
Layer 1
10
516.850828
20
704.331834
11
517.451678
21
705.777625
0
LINE
8
Layer 1
10
517.451678
20
705.777625
11
518.403345
21
707.020871
0
LINE
8
Layer 1
10
518.403345
20
707.020871
11
519.665125
21
707.991072
0
LINE
8
Layer 1
10
519.665125
20
707.991072
11
521.136234
21
708.598706
0
LINE
8
Layer 1
10
521.136234
20
708.598706
11
522.688750
21
708.801250
0
LINE
8
Layer 1
10
522.688750
20
708.801250
11
524.241266
21
708.598706
0
LINE
8
Layer 1
10
524.241266
20
708.598706
11
525.712375
21
707.991072
0
LINE
8
Layer 1
10
525.712375
20
707.991072
11
526.974155
21
707.020871
0
LINE
8
Layer 1
10
526.974155
20
707.020871
11
527.925822
21
705.777625
0
LINE
8
Layer 1
10
527.925822
20
705.777625
11
528.526672
21
704.331834
0
LINE
8
Layer 1
10
528.526672
20
704.331834
11
528.736000
21
702.754000
0
LINE
8
Layer 1
10
528.736000
20
702.754000
11
528.736000
21
702.754000
 0 
ENDSEC
 0 
EOF