999
"DXF R12 Output" (www.mydxf.blogspot.com)
 0 
SECTION
 2 
HEADER
 9 
$ACADVER
 1 
AC1009
 9 
$EXTMIN
 10 
 0 
 20 
 0 
 9 
$EXTMAX
 10 
 8.5 
 20 
 11 
 0 
ENDSEC
 0 
SECTION
 2 
ENTITIES
0
LINE
8
Layer 1
10
3.000000
20
-3.000000
11
-3.000000
21
3.000000
0
LINE
8
Layer 1
10
0.000000
20
-5.000000
11
0.000000
21
5.000000
0
LINE
8
Layer 1
10
8.000000
20
4.000000
11
4.000000
21
8.000000
0
LINE
8
Layer 1
10
6.000000
20
2.000000
11
2.000000
21
6.000000
0
LINE
8
Layer 1
10
4.000000
20
0.000000
11
0.000000
21
4.000000
0
LINE
8
ProjItem
10
258.498000
20
961.872000
11
258.498000
21
421.398000
0
LINE
8
ProjItem
10
258.498000
20
961.872000
11
262.278000
21
965.652000
0
LINE
8
ProjItem
10
258.498000
20
421.398000
11
262.278000
21
417.619000
0
LINE
8
ProjItem
10
462.591000
20
965.652000
11
262.278000
21
965.652000
0
LINE
8
ProjItem
10
262.278000
20
417.619000
11
462.591000
21
417.619000
0
LINE
8
ProjItem
10
466.371000
20
961.872000
11
462.591000
21
965.652000
0
LINE
8
ProjItem
10
462.591000
20
417.619000
11
466.371000
21
421.398000
0
LINE
8
ProjItem
10
466.371000
20
421.398000
11
466.371000
21
961.872000
0
LINE
8
ProjItem
10
321.238000
20
440.296000
11
321.040414
21
438.707465
0
LINE
8
ProjItem
10
321.040414
20
438.707465
11
320.445930
21
437.249663
0
LINE
8
ProjItem
10
320.445930
20
437.249663
11
319.495520
21
435.994545
0
LINE
8
ProjItem
10
319.495520
20
435.994545
11
318.230159
21
435.014063
0
LINE
8
ProjItem
10
318.230159
20
435.014063
11
316.751980
21
434.399679
0
LINE
8
ProjItem
10
316.751980
20
434.399679
11
315.191000
21
434.194884
0
LINE
8
ProjItem
10
315.191000
20
434.194884
11
313.630020
21
434.399679
0
LINE
8
ProjItem
10
313.630020
20
434.399679
11
312.151841
21
435.014063
0
LINE
8
ProjItem
10
312.151841
20
435.014063
11
310.886480
21
435.994545
0
LINE
8
ProjItem
10
310.886480
20
435.994545
11
309.936070
21
437.249663
0
LINE
8
ProjItem
10
309.936070
20
437.249663
11
309.341586
21
438.707465
0
LINE
8
ProjItem
10
309.341586
20
438.707465
11
309.144000
21
440.296000
0
LINE
8
ProjItem
10
309.144000
20
440.296000
11
309.341586
21
441.884535
0
LINE
8
ProjItem
10
309.341586
20
441.884535
11
309.936070
21
443.342337
0
LINE
8
ProjItem
10
309.936070
20
443.342337
11
310.886480
21
444.597455
0
LINE
8
ProjItem
10
310.886480
20
444.597455
11
312.151841
21
445.577937
0
LINE
8
ProjItem
10
312.151841
20
445.577937
11
313.630020
21
446.192321
0
LINE
8
ProjItem
10
313.630020
20
446.192321
11
315.191000
21
446.397116
0
LINE
8
ProjItem
10
315.191000
20
446.397116
11
316.751980
21
446.192321
0
LINE
8
ProjItem
10
316.751980
20
446.192321
11
318.230159
21
445.577937
0
LINE
8
ProjItem
10
318.230159
20
445.577937
11
319.495520
21
444.597455
0
LINE
8
ProjItem
10
319.495520
20
444.597455
11
320.445930
21
443.342337
0
LINE
8
ProjItem
10
320.445930
20
443.342337
11
321.040414
21
441.884535
0
LINE
8
ProjItem
10
321.040414
20
441.884535
11
321.238000
21
440.296000
0
LINE
8
ProjItem
10
321.238000
20
440.296000
11
321.238000
21
440.296000
0
LINE
8
ProjItem
10
321.238000
20
942.975000
11
321.040414
21
941.386465
0
LINE
8
ProjItem
10
321.040414
20
941.386465
11
320.445930
21
939.928663
0
LINE
8
ProjItem
10
320.445930
20
939.928663
11
319.495520
21
938.673545
0
LINE
8
ProjItem
10
319.495520
20
938.673545
11
318.230159
21
937.693063
0
LINE
8
ProjItem
10
318.230159
20
937.693063
11
316.751980
21
937.078679
0
LINE
8
ProjItem
10
316.751980
20
937.078679
11
315.191000
21
936.873884
0
LINE
8
ProjItem
10
315.191000
20
936.873884
11
313.630020
21
937.078679
0
LINE
8
ProjItem
10
313.630020
20
937.078679
11
312.151841
21
937.693063
0
LINE
8
ProjItem
10
312.151841
20
937.693063
11
310.886480
21
938.673545
0
LINE
8
ProjItem
10
310.886480
20
938.673545
11
309.936070
21
939.928663
0
LINE
8
ProjItem
10
309.936070
20
939.928663
11
309.341586
21
941.386465
0
LINE
8
ProjItem
10
309.341586
20
941.386465
11
309.144000
21
942.975000
0
LINE
8
ProjItem
10
309.144000
20
942.975000
11
309.341586
21
944.563535
0
LINE
8
ProjItem
10
309.341586
20
944.563535
11
309.936070
21
946.021337
0
LINE
8
ProjItem
10
309.936070
20
946.021337
11
310.886480
21
947.276455
0
LINE
8
ProjItem
10
310.886480
20
947.276455
11
312.151841
21
948.256937
0
LINE
8
ProjItem
10
312.151841
20
948.256937
11
313.630020
21
948.871321
0
LINE
8
ProjItem
10
313.630020
20
948.871321
11
315.191000
21
949.076116
0
LINE
8
ProjItem
10
315.191000
20
949.076116
11
316.751980
21
948.871321
0
LINE
8
ProjItem
10
316.751980
20
948.871321
11
318.230159
21
948.256937
0
LINE
8
ProjItem
10
318.230159
20
948.256937
11
319.495520
21
947.276455
0
LINE
8
ProjItem
10
319.495520
20
947.276455
11
320.445930
21
946.021337
0
LINE
8
ProjItem
10
320.445930
20
946.021337
11
321.040414
21
944.563535
0
LINE
8
ProjItem
10
321.040414
20
944.563535
11
321.238000
21
942.975000
0
LINE
8
ProjItem
10
321.238000
20
942.975000
11
321.238000
21
942.975000
 0 
ENDSEC
 0 
EOF