999
"DXF R12 Output" (www.mydxf.blogspot.com)
 0 
SECTION
 2 
HEADER
 9 
$ACADVER
 1 
AC1009
 9 
$EXTMIN
 10 
 0 
 20 
 0 
 9 
$EXTMAX
 10 
 8.5 
 20 
 11 
 0 
ENDSEC
 0 
SECTION
 2 
ENTITIES
0
LINE
8
Layer 1
10
3.000000
20
-3.000000
11
-3.000000
21
3.000000
0
LINE
8
Layer 1
10
0.000000
20
-5.000000
11
0.000000
21
5.000000
0
LINE
8
Layer 1
10
8.000000
20
4.000000
11
4.000000
21
8.000000
0
LINE
8
Layer 1
10
6.000000
20
2.000000
11
2.000000
21
6.000000
0
LINE
8
Layer 1
10
4.000000
20
0.000000
11
0.000000
21
4.000000
0
LINE
8
Layer 1
10
939.213000
20
971.339000
11
939.213000
21
1035.591000
0
LINE
8
Layer 1
10
939.213000
20
1035.590000
11
927.874400
21
1046.928500
0
LINE
8
Layer 1
10
939.213000
20
971.339000
11
954.331100
21
971.339000
0
LINE
8
Layer 1
10
927.874000
20
1046.930000
11
194.646000
21
1046.930000
0
LINE
8
Layer 1
10
954.331000
20
971.339000
11
958.110530
21
967.559470
0
LINE
8
Layer 1
10
194.646000
20
1046.930000
11
183.307400
21
1035.591500
0
LINE
8
Layer 1
10
958.110000
20
861.732000
11
958.110000
21
967.559000
0
LINE
8
Layer 1
10
183.307000
20
971.339000
11
183.307000
21
1035.591000
0
LINE
8
Layer 1
10
958.110000
20
861.732000
11
954.330470
21
857.952480
0
LINE
8
Layer 1
10
168.189000
20
971.339000
11
183.307100
21
971.339000
0
LINE
8
Layer 1
10
939.213000
20
857.953000
11
954.331100
21
857.953000
0
LINE
8
Layer 1
10
168.189000
20
971.339000
11
164.409470
21
967.559470
0
LINE
8
Layer 1
10
939.213000
20
593.386000
11
939.213000
21
857.953000
0
LINE
8
Layer 1
10
164.409000
20
861.732000
11
164.409000
21
967.559000
0
LINE
8
Layer 1
10
939.213000
20
593.386000
11
954.331100
21
593.386000
0
LINE
8
Layer 1
10
164.409000
20
861.732000
11
168.188530
21
857.952480
0
LINE
8
Layer 1
10
954.331000
20
593.386000
11
958.110530
21
589.606470
0
LINE
8
Layer 1
10
183.307000
20
857.953000
11
168.189000
21
857.953000
0
LINE
8
Layer 1
10
958.110000
20
483.780000
11
958.110000
21
589.606000
0
LINE
8
Layer 1
10
183.307000
20
593.386000
11
183.307000
21
857.953000
0
LINE
8
Layer 1
10
958.110000
20
483.780000
11
954.331000
21
480.000000
0
LINE
8
Layer 1
10
168.189000
20
593.386000
11
183.307100
21
593.386000
0
LINE
8
Layer 1
10
939.213000
20
480.000000
11
954.331100
21
480.000000
0
LINE
8
Layer 1
10
168.189000
20
593.386000
11
164.409470
21
589.606470
0
LINE
8
Layer 1
10
939.213000
20
415.748000
11
939.213000
21
480.000000
0
LINE
8
Layer 1
10
164.409000
20
483.780000
11
164.409000
21
589.606000
0
LINE
8
Layer 1
10
939.213000
20
415.748000
11
927.874000
21
404.409000
0
LINE
8
Layer 1
10
164.409000
20
483.780000
11
168.189000
21
480.000000
0
LINE
8
Layer 1
10
194.646000
20
404.409000
11
927.874000
21
404.409000
0
LINE
8
Layer 1
10
183.307000
20
480.000000
11
168.189000
21
480.000000
0
LINE
8
Layer 1
10
194.646000
20
404.409000
11
183.307400
21
415.747600
0
LINE
8
Layer 1
10
183.307000
20
415.748000
11
183.307000
21
480.000000
0
LINE
8
Layer 1
10
926.362000
20
565.039000
11
926.152672
21
563.461166
0
LINE
8
Layer 1
10
926.152672
20
563.461166
11
925.551822
21
562.015375
0
LINE
8
Layer 1
10
925.551822
20
562.015375
11
924.600155
21
560.772129
0
LINE
8
Layer 1
10
924.600155
20
560.772129
11
923.338375
21
559.801928
0
LINE
8
Layer 1
10
923.338375
20
559.801928
11
921.867266
21
559.194294
0
LINE
8
Layer 1
10
921.867266
20
559.194294
11
920.314750
21
558.991750
0
LINE
8
Layer 1
10
920.314750
20
558.991750
11
918.762234
21
559.194294
0
LINE
8
Layer 1
10
918.762234
20
559.194294
11
917.291125
21
559.801928
0
LINE
8
Layer 1
10
917.291125
20
559.801928
11
916.029345
21
560.772129
0
LINE
8
Layer 1
10
916.029345
20
560.772129
11
915.077678
21
562.015375
0
LINE
8
Layer 1
10
915.077678
20
562.015375
11
914.476828
21
563.461166
0
LINE
8
Layer 1
10
914.476828
20
563.461166
11
914.267500
21
565.039000
0
LINE
8
Layer 1
10
914.267500
20
565.039000
11
914.476828
21
566.616834
0
LINE
8
Layer 1
10
914.476828
20
566.616834
11
915.077678
21
568.062625
0
LINE
8
Layer 1
10
915.077678
20
568.062625
11
916.029345
21
569.305871
0
LINE
8
Layer 1
10
916.029345
20
569.305871
11
917.291125
21
570.276072
0
LINE
8
Layer 1
10
917.291125
20
570.276072
11
918.762234
21
570.883706
0
LINE
8
Layer 1
10
918.762234
20
570.883706
11
920.314750
21
571.086250
0
LINE
8
Layer 1
10
920.314750
20
571.086250
11
921.867266
21
570.883706
0
LINE
8
Layer 1
10
921.867266
20
570.883706
11
923.338375
21
570.276072
0
LINE
8
Layer 1
10
923.338375
20
570.276072
11
924.600155
21
569.305871
0
LINE
8
Layer 1
10
924.600155
20
569.305871
11
925.551822
21
568.062625
0
LINE
8
Layer 1
10
925.551822
20
568.062625
11
926.152672
21
566.616834
0
LINE
8
Layer 1
10
926.152672
20
566.616834
11
926.362000
21
565.039000
0
LINE
8
Layer 1
10
926.362000
20
565.039000
11
926.362000
21
565.039000
0
LINE
8
Layer 1
10
926.362000
20
886.299000
11
926.152672
21
884.721166
0
LINE
8
Layer 1
10
926.152672
20
884.721166
11
925.551822
21
883.275375
0
LINE
8
Layer 1
10
925.551822
20
883.275375
11
924.600155
21
882.032129
0
LINE
8
Layer 1
10
924.600155
20
882.032129
11
923.338375
21
881.061928
0
LINE
8
Layer 1
10
923.338375
20
881.061928
11
921.867266
21
880.454294
0
LINE
8
Layer 1
10
921.867266
20
880.454294
11
920.314750
21
880.251750
0
LINE
8
Layer 1
10
920.314750
20
880.251750
11
918.762234
21
880.454294
0
LINE
8
Layer 1
10
918.762234
20
880.454294
11
917.291125
21
881.061928
0
LINE
8
Layer 1
10
917.291125
20
881.061928
11
916.029345
21
882.032129
0
LINE
8
Layer 1
10
916.029345
20
882.032129
11
915.077678
21
883.275375
0
LINE
8
Layer 1
10
915.077678
20
883.275375
11
914.476828
21
884.721166
0
LINE
8
Layer 1
10
914.476828
20
884.721166
11
914.267500
21
886.299000
0
LINE
8
Layer 1
10
914.267500
20
886.299000
11
914.476828
21
887.876834
0
LINE
8
Layer 1
10
914.476828
20
887.876834
11
915.077678
21
889.322625
0
LINE
8
Layer 1
10
915.077678
20
889.322625
11
916.029345
21
890.565871
0
LINE
8
Layer 1
10
916.029345
20
890.565871
11
917.291125
21
891.536072
0
LINE
8
Layer 1
10
917.291125
20
891.536072
11
918.762234
21
892.143706
0
LINE
8
Layer 1
10
918.762234
20
892.143706
11
920.314750
21
892.346250
0
LINE
8
Layer 1
10
920.314750
20
892.346250
11
921.867266
21
892.143706
0
LINE
8
Layer 1
10
921.867266
20
892.143706
11
923.338375
21
891.536072
0
LINE
8
Layer 1
10
923.338375
20
891.536072
11
924.600155
21
890.565871
0
LINE
8
Layer 1
10
924.600155
20
890.565871
11
925.551822
21
889.322625
0
LINE
8
Layer 1
10
925.551822
20
889.322625
11
926.152672
21
887.876834
0
LINE
8
Layer 1
10
926.152672
20
887.876834
11
926.362000
21
886.299000
0
LINE
8
Layer 1
10
926.362000
20
886.299000
11
926.362000
21
886.299000
0
LINE
8
Layer 1
10
766.110000
20
574.488000
11
766.110000
21
876.850000
0
LINE
8
Layer 1
10
734.362000
20
876.850000
11
734.501597
21
878.952664
0
LINE
8
Layer 1
10
734.501597
20
878.952664
11
734.911486
21
880.991807
0
LINE
8
Layer 1
10
734.911486
20
880.991807
11
735.578310
21
882.944297
0
LINE
8
Layer 1
10
735.578310
20
882.944297
11
736.488713
21
884.787000
0
LINE
8
Layer 1
10
736.488713
20
884.787000
11
737.629339
21
886.496784
0
LINE
8
Layer 1
10
737.629339
20
886.496784
11
738.986833
21
888.050515
0
LINE
8
Layer 1
10
738.986833
20
888.050515
11
740.547839
21
889.425060
0
LINE
8
Layer 1
10
740.547839
20
889.425060
11
742.299000
21
890.597287
0
LINE
8
Layer 1
10
742.299000
20
890.597287
11
744.189759
21
891.527724
0
LINE
8
Layer 1
10
744.189759
20
891.527724
11
746.160653
21
892.192322
0
LINE
8
Layer 1
10
746.160653
20
892.192322
11
748.184971
21
892.591080
0
LINE
8
Layer 1
10
748.184971
20
892.591080
11
750.236000
21
892.724000
0
LINE
8
Layer 1
10
750.236000
20
892.724000
11
752.287029
21
892.591080
0
LINE
8
Layer 1
10
752.287029
20
892.591080
11
754.311347
21
892.192322
0
LINE
8
Layer 1
10
754.311347
20
892.192322
11
756.282241
21
891.527724
0
LINE
8
Layer 1
10
756.282241
20
891.527724
11
758.173000
21
890.597287
0
LINE
8
Layer 1
10
758.173000
20
890.597287
11
759.924161
21
889.425060
0
LINE
8
Layer 1
10
759.924161
20
889.425060
11
761.485167
21
888.050515
0
LINE
8
Layer 1
10
761.485167
20
888.050515
11
762.842661
21
886.496784
0
LINE
8
Layer 1
10
762.842661
20
886.496784
11
763.983287
21
884.787000
0
LINE
8
Layer 1
10
763.983287
20
884.787000
11
764.893690
21
882.944297
0
LINE
8
Layer 1
10
764.893690
20
882.944297
11
765.560514
21
880.991807
0
LINE
8
Layer 1
10
765.560514
20
880.991807
11
765.970403
21
878.952664
0
LINE
8
Layer 1
10
765.970403
20
878.952664
11
766.110000
21
876.850000
0
LINE
8
Layer 1
10
734.362000
20
574.488000
11
734.362000
21
876.850000
0
LINE
8
Layer 1
10
766.110000
20
574.488000
11
765.970403
21
572.385336
0
LINE
8
Layer 1
10
765.970403
20
572.385336
11
765.560514
21
570.346193
0
LINE
8
Layer 1
10
765.560514
20
570.346193
11
764.893690
21
568.393703
0
LINE
8
Layer 1
10
764.893690
20
568.393703
11
763.983287
21
566.551000
0
LINE
8
Layer 1
10
763.983287
20
566.551000
11
762.842661
21
564.841216
0
LINE
8
Layer 1
10
762.842661
20
564.841216
11
761.485167
21
563.287485
0
LINE
8
Layer 1
10
761.485167
20
563.287485
11
759.924161
21
561.912940
0
LINE
8
Layer 1
10
759.924161
20
561.912940
11
758.173000
21
560.740713
0
LINE
8
Layer 1
10
758.173000
20
560.740713
11
756.282241
21
559.810276
0
LINE
8
Layer 1
10
756.282241
20
559.810276
11
754.311347
21
559.145678
0
LINE
8
Layer 1
10
754.311347
20
559.145678
11
752.287029
21
558.746920
0
LINE
8
Layer 1
10
752.287029
20
558.746920
11
750.236000
21
558.614000
0
LINE
8
Layer 1
10
750.236000
20
558.614000
11
748.184971
21
558.746920
0
LINE
8
Layer 1
10
748.184971
20
558.746920
11
746.160653
21
559.145678
0
LINE
8
Layer 1
10
746.160653
20
559.145678
11
744.189759
21
559.810276
0
LINE
8
Layer 1
10
744.189759
20
559.810276
11
742.299000
21
560.740713
0
LINE
8
Layer 1
10
742.299000
20
560.740713
11
740.547839
21
561.912940
0
LINE
8
Layer 1
10
740.547839
20
561.912940
11
738.986833
21
563.287485
0
LINE
8
Layer 1
10
738.986833
20
563.287485
11
737.629339
21
564.841216
0
LINE
8
Layer 1
10
737.629339
20
564.841216
11
736.488713
21
566.551000
0
LINE
8
Layer 1
10
736.488713
20
566.551000
11
735.578310
21
568.393703
0
LINE
8
Layer 1
10
735.578310
20
568.393703
11
734.911486
21
570.346193
0
LINE
8
Layer 1
10
734.911486
20
570.346193
11
734.501597
21
572.385336
0
LINE
8
Layer 1
10
734.501597
20
572.385336
11
734.362000
21
574.488000
0
LINE
8
Layer 1
10
388.157000
20
574.488000
11
388.157000
21
876.850000
0
LINE
8
Layer 1
10
356.409000
20
876.850000
11
356.548597
21
878.952664
0
LINE
8
Layer 1
10
356.548597
20
878.952664
11
356.958486
21
880.991807
0
LINE
8
Layer 1
10
356.958486
20
880.991807
11
357.625310
21
882.944297
0
LINE
8
Layer 1
10
357.625310
20
882.944297
11
358.535713
21
884.787000
0
LINE
8
Layer 1
10
358.535713
20
884.787000
11
359.676339
21
886.496784
0
LINE
8
Layer 1
10
359.676339
20
886.496784
11
361.033833
21
888.050515
0
LINE
8
Layer 1
10
361.033833
20
888.050515
11
362.594839
21
889.425060
0
LINE
8
Layer 1
10
362.594839
20
889.425060
11
364.346000
21
890.597287
0
LINE
8
Layer 1
10
364.346000
20
890.597287
11
366.236759
21
891.527724
0
LINE
8
Layer 1
10
366.236759
20
891.527724
11
368.207653
21
892.192322
0
LINE
8
Layer 1
10
368.207653
20
892.192322
11
370.231971
21
892.591080
0
LINE
8
Layer 1
10
370.231971
20
892.591080
11
372.283000
21
892.724000
0
LINE
8
Layer 1
10
372.283000
20
892.724000
11
374.334029
21
892.591080
0
LINE
8
Layer 1
10
374.334029
20
892.591080
11
376.358347
21
892.192322
0
LINE
8
Layer 1
10
376.358347
20
892.192322
11
378.329241
21
891.527724
0
LINE
8
Layer 1
10
378.329241
20
891.527724
11
380.220000
21
890.597287
0
LINE
8
Layer 1
10
380.220000
20
890.597287
11
381.971161
21
889.425060
0
LINE
8
Layer 1
10
381.971161
20
889.425060
11
383.532167
21
888.050515
0
LINE
8
Layer 1
10
383.532167
20
888.050515
11
384.889661
21
886.496784
0
LINE
8
Layer 1
10
384.889661
20
886.496784
11
386.030287
21
884.787000
0
LINE
8
Layer 1
10
386.030287
20
884.787000
11
386.940690
21
882.944297
0
LINE
8
Layer 1
10
386.940690
20
882.944297
11
387.607514
21
880.991807
0
LINE
8
Layer 1
10
387.607514
20
880.991807
11
388.017403
21
878.952664
0
LINE
8
Layer 1
10
388.017403
20
878.952664
11
388.157000
21
876.850000
0
LINE
8
Layer 1
10
356.409000
20
574.488000
11
356.409000
21
876.850000
0
LINE
8
Layer 1
10
388.157000
20
574.488000
11
388.017403
21
572.385336
0
LINE
8
Layer 1
10
388.017403
20
572.385336
11
387.607514
21
570.346193
0
LINE
8
Layer 1
10
387.607514
20
570.346193
11
386.940690
21
568.393703
0
LINE
8
Layer 1
10
386.940690
20
568.393703
11
386.030287
21
566.551000
0
LINE
8
Layer 1
10
386.030287
20
566.551000
11
384.889661
21
564.841216
0
LINE
8
Layer 1
10
384.889661
20
564.841216
11
383.532167
21
563.287485
0
LINE
8
Layer 1
10
383.532167
20
563.287485
11
381.971161
21
561.912940
0
LINE
8
Layer 1
10
381.971161
20
561.912940
11
380.220000
21
560.740713
0
LINE
8
Layer 1
10
380.220000
20
560.740713
11
378.329241
21
559.810276
0
LINE
8
Layer 1
10
378.329241
20
559.810276
11
376.358347
21
559.145678
0
LINE
8
Layer 1
10
376.358347
20
559.145678
11
374.334029
21
558.746920
0
LINE
8
Layer 1
10
374.334029
20
558.746920
11
372.283000
21
558.614000
0
LINE
8
Layer 1
10
372.283000
20
558.614000
11
370.231971
21
558.746920
0
LINE
8
Layer 1
10
370.231971
20
558.746920
11
368.207653
21
559.145678
0
LINE
8
Layer 1
10
368.207653
20
559.145678
11
366.236759
21
559.810276
0
LINE
8
Layer 1
10
366.236759
20
559.810276
11
364.346000
21
560.740713
0
LINE
8
Layer 1
10
364.346000
20
560.740713
11
362.594839
21
561.912940
0
LINE
8
Layer 1
10
362.594839
20
561.912940
11
361.033833
21
563.287485
0
LINE
8
Layer 1
10
361.033833
20
563.287485
11
359.676339
21
564.841216
0
LINE
8
Layer 1
10
359.676339
20
564.841216
11
358.535713
21
566.551000
0
LINE
8
Layer 1
10
358.535713
20
566.551000
11
357.625310
21
568.393703
0
LINE
8
Layer 1
10
357.625310
20
568.393703
11
356.958486
21
570.346193
0
LINE
8
Layer 1
10
356.958486
20
570.346193
11
356.548597
21
572.385336
0
LINE
8
Layer 1
10
356.548597
20
572.385336
11
356.409000
21
574.488000
0
LINE
8
Layer 1
10
208.252000
20
886.299000
11
208.042672
21
884.721166
0
LINE
8
Layer 1
10
208.042672
20
884.721166
11
207.441822
21
883.275375
0
LINE
8
Layer 1
10
207.441822
20
883.275375
11
206.490155
21
882.032129
0
LINE
8
Layer 1
10
206.490155
20
882.032129
11
205.228375
21
881.061928
0
LINE
8
Layer 1
10
205.228375
20
881.061928
11
203.757266
21
880.454294
0
LINE
8
Layer 1
10
203.757266
20
880.454294
11
202.204750
21
880.251750
0
LINE
8
Layer 1
10
202.204750
20
880.251750
11
200.652234
21
880.454294
0
LINE
8
Layer 1
10
200.652234
20
880.454294
11
199.181125
21
881.061928
0
LINE
8
Layer 1
10
199.181125
20
881.061928
11
197.919345
21
882.032129
0
LINE
8
Layer 1
10
197.919345
20
882.032129
11
196.967678
21
883.275375
0
LINE
8
Layer 1
10
196.967678
20
883.275375
11
196.366828
21
884.721166
0
LINE
8
Layer 1
10
196.366828
20
884.721166
11
196.157500
21
886.299000
0
LINE
8
Layer 1
10
196.157500
20
886.299000
11
196.366828
21
887.876834
0
LINE
8
Layer 1
10
196.366828
20
887.876834
11
196.967678
21
889.322625
0
LINE
8
Layer 1
10
196.967678
20
889.322625
11
197.919345
21
890.565871
0
LINE
8
Layer 1
10
197.919345
20
890.565871
11
199.181125
21
891.536072
0
LINE
8
Layer 1
10
199.181125
20
891.536072
11
200.652234
21
892.143706
0
LINE
8
Layer 1
10
200.652234
20
892.143706
11
202.204750
21
892.346250
0
LINE
8
Layer 1
10
202.204750
20
892.346250
11
203.757266
21
892.143706
0
LINE
8
Layer 1
10
203.757266
20
892.143706
11
205.228375
21
891.536072
0
LINE
8
Layer 1
10
205.228375
20
891.536072
11
206.490155
21
890.565871
0
LINE
8
Layer 1
10
206.490155
20
890.565871
11
207.441822
21
889.322625
0
LINE
8
Layer 1
10
207.441822
20
889.322625
11
208.042672
21
887.876834
0
LINE
8
Layer 1
10
208.042672
20
887.876834
11
208.252000
21
886.299000
0
LINE
8
Layer 1
10
208.252000
20
886.299000
11
208.252000
21
886.299000
0
LINE
8
Layer 1
10
208.252000
20
565.039000
11
208.042672
21
563.461166
0
LINE
8
Layer 1
10
208.042672
20
563.461166
11
207.441822
21
562.015375
0
LINE
8
Layer 1
10
207.441822
20
562.015375
11
206.490155
21
560.772129
0
LINE
8
Layer 1
10
206.490155
20
560.772129
11
205.228375
21
559.801928
0
LINE
8
Layer 1
10
205.228375
20
559.801928
11
203.757266
21
559.194294
0
LINE
8
Layer 1
10
203.757266
20
559.194294
11
202.204750
21
558.991750
0
LINE
8
Layer 1
10
202.204750
20
558.991750
11
200.652234
21
559.194294
0
LINE
8
Layer 1
10
200.652234
20
559.194294
11
199.181125
21
559.801928
0
LINE
8
Layer 1
10
199.181125
20
559.801928
11
197.919345
21
560.772129
0
LINE
8
Layer 1
10
197.919345
20
560.772129
11
196.967678
21
562.015375
0
LINE
8
Layer 1
10
196.967678
20
562.015375
11
196.366828
21
563.461166
0
LINE
8
Layer 1
10
196.366828
20
563.461166
11
196.157500
21
565.039000
0
LINE
8
Layer 1
10
196.157500
20
565.039000
11
196.366828
21
566.616834
0
LINE
8
Layer 1
10
196.366828
20
566.616834
11
196.967678
21
568.062625
0
LINE
8
Layer 1
10
196.967678
20
568.062625
11
197.919345
21
569.305871
0
LINE
8
Layer 1
10
197.919345
20
569.305871
11
199.181125
21
570.276072
0
LINE
8
Layer 1
10
199.181125
20
570.276072
11
200.652234
21
570.883706
0
LINE
8
Layer 1
10
200.652234
20
570.883706
11
202.204750
21
571.086250
0
LINE
8
Layer 1
10
202.204750
20
571.086250
11
203.757266
21
570.883706
0
LINE
8
Layer 1
10
203.757266
20
570.883706
11
205.228375
21
570.276072
0
LINE
8
Layer 1
10
205.228375
20
570.276072
11
206.490155
21
569.305871
0
LINE
8
Layer 1
10
206.490155
20
569.305871
11
207.441822
21
568.062625
0
LINE
8
Layer 1
10
207.441822
20
568.062625
11
208.042672
21
566.616834
0
LINE
8
Layer 1
10
208.042672
20
566.616834
11
208.252000
21
565.039000
0
LINE
8
Layer 1
10
208.252000
20
565.039000
11
208.252000
21
565.039000
 0 
ENDSEC
 0 
EOF