<?xml version="1.0" encoding="UTF-8" standalone="no"?>
<svg
   xmlns:dc="http://purl.org/dc/elements/1.1/"
   xmlns:cc="http://creativecommons.org/ns#"
   xmlns:rdf="http://www.w3.org/1999/02/22-rdf-syntax-ns#"
   xmlns:svg="http://www.w3.org/2000/svg"
   xmlns="http://www.w3.org/2000/svg"
   xmlns:sodipodi="http://sodipodi.sourceforge.net/DTD/sodipodi-0.dtd"
   xmlns:inkscape="http://www.inkscape.org/namespaces/inkscape"
   inkscape:version="1.0 (4035a4fb49, 2020-05-01)"
   sodipodi:docname="LATERAL.svg"
   id="svg925"
   version="1.1"
   height="700.21222"
   width="643.51892"
   viewBox="0 0 643.51891 700.21224">
  <metadata
     id="metadata929">
    <rdf:RDF>
      <cc:Work
         rdf:about="">
        <dc:format>image/svg+xml</dc:format>
        <dc:type
           rdf:resource="http://purl.org/dc/dcmitype/StillImage" />
        <dc:title></dc:title>
      </cc:Work>
    </rdf:RDF>
  </metadata>
  <sodipodi:namedview
     inkscape:current-layer="g921"
     inkscape:window-maximized="1"
     inkscape:window-y="161"
     inkscape:window-x="1072"
     inkscape:cy="604.79139"
     inkscape:cx="454.07306"
     inkscape:zoom="0.52095062"
     fit-margin-bottom="0"
     fit-margin-right="0"
     fit-margin-left="0"
     fit-margin-top="0"
     showgrid="false"
     id="namedview927"
     inkscape:window-height="1017"
     inkscape:window-width="1920"
     inkscape:pageshadow="2"
     inkscape:pageopacity="0"
     guidetolerance="10"
     gridtolerance="10"
     objecttolerance="10"
     borderopacity="1"
     bordercolor="#666666"
     pagecolor="#ffffff" />
  <defs
     id="defs845">
    <marker
       style="overflow:visible"
       refY="0"
       refX="0"
       orient="auto"
       id="DistanceX">
      <path
         id="path833"
         style="stroke:#000000;stroke-width:0.5"
         d="M 3,-3 -3,3 M 0,-5 V 5" />
    </marker>
    <pattern
       y="0"
       x="0"
       height="8"
       width="8"
       patternUnits="userSpaceOnUse"
       id="Hatch">
      <path
         id="path836"
         linecap="square"
         stroke-width="0.25"
         stroke="#000000"
         d="M8 4 l-4,4" />
      <path
         id="path838"
         linecap="square"
         stroke-width="0.25"
         stroke="#000000"
         d="M6 2 l-4,4" />
      <path
         id="path840"
         linecap="square"
         stroke-width="0.25"
         stroke="#000000"
         d="M4 0 l-4,4" />
    </pattern>
    <symbol
       id="*MODEL_SPACE" />
    <symbol
       id="*PAPER_SPACE" />
  </defs>
  <g
     transform="translate(-18.32608,-22.28769)"
     id="g847"
     inkscape:label="0"
     inkscape:groupmode="layer" />
  <g
     transform="translate(-18.32608,-22.28769)"
     id="g921"
     inkscape:label="ProjItem"
     inkscape:groupmode="layer">
    <g
       transform="translate(-182.35893,-339.76349)"
       style="stroke:#ff0000"
       id="g973">
      <path
         d="M 832.36535,1061.7634 H 212.52359"
         style="fill:none;stroke:#ff0000"
         id="path849" />
      <path
         d="M 843.70394,373.88976 V 1050.4248"
         style="fill:none;stroke:#ff0000"
         id="path851" />
      <path
         d="m 832.36535,362.55118 11.33859,11.33858"
         style="fill:none;stroke:#ff0000"
         id="path853" />
      <path
         d="m 832.36535,1061.7634 11.33859,-11.3386"
         style="fill:none;stroke:#ff0000"
         id="path855" />
      <path
         d="M 832.36535,362.55118 H 212.52359"
         style="fill:none;stroke:#ff0000"
         id="path857" />
      <path
         d="m 212.52359,362.55118 -11.33858,11.33858"
         style="fill:none;stroke:#ff0000"
         id="path859" />
      <path
         d="m 212.52359,1061.7634 -11.33858,-11.3386"
         style="fill:none;stroke:#ff0000"
         id="path861" />
      <path
         d="M 201.18501,373.88976 V 1050.4248"
         style="fill:none;stroke:#ff0000"
         id="path863" />
      <path
         d="M 366.88176,579.59433 286.70589,499.41921"
         style="fill:none;stroke:#ff0000"
         id="path865" />
      <path
         d="m 281.36088,504.76346 5.34501,-5.34425"
         style="fill:none;stroke:#ff0000"
         id="path867" />
      <path
         d="m 281.36088,504.76346 80.17588,80.1789"
         style="fill:none;stroke:#ff0000"
         id="path869" />
      <path
         d="m 366.88176,579.59433 -5.345,5.34803"
         style="fill:none;stroke:#ff0000"
         id="path871" />
      <path
         d="m 634.13669,846.8485 -5.34803,5.34501"
         style="fill:none;stroke:#ff0000"
         id="path873" />
      <path
         d="m 553.9578,766.67263 80.17889,80.17587"
         style="fill:none;stroke:#ff0000"
         id="path875" />
      <path
         d="m 548.61354,772.01764 5.34426,-5.34501"
         style="fill:none;stroke:#ff0000"
         id="path877" />
      <path
         d="M 628.78866,852.19351 548.61354,772.01764"
         style="fill:none;stroke:#ff0000"
         id="path879" />
      <path
         d="M 390.16063,1005.0705 H 276.77556"
         style="fill:none;stroke:#ff0000"
         id="path881" />
      <path
         d="m 276.77556,1005.0705 v 18.8976"
         style="fill:none;stroke:#ff0000"
         id="path883" />
      <path
         d="M 276.77556,1023.9681 H 390.16063"
         style="fill:none;stroke:#ff0000"
         id="path885" />
      <path
         d="m 390.16063,1023.9681 v -18.8976"
         style="fill:none;stroke:#ff0000"
         id="path887" />
      <path
         d="m 390.16063,400.34646 v 18.89763"
         style="fill:none;stroke:#ff0000"
         id="path889" />
      <path
         d="M 276.77556,400.34646 H 390.16063"
         style="fill:none;stroke:#ff0000"
         id="path891" />
      <path
         d="M 276.77556,419.24409 V 400.34646"
         style="fill:none;stroke:#ff0000"
         id="path893" />
      <path
         d="M 390.16063,419.24409 H 276.77556"
         style="fill:none;stroke:#ff0000"
         id="path895" />
      <path
         d="M 768.11339,400.34646 H 654.72756"
         style="fill:none;stroke:#ff0000"
         id="path897" />
      <path
         d="m 654.72756,400.34646 v 18.89763"
         style="fill:none;stroke:#ff0000"
         id="path899" />
      <path
         d="M 654.72756,419.24409 H 768.11339"
         style="fill:none;stroke:#ff0000"
         id="path901" />
      <path
         d="M 768.11339,419.24409 V 400.34646"
         style="fill:none;stroke:#ff0000"
         id="path903" />
      <path
         d="M 768.11339,1005.0705 H 654.72756"
         style="fill:none;stroke:#ff0000"
         id="path905" />
      <path
         d="m 654.72756,1005.0705 v 18.8976"
         style="fill:none;stroke:#ff0000"
         id="path907" />
      <path
         d="M 654.72756,1023.9681 H 768.11339"
         style="fill:none;stroke:#ff0000"
         id="path909" />
      <path
         d="m 768.11339,1023.9681 v -18.8976"
         style="fill:none;stroke:#ff0000"
         id="path911" />
      <path
         d="m 367.86217,381.44882 a 6.047245,6.047245 0 1 0 -12.09449,0 6.047245,6.047245 0 1 0 12.09449,0 z"
         style="fill:none;stroke:#ff0000"
         id="path913" />
      <path
         d="m 689.12126,381.44882 a 6.047245,6.047245 0 1 0 -12.09449,0 6.047245,6.047245 0 1 0 12.09449,0 z"
         style="fill:none;stroke:#ff0000"
         id="path915" />
      <path
         d="m 367.86217,1042.8658 a 6.047245,6.047245 0 1 0 -12.09449,0 6.047245,6.047245 0 1 0 12.09449,0 z"
         style="fill:none;stroke:#ff0000"
         id="path917" />
      <path
         d="m 689.12126,1042.8658 a 6.047245,6.047245 0 1 0 -12.09449,0 6.047245,6.047245 0 1 0 12.09449,0 z"
         style="fill:none;stroke:#ff0000"
         id="path919" />
    </g>
  </g>
  <desc
     id="desc923">LATERAL.dxf - scale = 1.000000, origin = (0.000000, 0.000000), method = manual</desc>
</svg>
