999
"DXF R12 Output" (www.mydxf.blogspot.com)
 0 
SECTION
 2 
HEADER
 9 
$ACADVER
 1 
AC1009
 9 
$EXTMIN
 10 
 0 
 20 
 0 
 9 
$EXTMAX
 10 
 8.5 
 20 
 11 
 0 
ENDSEC
 0 
SECTION
 2 
ENTITIES
0
LINE
8
Layer 1
10
3.000000
20
-3.000000
11
-3.000000
21
3.000000
0
LINE
8
Layer 1
10
0.000000
20
-5.000000
11
0.000000
21
5.000000
0
LINE
8
Layer 1
10
8.000000
20
4.000000
11
4.000000
21
8.000000
0
LINE
8
Layer 1
10
6.000000
20
2.000000
11
2.000000
21
6.000000
0
LINE
8
Layer 1
10
4.000000
20
0.000000
11
0.000000
21
4.000000
0
LINE
8
Layer 1
10
832.365000
20
1061.760000
11
212.524000
21
1061.760000
0
LINE
8
Layer 1
10
843.704000
20
373.890000
11
843.704000
21
1050.420000
0
LINE
8
Layer 1
10
832.365000
20
362.551000
11
843.703600
21
373.889600
0
LINE
8
Layer 1
10
832.365000
20
1061.760000
11
843.703600
21
1050.421400
0
LINE
8
Layer 1
10
832.365000
20
362.551000
11
212.524000
21
362.551000
0
LINE
8
Layer 1
10
212.524000
20
362.551000
11
201.185400
21
373.889600
0
LINE
8
Layer 1
10
212.524000
20
1061.760000
11
201.185400
21
1050.421400
0
LINE
8
Layer 1
10
201.185000
20
373.890000
11
201.185000
21
1050.420000
0
LINE
8
Layer 1
10
366.882000
20
579.594000
11
286.706000
21
499.419000
0
LINE
8
Layer 1
10
281.361000
20
504.763000
11
286.706010
21
499.418750
0
LINE
8
Layer 1
10
281.361000
20
504.763000
11
361.536900
21
584.941900
0
LINE
8
Layer 1
10
366.882000
20
579.594000
11
361.537000
21
584.942030
0
LINE
8
Layer 1
10
634.137000
20
846.848000
11
628.788970
21
852.193010
0
LINE
8
Layer 1
10
553.958000
20
766.673000
11
634.136900
21
846.848900
0
LINE
8
Layer 1
10
548.614000
20
772.018000
11
553.958260
21
766.672990
0
LINE
8
Layer 1
10
628.789000
20
852.194000
11
548.614000
21
772.018000
0
LINE
8
Layer 1
10
390.161000
20
1005.070000
11
276.776000
21
1005.070000
0
LINE
8
Layer 1
10
276.776000
20
1005.070000
11
276.776000
21
1023.967600
0
LINE
8
Layer 1
10
276.776000
20
1023.970000
11
390.161000
21
1023.970000
0
LINE
8
Layer 1
10
390.161000
20
1023.970000
11
390.161000
21
1005.072400
0
LINE
8
Layer 1
10
390.161000
20
400.346000
11
390.161000
21
419.243600
0
LINE
8
Layer 1
10
276.776000
20
400.346000
11
390.161000
21
400.346000
0
LINE
8
Layer 1
10
276.776000
20
419.244000
11
276.776000
21
400.346000
0
LINE
8
Layer 1
10
390.161000
20
419.244000
11
276.776000
21
419.244000
0
LINE
8
Layer 1
10
768.113000
20
400.346000
11
654.728000
21
400.346000
0
LINE
8
Layer 1
10
654.728000
20
400.346000
11
654.728000
21
419.243600
0
LINE
8
Layer 1
10
654.728000
20
419.244000
11
768.113000
21
419.244000
0
LINE
8
Layer 1
10
768.113000
20
419.244000
11
768.113000
21
400.346000
0
LINE
8
Layer 1
10
768.113000
20
1005.070000
11
654.728000
21
1005.070000
0
LINE
8
Layer 1
10
654.728000
20
1005.070000
11
654.728000
21
1023.967600
0
LINE
8
Layer 1
10
654.728000
20
1023.970000
11
768.113000
21
1023.970000
0
LINE
8
Layer 1
10
768.113000
20
1023.970000
11
768.113000
21
1005.072400
0
LINE
8
Layer 1
10
367.862000
20
381.449000
11
367.652672
21
379.871166
0
LINE
8
Layer 1
10
367.652672
20
379.871166
11
367.051822
21
378.425375
0
LINE
8
Layer 1
10
367.051822
20
378.425375
11
366.100156
21
377.182128
0
LINE
8
Layer 1
10
366.100156
20
377.182128
11
364.838375
21
376.211927
0
LINE
8
Layer 1
10
364.838375
20
376.211927
11
363.367266
21
375.604294
0
LINE
8
Layer 1
10
363.367266
20
375.604294
11
361.814750
21
375.401749
0
LINE
8
Layer 1
10
361.814750
20
375.401749
11
360.262234
21
375.604294
0
LINE
8
Layer 1
10
360.262234
20
375.604294
11
358.791125
21
376.211927
0
LINE
8
Layer 1
10
358.791125
20
376.211927
11
357.529344
21
377.182128
0
LINE
8
Layer 1
10
357.529344
20
377.182128
11
356.577678
21
378.425375
0
LINE
8
Layer 1
10
356.577678
20
378.425375
11
355.976828
21
379.871166
0
LINE
8
Layer 1
10
355.976828
20
379.871166
11
355.767500
21
381.449000
0
LINE
8
Layer 1
10
355.767500
20
381.449000
11
355.976828
21
383.026834
0
LINE
8
Layer 1
10
355.976828
20
383.026834
11
356.577678
21
384.472625
0
LINE
8
Layer 1
10
356.577678
20
384.472625
11
357.529344
21
385.715872
0
LINE
8
Layer 1
10
357.529344
20
385.715872
11
358.791125
21
386.686073
0
LINE
8
Layer 1
10
358.791125
20
386.686073
11
360.262234
21
387.293706
0
LINE
8
Layer 1
10
360.262234
20
387.293706
11
361.814750
21
387.496251
0
LINE
8
Layer 1
10
361.814750
20
387.496251
11
363.367266
21
387.293706
0
LINE
8
Layer 1
10
363.367266
20
387.293706
11
364.838375
21
386.686073
0
LINE
8
Layer 1
10
364.838375
20
386.686073
11
366.100156
21
385.715872
0
LINE
8
Layer 1
10
366.100156
20
385.715872
11
367.051822
21
384.472625
0
LINE
8
Layer 1
10
367.051822
20
384.472625
11
367.652672
21
383.026834
0
LINE
8
Layer 1
10
367.652672
20
383.026834
11
367.862000
21
381.449000
0
LINE
8
Layer 1
10
367.862000
20
381.449000
11
367.862000
21
381.449000
0
LINE
8
Layer 1
10
689.121000
20
381.449000
11
688.911672
21
379.871166
0
LINE
8
Layer 1
10
688.911672
20
379.871166
11
688.310822
21
378.425375
0
LINE
8
Layer 1
10
688.310822
20
378.425375
11
687.359155
21
377.182129
0
LINE
8
Layer 1
10
687.359155
20
377.182129
11
686.097375
21
376.211928
0
LINE
8
Layer 1
10
686.097375
20
376.211928
11
684.626266
21
375.604294
0
LINE
8
Layer 1
10
684.626266
20
375.604294
11
683.073750
21
375.401750
0
LINE
8
Layer 1
10
683.073750
20
375.401750
11
681.521234
21
375.604294
0
LINE
8
Layer 1
10
681.521234
20
375.604294
11
680.050125
21
376.211928
0
LINE
8
Layer 1
10
680.050125
20
376.211928
11
678.788345
21
377.182129
0
LINE
8
Layer 1
10
678.788345
20
377.182129
11
677.836678
21
378.425375
0
LINE
8
Layer 1
10
677.836678
20
378.425375
11
677.235828
21
379.871166
0
LINE
8
Layer 1
10
677.235828
20
379.871166
11
677.026500
21
381.449000
0
LINE
8
Layer 1
10
677.026500
20
381.449000
11
677.235828
21
383.026834
0
LINE
8
Layer 1
10
677.235828
20
383.026834
11
677.836678
21
384.472625
0
LINE
8
Layer 1
10
677.836678
20
384.472625
11
678.788345
21
385.715871
0
LINE
8
Layer 1
10
678.788345
20
385.715871
11
680.050125
21
386.686072
0
LINE
8
Layer 1
10
680.050125
20
386.686072
11
681.521234
21
387.293706
0
LINE
8
Layer 1
10
681.521234
20
387.293706
11
683.073750
21
387.496250
0
LINE
8
Layer 1
10
683.073750
20
387.496250
11
684.626266
21
387.293706
0
LINE
8
Layer 1
10
684.626266
20
387.293706
11
686.097375
21
386.686072
0
LINE
8
Layer 1
10
686.097375
20
386.686072
11
687.359155
21
385.715871
0
LINE
8
Layer 1
10
687.359155
20
385.715871
11
688.310822
21
384.472625
0
LINE
8
Layer 1
10
688.310822
20
384.472625
11
688.911672
21
383.026834
0
LINE
8
Layer 1
10
688.911672
20
383.026834
11
689.121000
21
381.449000
0
LINE
8
Layer 1
10
689.121000
20
381.449000
11
689.121000
21
381.449000
0
LINE
8
Layer 1
10
367.862000
20
1042.870000
11
367.652672
21
1041.292166
0
LINE
8
Layer 1
10
367.652672
20
1041.292166
11
367.051822
21
1039.846375
0
LINE
8
Layer 1
10
367.051822
20
1039.846375
11
366.100156
21
1038.603128
0
LINE
8
Layer 1
10
366.100156
20
1038.603128
11
364.838375
21
1037.632927
0
LINE
8
Layer 1
10
364.838375
20
1037.632927
11
363.367266
21
1037.025294
0
LINE
8
Layer 1
10
363.367266
20
1037.025294
11
361.814750
21
1036.822749
0
LINE
8
Layer 1
10
361.814750
20
1036.822749
11
360.262234
21
1037.025294
0
LINE
8
Layer 1
10
360.262234
20
1037.025294
11
358.791125
21
1037.632927
0
LINE
8
Layer 1
10
358.791125
20
1037.632927
11
357.529344
21
1038.603128
0
LINE
8
Layer 1
10
357.529344
20
1038.603128
11
356.577678
21
1039.846375
0
LINE
8
Layer 1
10
356.577678
20
1039.846375
11
355.976828
21
1041.292166
0
LINE
8
Layer 1
10
355.976828
20
1041.292166
11
355.767500
21
1042.870000
0
LINE
8
Layer 1
10
355.767500
20
1042.870000
11
355.976828
21
1044.447834
0
LINE
8
Layer 1
10
355.976828
20
1044.447834
11
356.577678
21
1045.893625
0
LINE
8
Layer 1
10
356.577678
20
1045.893625
11
357.529344
21
1047.136872
0
LINE
8
Layer 1
10
357.529344
20
1047.136872
11
358.791125
21
1048.107073
0
LINE
8
Layer 1
10
358.791125
20
1048.107073
11
360.262234
21
1048.714706
0
LINE
8
Layer 1
10
360.262234
20
1048.714706
11
361.814750
21
1048.917251
0
LINE
8
Layer 1
10
361.814750
20
1048.917251
11
363.367266
21
1048.714706
0
LINE
8
Layer 1
10
363.367266
20
1048.714706
11
364.838375
21
1048.107073
0
LINE
8
Layer 1
10
364.838375
20
1048.107073
11
366.100156
21
1047.136872
0
LINE
8
Layer 1
10
366.100156
20
1047.136872
11
367.051822
21
1045.893625
0
LINE
8
Layer 1
10
367.051822
20
1045.893625
11
367.652672
21
1044.447834
0
LINE
8
Layer 1
10
367.652672
20
1044.447834
11
367.862000
21
1042.870000
0
LINE
8
Layer 1
10
367.862000
20
1042.870000
11
367.862000
21
1042.870000
0
LINE
8
Layer 1
10
689.121000
20
1042.870000
11
688.911672
21
1041.292166
0
LINE
8
Layer 1
10
688.911672
20
1041.292166
11
688.310822
21
1039.846375
0
LINE
8
Layer 1
10
688.310822
20
1039.846375
11
687.359155
21
1038.603129
0
LINE
8
Layer 1
10
687.359155
20
1038.603129
11
686.097375
21
1037.632928
0
LINE
8
Layer 1
10
686.097375
20
1037.632928
11
684.626266
21
1037.025294
0
LINE
8
Layer 1
10
684.626266
20
1037.025294
11
683.073750
21
1036.822750
0
LINE
8
Layer 1
10
683.073750
20
1036.822750
11
681.521234
21
1037.025294
0
LINE
8
Layer 1
10
681.521234
20
1037.025294
11
680.050125
21
1037.632928
0
LINE
8
Layer 1
10
680.050125
20
1037.632928
11
678.788345
21
1038.603129
0
LINE
8
Layer 1
10
678.788345
20
1038.603129
11
677.836678
21
1039.846375
0
LINE
8
Layer 1
10
677.836678
20
1039.846375
11
677.235828
21
1041.292166
0
LINE
8
Layer 1
10
677.235828
20
1041.292166
11
677.026500
21
1042.870000
0
LINE
8
Layer 1
10
677.026500
20
1042.870000
11
677.235828
21
1044.447834
0
LINE
8
Layer 1
10
677.235828
20
1044.447834
11
677.836678
21
1045.893625
0
LINE
8
Layer 1
10
677.836678
20
1045.893625
11
678.788345
21
1047.136871
0
LINE
8
Layer 1
10
678.788345
20
1047.136871
11
680.050125
21
1048.107072
0
LINE
8
Layer 1
10
680.050125
20
1048.107072
11
681.521234
21
1048.714706
0
LINE
8
Layer 1
10
681.521234
20
1048.714706
11
683.073750
21
1048.917250
0
LINE
8
Layer 1
10
683.073750
20
1048.917250
11
684.626266
21
1048.714706
0
LINE
8
Layer 1
10
684.626266
20
1048.714706
11
686.097375
21
1048.107072
0
LINE
8
Layer 1
10
686.097375
20
1048.107072
11
687.359155
21
1047.136871
0
LINE
8
Layer 1
10
687.359155
20
1047.136871
11
688.310822
21
1045.893625
0
LINE
8
Layer 1
10
688.310822
20
1045.893625
11
688.911672
21
1044.447834
0
LINE
8
Layer 1
10
688.911672
20
1044.447834
11
689.121000
21
1042.870000
0
LINE
8
Layer 1
10
689.121000
20
1042.870000
11
689.121000
21
1042.870000
 0 
ENDSEC
 0 
EOF