999
"DXF R12 Output" (www.mydxf.blogspot.com)
 0 
SECTION
 2 
HEADER
 9 
$ACADVER
 1 
AC1009
 9 
$EXTMIN
 10 
 0 
 20 
 0 
 9 
$EXTMAX
 10 
 8.5 
 20 
 11 
 0 
ENDSEC
 0 
SECTION
 2 
ENTITIES
0
LINE
8
Layer 1
10
3.000000
20
-3.000000
11
-3.000000
21
3.000000
0
LINE
8
Layer 1
10
0.000000
20
-5.000000
11
0.000000
21
5.000000
0
LINE
8
Layer 1
10
8.000000
20
4.000000
11
4.000000
21
8.000000
0
LINE
8
Layer 1
10
6.000000
20
2.000000
11
2.000000
21
6.000000
0
LINE
8
Layer 1
10
4.000000
20
0.000000
11
0.000000
21
4.000000
0
LINE
8
ProjItem
10
187.087000
20
1084.720000
11
935.433000
21
1084.720000
0
LINE
8
ProjItem
10
187.087000
20
366.614000
11
935.433000
21
366.614000
0
LINE
8
ProjItem
10
187.087000
20
366.614000
11
183.307480
21
370.393530
0
LINE
8
ProjItem
10
935.433000
20
366.614000
11
939.212530
21
370.393530
0
LINE
8
ProjItem
10
183.307000
20
370.394000
11
183.307000
21
480.000000
0
LINE
8
ProjItem
10
939.213000
20
370.394000
11
939.213000
21
480.000000
0
LINE
8
ProjItem
10
183.307000
20
480.000000
11
168.189000
21
480.000000
0
LINE
8
ProjItem
10
939.213000
20
480.000000
11
954.331100
21
480.000000
0
LINE
8
ProjItem
10
168.189000
20
480.000000
11
164.409470
21
483.779530
0
LINE
8
ProjItem
10
954.331000
20
480.000000
11
958.110530
21
483.779530
0
LINE
8
ProjItem
10
164.409000
20
483.780000
11
164.409000
21
589.606000
0
LINE
8
ProjItem
10
958.110000
20
483.780000
11
958.110000
21
589.606000
0
LINE
8
ProjItem
10
168.189000
20
593.386000
11
164.409470
21
589.606470
0
LINE
8
ProjItem
10
958.110000
20
589.606000
11
954.330470
21
593.385530
0
LINE
8
ProjItem
10
183.307000
20
593.386000
11
168.189000
21
593.386000
0
LINE
8
ProjItem
10
939.213000
20
593.386000
11
954.331100
21
593.386000
0
LINE
8
ProjItem
10
183.307000
20
593.386000
11
183.307000
21
857.953000
0
LINE
8
ProjItem
10
939.213000
20
593.386000
11
939.213000
21
857.953000
0
LINE
8
ProjItem
10
183.307000
20
857.953000
11
168.189000
21
857.953000
0
LINE
8
ProjItem
10
939.213000
20
857.953000
11
954.331100
21
857.953000
0
LINE
8
ProjItem
10
164.409000
20
861.732000
11
168.188530
21
857.952480
0
LINE
8
ProjItem
10
954.331000
20
857.953000
11
958.110530
21
861.732520
0
LINE
8
ProjItem
10
164.409000
20
861.732000
11
164.409000
21
967.559000
0
LINE
8
ProjItem
10
958.110000
20
861.732000
11
958.110000
21
967.559000
0
LINE
8
ProjItem
10
168.189000
20
971.339000
11
164.409470
21
967.559470
0
LINE
8
ProjItem
10
958.110000
20
967.559000
11
954.330470
21
971.338530
0
LINE
8
ProjItem
10
183.307000
20
971.339000
11
168.189000
21
971.339000
0
LINE
8
ProjItem
10
939.213000
20
971.339000
11
954.331100
21
971.339000
0
LINE
8
ProjItem
10
183.307000
20
971.339000
11
183.307000
21
1080.940000
0
LINE
8
ProjItem
10
939.213000
20
971.339000
11
939.213000
21
1080.940000
0
LINE
8
ProjItem
10
187.087000
20
1084.720000
11
183.307480
21
1080.940500
0
LINE
8
ProjItem
10
935.433000
20
1084.720000
11
939.212530
21
1080.940500
0
LINE
8
Layer 1
10
86.361200
20
210.743000
11
706.204000
21
210.743000
0
LINE
8
Layer 1
10
86.361200
20
210.743000
11
75.022700
21
222.081000
0
LINE
8
Layer 1
10
706.204000
20
210.743000
11
717.542600
21
222.081600
0
LINE
8
Layer 1
10
75.022700
20
853.262000
11
75.022700
21
222.081000
0
LINE
8
Layer 1
10
717.542000
20
222.081000
11
717.542000
21
853.262000
0
LINE
8
Layer 1
10
86.361200
20
864.601000
11
75.022700
21
853.262000
0
LINE
8
Layer 1
10
717.542000
20
853.262000
11
706.203400
21
864.600600
0
LINE
8
Layer 1
10
706.204000
20
864.601000
11
86.361200
21
864.601000
0
LINE
8
Layer 1
10
245.101000
20
683.184000
11
240.661984
21
683.414679
0
LINE
8
Layer 1
10
240.661984
20
683.414679
11
236.351599
21
684.078543
0
LINE
8
Layer 1
10
236.351599
20
684.078543
11
232.191611
21
685.153790
0
LINE
8
Layer 1
10
232.191611
20
685.153790
11
228.203789
21
686.618620
0
LINE
8
Layer 1
10
228.203789
20
686.618620
11
224.409901
21
688.451233
0
LINE
8
Layer 1
10
224.409901
20
688.451233
11
220.831713
21
690.629826
0
LINE
8
Layer 1
10
220.831713
20
690.629826
11
217.490995
21
693.132601
0
LINE
8
Layer 1
10
217.490995
20
693.132601
11
214.409514
21
695.937754
0
LINE
8
Layer 1
10
214.409514
20
695.937754
11
211.609038
21
699.023487
0
LINE
8
Layer 1
10
211.609038
20
699.023487
11
209.111334
21
702.367997
0
LINE
8
Layer 1
10
209.111334
20
702.367997
11
206.938170
21
705.949485
0
LINE
8
Layer 1
10
206.938170
20
705.949485
11
205.111314
21
709.746149
0
LINE
8
Layer 1
10
205.111314
20
709.746149
11
203.652534
21
713.736188
0
LINE
8
Layer 1
10
203.652534
20
713.736188
11
202.583598
21
717.897802
0
LINE
8
Layer 1
10
202.583598
20
717.897802
11
201.926273
21
722.209189
0
LINE
8
Layer 1
10
201.926273
20
722.209189
11
201.702328
21
726.648550
0
LINE
8
Layer 1
10
201.702328
20
726.648550
11
201.926273
21
731.087911
0
LINE
8
Layer 1
10
201.926273
20
731.087911
11
202.583598
21
735.399298
0
LINE
8
Layer 1
10
202.583598
20
735.399298
11
203.652534
21
739.560912
0
LINE
8
Layer 1
10
203.652534
20
739.560912
11
205.111314
21
743.550951
0
LINE
8
Layer 1
10
205.111314
20
743.550951
11
206.938170
21
747.347615
0
LINE
8
Layer 1
10
206.938170
20
747.347615
11
209.111334
21
750.929103
0
LINE
8
Layer 1
10
209.111334
20
750.929103
11
211.609038
21
754.273613
0
LINE
8
Layer 1
10
211.609038
20
754.273613
11
214.409514
21
757.359346
0
LINE
8
Layer 1
10
214.409514
20
757.359346
11
217.490995
21
760.164499
0
LINE
8
Layer 1
10
217.490995
20
760.164499
11
220.831713
21
762.667274
0
LINE
8
Layer 1
10
220.831713
20
762.667274
11
224.409901
21
764.845867
0
LINE
8
Layer 1
10
224.409901
20
764.845867
11
228.203789
21
766.678480
0
LINE
8
Layer 1
10
228.203789
20
766.678480
11
232.191611
21
768.143310
0
LINE
8
Layer 1
10
232.191611
20
768.143310
11
236.351599
21
769.218557
0
LINE
8
Layer 1
10
236.351599
20
769.218557
11
240.661984
21
769.882421
0
LINE
8
Layer 1
10
240.661984
20
769.882421
11
245.101000
21
770.113100
0
LINE
8
Layer 1
10
245.101000
20
770.113000
11
547.464000
21
770.113000
0
LINE
8
Layer 1
10
547.464000
20
770.113000
11
551.903016
21
769.882321
0
LINE
8
Layer 1
10
551.903016
20
769.882321
11
556.213401
21
769.218457
0
LINE
8
Layer 1
10
556.213401
20
769.218457
11
560.373389
21
768.143210
0
LINE
8
Layer 1
10
560.373389
20
768.143210
11
564.361211
21
766.678380
0
LINE
8
Layer 1
10
564.361211
20
766.678380
11
568.155099
21
764.845767
0
LINE
8
Layer 1
10
568.155099
20
764.845767
11
571.733287
21
762.667174
0
LINE
8
Layer 1
10
571.733287
20
762.667174
11
575.074005
21
760.164399
0
LINE
8
Layer 1
10
575.074005
20
760.164399
11
578.155486
21
757.359246
0
LINE
8
Layer 1
10
578.155486
20
757.359246
11
580.955962
21
754.273513
0
LINE
8
Layer 1
10
580.955962
20
754.273513
11
583.453666
21
750.929003
0
LINE
8
Layer 1
10
583.453666
20
750.929003
11
585.626830
21
747.347515
0
LINE
8
Layer 1
10
585.626830
20
747.347515
11
587.453686
21
743.550851
0
LINE
8
Layer 1
10
587.453686
20
743.550851
11
588.912466
21
739.560812
0
LINE
8
Layer 1
10
588.912466
20
739.560812
11
589.981402
21
735.399198
0
LINE
8
Layer 1
10
589.981402
20
735.399198
11
590.638727
21
731.087811
0
LINE
8
Layer 1
10
590.638727
20
731.087811
11
590.862672
21
726.648450
0
LINE
8
Layer 1
10
590.862672
20
726.648450
11
590.638727
21
722.209089
0
LINE
8
Layer 1
10
590.638727
20
722.209089
11
589.981402
21
717.897702
0
LINE
8
Layer 1
10
589.981402
20
717.897702
11
588.912466
21
713.736088
0
LINE
8
Layer 1
10
588.912466
20
713.736088
11
587.453686
21
709.746049
0
LINE
8
Layer 1
10
587.453686
20
709.746049
11
585.626830
21
705.949385
0
LINE
8
Layer 1
10
585.626830
20
705.949385
11
583.453666
21
702.367897
0
LINE
8
Layer 1
10
583.453666
20
702.367897
11
580.955962
21
699.023387
0
LINE
8
Layer 1
10
580.955962
20
699.023387
11
578.155486
21
695.937654
0
LINE
8
Layer 1
10
578.155486
20
695.937654
11
575.074005
21
693.132501
0
LINE
8
Layer 1
10
575.074005
20
693.132501
11
571.733287
21
690.629726
0
LINE
8
Layer 1
10
571.733287
20
690.629726
11
568.155099
21
688.451133
0
LINE
8
Layer 1
10
568.155099
20
688.451133
11
564.361211
21
686.618520
0
LINE
8
Layer 1
10
564.361211
20
686.618520
11
560.373389
21
685.153690
0
LINE
8
Layer 1
10
560.373389
20
685.153690
11
556.213401
21
684.078443
0
LINE
8
Layer 1
10
556.213401
20
684.078443
11
551.903016
21
683.414579
0
LINE
8
Layer 1
10
551.903016
20
683.414579
11
547.464000
21
683.183900
0
LINE
8
Layer 1
10
245.101000
20
683.184000
11
547.464000
21
683.184000
0
LINE
8
Layer 1
10
245.101000
20
305.231000
11
240.661984
21
305.461679
0
LINE
8
Layer 1
10
240.661984
20
305.461679
11
236.351599
21
306.125543
0
LINE
8
Layer 1
10
236.351599
20
306.125543
11
232.191611
21
307.200790
0
LINE
8
Layer 1
10
232.191611
20
307.200790
11
228.203789
21
308.665620
0
LINE
8
Layer 1
10
228.203789
20
308.665620
11
224.409901
21
310.498233
0
LINE
8
Layer 1
10
224.409901
20
310.498233
11
220.831713
21
312.676826
0
LINE
8
Layer 1
10
220.831713
20
312.676826
11
217.490995
21
315.179601
0
LINE
8
Layer 1
10
217.490995
20
315.179601
11
214.409514
21
317.984754
0
LINE
8
Layer 1
10
214.409514
20
317.984754
11
211.609038
21
321.070487
0
LINE
8
Layer 1
10
211.609038
20
321.070487
11
209.111334
21
324.414997
0
LINE
8
Layer 1
10
209.111334
20
324.414997
11
206.938170
21
327.996485
0
LINE
8
Layer 1
10
206.938170
20
327.996485
11
205.111314
21
331.793149
0
LINE
8
Layer 1
10
205.111314
20
331.793149
11
203.652534
21
335.783188
0
LINE
8
Layer 1
10
203.652534
20
335.783188
11
202.583598
21
339.944802
0
LINE
8
Layer 1
10
202.583598
20
339.944802
11
201.926273
21
344.256189
0
LINE
8
Layer 1
10
201.926273
20
344.256189
11
201.702328
21
348.695550
0
LINE
8
Layer 1
10
201.702328
20
348.695550
11
201.926273
21
353.134911
0
LINE
8
Layer 1
10
201.926273
20
353.134911
11
202.583598
21
357.446298
0
LINE
8
Layer 1
10
202.583598
20
357.446298
11
203.652534
21
361.607912
0
LINE
8
Layer 1
10
203.652534
20
361.607912
11
205.111314
21
365.597951
0
LINE
8
Layer 1
10
205.111314
20
365.597951
11
206.938170
21
369.394615
0
LINE
8
Layer 1
10
206.938170
20
369.394615
11
209.111334
21
372.976103
0
LINE
8
Layer 1
10
209.111334
20
372.976103
11
211.609038
21
376.320613
0
LINE
8
Layer 1
10
211.609038
20
376.320613
11
214.409514
21
379.406346
0
LINE
8
Layer 1
10
214.409514
20
379.406346
11
217.490995
21
382.211499
0
LINE
8
Layer 1
10
217.490995
20
382.211499
11
220.831713
21
384.714274
0
LINE
8
Layer 1
10
220.831713
20
384.714274
11
224.409901
21
386.892867
0
LINE
8
Layer 1
10
224.409901
20
386.892867
11
228.203789
21
388.725480
0
LINE
8
Layer 1
10
228.203789
20
388.725480
11
232.191611
21
390.190310
0
LINE
8
Layer 1
10
232.191611
20
390.190310
11
236.351599
21
391.265557
0
LINE
8
Layer 1
10
236.351599
20
391.265557
11
240.661984
21
391.929421
0
LINE
8
Layer 1
10
240.661984
20
391.929421
11
245.101000
21
392.160100
0
LINE
8
Layer 1
10
245.101000
20
392.160000
11
547.464000
21
392.160000
0
LINE
8
Layer 1
10
547.464000
20
392.160000
11
551.903016
21
391.929321
0
LINE
8
Layer 1
10
551.903016
20
391.929321
11
556.213401
21
391.265457
0
LINE
8
Layer 1
10
556.213401
20
391.265457
11
560.373389
21
390.190210
0
LINE
8
Layer 1
10
560.373389
20
390.190210
11
564.361211
21
388.725380
0
LINE
8
Layer 1
10
564.361211
20
388.725380
11
568.155099
21
386.892767
0
LINE
8
Layer 1
10
568.155099
20
386.892767
11
571.733287
21
384.714174
0
LINE
8
Layer 1
10
571.733287
20
384.714174
11
575.074005
21
382.211399
0
LINE
8
Layer 1
10
575.074005
20
382.211399
11
578.155486
21
379.406246
0
LINE
8
Layer 1
10
578.155486
20
379.406246
11
580.955962
21
376.320513
0
LINE
8
Layer 1
10
580.955962
20
376.320513
11
583.453666
21
372.976003
0
LINE
8
Layer 1
10
583.453666
20
372.976003
11
585.626830
21
369.394515
0
LINE
8
Layer 1
10
585.626830
20
369.394515
11
587.453686
21
365.597851
0
LINE
8
Layer 1
10
587.453686
20
365.597851
11
588.912466
21
361.607812
0
LINE
8
Layer 1
10
588.912466
20
361.607812
11
589.981402
21
357.446198
0
LINE
8
Layer 1
10
589.981402
20
357.446198
11
590.638727
21
353.134811
0
LINE
8
Layer 1
10
590.638727
20
353.134811
11
590.862672
21
348.695450
0
LINE
8
Layer 1
10
590.862672
20
348.695450
11
590.638727
21
344.256089
0
LINE
8
Layer 1
10
590.638727
20
344.256089
11
589.981402
21
339.944702
0
LINE
8
Layer 1
10
589.981402
20
339.944702
11
588.912466
21
335.783088
0
LINE
8
Layer 1
10
588.912466
20
335.783088
11
587.453686
21
331.793049
0
LINE
8
Layer 1
10
587.453686
20
331.793049
11
585.626830
21
327.996385
0
LINE
8
Layer 1
10
585.626830
20
327.996385
11
583.453666
21
324.414897
0
LINE
8
Layer 1
10
583.453666
20
324.414897
11
580.955962
21
321.070387
0
LINE
8
Layer 1
10
580.955962
20
321.070387
11
578.155486
21
317.984654
0
LINE
8
Layer 1
10
578.155486
20
317.984654
11
575.074005
21
315.179501
0
LINE
8
Layer 1
10
575.074005
20
315.179501
11
571.733287
21
312.676726
0
LINE
8
Layer 1
10
571.733287
20
312.676726
11
568.155099
21
310.498133
0
LINE
8
Layer 1
10
568.155099
20
310.498133
11
564.361211
21
308.665520
0
LINE
8
Layer 1
10
564.361211
20
308.665520
11
560.373389
21
307.200690
0
LINE
8
Layer 1
10
560.373389
20
307.200690
11
556.213401
21
306.125443
0
LINE
8
Layer 1
10
556.213401
20
306.125443
11
551.903016
21
305.461579
0
LINE
8
Layer 1
10
551.903016
20
305.461579
11
547.464000
21
305.230900
0
LINE
8
Layer 1
10
245.101000
20
305.231000
11
547.464000
21
305.231000
 0 
ENDSEC
 0 
EOF