<?xml version="1.0" encoding="UTF-8" standalone="no"?>
<svg
   xmlns:dc="http://purl.org/dc/elements/1.1/"
   xmlns:cc="http://creativecommons.org/ns#"
   xmlns:rdf="http://www.w3.org/1999/02/22-rdf-syntax-ns#"
   xmlns:svg="http://www.w3.org/2000/svg"
   xmlns="http://www.w3.org/2000/svg"
   xmlns:sodipodi="http://sodipodi.sourceforge.net/DTD/sodipodi-0.dtd"
   xmlns:inkscape="http://www.inkscape.org/namespaces/inkscape"
   viewBox="0 0 794.70079 643.51973"
   width="794.70081"
   height="643.51971"
   version="1.1"
   id="svg941"
   sodipodi:docname="SUPERIEUR.svg"
   inkscape:version="1.0 (4035a4fb49, 2020-05-01)">
  <metadata
     id="metadata945">
    <rdf:RDF>
      <cc:Work
         rdf:about="">
        <dc:format>image/svg+xml</dc:format>
        <dc:type
           rdf:resource="http://purl.org/dc/dcmitype/StillImage" />
        <dc:title></dc:title>
      </cc:Work>
    </rdf:RDF>
  </metadata>
  <sodipodi:namedview
     inkscape:document-rotation="0"
     pagecolor="#ffffff"
     bordercolor="#666666"
     borderopacity="1"
     objecttolerance="10"
     gridtolerance="10"
     guidetolerance="10"
     inkscape:pageopacity="0"
     inkscape:pageshadow="2"
     inkscape:window-width="1920"
     inkscape:window-height="1017"
     id="namedview943"
     showgrid="false"
     fit-margin-top="0"
     fit-margin-left="0"
     fit-margin-right="0"
     fit-margin-bottom="0"
     inkscape:zoom="0.50717836"
     inkscape:cx="99.624446"
     inkscape:cy="284.56388"
     inkscape:window-x="1072"
     inkscape:window-y="161"
     inkscape:window-maximized="1"
     inkscape:current-layer="g997" />
  <defs
     id="defs845">
    <marker
       id="DistanceX"
       orient="auto"
       refX="0"
       refY="0"
       style="overflow:visible">
      <path
         d="M 3,-3 -3,3 M 0,-5 V 5"
         style="stroke:#000000;stroke-width:0.5"
         id="path833" />
    </marker>
    <pattern
       id="Hatch"
       patternUnits="userSpaceOnUse"
       width="8"
       height="8"
       x="0"
       y="0">
      <path
         d="M8 4 l-4,4"
         stroke="#000000"
         stroke-width="0.25"
         linecap="square"
         id="path836" />
      <path
         d="M6 2 l-4,4"
         stroke="#000000"
         stroke-width="0.25"
         linecap="square"
         id="path838" />
      <path
         d="M4 0 l-4,4"
         stroke="#000000"
         stroke-width="0.25"
         linecap="square"
         id="path840" />
    </pattern>
    <symbol
       id="*MODEL_SPACE" />
    <symbol
       id="*PAPER_SPACE" />
  </defs>
  <g
     inkscape:groupmode="layer"
     inkscape:label="0"
     id="g847"
     transform="translate(-163.90945,-403.90945)" />
  <g
     inkscape:groupmode="layer"
     inkscape:label="ProjItem"
     id="g937"
     transform="translate(-163.90945,-403.90945)">
    <g
       id="g997">
      <path
         id="path849"
         style="fill:none;stroke:#ff0000"
         d="m 939.2126,971.33858 v 64.25202" />
      <path
         id="path851"
         style="fill:none;stroke:#ff0000"
         d="m 939.2126,1035.5906 -11.33858,11.3385" />
      <path
         id="path853"
         style="fill:none;stroke:#ff0000"
         d="m 939.2126,971.33858 h 15.11811" />
      <path
         id="path855"
         style="fill:none;stroke:#ff0000"
         d="M 927.87402,1046.9291 H 194.64567" />
      <path
         id="path857"
         style="fill:none;stroke:#ff0000"
         d="m 954.33071,971.33858 3.77953,-3.77953" />
      <path
         id="path859"
         style="fill:none;stroke:#ff0000"
         d="m 194.64567,1046.9291 -11.33858,-11.3385" />
      <path
         id="path861"
         style="fill:none;stroke:#ff0000"
         d="M 958.11024,861.73228 V 967.55905" />
      <path
         id="path863"
         style="fill:none;stroke:#ff0000"
         d="m 183.30709,971.33858 v 64.25202" />
      <path
         id="path865"
         style="fill:none;stroke:#ff0000"
         d="m 958.11024,861.73228 -3.77953,-3.77952" />
      <path
         id="path867"
         style="fill:none;stroke:#ff0000"
         d="m 168.18898,971.33858 h 15.11811" />
      <path
         id="path869"
         style="fill:none;stroke:#ff0000"
         d="m 939.2126,857.95276 h 15.11811" />
      <path
         id="path871"
         style="fill:none;stroke:#ff0000"
         d="m 168.18898,971.33858 -3.77953,-3.77953" />
      <path
         id="path873"
         style="fill:none;stroke:#ff0000"
         d="M 939.2126,593.38583 V 857.95276" />
      <path
         id="path875"
         style="fill:none;stroke:#ff0000"
         d="M 164.40945,861.73228 V 967.55905" />
      <path
         id="path877"
         style="fill:none;stroke:#ff0000"
         d="m 939.2126,593.38583 h 15.11811" />
      <path
         id="path879"
         style="fill:none;stroke:#ff0000"
         d="m 164.40945,861.73228 3.77953,-3.77952" />
      <path
         id="path881"
         style="fill:none;stroke:#ff0000"
         d="m 954.33071,593.38583 3.77953,-3.77953" />
      <path
         id="path883"
         style="fill:none;stroke:#ff0000"
         d="M 183.30709,857.95276 H 168.18898" />
      <path
         id="path885"
         style="fill:none;stroke:#ff0000"
         d="M 958.11024,483.77953 V 589.6063" />
      <path
         id="path887"
         style="fill:none;stroke:#ff0000"
         d="M 183.30709,593.38583 V 857.95276" />
      <path
         id="path889"
         style="fill:none;stroke:#ff0000"
         d="M 958.11024,483.77953 954.33071,480" />
      <path
         id="path891"
         style="fill:none;stroke:#ff0000"
         d="m 168.18898,593.38583 h 15.11811" />
      <path
         id="path893"
         style="fill:none;stroke:#ff0000"
         d="m 939.2126,480 h 15.11811" />
      <path
         id="path895"
         style="fill:none;stroke:#ff0000"
         d="m 168.18898,593.38583 -3.77953,-3.77953" />
      <path
         id="path897"
         style="fill:none;stroke:#ff0000"
         d="M 939.2126,415.74803 V 480" />
      <path
         id="path899"
         style="fill:none;stroke:#ff0000"
         d="M 164.40945,483.77953 V 589.6063" />
      <path
         id="path901"
         style="fill:none;stroke:#ff0000"
         d="M 939.2126,415.74803 927.87402,404.40945" />
      <path
         id="path903"
         style="fill:none;stroke:#ff0000"
         d="M 164.40945,483.77953 168.18898,480" />
      <path
         id="path905"
         style="fill:none;stroke:#ff0000"
         d="M 194.64567,404.40945 H 927.87402" />
      <path
         id="path907"
         style="fill:none;stroke:#ff0000"
         d="M 183.30709,480 H 168.18898" />
      <path
         id="path909"
         style="fill:none;stroke:#ff0000"
         d="m 194.64567,404.40945 -11.33858,11.33858" />
      <path
         id="path911"
         style="fill:none;stroke:#ff0000"
         d="M 183.30709,415.74803 V 480" />
      <path
         id="path913"
         style="fill:none;stroke:#ff0000"
         d="m 926.36221,565.03937 a 6.047245,6.047245 0 1 0 -12.09449,0 6.047245,6.047245 0 1 0 12.09449,0 z" />
      <path
         id="path915"
         style="fill:none;stroke:#ff0000"
         d="m 926.36221,886.29921 a 6.047245,6.047245 0 1 0 -12.09449,0 6.047245,6.047245 0 1 0 12.09449,0 z" />
      <path
         id="path933"
         style="fill:none;stroke:#ff0000"
         d="m 208.25197,886.29921 a 6.047245,6.047245 0 1 0 -12.09449,0 6.047245,6.047245 0 1 0 12.09449,0 z" />
      <path
         id="path935"
         style="fill:none;stroke:#ff0000"
         d="m 208.25197,565.03937 a 6.047245,6.047245 0 1 0 -12.09449,0 6.047245,6.047245 0 1 0 12.09449,0 z" />
    </g>
  </g>
  <desc
     id="desc939">INFERIEUR.dxf - scale = 1.000000, origin = (0.000000, 0.000000), method = manual</desc>
</svg>
