<?xml version="1.0" encoding="UTF-8" standalone="no"?>
<svg
   xmlns:dc="http://purl.org/dc/elements/1.1/"
   xmlns:cc="http://creativecommons.org/ns#"
   xmlns:rdf="http://www.w3.org/1999/02/22-rdf-syntax-ns#"
   xmlns:svg="http://www.w3.org/2000/svg"
   xmlns="http://www.w3.org/2000/svg"
   xmlns:sodipodi="http://sodipodi.sourceforge.net/DTD/sodipodi-0.dtd"
   xmlns:inkscape="http://www.inkscape.org/namespaces/inkscape"
   inkscape:version="1.0 (4035a4fb49, 2020-05-01)"
   sodipodi:docname="BagueLaser.svg"
   id="svg1055"
   viewBox="0 0 702.5 702.5"
   width="70.25mm"
   version="1.2"
   height="70.25mm">
  <metadata
     id="metadata1059">
    <rdf:RDF>
      <cc:Work
         rdf:about="">
        <dc:format>image/svg+xml</dc:format>
        <dc:type
           rdf:resource="http://purl.org/dc/dcmitype/StillImage" />
        <dc:title>FreeCAD SVG Export</dc:title>
      </cc:Work>
    </rdf:RDF>
  </metadata>
  <sodipodi:namedview
     inkscape:current-layer="svg1055"
     inkscape:window-maximized="1"
     inkscape:window-y="161"
     inkscape:window-x="1072"
     inkscape:cy="109.72011"
     inkscape:cx="95.558701"
     inkscape:zoom="2.4179715"
     inkscape:pagecheckerboard="true"
     fit-margin-bottom="0"
     fit-margin-right="0"
     fit-margin-left="0"
     fit-margin-top="0"
     showgrid="false"
     id="namedview1057"
     inkscape:window-height="1017"
     inkscape:window-width="1920"
     inkscape:pageshadow="2"
     inkscape:pageopacity="0"
     guidetolerance="10"
     gridtolerance="10"
     objecttolerance="10"
     borderopacity="1"
     bordercolor="#666666"
     pagecolor="#ffffff" />
  <title
     id="title947">FreeCAD SVG Export</title>
  <desc
     id="desc949">Drawing page: Page exported from FreeCAD document: CanalVoletV2</desc>
  <defs
     id="defs951" />
  <rect
     height="0"
     x="351.25"
     y="351.25"
     width="0"
     id="rect953"
     style="font-style:normal;font-weight:400;font-size:29.1042px;font-family:'MS Shell Dlg 2';fill:none;fill-rule:evenodd;stroke:#000000;stroke-width:1;stroke-linecap:square;stroke-linejoin:bevel;stroke-opacity:1" />
  <rect
     height="0"
     x="351.25"
     y="351.25"
     width="0"
     id="rect961"
     style="font-style:normal;font-weight:400;font-size:29.1042px;font-family:'MS Shell Dlg 2';fill:none;fill-rule:evenodd;stroke:#000000;stroke-width:1;stroke-linecap:square;stroke-linejoin:bevel;stroke-opacity:1" />
  <rect
     height="0"
     x="351.25"
     y="351.25"
     width="0"
     id="rect969"
     style="font-style:normal;font-weight:400;font-size:29.1042px;font-family:'MS Shell Dlg 2';fill:none;fill-rule:evenodd;stroke:#000000;stroke-width:1;stroke-linecap:square;stroke-linejoin:bevel;stroke-opacity:1" />
  <rect
     height="0"
     x="351.25"
     y="351.25"
     width="0"
     id="rect977"
     style="font-style:normal;font-weight:400;font-size:29.1042px;font-family:'MS Shell Dlg 2';fill:none;fill-rule:evenodd;stroke:#000000;stroke-width:1;stroke-linecap:square;stroke-linejoin:bevel;stroke-opacity:1" />
  <rect
     height="0"
     x="351.25"
     y="351.25"
     width="0"
     id="rect985"
     style="font-style:normal;font-weight:400;font-size:29.1042px;font-family:'MS Shell Dlg 2';fill:none;fill-rule:evenodd;stroke:#000000;stroke-width:1;stroke-linecap:square;stroke-linejoin:bevel;stroke-opacity:1" />
  <rect
     height="0"
     x="351.25"
     y="351.25"
     width="0"
     id="rect993"
     style="font-style:normal;font-weight:400;font-size:29.1042px;font-family:'MS Shell Dlg 2';fill:none;fill-rule:evenodd;stroke:#000000;stroke-width:1;stroke-linecap:square;stroke-linejoin:bevel;stroke-opacity:1" />
  <rect
     height="0"
     x="351.25"
     y="351.25"
     width="0"
     id="rect1001"
     style="font-style:normal;font-weight:400;font-size:29.1042px;font-family:'MS Shell Dlg 2';fill:none;fill-rule:evenodd;stroke:#000000;stroke-width:1;stroke-linecap:square;stroke-linejoin:bevel;stroke-opacity:1" />
  <rect
     height="0"
     x="351.25"
     y="351.25"
     width="0"
     id="rect1009"
     style="font-style:normal;font-weight:400;font-size:29.1042px;font-family:'MS Shell Dlg 2';fill:none;fill-rule:evenodd;stroke:#000000;stroke-width:1;stroke-linecap:square;stroke-linejoin:bevel;stroke-opacity:1" />
  <rect
     height="0"
     x="351.25"
     y="351.25"
     width="0"
     id="rect1017"
     style="font-style:normal;font-weight:400;font-size:29.1042px;font-family:'MS Shell Dlg 2';fill:none;fill-rule:evenodd;stroke:#000000;stroke-width:1;stroke-linecap:square;stroke-linejoin:bevel;stroke-opacity:1" />
  <path
     vector-effect="none"
     fill-rule="evenodd"
     d="m 701.25,351.25 c 0,193.3 -156.7,350 -350,350 -193.3,0 -350,-156.7 -350,-350 0,-193.3 156.7,-350 350,-350 193.3,0 350,156.7 350,350"
     id="path1021"
     style="font-style:normal;font-weight:400;font-size:29.1042px;font-family:'MS Shell Dlg 2';fill:none;stroke:#ff0000;stroke-width:2.5;stroke-linecap:round;stroke-linejoin:bevel;stroke-opacity:1" />
  <path
     vector-effect="none"
     fill-rule="evenodd"
     d="m 637.883,507.5 c 0,8.837 -7.164,16 -16,16 -8.837,0 -16,-7.163 -16,-16 0,-8.837 7.163,-16 16,-16 8.836,0 16,7.163 16,16"
     id="path1025"
     style="font-style:normal;font-weight:400;font-size:29.1042px;font-family:'MS Shell Dlg 2';fill:none;stroke:#ff0000;stroke-width:2.5;stroke-linecap:round;stroke-linejoin:bevel;stroke-opacity:1" />
  <path
     vector-effect="none"
     fill-rule="evenodd"
     d="m 367.25,663.75 c 0,8.837 -7.16344,16 -16,16 -8.83656,0 -16,-7.163 -16,-16 0,-8.837 7.16344,-16 16,-16 8.83656,0 16,7.163 16,16"
     id="path1029"
     style="font-style:normal;font-weight:400;font-size:29.1042px;font-family:'MS Shell Dlg 2';fill:none;stroke:#ff0000;stroke-width:2.5;stroke-linecap:round;stroke-linejoin:bevel;stroke-opacity:1" />
  <path
     vector-effect="none"
     fill-rule="evenodd"
     d="m 637.883,195 c 0,8.837 -7.164,16 -16,16 -8.837,0 -16,-7.163 -16,-16 0,-8.837 7.163,-16 16,-16 8.836,0 16,7.163 16,16"
     id="path1033"
     style="font-style:normal;font-weight:400;font-size:29.1042px;font-family:'MS Shell Dlg 2';fill:none;stroke:#ff0000;stroke-width:2.5;stroke-linecap:round;stroke-linejoin:bevel;stroke-opacity:1" />
  <path
     vector-effect="none"
     fill-rule="evenodd"
     d="m 96.617,507.5 c 0,8.837 -7.163,16 -16,16 -8.836,0 -16,-7.163 -16,-16 0,-8.837 7.164,-16 16,-16 8.837,0 16,7.163 16,16"
     id="path1037"
     style="font-style:normal;font-weight:400;font-size:29.1042px;font-family:'MS Shell Dlg 2';fill:none;stroke:#ff0000;stroke-width:2.5;stroke-linecap:round;stroke-linejoin:bevel;stroke-opacity:1" />
  <path
     vector-effect="none"
     fill-rule="evenodd"
     d="m 611.25,351.25 c 0,143.594 -116.406,260 -260,260 -143.594,0 -260,-116.406 -260,-260 0,-143.594 116.406,-260 260,-260 143.594,0 260,116.406 260,260"
     id="path1041"
     style="font-style:normal;font-weight:400;font-size:29.1042px;font-family:'MS Shell Dlg 2';fill:none;stroke:#ff0000;stroke-width:2.5;stroke-linecap:round;stroke-linejoin:bevel;stroke-opacity:1" />
  <path
     vector-effect="none"
     fill-rule="evenodd"
     d="m 367.25,38.75 c 0,8.837 -7.16344,16 -16,16 -8.83656,0 -16,-7.163 -16,-16 0,-8.837 7.16344,-16 16,-16 8.83656,0 16,7.163 16,16"
     id="path1045"
     style="font-style:normal;font-weight:400;font-size:29.1042px;font-family:'MS Shell Dlg 2';fill:none;stroke:#ff0000;stroke-width:2.5;stroke-linecap:round;stroke-linejoin:bevel;stroke-opacity:1" />
  <path
     vector-effect="none"
     fill-rule="evenodd"
     d="m 96.617,195 c 0,8.837 -7.163,16 -16,16 -8.836,0 -16,-7.163 -16,-16 0,-8.837 7.164,-16 16,-16 8.837,0 16,7.163 16,16"
     id="path1049"
     style="font-style:normal;font-weight:400;font-size:29.1042px;font-family:'MS Shell Dlg 2';fill:none;stroke:#ff0000;stroke-width:2.5;stroke-linecap:round;stroke-linejoin:bevel;stroke-opacity:1" />
</svg>
