999
"DXF R12 Output" (www.mydxf.blogspot.com)
 0 
SECTION
 2 
HEADER
 9 
$ACADVER
 1 
AC1009
 9 
$EXTMIN
 10 
 0 
 20 
 0 
 9 
$EXTMAX
 10 
 8.5 
 20 
 11 
 0 
ENDSEC
 0 
SECTION
 2 
ENTITIES
0
LINE
8
Layer 1
10
3.000000
20
-3.000000
11
-3.000000
21
3.000000
0
LINE
8
Layer 1
10
0.000000
20
-5.000000
11
0.000000
21
5.000000
0
LINE
8
Layer 1
10
8.000000
20
4.000000
11
4.000000
21
8.000000
0
LINE
8
Layer 1
10
6.000000
20
2.000000
11
2.000000
21
6.000000
0
LINE
8
Layer 1
10
4.000000
20
0.000000
11
0.000000
21
4.000000
0
LINE
8
ProjItem
10
141.732000
20
481.890000
11
980.787000
21
481.890000
0
LINE
8
ProjItem
10
141.732000
20
481.890000
11
126.613900
21
497.008100
0
LINE
8
ProjItem
10
980.787000
20
481.890000
11
995.905100
21
497.008100
0
LINE
8
ProjItem
10
126.614000
20
954.331000
11
126.614000
21
497.008000
0
LINE
8
ProjItem
10
995.906000
20
497.008000
11
995.906000
21
954.331000
0
LINE
8
ProjItem
10
141.732000
20
969.449000
11
126.614000
21
954.331000
0
LINE
8
ProjItem
10
995.906000
20
954.331000
11
980.787000
21
969.449000
0
LINE
8
ProjItem
10
980.787000
20
969.449000
11
141.732000
21
969.449000
0
LINE
8
ProjItem
10
974.173000
20
512.126000
11
973.878626
21
509.907172
0
LINE
8
ProjItem
10
973.878626
20
509.907172
11
973.033679
21
507.874030
0
LINE
8
ProjItem
10
973.033679
20
507.874030
11
971.695398
21
506.125716
0
LINE
8
ProjItem
10
971.695398
20
506.125716
11
969.921020
21
504.761372
0
LINE
8
ProjItem
10
969.921020
20
504.761372
11
967.852275
21
503.906888
0
LINE
8
ProjItem
10
967.852275
20
503.906888
11
965.669050
21
503.622060
0
LINE
8
ProjItem
10
965.669050
20
503.622060
11
963.485825
21
503.906888
0
LINE
8
ProjItem
10
963.485825
20
503.906888
11
961.417080
21
504.761372
0
LINE
8
ProjItem
10
961.417080
20
504.761372
11
959.642702
21
506.125716
0
LINE
8
ProjItem
10
959.642702
20
506.125716
11
958.304422
21
507.874030
0
LINE
8
ProjItem
10
958.304422
20
507.874030
11
957.459478
21
509.907172
0
LINE
8
ProjItem
10
957.459478
20
509.907172
11
957.165110
21
512.126000
0
LINE
8
ProjItem
10
957.165110
20
512.126000
11
957.459481
21
514.344828
0
LINE
8
ProjItem
10
957.459481
20
514.344828
11
958.304426
21
516.377970
0
LINE
8
ProjItem
10
958.304426
20
516.377970
11
959.642707
21
518.126284
0
LINE
8
ProjItem
10
959.642707
20
518.126284
11
961.417085
21
519.490628
0
LINE
8
ProjItem
10
961.417085
20
519.490628
11
963.485830
21
520.345112
0
LINE
8
ProjItem
10
963.485830
20
520.345112
11
965.669055
21
520.629940
0
LINE
8
ProjItem
10
965.669055
20
520.629940
11
967.852280
21
520.345112
0
LINE
8
ProjItem
10
967.852280
20
520.345112
11
969.921025
21
519.490628
0
LINE
8
ProjItem
10
969.921025
20
519.490628
11
971.695403
21
518.126284
0
LINE
8
ProjItem
10
971.695403
20
518.126284
11
973.033683
21
516.377970
0
LINE
8
ProjItem
10
973.033683
20
516.377970
11
973.878627
21
514.344828
0
LINE
8
ProjItem
10
973.878627
20
514.344828
11
974.172995
21
512.126000
0
LINE
8
ProjItem
10
974.172995
20
512.126000
11
974.173000
21
512.126000
0
LINE
8
ProjItem
10
165.354000
20
512.126000
11
165.059626
21
509.907172
0
LINE
8
ProjItem
10
165.059626
20
509.907172
11
164.214679
21
507.874030
0
LINE
8
ProjItem
10
164.214679
20
507.874030
11
162.876398
21
506.125716
0
LINE
8
ProjItem
10
162.876398
20
506.125716
11
161.102020
21
504.761372
0
LINE
8
ProjItem
10
161.102020
20
504.761372
11
159.033275
21
503.906888
0
LINE
8
ProjItem
10
159.033275
20
503.906888
11
156.850050
21
503.622060
0
LINE
8
ProjItem
10
156.850050
20
503.622060
11
154.666825
21
503.906888
0
LINE
8
ProjItem
10
154.666825
20
503.906888
11
152.598080
21
504.761372
0
LINE
8
ProjItem
10
152.598080
20
504.761372
11
150.823702
21
506.125716
0
LINE
8
ProjItem
10
150.823702
20
506.125716
11
149.485422
21
507.874030
0
LINE
8
ProjItem
10
149.485422
20
507.874030
11
148.640478
21
509.907172
0
LINE
8
ProjItem
10
148.640478
20
509.907172
11
148.346110
21
512.126000
0
LINE
8
ProjItem
10
148.346110
20
512.126000
11
148.640481
21
514.344828
0
LINE
8
ProjItem
10
148.640481
20
514.344828
11
149.485426
21
516.377970
0
LINE
8
ProjItem
10
149.485426
20
516.377970
11
150.823707
21
518.126284
0
LINE
8
ProjItem
10
150.823707
20
518.126284
11
152.598085
21
519.490628
0
LINE
8
ProjItem
10
152.598085
20
519.490628
11
154.666830
21
520.345112
0
LINE
8
ProjItem
10
154.666830
20
520.345112
11
156.850055
21
520.629940
0
LINE
8
ProjItem
10
156.850055
20
520.629940
11
159.033280
21
520.345112
0
LINE
8
ProjItem
10
159.033280
20
520.345112
11
161.102025
21
519.490628
0
LINE
8
ProjItem
10
161.102025
20
519.490628
11
162.876403
21
518.126284
0
LINE
8
ProjItem
10
162.876403
20
518.126284
11
164.214683
21
516.377970
0
LINE
8
ProjItem
10
164.214683
20
516.377970
11
165.059627
21
514.344828
0
LINE
8
ProjItem
10
165.059627
20
514.344828
11
165.353995
21
512.126000
0
LINE
8
ProjItem
10
165.353995
20
512.126000
11
165.354000
21
512.126000
0
LINE
8
ProjItem
10
926.740000
20
924.094000
11
926.517589
21
922.417552
0
LINE
8
ProjItem
10
926.517589
20
922.417552
11
925.879186
21
920.881400
0
LINE
8
ProjItem
10
925.879186
20
920.881400
11
924.868041
21
919.560451
0
LINE
8
ProjItem
10
924.868041
20
919.560451
11
923.527400
21
918.529614
0
LINE
8
ProjItem
10
923.527400
20
918.529614
11
921.964348
21
917.884003
0
LINE
8
ProjItem
10
921.964348
20
917.884003
11
920.314800
21
917.668800
0
LINE
8
ProjItem
10
920.314800
20
917.668800
11
918.665252
21
917.884003
0
LINE
8
ProjItem
10
918.665252
20
917.884003
11
917.102200
21
918.529614
0
LINE
8
ProjItem
10
917.102200
20
918.529614
11
915.761559
21
919.560451
0
LINE
8
ProjItem
10
915.761559
20
919.560451
11
914.750414
21
920.881400
0
LINE
8
ProjItem
10
914.750414
20
920.881400
11
914.112011
21
922.417552
0
LINE
8
ProjItem
10
914.112011
20
922.417552
11
913.889600
21
924.094000
0
LINE
8
ProjItem
10
913.889600
20
924.094000
11
914.112011
21
925.770448
0
LINE
8
ProjItem
10
914.112011
20
925.770448
11
914.750414
21
927.306600
0
LINE
8
ProjItem
10
914.750414
20
927.306600
11
915.761559
21
928.627549
0
LINE
8
ProjItem
10
915.761559
20
928.627549
11
917.102200
21
929.658386
0
LINE
8
ProjItem
10
917.102200
20
929.658386
11
918.665252
21
930.303997
0
LINE
8
ProjItem
10
918.665252
20
930.303997
11
920.314800
21
930.519200
0
LINE
8
ProjItem
10
920.314800
20
930.519200
11
921.964348
21
930.303997
0
LINE
8
ProjItem
10
921.964348
20
930.303997
11
923.527400
21
929.658386
0
LINE
8
ProjItem
10
923.527400
20
929.658386
11
924.868041
21
928.627549
0
LINE
8
ProjItem
10
924.868041
20
928.627549
11
925.879186
21
927.306600
0
LINE
8
ProjItem
10
925.879186
20
927.306600
11
926.517589
21
925.770448
0
LINE
8
ProjItem
10
926.517589
20
925.770448
11
926.740000
21
924.094000
0
LINE
8
ProjItem
10
926.740000
20
924.094000
11
926.740000
21
924.094000
0
LINE
8
ProjItem
10
208.630000
20
595.276000
11
208.407589
21
593.599552
0
LINE
8
ProjItem
10
208.407589
20
593.599552
11
207.769186
21
592.063400
0
LINE
8
ProjItem
10
207.769186
20
592.063400
11
206.758041
21
590.742451
0
LINE
8
ProjItem
10
206.758041
20
590.742451
11
205.417400
21
589.711614
0
LINE
8
ProjItem
10
205.417400
20
589.711614
11
203.854348
21
589.066003
0
LINE
8
ProjItem
10
203.854348
20
589.066003
11
202.204800
21
588.850800
0
LINE
8
ProjItem
10
202.204800
20
588.850800
11
200.555252
21
589.066003
0
LINE
8
ProjItem
10
200.555252
20
589.066003
11
198.992200
21
589.711614
0
LINE
8
ProjItem
10
198.992200
20
589.711614
11
197.651559
21
590.742451
0
LINE
8
ProjItem
10
197.651559
20
590.742451
11
196.640414
21
592.063400
0
LINE
8
ProjItem
10
196.640414
20
592.063400
11
196.002011
21
593.599552
0
LINE
8
ProjItem
10
196.002011
20
593.599552
11
195.779600
21
595.276000
0
LINE
8
ProjItem
10
195.779600
20
595.276000
11
196.002011
21
596.952448
0
LINE
8
ProjItem
10
196.002011
20
596.952448
11
196.640414
21
598.488600
0
LINE
8
ProjItem
10
196.640414
20
598.488600
11
197.651559
21
599.809549
0
LINE
8
ProjItem
10
197.651559
20
599.809549
11
198.992200
21
600.840386
0
LINE
8
ProjItem
10
198.992200
20
600.840386
11
200.555252
21
601.485997
0
LINE
8
ProjItem
10
200.555252
20
601.485997
11
202.204800
21
601.701200
0
LINE
8
ProjItem
10
202.204800
20
601.701200
11
203.854348
21
601.485997
0
LINE
8
ProjItem
10
203.854348
20
601.485997
11
205.417400
21
600.840386
0
LINE
8
ProjItem
10
205.417400
20
600.840386
11
206.758041
21
599.809549
0
LINE
8
ProjItem
10
206.758041
20
599.809549
11
207.769186
21
598.488600
0
LINE
8
ProjItem
10
207.769186
20
598.488600
11
208.407589
21
596.952448
0
LINE
8
ProjItem
10
208.407589
20
596.952448
11
208.630000
21
595.276000
0
LINE
8
ProjItem
10
208.630000
20
595.276000
11
208.630000
21
595.276000
0
LINE
8
ProjItem
10
926.740000
20
527.244000
11
926.517589
21
525.567552
0
LINE
8
ProjItem
10
926.517589
20
525.567552
11
925.879186
21
524.031400
0
LINE
8
ProjItem
10
925.879186
20
524.031400
11
924.868041
21
522.710451
0
LINE
8
ProjItem
10
924.868041
20
522.710451
11
923.527400
21
521.679614
0
LINE
8
ProjItem
10
923.527400
20
521.679614
11
921.964348
21
521.034003
0
LINE
8
ProjItem
10
921.964348
20
521.034003
11
920.314800
21
520.818800
0
LINE
8
ProjItem
10
920.314800
20
520.818800
11
918.665252
21
521.034003
0
LINE
8
ProjItem
10
918.665252
20
521.034003
11
917.102200
21
521.679614
0
LINE
8
ProjItem
10
917.102200
20
521.679614
11
915.761559
21
522.710451
0
LINE
8
ProjItem
10
915.761559
20
522.710451
11
914.750414
21
524.031400
0
LINE
8
ProjItem
10
914.750414
20
524.031400
11
914.112011
21
525.567552
0
LINE
8
ProjItem
10
914.112011
20
525.567552
11
913.889600
21
527.244000
0
LINE
8
ProjItem
10
913.889600
20
527.244000
11
914.112011
21
528.920448
0
LINE
8
ProjItem
10
914.112011
20
528.920448
11
914.750414
21
530.456600
0
LINE
8
ProjItem
10
914.750414
20
530.456600
11
915.761559
21
531.777549
0
LINE
8
ProjItem
10
915.761559
20
531.777549
11
917.102200
21
532.808386
0
LINE
8
ProjItem
10
917.102200
20
532.808386
11
918.665252
21
533.453997
0
LINE
8
ProjItem
10
918.665252
20
533.453997
11
920.314800
21
533.669200
0
LINE
8
ProjItem
10
920.314800
20
533.669200
11
921.964348
21
533.453997
0
LINE
8
ProjItem
10
921.964348
20
533.453997
11
923.527400
21
532.808386
0
LINE
8
ProjItem
10
923.527400
20
532.808386
11
924.868041
21
531.777549
0
LINE
8
ProjItem
10
924.868041
20
531.777549
11
925.879186
21
530.456600
0
LINE
8
ProjItem
10
925.879186
20
530.456600
11
926.517589
21
528.920448
0
LINE
8
ProjItem
10
926.517589
20
528.920448
11
926.740000
21
527.244000
0
LINE
8
ProjItem
10
926.740000
20
527.244000
11
926.740000
21
527.244000
0
LINE
8
ProjItem
10
473.197000
20
595.276000
11
472.974589
21
593.599552
0
LINE
8
ProjItem
10
472.974589
20
593.599552
11
472.336186
21
592.063400
0
LINE
8
ProjItem
10
472.336186
20
592.063400
11
471.325041
21
590.742451
0
LINE
8
ProjItem
10
471.325041
20
590.742451
11
469.984400
21
589.711614
0
LINE
8
ProjItem
10
469.984400
20
589.711614
11
468.421348
21
589.066003
0
LINE
8
ProjItem
10
468.421348
20
589.066003
11
466.771800
21
588.850800
0
LINE
8
ProjItem
10
466.771800
20
588.850800
11
465.122252
21
589.066003
0
LINE
8
ProjItem
10
465.122252
20
589.066003
11
463.559200
21
589.711614
0
LINE
8
ProjItem
10
463.559200
20
589.711614
11
462.218559
21
590.742451
0
LINE
8
ProjItem
10
462.218559
20
590.742451
11
461.207414
21
592.063400
0
LINE
8
ProjItem
10
461.207414
20
592.063400
11
460.569011
21
593.599552
0
LINE
8
ProjItem
10
460.569011
20
593.599552
11
460.346600
21
595.276000
0
LINE
8
ProjItem
10
460.346600
20
595.276000
11
460.569011
21
596.952448
0
LINE
8
ProjItem
10
460.569011
20
596.952448
11
461.207414
21
598.488600
0
LINE
8
ProjItem
10
461.207414
20
598.488600
11
462.218559
21
599.809549
0
LINE
8
ProjItem
10
462.218559
20
599.809549
11
463.559200
21
600.840386
0
LINE
8
ProjItem
10
463.559200
20
600.840386
11
465.122252
21
601.485997
0
LINE
8
ProjItem
10
465.122252
20
601.485997
11
466.771800
21
601.701200
0
LINE
8
ProjItem
10
466.771800
20
601.701200
11
468.421348
21
601.485997
0
LINE
8
ProjItem
10
468.421348
20
601.485997
11
469.984400
21
600.840386
0
LINE
8
ProjItem
10
469.984400
20
600.840386
11
471.325041
21
599.809549
0
LINE
8
ProjItem
10
471.325041
20
599.809549
11
472.336186
21
598.488600
0
LINE
8
ProjItem
10
472.336186
20
598.488600
11
472.974589
21
596.952448
0
LINE
8
ProjItem
10
472.974589
20
596.952448
11
473.197000
21
595.276000
0
LINE
8
ProjItem
10
473.197000
20
595.276000
11
473.197000
21
595.276000
 0 
ENDSEC
 0 
EOF