999
"DXF R12 Output" (www.mydxf.blogspot.com)
 0 
SECTION
 2 
HEADER
 9 
$ACADVER
 1 
AC1009
 9 
$EXTMIN
 10 
 0 
 20 
 0 
 9 
$EXTMAX
 10 
 8.5 
 20 
 11 
 0 
ENDSEC
 0 
SECTION
 2 
ENTITIES
0
LINE
8
Layer 1
10
3.000000
20
-3.000000
11
-3.000000
21
3.000000
0
LINE
8
Layer 1
10
0.000000
20
-5.000000
11
0.000000
21
5.000000
0
LINE
8
Layer 1
10
8.000000
20
4.000000
11
4.000000
21
8.000000
0
LINE
8
Layer 1
10
6.000000
20
2.000000
11
2.000000
21
6.000000
0
LINE
8
Layer 1
10
4.000000
20
0.000000
11
0.000000
21
4.000000
0
LINE
8
Layer 1
10
677.351000
20
1081.500000
11
629.668900
21
1098.855500
0
LINE
8
Layer 1
10
613.807000
20
1095.340000
11
615.454866
21
1096.766314
0
LINE
8
Layer 1
10
615.454866
20
1096.766314
11
617.261533
21
1097.924695
0
LINE
8
Layer 1
10
617.261533
20
1097.924695
11
619.195420
21
1098.808141
0
LINE
8
Layer 1
10
619.195420
20
1098.808141
11
621.224946
21
1099.409651
0
LINE
8
Layer 1
10
621.224946
20
1099.409651
11
623.318528
21
1099.722224
0
LINE
8
Layer 1
10
623.318528
20
1099.722224
11
625.444586
21
1099.738857
0
LINE
8
Layer 1
10
625.444586
20
1099.738857
11
627.571537
21
1099.452550
0
LINE
8
Layer 1
10
627.571537
20
1099.452550
11
629.667800
21
1098.856300
0
LINE
8
Layer 1
10
613.808000
20
1095.340000
11
604.582930
21
1086.114200
0
LINE
8
Layer 1
10
604.583000
20
1064.730000
11
603.545193
21
1065.878193
0
LINE
8
Layer 1
10
603.545193
20
1065.878193
11
602.645760
21
1067.101614
0
LINE
8
Layer 1
10
602.645760
20
1067.101614
11
601.262017
21
1069.731151
0
LINE
8
Layer 1
10
601.262017
20
1069.731151
11
600.431771
21
1072.532638
0
LINE
8
Layer 1
10
600.431771
20
1072.532638
11
600.155022
21
1075.420100
0
LINE
8
Layer 1
10
600.155022
20
1075.420100
11
600.431771
21
1078.307562
0
LINE
8
Layer 1
10
600.431771
20
1078.307562
11
601.262017
21
1081.109049
0
LINE
8
Layer 1
10
601.262017
20
1081.109049
11
602.645760
21
1083.738586
0
LINE
8
Layer 1
10
602.645760
20
1083.738586
11
603.545193
21
1084.962007
0
LINE
8
Layer 1
10
603.545193
20
1084.962007
11
604.583000
21
1086.110200
0
LINE
8
Layer 1
10
604.582000
20
1064.740000
11
615.272400
21
1054.051500
0
LINE
8
Layer 1
10
615.273000
20
1054.040000
11
616.241620
21
1052.854193
0
LINE
8
Layer 1
10
616.241620
20
1052.854193
11
616.933492
21
1051.539424
0
LINE
8
Layer 1
10
616.933492
20
1051.539424
11
617.348615
21
1050.138681
0
LINE
8
Layer 1
10
617.348615
20
1050.138681
11
617.486989
21
1048.694950
0
LINE
8
Layer 1
10
617.486989
20
1048.694950
11
617.348615
21
1047.251219
0
LINE
8
Layer 1
10
617.348615
20
1047.251219
11
616.933492
21
1045.850476
0
LINE
8
Layer 1
10
616.933492
20
1045.850476
11
616.241620
21
1044.535707
0
LINE
8
Layer 1
10
616.241620
20
1044.535707
11
615.273000
21
1043.349900
0
LINE
8
Layer 1
10
615.273000
20
1043.360000
11
528.818000
21
956.902000
0
LINE
8
Layer 1
10
528.818000
20
956.901000
11
524.316139
21
952.638758
0
LINE
8
Layer 1
10
524.316139
20
952.638758
11
519.598859
21
948.637616
0
LINE
8
Layer 1
10
519.598859
20
948.637616
11
514.677795
21
944.904986
0
LINE
8
Layer 1
10
514.677795
20
944.904986
11
509.564584
21
941.448283
0
LINE
8
Layer 1
10
509.564584
20
941.448283
11
504.270863
21
938.274919
0
LINE
8
Layer 1
10
504.270863
20
938.274919
11
498.808268
21
935.392309
0
LINE
8
Layer 1
10
498.808268
20
935.392309
11
493.188434
21
932.807865
0
LINE
8
Layer 1
10
493.188434
20
932.807865
11
487.423000
21
930.529000
0
LINE
8
Layer 1
10
487.423000
20
930.529000
11
132.803000
21
801.459000
0
LINE
8
Layer 1
10
120.369000
20
783.700000
11
120.597081
21
786.632550
0
LINE
8
Layer 1
10
120.597081
20
786.632550
11
121.262022
21
789.444196
0
LINE
8
Layer 1
10
121.262022
20
789.444196
11
122.334852
21
792.093561
0
LINE
8
Layer 1
10
122.334852
20
792.093561
11
123.786598
21
794.539270
0
LINE
8
Layer 1
10
123.786598
20
794.539270
11
125.588288
21
796.739944
0
LINE
8
Layer 1
10
125.588288
20
796.739944
11
127.710950
21
798.654208
0
LINE
8
Layer 1
10
127.710950
20
798.654208
11
130.125611
21
800.240686
0
LINE
8
Layer 1
10
130.125611
20
800.240686
11
132.803300
21
801.458000
0
LINE
8
Layer 1
10
120.369000
20
783.700000
11
120.369000
21
311.602000
0
LINE
8
Layer 1
10
132.803000
20
293.844000
11
130.125356
21
295.061346
0
LINE
8
Layer 1
10
130.125356
20
295.061346
11
127.710740
21
296.647845
0
LINE
8
Layer 1
10
127.710740
20
296.647845
11
125.588123
21
298.562120
0
LINE
8
Layer 1
10
125.588123
20
298.562120
11
123.786475
21
300.762797
0
LINE
8
Layer 1
10
123.786475
20
300.762797
11
122.334768
21
303.208499
0
LINE
8
Layer 1
10
122.334768
20
303.208499
11
121.261973
21
305.857851
0
LINE
8
Layer 1
10
121.261973
20
305.857851
11
120.597060
21
308.669476
0
LINE
8
Layer 1
10
120.597060
20
308.669476
11
120.369000
21
311.602000
0
LINE
8
Layer 1
10
132.803000
20
293.844000
11
487.423000
21
164.774000
0
LINE
8
Layer 1
10
487.423000
20
164.773000
11
493.188525
21
162.494176
0
LINE
8
Layer 1
10
493.188525
20
162.494176
11
498.808449
21
159.909764
0
LINE
8
Layer 1
10
498.808449
20
159.909764
11
504.271134
21
157.027178
0
LINE
8
Layer 1
10
504.271134
20
157.027178
11
509.564945
21
153.853831
0
LINE
8
Layer 1
10
509.564945
20
153.853831
11
514.678243
21
150.397136
0
LINE
8
Layer 1
10
514.678243
20
150.397136
11
519.599393
21
146.664507
0
LINE
8
Layer 1
10
519.599393
20
146.664507
11
524.316758
21
142.663357
0
LINE
8
Layer 1
10
524.316758
20
142.663357
11
528.818700
21
138.401100
0
LINE
8
Layer 1
10
528.818000
20
138.400000
11
615.273000
21
51.947200
0
LINE
8
Layer 1
10
615.273000
20
51.948000
11
616.241620
21
50.762193
0
LINE
8
Layer 1
10
616.241620
20
50.762193
11
616.933492
21
49.447424
0
LINE
8
Layer 1
10
616.933492
20
49.447424
11
617.348615
21
48.046681
0
LINE
8
Layer 1
10
617.348615
20
48.046681
11
617.486989
21
46.602950
0
LINE
8
Layer 1
10
617.486989
20
46.602950
11
617.348615
21
45.159219
0
LINE
8
Layer 1
10
617.348615
20
45.159219
11
616.933492
21
43.758476
0
LINE
8
Layer 1
10
616.933492
20
43.758476
11
616.241620
21
42.443707
0
LINE
8
Layer 1
10
616.241620
20
42.443707
11
615.273000
21
41.257900
0
LINE
8
Layer 1
10
615.273000
20
41.254900
11
604.582000
21
30.566400
0
LINE
8
Layer 1
10
604.583000
20
9.187800
11
603.545193
21
10.335993
0
LINE
8
Layer 1
10
603.545193
20
10.335993
11
602.645760
21
11.559414
0
LINE
8
Layer 1
10
602.645760
20
11.559414
11
601.262017
21
14.188951
0
LINE
8
Layer 1
10
601.262017
20
14.188951
11
600.431771
21
16.990438
0
LINE
8
Layer 1
10
600.431771
20
16.990438
11
600.155022
21
19.877900
0
LINE
8
Layer 1
10
600.155022
20
19.877900
11
600.431771
21
22.765362
0
LINE
8
Layer 1
10
600.431771
20
22.765362
11
601.262017
21
25.566849
0
LINE
8
Layer 1
10
601.262017
20
25.566849
11
602.645760
21
28.196386
0
LINE
8
Layer 1
10
602.645760
20
28.196386
11
603.545193
21
29.419807
0
LINE
8
Layer 1
10
603.545193
20
29.419807
11
604.583000
21
30.568000
0
LINE
8
Layer 1
10
604.582000
20
9.185630
11
613.807070
21
-0.040200
0
LINE
8
Layer 1
10
629.668000
20
-3.554290
11
627.571740
21
-4.150544
0
LINE
8
Layer 1
10
627.571740
20
-4.150544
11
625.444790
21
-4.436856
0
LINE
8
Layer 1
10
625.444790
20
-4.436856
11
623.318734
21
-4.420227
0
LINE
8
Layer 1
10
623.318734
20
-4.420227
11
621.225152
21
-4.107660
0
LINE
8
Layer 1
10
621.225152
20
-4.107660
11
619.195626
21
-3.506155
0
LINE
8
Layer 1
10
619.195626
20
-3.506155
11
617.261738
21
-2.622714
0
LINE
8
Layer 1
10
617.261738
20
-2.622714
11
615.455068
21
-1.464339
0
LINE
8
Layer 1
10
615.455068
20
-1.464339
11
613.807200
21
-0.038030
0
LINE
8
Layer 1
10
629.668000
20
-3.555150
11
677.351000
21
13.800400
0
LINE
8
Layer 1
10
687.298000
20
28.007700
11
687.115494
21
25.661612
0
LINE
8
Layer 1
10
687.115494
20
25.661612
11
686.583486
21
23.412258
0
LINE
8
Layer 1
10
686.583486
20
23.412258
11
685.725158
21
21.292741
0
LINE
8
Layer 1
10
685.725158
20
21.292741
11
684.563688
21
19.336163
0
LINE
8
Layer 1
10
684.563688
20
19.336163
11
683.122258
21
17.575628
0
LINE
8
Layer 1
10
683.122258
20
17.575628
11
681.424046
21
16.044237
0
LINE
8
Layer 1
10
681.424046
20
16.044237
11
679.492234
21
14.775093
0
LINE
8
Layer 1
10
679.492234
20
14.775093
11
677.350000
21
13.801300
0
LINE
8
Layer 1
10
687.298000
20
28.007700
11
687.298000
21
1067.290000
0
LINE
8
Layer 1
10
677.350000
20
1081.500000
11
679.492145
21
1080.526144
0
LINE
8
Layer 1
10
679.492145
20
1080.526144
11
681.423869
21
1079.256959
0
LINE
8
Layer 1
10
681.423869
20
1079.256959
11
683.121993
21
1077.725546
0
LINE
8
Layer 1
10
683.121993
20
1077.725546
11
684.563340
21
1075.965006
0
LINE
8
Layer 1
10
684.563340
20
1075.965006
11
685.724733
21
1074.008441
0
LINE
8
Layer 1
10
685.724733
20
1074.008441
11
686.582994
21
1071.888951
0
LINE
8
Layer 1
10
686.582994
20
1071.888951
11
687.114946
21
1069.639637
0
LINE
8
Layer 1
10
687.114946
20
1069.639637
11
687.297410
21
1067.293600
0
LINE
8
Layer 1
10
204.328000
20
787.270000
11
328.634000
21
832.513600
0
LINE
8
Layer 1
10
328.633000
20
832.514000
11
330.560245
21
833.073965
0
LINE
8
Layer 1
10
330.560245
20
833.073965
11
332.518685
21
833.371346
0
LINE
8
Layer 1
10
332.518685
20
833.371346
11
334.483266
21
833.410560
0
LINE
8
Layer 1
10
334.483266
20
833.410560
11
336.428935
21
833.196025
0
LINE
8
Layer 1
10
336.428935
20
833.196025
11
338.330640
21
832.732157
0
LINE
8
Layer 1
10
338.330640
20
832.732157
11
340.163326
21
832.023374
0
LINE
8
Layer 1
10
340.163326
20
832.023374
11
341.901941
21
831.074094
0
LINE
8
Layer 1
10
341.901941
20
831.074094
11
343.521432
21
829.888732
0
LINE
8
Layer 1
10
343.521432
20
829.888732
11
344.970006
21
828.499680
0
LINE
8
Layer 1
10
344.970006
20
828.499680
11
346.206770
21
826.952318
0
LINE
8
Layer 1
10
346.206770
20
826.952318
11
347.223025
21
825.270553
0
LINE
8
Layer 1
10
347.223025
20
825.270553
11
348.010069
21
823.478289
0
LINE
8
Layer 1
10
348.010069
20
823.478289
11
348.559202
21
821.599432
0
LINE
8
Layer 1
10
348.559202
20
821.599432
11
348.861722
21
819.657889
0
LINE
8
Layer 1
10
348.861722
20
819.657889
11
348.908929
21
817.677564
0
LINE
8
Layer 1
10
348.908929
20
817.677564
11
348.692121
21
815.682363
0
LINE
8
Layer 1
10
348.692121
20
815.682363
11
348.213453
21
813.733336
0
LINE
8
Layer 1
10
348.213453
20
813.733336
11
347.491781
21
811.888585
0
LINE
8
Layer 1
10
347.491781
20
811.888585
11
346.543456
21
810.167600
0
LINE
8
Layer 1
10
346.543456
20
810.167600
11
345.384832
21
808.589868
0
LINE
8
Layer 1
10
345.384832
20
808.589868
11
344.032261
21
807.174877
0
LINE
8
Layer 1
10
344.032261
20
807.174877
11
342.502095
21
805.942115
0
LINE
8
Layer 1
10
342.502095
20
805.942115
11
340.810687
21
804.911070
0
LINE
8
Layer 1
10
340.810687
20
804.911070
11
338.974389
21
804.101231
0
LINE
8
Layer 1
10
214.669000
20
758.858000
11
338.975000
21
804.101600
0
LINE
8
Layer 1
10
214.669000
20
758.858000
11
213.190584
21
758.405060
0
LINE
8
Layer 1
10
213.190584
20
758.405060
11
211.702656
21
758.109038
0
LINE
8
Layer 1
10
211.702656
20
758.109038
11
208.737115
21
757.969605
0
LINE
8
Layer 1
10
208.737115
20
757.969605
11
205.850066
21
758.403408
0
LINE
8
Layer 1
10
205.850066
20
758.403408
11
203.119201
21
759.374155
0
LINE
8
Layer 1
10
203.119201
20
759.374155
11
200.622211
21
760.845553
0
LINE
8
Layer 1
10
200.622211
20
760.845553
11
198.436786
21
762.781309
0
LINE
8
Layer 1
10
198.436786
20
762.781309
11
196.640617
21
765.145132
0
LINE
8
Layer 1
10
196.640617
20
765.145132
11
195.912782
21
766.476226
0
LINE
8
Layer 1
10
195.912782
20
766.476226
11
195.311395
21
767.900728
0
LINE
8
Layer 1
10
195.311395
20
767.900728
11
194.856430
21
769.378522
0
LINE
8
Layer 1
10
194.856430
20
769.378522
11
194.558371
21
770.866042
0
LINE
8
Layer 1
10
194.558371
20
770.866042
11
194.414876
21
773.831390
0
LINE
8
Layer 1
10
194.414876
20
773.831390
11
194.844724
21
776.719030
0
LINE
8
Layer 1
10
194.844724
20
776.719030
11
195.811730
21
779.451223
0
LINE
8
Layer 1
10
195.811730
20
779.451223
11
197.279706
21
781.950226
0
LINE
8
Layer 1
10
197.279706
20
781.950226
11
199.212467
21
784.138301
0
LINE
8
Layer 1
10
199.212467
20
784.138301
11
201.573827
21
785.937705
0
LINE
8
Layer 1
10
201.573827
20
785.937705
11
202.903924
21
786.667363
0
LINE
8
Layer 1
10
202.903924
20
786.667363
11
204.327600
21
787.270700
0
LINE
8
Layer 1
10
338.975000
20
291.201000
11
340.811295
21
290.391150
0
LINE
8
Layer 1
10
340.811295
20
290.391150
11
342.502700
21
289.360098
0
LINE
8
Layer 1
10
342.502700
20
289.360098
11
344.032864
21
288.127331
0
LINE
8
Layer 1
10
344.032864
20
288.127331
11
345.385434
21
286.712336
0
LINE
8
Layer 1
10
345.385434
20
286.712336
11
346.544057
21
285.134602
0
LINE
8
Layer 1
10
346.544057
20
285.134602
11
347.492381
21
283.413615
0
LINE
8
Layer 1
10
347.492381
20
283.413615
11
348.214053
21
281.568864
0
LINE
8
Layer 1
10
348.214053
20
281.568864
11
348.692721
21
279.619837
0
LINE
8
Layer 1
10
348.692721
20
279.619837
11
348.909529
21
277.624636
0
LINE
8
Layer 1
10
348.909529
20
277.624636
11
348.862322
21
275.644311
0
LINE
8
Layer 1
10
348.862322
20
275.644311
11
348.559802
21
273.702768
0
LINE
8
Layer 1
10
348.559802
20
273.702768
11
348.010669
21
271.823911
0
LINE
8
Layer 1
10
348.010669
20
271.823911
11
347.223625
21
270.031647
0
LINE
8
Layer 1
10
347.223625
20
270.031647
11
346.207370
21
268.349882
0
LINE
8
Layer 1
10
346.207370
20
268.349882
11
344.970606
21
266.802520
0
LINE
8
Layer 1
10
344.970606
20
266.802520
11
343.522032
21
265.413468
0
LINE
8
Layer 1
10
343.522032
20
265.413468
11
341.902541
21
264.228106
0
LINE
8
Layer 1
10
341.902541
20
264.228106
11
340.163926
21
263.278826
0
LINE
8
Layer 1
10
340.163926
20
263.278826
11
338.331240
21
262.570044
0
LINE
8
Layer 1
10
338.331240
20
262.570044
11
336.429537
21
262.106179
0
LINE
8
Layer 1
10
336.429537
20
262.106179
11
334.483869
21
261.891647
0
LINE
8
Layer 1
10
334.483869
20
261.891647
11
332.519290
21
261.930867
0
LINE
8
Layer 1
10
332.519290
20
261.930867
11
330.560853
21
262.228256
0
LINE
8
Layer 1
10
330.560853
20
262.228256
11
328.633611
21
262.788231
0
LINE
8
Layer 1
10
328.633000
20
262.789000
11
204.328000
21
308.032000
0
LINE
8
Layer 1
10
204.327000
20
308.032000
11
202.490705
21
308.841850
0
LINE
8
Layer 1
10
202.490705
20
308.841850
11
200.799300
21
309.872902
0
LINE
8
Layer 1
10
200.799300
20
309.872902
11
199.269136
21
311.105669
0
LINE
8
Layer 1
10
199.269136
20
311.105669
11
197.916566
21
312.520664
0
LINE
8
Layer 1
10
197.916566
20
312.520664
11
196.757943
21
314.098398
0
LINE
8
Layer 1
10
196.757943
20
314.098398
11
195.809619
21
315.819385
0
LINE
8
Layer 1
10
195.809619
20
315.819385
11
195.087947
21
317.664136
0
LINE
8
Layer 1
10
195.087947
20
317.664136
11
194.609279
21
319.613163
0
LINE
8
Layer 1
10
194.609279
20
319.613163
11
194.392471
21
321.608364
0
LINE
8
Layer 1
10
194.392471
20
321.608364
11
194.439678
21
323.588689
0
LINE
8
Layer 1
10
194.439678
20
323.588689
11
194.742198
21
325.530232
0
LINE
8
Layer 1
10
194.742198
20
325.530232
11
195.291331
21
327.409089
0
LINE
8
Layer 1
10
195.291331
20
327.409089
11
196.078375
21
329.201353
0
LINE
8
Layer 1
10
196.078375
20
329.201353
11
197.094630
21
330.883118
0
LINE
8
Layer 1
10
197.094630
20
330.883118
11
198.331394
21
332.430480
0
LINE
8
Layer 1
10
198.331394
20
332.430480
11
199.779968
21
333.819532
0
LINE
8
Layer 1
10
199.779968
20
333.819532
11
201.399459
21
335.004894
0
LINE
8
Layer 1
10
201.399459
20
335.004894
11
203.138074
21
335.954174
0
LINE
8
Layer 1
10
203.138074
20
335.954174
11
204.970760
21
336.662956
0
LINE
8
Layer 1
10
204.970760
20
336.662956
11
206.872463
21
337.126821
0
LINE
8
Layer 1
10
206.872463
20
337.126821
11
208.818131
21
337.341353
0
LINE
8
Layer 1
10
208.818131
20
337.341353
11
210.782710
21
337.302133
0
LINE
8
Layer 1
10
210.782710
20
337.302133
11
212.741147
21
337.004744
0
LINE
8
Layer 1
10
212.741147
20
337.004744
11
214.668389
21
336.444769
0
LINE
8
Layer 1
10
338.975000
20
291.201000
11
214.669000
21
336.445000
0
LINE
8
Layer 1
10
560.191000
20
934.822000
11
627.599000
21
1002.230000
0
LINE
8
Layer 1
10
627.600000
20
1002.230000
11
628.748198
21
1003.267805
0
LINE
8
Layer 1
10
628.748198
20
1003.267805
11
629.971624
21
1004.167235
0
LINE
8
Layer 1
10
629.971624
20
1004.167235
11
632.601171
21
1005.550972
0
LINE
8
Layer 1
10
632.601171
20
1005.550972
11
635.402666
21
1006.381211
0
LINE
8
Layer 1
10
635.402666
20
1006.381211
11
638.290134
21
1006.657952
0
LINE
8
Layer 1
10
638.290134
20
1006.657952
11
641.177599
21
1006.381195
0
LINE
8
Layer 1
10
641.177599
20
1006.381195
11
643.979088
21
1005.550940
0
LINE
8
Layer 1
10
643.979088
20
1005.550940
11
646.608625
21
1004.167187
0
LINE
8
Layer 1
10
646.608625
20
1004.167187
11
647.832045
21
1003.267749
0
LINE
8
Layer 1
10
647.832045
20
1003.267749
11
648.980236
21
1002.229936
0
LINE
8
Layer 1
10
648.980236
20
1002.229936
11
650.018043
21
1001.081740
0
LINE
8
Layer 1
10
650.018043
20
1001.081740
11
650.917476
21
999.858316
0
LINE
8
Layer 1
10
650.917476
20
999.858316
11
652.301216
21
997.228773
0
LINE
8
Layer 1
10
652.301216
20
997.228773
11
653.131457
21
994.427281
0
LINE
8
Layer 1
10
653.131457
20
994.427281
11
653.408200
21
991.539815
0
LINE
8
Layer 1
10
653.408200
20
991.539815
11
653.131444
21
988.652350
0
LINE
8
Layer 1
10
653.131444
20
988.652350
11
652.301189
21
985.850862
0
LINE
8
Layer 1
10
652.301189
20
985.850862
11
650.917437
21
983.221325
0
LINE
8
Layer 1
10
650.917437
20
983.221325
11
650.017999
21
981.997905
0
LINE
8
Layer 1
10
650.017999
20
981.997905
11
648.980186
21
980.849714
0
LINE
8
Layer 1
10
581.571000
20
913.443000
11
648.980000
21
980.853100
0
LINE
8
Layer 1
10
581.571000
20
913.443000
11
580.422506
21
912.407814
0
LINE
8
Layer 1
10
580.422506
20
912.407814
11
579.199090
21
911.510816
0
LINE
8
Layer 1
10
579.199090
20
911.510816
11
576.570360
21
910.131355
0
LINE
8
Layer 1
10
576.570360
20
910.131355
11
573.770550
21
909.304557
0
LINE
8
Layer 1
10
573.770550
20
909.304557
11
570.885398
21
909.030360
0
LINE
8
Layer 1
10
570.885398
20
909.030360
11
568.000642
21
909.308701
0
LINE
8
Layer 1
10
568.000642
20
909.308701
11
565.202022
21
910.139520
0
LINE
8
Layer 1
10
565.202022
20
910.139520
11
562.575277
21
911.522755
0
LINE
8
Layer 1
10
562.575277
20
911.522755
11
561.353150
21
912.421509
0
LINE
8
Layer 1
10
561.353150
20
912.421509
11
560.206145
21
913.458345
0
LINE
8
Layer 1
10
560.206145
20
913.458345
11
559.169309
21
914.605350
0
LINE
8
Layer 1
10
559.169309
20
914.605350
11
558.270555
21
915.827477
0
LINE
8
Layer 1
10
558.270555
20
915.827477
11
556.887320
21
918.454222
0
LINE
8
Layer 1
10
556.887320
20
918.454222
11
556.056501
21
921.252842
0
LINE
8
Layer 1
10
556.056501
20
921.252842
11
555.778160
21
924.137598
0
LINE
8
Layer 1
10
555.778160
20
924.137598
11
556.052357
21
927.022750
0
LINE
8
Layer 1
10
556.052357
20
927.022750
11
556.879155
21
929.822560
0
LINE
8
Layer 1
10
556.879155
20
929.822560
11
558.258616
21
932.451290
0
LINE
8
Layer 1
10
558.258616
20
932.451290
11
559.155614
21
933.674706
0
LINE
8
Layer 1
10
559.155614
20
933.674706
11
560.190800
21
934.823200
0
LINE
8
Layer 1
10
648.980000
20
114.451000
11
650.015197
21
113.302516
0
LINE
8
Layer 1
10
650.015197
20
113.302516
11
650.912207
21
112.079108
0
LINE
8
Layer 1
10
650.912207
20
112.079108
11
652.291692
21
109.450391
0
LINE
8
Layer 1
10
652.291692
20
109.450391
11
653.118516
21
106.650589
0
LINE
8
Layer 1
10
653.118516
20
106.650589
11
653.392741
21
103.765439
0
LINE
8
Layer 1
10
653.392741
20
103.765439
11
653.114426
21
100.880681
0
LINE
8
Layer 1
10
653.114426
20
100.880681
11
652.283633
21
98.082053
0
LINE
8
Layer 1
10
652.283633
20
98.082053
11
650.900423
21
95.455295
0
LINE
8
Layer 1
10
650.900423
20
95.455295
11
650.001680
21
94.233160
0
LINE
8
Layer 1
10
650.001680
20
94.233160
11
648.964856
21
93.086144
0
LINE
8
Layer 1
10
648.964856
20
93.086144
11
647.817859
21
92.049298
0
LINE
8
Layer 1
10
647.817859
20
92.049298
11
646.595741
21
91.150533
0
LINE
8
Layer 1
10
646.595741
20
91.150533
11
643.969009
21
89.767273
0
LINE
8
Layer 1
10
643.969009
20
89.767273
11
641.170397
21
88.936428
0
LINE
8
Layer 1
10
641.170397
20
88.936428
11
638.285644
21
88.658059
0
LINE
8
Layer 1
10
638.285644
20
88.658059
11
635.400489
21
88.932230
0
LINE
8
Layer 1
10
635.400489
20
88.932230
11
632.600671
21
89.759002
0
LINE
8
Layer 1
10
632.600671
20
89.759002
11
629.971928
21
91.138438
0
LINE
8
Layer 1
10
629.971928
20
91.138438
11
628.748504
21
92.035424
0
LINE
8
Layer 1
10
628.748504
20
92.035424
11
627.600000
21
93.070600
0
LINE
8
Layer 1
10
627.599000
20
93.072200
11
560.191000
21
160.480000
0
LINE
8
Layer 1
10
560.191000
20
160.479000
11
559.155814
21
161.627494
0
LINE
8
Layer 1
10
559.155814
20
161.627494
11
558.258816
21
162.850910
0
LINE
8
Layer 1
10
558.258816
20
162.850910
11
556.879355
21
165.479640
0
LINE
8
Layer 1
10
556.879355
20
165.479640
11
556.052557
21
168.279450
0
LINE
8
Layer 1
10
556.052557
20
168.279450
11
555.778360
21
171.164602
0
LINE
8
Layer 1
10
555.778360
20
171.164602
11
556.056701
21
174.049358
0
LINE
8
Layer 1
10
556.056701
20
174.049358
11
556.887520
21
176.847978
0
LINE
8
Layer 1
10
556.887520
20
176.847978
11
558.270755
21
179.474723
0
LINE
8
Layer 1
10
558.270755
20
179.474723
11
559.169509
21
180.696850
0
LINE
8
Layer 1
10
559.169509
20
180.696850
11
560.206345
21
181.843855
0
LINE
8
Layer 1
10
560.206345
20
181.843855
11
561.353350
21
182.880691
0
LINE
8
Layer 1
10
561.353350
20
182.880691
11
562.575477
21
183.779445
0
LINE
8
Layer 1
10
562.575477
20
183.779445
11
565.202222
21
185.162680
0
LINE
8
Layer 1
10
565.202222
20
185.162680
11
568.000842
21
185.993499
0
LINE
8
Layer 1
10
568.000842
20
185.993499
11
570.885598
21
186.271840
0
LINE
8
Layer 1
10
570.885598
20
186.271840
11
573.770750
21
185.997643
0
LINE
8
Layer 1
10
573.770750
20
185.997643
11
576.570560
21
185.170845
0
LINE
8
Layer 1
10
576.570560
20
185.170845
11
579.199290
21
183.791384
0
LINE
8
Layer 1
10
579.199290
20
183.791384
11
580.422706
21
182.894386
0
LINE
8
Layer 1
10
580.422706
20
182.894386
11
581.571200
21
181.859200
0
LINE
8
Layer 1
10
648.980000
20
114.449000
11
581.571000
21
181.859200
0
LINE
8
Layer 1
10
357.534000
20
698.832000
11
357.442597
21
697.455255
0
LINE
8
Layer 1
10
357.442597
20
697.455255
11
357.174217
21
696.120100
0
LINE
8
Layer 1
10
357.174217
20
696.120100
11
356.737606
21
694.841683
0
LINE
8
Layer 1
10
356.737606
20
694.841683
11
356.141508
21
693.635150
0
LINE
8
Layer 1
10
356.141508
20
693.635150
11
355.394669
21
692.515648
0
LINE
8
Layer 1
10
355.394669
20
692.515648
11
354.505833
21
691.498323
0
LINE
8
Layer 1
10
354.505833
20
691.498323
11
353.483745
21
690.598322
0
LINE
8
Layer 1
10
353.483745
20
690.598322
11
352.337150
21
689.830792
0
LINE
8
Layer 1
10
352.337150
20
689.830792
11
351.099152
21
689.221577
0
LINE
8
Layer 1
10
351.099152
20
689.221577
11
349.808684
21
688.786423
0
LINE
8
Layer 1
10
349.808684
20
688.786423
11
348.483237
21
688.525331
0
LINE
8
Layer 1
10
348.483237
20
688.525331
11
347.140300
21
688.438300
0
LINE
8
Layer 1
10
347.140300
20
688.438300
11
345.797363
21
688.525331
0
LINE
8
Layer 1
10
345.797363
20
688.525331
11
344.471916
21
688.786423
0
LINE
8
Layer 1
10
344.471916
20
688.786423
11
343.181448
21
689.221577
0
LINE
8
Layer 1
10
343.181448
20
689.221577
11
341.943450
21
689.830792
0
LINE
8
Layer 1
10
341.943450
20
689.830792
11
340.796855
21
690.598322
0
LINE
8
Layer 1
10
340.796855
20
690.598322
11
339.774767
21
691.498323
0
LINE
8
Layer 1
10
339.774767
20
691.498323
11
338.885931
21
692.515648
0
LINE
8
Layer 1
10
338.885931
20
692.515648
11
338.139092
21
693.635150
0
LINE
8
Layer 1
10
338.139092
20
693.635150
11
337.542994
21
694.841683
0
LINE
8
Layer 1
10
337.542994
20
694.841683
11
337.106383
21
696.120100
0
LINE
8
Layer 1
10
337.106383
20
696.120100
11
336.838003
21
697.455255
0
LINE
8
Layer 1
10
336.838003
20
697.455255
11
336.746600
21
698.832000
0
LINE
8
Layer 1
10
336.746600
20
698.832000
11
336.838003
21
700.208745
0
LINE
8
Layer 1
10
336.838003
20
700.208745
11
337.106383
21
701.543900
0
LINE
8
Layer 1
10
337.106383
20
701.543900
11
337.542994
21
702.822317
0
LINE
8
Layer 1
10
337.542994
20
702.822317
11
338.139092
21
704.028850
0
LINE
8
Layer 1
10
338.139092
20
704.028850
11
338.885931
21
705.148352
0
LINE
8
Layer 1
10
338.885931
20
705.148352
11
339.774767
21
706.165677
0
LINE
8
Layer 1
10
339.774767
20
706.165677
11
340.796855
21
707.065678
0
LINE
8
Layer 1
10
340.796855
20
707.065678
11
341.943450
21
707.833208
0
LINE
8
Layer 1
10
341.943450
20
707.833208
11
343.181448
21
708.442423
0
LINE
8
Layer 1
10
343.181448
20
708.442423
11
344.471916
21
708.877577
0
LINE
8
Layer 1
10
344.471916
20
708.877577
11
345.797363
21
709.138669
0
LINE
8
Layer 1
10
345.797363
20
709.138669
11
347.140300
21
709.225700
0
LINE
8
Layer 1
10
347.140300
20
709.225700
11
348.483237
21
709.138669
0
LINE
8
Layer 1
10
348.483237
20
709.138669
11
349.808684
21
708.877577
0
LINE
8
Layer 1
10
349.808684
20
708.877577
11
351.099152
21
708.442423
0
LINE
8
Layer 1
10
351.099152
20
708.442423
11
352.337150
21
707.833208
0
LINE
8
Layer 1
10
352.337150
20
707.833208
11
353.483745
21
707.065678
0
LINE
8
Layer 1
10
353.483745
20
707.065678
11
354.505833
21
706.165677
0
LINE
8
Layer 1
10
354.505833
20
706.165677
11
355.394669
21
705.148352
0
LINE
8
Layer 1
10
355.394669
20
705.148352
11
356.141508
21
704.028850
0
LINE
8
Layer 1
10
356.141508
20
704.028850
11
356.737606
21
702.822317
0
LINE
8
Layer 1
10
356.737606
20
702.822317
11
357.174217
21
701.543900
0
LINE
8
Layer 1
10
357.174217
20
701.543900
11
357.442597
21
700.208745
0
LINE
8
Layer 1
10
357.442597
20
700.208745
11
357.534000
21
698.832000
0
LINE
8
Layer 1
10
357.534000
20
698.832000
11
357.534000
21
698.832000
0
LINE
8
Layer 1
10
281.944000
20
623.242000
11
281.852597
21
621.865255
0
LINE
8
Layer 1
10
281.852597
20
621.865255
11
281.584217
21
620.530100
0
LINE
8
Layer 1
10
281.584217
20
620.530100
11
281.147606
21
619.251683
0
LINE
8
Layer 1
10
281.147606
20
619.251683
11
280.551508
21
618.045150
0
LINE
8
Layer 1
10
280.551508
20
618.045150
11
279.804669
21
616.925648
0
LINE
8
Layer 1
10
279.804669
20
616.925648
11
278.915833
21
615.908323
0
LINE
8
Layer 1
10
278.915833
20
615.908323
11
277.893745
21
615.008322
0
LINE
8
Layer 1
10
277.893745
20
615.008322
11
276.747150
21
614.240792
0
LINE
8
Layer 1
10
276.747150
20
614.240792
11
275.509152
21
613.631577
0
LINE
8
Layer 1
10
275.509152
20
613.631577
11
274.218684
21
613.196423
0
LINE
8
Layer 1
10
274.218684
20
613.196423
11
272.893237
21
612.935331
0
LINE
8
Layer 1
10
272.893237
20
612.935331
11
271.550300
21
612.848300
0
LINE
8
Layer 1
10
271.550300
20
612.848300
11
270.207363
21
612.935331
0
LINE
8
Layer 1
10
270.207363
20
612.935331
11
268.881916
21
613.196423
0
LINE
8
Layer 1
10
268.881916
20
613.196423
11
267.591448
21
613.631577
0
LINE
8
Layer 1
10
267.591448
20
613.631577
11
266.353450
21
614.240792
0
LINE
8
Layer 1
10
266.353450
20
614.240792
11
265.206855
21
615.008322
0
LINE
8
Layer 1
10
265.206855
20
615.008322
11
264.184767
21
615.908323
0
LINE
8
Layer 1
10
264.184767
20
615.908323
11
263.295931
21
616.925648
0
LINE
8
Layer 1
10
263.295931
20
616.925648
11
262.549092
21
618.045150
0
LINE
8
Layer 1
10
262.549092
20
618.045150
11
261.952994
21
619.251683
0
LINE
8
Layer 1
10
261.952994
20
619.251683
11
261.516383
21
620.530100
0
LINE
8
Layer 1
10
261.516383
20
620.530100
11
261.248003
21
621.865255
0
LINE
8
Layer 1
10
261.248003
20
621.865255
11
261.156600
21
623.242000
0
LINE
8
Layer 1
10
261.156600
20
623.242000
11
261.248003
21
624.618745
0
LINE
8
Layer 1
10
261.248003
20
624.618745
11
261.516383
21
625.953900
0
LINE
8
Layer 1
10
261.516383
20
625.953900
11
261.952994
21
627.232317
0
LINE
8
Layer 1
10
261.952994
20
627.232317
11
262.549092
21
628.438850
0
LINE
8
Layer 1
10
262.549092
20
628.438850
11
263.295931
21
629.558352
0
LINE
8
Layer 1
10
263.295931
20
629.558352
11
264.184767
21
630.575677
0
LINE
8
Layer 1
10
264.184767
20
630.575677
11
265.206855
21
631.475678
0
LINE
8
Layer 1
10
265.206855
20
631.475678
11
266.353450
21
632.243208
0
LINE
8
Layer 1
10
266.353450
20
632.243208
11
267.591448
21
632.852423
0
LINE
8
Layer 1
10
267.591448
20
632.852423
11
268.881916
21
633.287577
0
LINE
8
Layer 1
10
268.881916
20
633.287577
11
270.207363
21
633.548669
0
LINE
8
Layer 1
10
270.207363
20
633.548669
11
271.550300
21
633.635700
0
LINE
8
Layer 1
10
271.550300
20
633.635700
11
272.893237
21
633.548669
0
LINE
8
Layer 1
10
272.893237
20
633.548669
11
274.218684
21
633.287577
0
LINE
8
Layer 1
10
274.218684
20
633.287577
11
275.509152
21
632.852423
0
LINE
8
Layer 1
10
275.509152
20
632.852423
11
276.747150
21
632.243208
0
LINE
8
Layer 1
10
276.747150
20
632.243208
11
277.893745
21
631.475678
0
LINE
8
Layer 1
10
277.893745
20
631.475678
11
278.915833
21
630.575677
0
LINE
8
Layer 1
10
278.915833
20
630.575677
11
279.804669
21
629.558352
0
LINE
8
Layer 1
10
279.804669
20
629.558352
11
280.551508
21
628.438850
0
LINE
8
Layer 1
10
280.551508
20
628.438850
11
281.147606
21
627.232317
0
LINE
8
Layer 1
10
281.147606
20
627.232317
11
281.584217
21
625.953900
0
LINE
8
Layer 1
10
281.584217
20
625.953900
11
281.852597
21
624.618745
0
LINE
8
Layer 1
10
281.852597
20
624.618745
11
281.944000
21
623.242000
0
LINE
8
Layer 1
10
281.944000
20
623.242000
11
281.944000
21
623.242000
0
LINE
8
Layer 1
10
357.534000
20
547.651000
11
357.442597
21
546.274255
0
LINE
8
Layer 1
10
357.442597
20
546.274255
11
357.174217
21
544.939100
0
LINE
8
Layer 1
10
357.174217
20
544.939100
11
356.737606
21
543.660683
0
LINE
8
Layer 1
10
356.737606
20
543.660683
11
356.141508
21
542.454150
0
LINE
8
Layer 1
10
356.141508
20
542.454150
11
355.394669
21
541.334648
0
LINE
8
Layer 1
10
355.394669
20
541.334648
11
354.505833
21
540.317323
0
LINE
8
Layer 1
10
354.505833
20
540.317323
11
353.483745
21
539.417322
0
LINE
8
Layer 1
10
353.483745
20
539.417322
11
352.337150
21
538.649792
0
LINE
8
Layer 1
10
352.337150
20
538.649792
11
351.099152
21
538.040577
0
LINE
8
Layer 1
10
351.099152
20
538.040577
11
349.808684
21
537.605423
0
LINE
8
Layer 1
10
349.808684
20
537.605423
11
348.483237
21
537.344331
0
LINE
8
Layer 1
10
348.483237
20
537.344331
11
347.140300
21
537.257300
0
LINE
8
Layer 1
10
347.140300
20
537.257300
11
345.797363
21
537.344331
0
LINE
8
Layer 1
10
345.797363
20
537.344331
11
344.471916
21
537.605423
0
LINE
8
Layer 1
10
344.471916
20
537.605423
11
343.181448
21
538.040577
0
LINE
8
Layer 1
10
343.181448
20
538.040577
11
341.943450
21
538.649792
0
LINE
8
Layer 1
10
341.943450
20
538.649792
11
340.796855
21
539.417322
0
LINE
8
Layer 1
10
340.796855
20
539.417322
11
339.774767
21
540.317323
0
LINE
8
Layer 1
10
339.774767
20
540.317323
11
338.885931
21
541.334648
0
LINE
8
Layer 1
10
338.885931
20
541.334648
11
338.139092
21
542.454150
0
LINE
8
Layer 1
10
338.139092
20
542.454150
11
337.542994
21
543.660683
0
LINE
8
Layer 1
10
337.542994
20
543.660683
11
337.106383
21
544.939100
0
LINE
8
Layer 1
10
337.106383
20
544.939100
11
336.838003
21
546.274255
0
LINE
8
Layer 1
10
336.838003
20
546.274255
11
336.746600
21
547.651000
0
LINE
8
Layer 1
10
336.746600
20
547.651000
11
336.838003
21
549.027745
0
LINE
8
Layer 1
10
336.838003
20
549.027745
11
337.106383
21
550.362900
0
LINE
8
Layer 1
10
337.106383
20
550.362900
11
337.542994
21
551.641317
0
LINE
8
Layer 1
10
337.542994
20
551.641317
11
338.139092
21
552.847850
0
LINE
8
Layer 1
10
338.139092
20
552.847850
11
338.885931
21
553.967352
0
LINE
8
Layer 1
10
338.885931
20
553.967352
11
339.774767
21
554.984677
0
LINE
8
Layer 1
10
339.774767
20
554.984677
11
340.796855
21
555.884678
0
LINE
8
Layer 1
10
340.796855
20
555.884678
11
341.943450
21
556.652208
0
LINE
8
Layer 1
10
341.943450
20
556.652208
11
343.181448
21
557.261423
0
LINE
8
Layer 1
10
343.181448
20
557.261423
11
344.471916
21
557.696577
0
LINE
8
Layer 1
10
344.471916
20
557.696577
11
345.797363
21
557.957669
0
LINE
8
Layer 1
10
345.797363
20
557.957669
11
347.140300
21
558.044700
0
LINE
8
Layer 1
10
347.140300
20
558.044700
11
348.483237
21
557.957669
0
LINE
8
Layer 1
10
348.483237
20
557.957669
11
349.808684
21
557.696577
0
LINE
8
Layer 1
10
349.808684
20
557.696577
11
351.099152
21
557.261423
0
LINE
8
Layer 1
10
351.099152
20
557.261423
11
352.337150
21
556.652208
0
LINE
8
Layer 1
10
352.337150
20
556.652208
11
353.483745
21
555.884678
0
LINE
8
Layer 1
10
353.483745
20
555.884678
11
354.505833
21
554.984677
0
LINE
8
Layer 1
10
354.505833
20
554.984677
11
355.394669
21
553.967352
0
LINE
8
Layer 1
10
355.394669
20
553.967352
11
356.141508
21
552.847850
0
LINE
8
Layer 1
10
356.141508
20
552.847850
11
356.737606
21
551.641317
0
LINE
8
Layer 1
10
356.737606
20
551.641317
11
357.174217
21
550.362900
0
LINE
8
Layer 1
10
357.174217
20
550.362900
11
357.442597
21
549.027745
0
LINE
8
Layer 1
10
357.442597
20
549.027745
11
357.534000
21
547.651000
0
LINE
8
Layer 1
10
357.534000
20
547.651000
11
357.534000
21
547.651000
0
LINE
8
Layer 1
10
206.353000
20
698.832000
11
206.261597
21
697.455255
0
LINE
8
Layer 1
10
206.261597
20
697.455255
11
205.993217
21
696.120100
0
LINE
8
Layer 1
10
205.993217
20
696.120100
11
205.556606
21
694.841683
0
LINE
8
Layer 1
10
205.556606
20
694.841683
11
204.960508
21
693.635150
0
LINE
8
Layer 1
10
204.960508
20
693.635150
11
204.213669
21
692.515648
0
LINE
8
Layer 1
10
204.213669
20
692.515648
11
203.324833
21
691.498323
0
LINE
8
Layer 1
10
203.324833
20
691.498323
11
202.302745
21
690.598322
0
LINE
8
Layer 1
10
202.302745
20
690.598322
11
201.156150
21
689.830792
0
LINE
8
Layer 1
10
201.156150
20
689.830792
11
199.918152
21
689.221577
0
LINE
8
Layer 1
10
199.918152
20
689.221577
11
198.627684
21
688.786423
0
LINE
8
Layer 1
10
198.627684
20
688.786423
11
197.302237
21
688.525331
0
LINE
8
Layer 1
10
197.302237
20
688.525331
11
195.959300
21
688.438300
0
LINE
8
Layer 1
10
195.959300
20
688.438300
11
194.616363
21
688.525331
0
LINE
8
Layer 1
10
194.616363
20
688.525331
11
193.290916
21
688.786423
0
LINE
8
Layer 1
10
193.290916
20
688.786423
11
192.000448
21
689.221577
0
LINE
8
Layer 1
10
192.000448
20
689.221577
11
190.762450
21
689.830792
0
LINE
8
Layer 1
10
190.762450
20
689.830792
11
189.615855
21
690.598322
0
LINE
8
Layer 1
10
189.615855
20
690.598322
11
188.593767
21
691.498323
0
LINE
8
Layer 1
10
188.593767
20
691.498323
11
187.704931
21
692.515648
0
LINE
8
Layer 1
10
187.704931
20
692.515648
11
186.958092
21
693.635150
0
LINE
8
Layer 1
10
186.958092
20
693.635150
11
186.361994
21
694.841683
0
LINE
8
Layer 1
10
186.361994
20
694.841683
11
185.925383
21
696.120100
0
LINE
8
Layer 1
10
185.925383
20
696.120100
11
185.657003
21
697.455255
0
LINE
8
Layer 1
10
185.657003
20
697.455255
11
185.565600
21
698.832000
0
LINE
8
Layer 1
10
185.565600
20
698.832000
11
185.657003
21
700.208745
0
LINE
8
Layer 1
10
185.657003
20
700.208745
11
185.925383
21
701.543900
0
LINE
8
Layer 1
10
185.925383
20
701.543900
11
186.361994
21
702.822317
0
LINE
8
Layer 1
10
186.361994
20
702.822317
11
186.958092
21
704.028850
0
LINE
8
Layer 1
10
186.958092
20
704.028850
11
187.704931
21
705.148352
0
LINE
8
Layer 1
10
187.704931
20
705.148352
11
188.593767
21
706.165677
0
LINE
8
Layer 1
10
188.593767
20
706.165677
11
189.615855
21
707.065678
0
LINE
8
Layer 1
10
189.615855
20
707.065678
11
190.762450
21
707.833208
0
LINE
8
Layer 1
10
190.762450
20
707.833208
11
192.000448
21
708.442423
0
LINE
8
Layer 1
10
192.000448
20
708.442423
11
193.290916
21
708.877577
0
LINE
8
Layer 1
10
193.290916
20
708.877577
11
194.616363
21
709.138669
0
LINE
8
Layer 1
10
194.616363
20
709.138669
11
195.959300
21
709.225700
0
LINE
8
Layer 1
10
195.959300
20
709.225700
11
197.302237
21
709.138669
0
LINE
8
Layer 1
10
197.302237
20
709.138669
11
198.627684
21
708.877577
0
LINE
8
Layer 1
10
198.627684
20
708.877577
11
199.918152
21
708.442423
0
LINE
8
Layer 1
10
199.918152
20
708.442423
11
201.156150
21
707.833208
0
LINE
8
Layer 1
10
201.156150
20
707.833208
11
202.302745
21
707.065678
0
LINE
8
Layer 1
10
202.302745
20
707.065678
11
203.324833
21
706.165677
0
LINE
8
Layer 1
10
203.324833
20
706.165677
11
204.213669
21
705.148352
0
LINE
8
Layer 1
10
204.213669
20
705.148352
11
204.960508
21
704.028850
0
LINE
8
Layer 1
10
204.960508
20
704.028850
11
205.556606
21
702.822317
0
LINE
8
Layer 1
10
205.556606
20
702.822317
11
205.993217
21
701.543900
0
LINE
8
Layer 1
10
205.993217
20
701.543900
11
206.261597
21
700.208745
0
LINE
8
Layer 1
10
206.261597
20
700.208745
11
206.353000
21
698.832000
0
LINE
8
Layer 1
10
206.353000
20
698.832000
11
206.353000
21
698.832000
0
LINE
8
Layer 1
10
206.353000
20
396.470000
11
206.261597
21
395.093255
0
LINE
8
Layer 1
10
206.261597
20
395.093255
11
205.993217
21
393.758100
0
LINE
8
Layer 1
10
205.993217
20
393.758100
11
205.556606
21
392.479683
0
LINE
8
Layer 1
10
205.556606
20
392.479683
11
204.960508
21
391.273150
0
LINE
8
Layer 1
10
204.960508
20
391.273150
11
204.213669
21
390.153648
0
LINE
8
Layer 1
10
204.213669
20
390.153648
11
203.324833
21
389.136323
0
LINE
8
Layer 1
10
203.324833
20
389.136323
11
202.302745
21
388.236322
0
LINE
8
Layer 1
10
202.302745
20
388.236322
11
201.156150
21
387.468792
0
LINE
8
Layer 1
10
201.156150
20
387.468792
11
199.918152
21
386.859577
0
LINE
8
Layer 1
10
199.918152
20
386.859577
11
198.627684
21
386.424423
0
LINE
8
Layer 1
10
198.627684
20
386.424423
11
197.302237
21
386.163331
0
LINE
8
Layer 1
10
197.302237
20
386.163331
11
195.959300
21
386.076300
0
LINE
8
Layer 1
10
195.959300
20
386.076300
11
194.616363
21
386.163331
0
LINE
8
Layer 1
10
194.616363
20
386.163331
11
193.290916
21
386.424423
0
LINE
8
Layer 1
10
193.290916
20
386.424423
11
192.000448
21
386.859577
0
LINE
8
Layer 1
10
192.000448
20
386.859577
11
190.762450
21
387.468792
0
LINE
8
Layer 1
10
190.762450
20
387.468792
11
189.615855
21
388.236322
0
LINE
8
Layer 1
10
189.615855
20
388.236322
11
188.593767
21
389.136323
0
LINE
8
Layer 1
10
188.593767
20
389.136323
11
187.704931
21
390.153648
0
LINE
8
Layer 1
10
187.704931
20
390.153648
11
186.958092
21
391.273150
0
LINE
8
Layer 1
10
186.958092
20
391.273150
11
186.361994
21
392.479683
0
LINE
8
Layer 1
10
186.361994
20
392.479683
11
185.925383
21
393.758100
0
LINE
8
Layer 1
10
185.925383
20
393.758100
11
185.657003
21
395.093255
0
LINE
8
Layer 1
10
185.657003
20
395.093255
11
185.565600
21
396.470000
0
LINE
8
Layer 1
10
185.565600
20
396.470000
11
185.657003
21
397.846745
0
LINE
8
Layer 1
10
185.657003
20
397.846745
11
185.925383
21
399.181900
0
LINE
8
Layer 1
10
185.925383
20
399.181900
11
186.361994
21
400.460317
0
LINE
8
Layer 1
10
186.361994
20
400.460317
11
186.958092
21
401.666850
0
LINE
8
Layer 1
10
186.958092
20
401.666850
11
187.704931
21
402.786352
0
LINE
8
Layer 1
10
187.704931
20
402.786352
11
188.593767
21
403.803677
0
LINE
8
Layer 1
10
188.593767
20
403.803677
11
189.615855
21
404.703678
0
LINE
8
Layer 1
10
189.615855
20
404.703678
11
190.762450
21
405.471208
0
LINE
8
Layer 1
10
190.762450
20
405.471208
11
192.000448
21
406.080423
0
LINE
8
Layer 1
10
192.000448
20
406.080423
11
193.290916
21
406.515577
0
LINE
8
Layer 1
10
193.290916
20
406.515577
11
194.616363
21
406.776669
0
LINE
8
Layer 1
10
194.616363
20
406.776669
11
195.959300
21
406.863700
0
LINE
8
Layer 1
10
195.959300
20
406.863700
11
197.302237
21
406.776669
0
LINE
8
Layer 1
10
197.302237
20
406.776669
11
198.627684
21
406.515577
0
LINE
8
Layer 1
10
198.627684
20
406.515577
11
199.918152
21
406.080423
0
LINE
8
Layer 1
10
199.918152
20
406.080423
11
201.156150
21
405.471208
0
LINE
8
Layer 1
10
201.156150
20
405.471208
11
202.302745
21
404.703678
0
LINE
8
Layer 1
10
202.302745
20
404.703678
11
203.324833
21
403.803677
0
LINE
8
Layer 1
10
203.324833
20
403.803677
11
204.213669
21
402.786352
0
LINE
8
Layer 1
10
204.213669
20
402.786352
11
204.960508
21
401.666850
0
LINE
8
Layer 1
10
204.960508
20
401.666850
11
205.556606
21
400.460317
0
LINE
8
Layer 1
10
205.556606
20
400.460317
11
205.993217
21
399.181900
0
LINE
8
Layer 1
10
205.993217
20
399.181900
11
206.261597
21
397.846745
0
LINE
8
Layer 1
10
206.261597
20
397.846745
11
206.353000
21
396.470000
0
LINE
8
Layer 1
10
206.353000
20
396.470000
11
206.353000
21
396.470000
0
LINE
8
Layer 1
10
206.353000
20
547.651000
11
206.261597
21
546.274255
0
LINE
8
Layer 1
10
206.261597
20
546.274255
11
205.993217
21
544.939100
0
LINE
8
Layer 1
10
205.993217
20
544.939100
11
205.556606
21
543.660683
0
LINE
8
Layer 1
10
205.556606
20
543.660683
11
204.960508
21
542.454150
0
LINE
8
Layer 1
10
204.960508
20
542.454150
11
204.213669
21
541.334648
0
LINE
8
Layer 1
10
204.213669
20
541.334648
11
203.324833
21
540.317323
0
LINE
8
Layer 1
10
203.324833
20
540.317323
11
202.302745
21
539.417322
0
LINE
8
Layer 1
10
202.302745
20
539.417322
11
201.156150
21
538.649792
0
LINE
8
Layer 1
10
201.156150
20
538.649792
11
199.918152
21
538.040577
0
LINE
8
Layer 1
10
199.918152
20
538.040577
11
198.627684
21
537.605423
0
LINE
8
Layer 1
10
198.627684
20
537.605423
11
197.302237
21
537.344331
0
LINE
8
Layer 1
10
197.302237
20
537.344331
11
195.959300
21
537.257300
0
LINE
8
Layer 1
10
195.959300
20
537.257300
11
194.616363
21
537.344331
0
LINE
8
Layer 1
10
194.616363
20
537.344331
11
193.290916
21
537.605423
0
LINE
8
Layer 1
10
193.290916
20
537.605423
11
192.000448
21
538.040577
0
LINE
8
Layer 1
10
192.000448
20
538.040577
11
190.762450
21
538.649792
0
LINE
8
Layer 1
10
190.762450
20
538.649792
11
189.615855
21
539.417322
0
LINE
8
Layer 1
10
189.615855
20
539.417322
11
188.593767
21
540.317323
0
LINE
8
Layer 1
10
188.593767
20
540.317323
11
187.704931
21
541.334648
0
LINE
8
Layer 1
10
187.704931
20
541.334648
11
186.958092
21
542.454150
0
LINE
8
Layer 1
10
186.958092
20
542.454150
11
186.361994
21
543.660683
0
LINE
8
Layer 1
10
186.361994
20
543.660683
11
185.925383
21
544.939100
0
LINE
8
Layer 1
10
185.925383
20
544.939100
11
185.657003
21
546.274255
0
LINE
8
Layer 1
10
185.657003
20
546.274255
11
185.565600
21
547.651000
0
LINE
8
Layer 1
10
185.565600
20
547.651000
11
185.657003
21
549.027745
0
LINE
8
Layer 1
10
185.657003
20
549.027745
11
185.925383
21
550.362900
0
LINE
8
Layer 1
10
185.925383
20
550.362900
11
186.361994
21
551.641317
0
LINE
8
Layer 1
10
186.361994
20
551.641317
11
186.958092
21
552.847850
0
LINE
8
Layer 1
10
186.958092
20
552.847850
11
187.704931
21
553.967352
0
LINE
8
Layer 1
10
187.704931
20
553.967352
11
188.593767
21
554.984677
0
LINE
8
Layer 1
10
188.593767
20
554.984677
11
189.615855
21
555.884678
0
LINE
8
Layer 1
10
189.615855
20
555.884678
11
190.762450
21
556.652208
0
LINE
8
Layer 1
10
190.762450
20
556.652208
11
192.000448
21
557.261423
0
LINE
8
Layer 1
10
192.000448
20
557.261423
11
193.290916
21
557.696577
0
LINE
8
Layer 1
10
193.290916
20
557.696577
11
194.616363
21
557.957669
0
LINE
8
Layer 1
10
194.616363
20
557.957669
11
195.959300
21
558.044700
0
LINE
8
Layer 1
10
195.959300
20
558.044700
11
197.302237
21
557.957669
0
LINE
8
Layer 1
10
197.302237
20
557.957669
11
198.627684
21
557.696577
0
LINE
8
Layer 1
10
198.627684
20
557.696577
11
199.918152
21
557.261423
0
LINE
8
Layer 1
10
199.918152
20
557.261423
11
201.156150
21
556.652208
0
LINE
8
Layer 1
10
201.156150
20
556.652208
11
202.302745
21
555.884678
0
LINE
8
Layer 1
10
202.302745
20
555.884678
11
203.324833
21
554.984677
0
LINE
8
Layer 1
10
203.324833
20
554.984677
11
204.213669
21
553.967352
0
LINE
8
Layer 1
10
204.213669
20
553.967352
11
204.960508
21
552.847850
0
LINE
8
Layer 1
10
204.960508
20
552.847850
11
205.556606
21
551.641317
0
LINE
8
Layer 1
10
205.556606
20
551.641317
11
205.993217
21
550.362900
0
LINE
8
Layer 1
10
205.993217
20
550.362900
11
206.261597
21
549.027745
0
LINE
8
Layer 1
10
206.261597
20
549.027745
11
206.353000
21
547.651000
0
LINE
8
Layer 1
10
206.353000
20
547.651000
11
206.353000
21
547.651000
0
LINE
8
Layer 1
10
281.944000
20
472.061000
11
281.852597
21
470.684255
0
LINE
8
Layer 1
10
281.852597
20
470.684255
11
281.584217
21
469.349100
0
LINE
8
Layer 1
10
281.584217
20
469.349100
11
281.147606
21
468.070683
0
LINE
8
Layer 1
10
281.147606
20
468.070683
11
280.551508
21
466.864150
0
LINE
8
Layer 1
10
280.551508
20
466.864150
11
279.804669
21
465.744648
0
LINE
8
Layer 1
10
279.804669
20
465.744648
11
278.915833
21
464.727323
0
LINE
8
Layer 1
10
278.915833
20
464.727323
11
277.893745
21
463.827322
0
LINE
8
Layer 1
10
277.893745
20
463.827322
11
276.747150
21
463.059792
0
LINE
8
Layer 1
10
276.747150
20
463.059792
11
275.509152
21
462.450577
0
LINE
8
Layer 1
10
275.509152
20
462.450577
11
274.218684
21
462.015423
0
LINE
8
Layer 1
10
274.218684
20
462.015423
11
272.893237
21
461.754331
0
LINE
8
Layer 1
10
272.893237
20
461.754331
11
271.550300
21
461.667300
0
LINE
8
Layer 1
10
271.550300
20
461.667300
11
270.207363
21
461.754331
0
LINE
8
Layer 1
10
270.207363
20
461.754331
11
268.881916
21
462.015423
0
LINE
8
Layer 1
10
268.881916
20
462.015423
11
267.591448
21
462.450577
0
LINE
8
Layer 1
10
267.591448
20
462.450577
11
266.353450
21
463.059792
0
LINE
8
Layer 1
10
266.353450
20
463.059792
11
265.206855
21
463.827322
0
LINE
8
Layer 1
10
265.206855
20
463.827322
11
264.184767
21
464.727323
0
LINE
8
Layer 1
10
264.184767
20
464.727323
11
263.295931
21
465.744648
0
LINE
8
Layer 1
10
263.295931
20
465.744648
11
262.549092
21
466.864150
0
LINE
8
Layer 1
10
262.549092
20
466.864150
11
261.952994
21
468.070683
0
LINE
8
Layer 1
10
261.952994
20
468.070683
11
261.516383
21
469.349100
0
LINE
8
Layer 1
10
261.516383
20
469.349100
11
261.248003
21
470.684255
0
LINE
8
Layer 1
10
261.248003
20
470.684255
11
261.156600
21
472.061000
0
LINE
8
Layer 1
10
261.156600
20
472.061000
11
261.248003
21
473.437745
0
LINE
8
Layer 1
10
261.248003
20
473.437745
11
261.516383
21
474.772900
0
LINE
8
Layer 1
10
261.516383
20
474.772900
11
261.952994
21
476.051317
0
LINE
8
Layer 1
10
261.952994
20
476.051317
11
262.549092
21
477.257850
0
LINE
8
Layer 1
10
262.549092
20
477.257850
11
263.295931
21
478.377352
0
LINE
8
Layer 1
10
263.295931
20
478.377352
11
264.184767
21
479.394677
0
LINE
8
Layer 1
10
264.184767
20
479.394677
11
265.206855
21
480.294678
0
LINE
8
Layer 1
10
265.206855
20
480.294678
11
266.353450
21
481.062208
0
LINE
8
Layer 1
10
266.353450
20
481.062208
11
267.591448
21
481.671423
0
LINE
8
Layer 1
10
267.591448
20
481.671423
11
268.881916
21
482.106577
0
LINE
8
Layer 1
10
268.881916
20
482.106577
11
270.207363
21
482.367669
0
LINE
8
Layer 1
10
270.207363
20
482.367669
11
271.550300
21
482.454700
0
LINE
8
Layer 1
10
271.550300
20
482.454700
11
272.893237
21
482.367669
0
LINE
8
Layer 1
10
272.893237
20
482.367669
11
274.218684
21
482.106577
0
LINE
8
Layer 1
10
274.218684
20
482.106577
11
275.509152
21
481.671423
0
LINE
8
Layer 1
10
275.509152
20
481.671423
11
276.747150
21
481.062208
0
LINE
8
Layer 1
10
276.747150
20
481.062208
11
277.893745
21
480.294678
0
LINE
8
Layer 1
10
277.893745
20
480.294678
11
278.915833
21
479.394677
0
LINE
8
Layer 1
10
278.915833
20
479.394677
11
279.804669
21
478.377352
0
LINE
8
Layer 1
10
279.804669
20
478.377352
11
280.551508
21
477.257850
0
LINE
8
Layer 1
10
280.551508
20
477.257850
11
281.147606
21
476.051317
0
LINE
8
Layer 1
10
281.147606
20
476.051317
11
281.584217
21
474.772900
0
LINE
8
Layer 1
10
281.584217
20
474.772900
11
281.852597
21
473.437745
0
LINE
8
Layer 1
10
281.852597
20
473.437745
11
281.944000
21
472.061000
0
LINE
8
Layer 1
10
281.944000
20
472.061000
11
281.944000
21
472.061000
0
LINE
8
Layer 1
10
357.534000
20
396.470000
11
357.442597
21
395.093255
0
LINE
8
Layer 1
10
357.442597
20
395.093255
11
357.174217
21
393.758100
0
LINE
8
Layer 1
10
357.174217
20
393.758100
11
356.737606
21
392.479683
0
LINE
8
Layer 1
10
356.737606
20
392.479683
11
356.141508
21
391.273150
0
LINE
8
Layer 1
10
356.141508
20
391.273150
11
355.394669
21
390.153648
0
LINE
8
Layer 1
10
355.394669
20
390.153648
11
354.505833
21
389.136323
0
LINE
8
Layer 1
10
354.505833
20
389.136323
11
353.483745
21
388.236322
0
LINE
8
Layer 1
10
353.483745
20
388.236322
11
352.337150
21
387.468792
0
LINE
8
Layer 1
10
352.337150
20
387.468792
11
351.099152
21
386.859577
0
LINE
8
Layer 1
10
351.099152
20
386.859577
11
349.808684
21
386.424423
0
LINE
8
Layer 1
10
349.808684
20
386.424423
11
348.483237
21
386.163331
0
LINE
8
Layer 1
10
348.483237
20
386.163331
11
347.140300
21
386.076300
0
LINE
8
Layer 1
10
347.140300
20
386.076300
11
345.797363
21
386.163331
0
LINE
8
Layer 1
10
345.797363
20
386.163331
11
344.471916
21
386.424423
0
LINE
8
Layer 1
10
344.471916
20
386.424423
11
343.181448
21
386.859577
0
LINE
8
Layer 1
10
343.181448
20
386.859577
11
341.943450
21
387.468792
0
LINE
8
Layer 1
10
341.943450
20
387.468792
11
340.796855
21
388.236322
0
LINE
8
Layer 1
10
340.796855
20
388.236322
11
339.774767
21
389.136323
0
LINE
8
Layer 1
10
339.774767
20
389.136323
11
338.885931
21
390.153648
0
LINE
8
Layer 1
10
338.885931
20
390.153648
11
338.139092
21
391.273150
0
LINE
8
Layer 1
10
338.139092
20
391.273150
11
337.542994
21
392.479683
0
LINE
8
Layer 1
10
337.542994
20
392.479683
11
337.106383
21
393.758100
0
LINE
8
Layer 1
10
337.106383
20
393.758100
11
336.838003
21
395.093255
0
LINE
8
Layer 1
10
336.838003
20
395.093255
11
336.746600
21
396.470000
0
LINE
8
Layer 1
10
336.746600
20
396.470000
11
336.838003
21
397.846745
0
LINE
8
Layer 1
10
336.838003
20
397.846745
11
337.106383
21
399.181900
0
LINE
8
Layer 1
10
337.106383
20
399.181900
11
337.542994
21
400.460317
0
LINE
8
Layer 1
10
337.542994
20
400.460317
11
338.139092
21
401.666850
0
LINE
8
Layer 1
10
338.139092
20
401.666850
11
338.885931
21
402.786352
0
LINE
8
Layer 1
10
338.885931
20
402.786352
11
339.774767
21
403.803677
0
LINE
8
Layer 1
10
339.774767
20
403.803677
11
340.796855
21
404.703678
0
LINE
8
Layer 1
10
340.796855
20
404.703678
11
341.943450
21
405.471208
0
LINE
8
Layer 1
10
341.943450
20
405.471208
11
343.181448
21
406.080423
0
LINE
8
Layer 1
10
343.181448
20
406.080423
11
344.471916
21
406.515577
0
LINE
8
Layer 1
10
344.471916
20
406.515577
11
345.797363
21
406.776669
0
LINE
8
Layer 1
10
345.797363
20
406.776669
11
347.140300
21
406.863700
0
LINE
8
Layer 1
10
347.140300
20
406.863700
11
348.483237
21
406.776669
0
LINE
8
Layer 1
10
348.483237
20
406.776669
11
349.808684
21
406.515577
0
LINE
8
Layer 1
10
349.808684
20
406.515577
11
351.099152
21
406.080423
0
LINE
8
Layer 1
10
351.099152
20
406.080423
11
352.337150
21
405.471208
0
LINE
8
Layer 1
10
352.337150
20
405.471208
11
353.483745
21
404.703678
0
LINE
8
Layer 1
10
353.483745
20
404.703678
11
354.505833
21
403.803677
0
LINE
8
Layer 1
10
354.505833
20
403.803677
11
355.394669
21
402.786352
0
LINE
8
Layer 1
10
355.394669
20
402.786352
11
356.141508
21
401.666850
0
LINE
8
Layer 1
10
356.141508
20
401.666850
11
356.737606
21
400.460317
0
LINE
8
Layer 1
10
356.737606
20
400.460317
11
357.174217
21
399.181900
0
LINE
8
Layer 1
10
357.174217
20
399.181900
11
357.442597
21
397.846745
0
LINE
8
Layer 1
10
357.442597
20
397.846745
11
357.534000
21
396.470000
0
LINE
8
Layer 1
10
357.534000
20
396.470000
11
357.534000
21
396.470000
0
LINE
8
Layer 1
10
687.298000
20
733.709000
11
409.221000
21
733.709000
0
LINE
8
Layer 1
10
409.221000
20
361.593000
11
687.298000
21
361.593000
0
LINE
8
Layer 1
10
409.221000
20
733.709000
11
120.369000
21
733.709000
0
LINE
8
Layer 1
10
120.369000
20
361.593000
11
409.221000
21
361.593000
0
LINE
8
Layer 1
10
409.221000
20
733.709000
11
409.221000
21
361.593000
 0 
ENDSEC
 0 
EOF