<?xml version="1.0" encoding="UTF-8" standalone="no"?>
<svg
   xmlns:dc="http://purl.org/dc/elements/1.1/"
   xmlns:cc="http://creativecommons.org/ns#"
   xmlns:rdf="http://www.w3.org/1999/02/22-rdf-syntax-ns#"
   xmlns:svg="http://www.w3.org/2000/svg"
   xmlns="http://www.w3.org/2000/svg"
   xmlns:sodipodi="http://sodipodi.sourceforge.net/DTD/sodipodi-0.dtd"
   xmlns:inkscape="http://www.inkscape.org/namespaces/inkscape"
   width="103.52753mm"
   height="72.333603mm"
   viewBox="0 0 103.52753 72.333603"
   version="1.1"
   id="svg8"
   inkscape:version="1.0 (4035a4fb49, 2020-05-01)"
   sodipodi:docname="gravureSpaceX.svg">
  <defs
     id="defs2" />
  <sodipodi:namedview
     inkscape:snap-global="false"
     id="base"
     pagecolor="#ffffff"
     bordercolor="#666666"
     borderopacity="1.0"
     inkscape:pageopacity="0.0"
     inkscape:pageshadow="2"
     inkscape:zoom="1.9275568"
     inkscape:cx="191.34575"
     inkscape:cy="104.02503"
     inkscape:document-units="mm"
     inkscape:current-layer="layer1"
     inkscape:document-rotation="0"
     showgrid="false"
     showguides="true"
     inkscape:guide-bbox="true"
     fit-margin-top="0"
     fit-margin-left="0"
     fit-margin-right="0"
     fit-margin-bottom="0"
     inkscape:window-width="1920"
     inkscape:window-height="1017"
     inkscape:window-x="1072"
     inkscape:window-y="161"
     inkscape:window-maximized="1" />
  <metadata
     id="metadata5">
    <rdf:RDF>
      <cc:Work
         rdf:about="">
        <dc:format>image/svg+xml</dc:format>
        <dc:type
           rdf:resource="http://purl.org/dc/dcmitype/StillImage" />
        <dc:title></dc:title>
      </cc:Work>
    </rdf:RDF>
  </metadata>
  <g
     inkscape:label="Calque 1"
     inkscape:groupmode="layer"
     id="layer1"
     transform="translate(-3.1884384,-35.743812)">
    <g
       transform="translate(-17.569737,-0.82358143)"
       id="g2538">
      <path
         id="path1482"
         style="fill:none;stroke:#ff0000;stroke-width:0.825094"
         d="m 456.34766,129.42773 c -1.08519,-0.0629 -2.16589,0.0973 -3.18555,0.58789 -8.16397,15.19445 -21.91252,26.65705 -36.96094,34.67579 -4.33538,2.55142 -8.49332,5.49326 -12.95312,7.77734 -7.01689,0.63214 -12.63915,5.58164 -17.01172,10.72656 -1.36422,1.24115 -2.74414,2.46707 -4.05469,3.76367 -0.94976,-2.26044 -2.90547,-4.08575 -5.25781,-4.81445 -6.82164,-12.04363 -9.05053,-26.31187 -17.16602,-37.66015 -32.89155,6.65721 -64.00195,19.56075 -95.71289,30.17968 -7.79489,1.51678 -15.74679,2.29722 -23.67773,2.40235 -7.33212,-1.35844 -13.74212,-5.45988 -20.81836,-7.63086 -39.7307,-15.41164 -80.81067,-27.95313 -123.091799,-33.93164 -3.912158,-1.24946 -7.9162,1.23793 -10.072265,4.41015 -6.310704,7.07933 -8.143201,16.73829 -9.695313,25.79297 -6.638706,35.54611 -6.939323,72.0563 -3.220703,107.95117 1.78687,14.85013 4.831078,29.93824 12.341797,43.05078 0.48583,0.73759 1.153562,1.26054 1.90625,1.60938 5.007344,12.37718 7.333213,32.54774 6.929687,45.79297 h 9.333986 c 0.002,0.31249 0.0114,0.61669 0.0449,0.90039 v 36.96484 h 301.5332 V 366.2207 c 0,-0.14759 0.0113,-0.29549 0,-0.4414 v -0.76758 h -0.0625 c -0.0378,-0.30399 -0.0928,-0.60269 -0.1582,-0.90039 h 9.60156 c -0.12094,-13.10483 0.91263,-42.15442 6.54297,-55.98633 1.36183,-1.31324 2.40051,-2.9575 2.87696,-4.76367 6.5831,-16.17545 13.76428,-32.12287 19.52734,-48.61914 -0.60151,-4.90785 -4.17166,-9.07871 -8.54102,-11.17188 0.0189,-9.00487 5.19693,-17.39905 3.82032,-26.49219 -2.06249,-7.59404 -8.50536,-12.81829 -14.76758,-17.01953 -3.31559,-2.52745 -8.05916,-3.47286 -11.83203,-1.38476 -2.46203,0.95119 -4.63669,2.47906 -6.73633,4.05469 -2.34142,-0.54744 -4.60952,-1.55422 -7.04883,-1.56641 4.10937,-5.01458 11.47096,-6.63931 14.375,-12.75586 0.9908,-2.69673 0.61969,-5.67818 -0.2168,-8.36328 4.20019,-5.44161 11.06221,-7.54069 16.40235,-11.56836 11.65364,-7.215 22.91846,-16.14855 29.38281,-28.50586 1.47292,-2.73376 2.67836,-5.73195 2.80664,-8.85742 -1.55674,-0.8531 -3.37494,-1.57876 -5.18359,-1.6836 z"
         transform="matrix(0.26458333,0,0,0.26458333,2.0603914,2.4355473)" />
      <path
         id="path960-1"
         d="m 51.924597,88.398918 c -0.150679,-0.02733 -0.374239,-0.126734 -0.462841,-0.20594 -0.118063,-0.105563 -0.226513,-0.319057 -0.267033,-0.525696 -0.06131,-0.312574 -0.263563,-0.288051 2.374617,-0.288051 h 2.336304 l 0.04262,-0.08301 c 0.0641,-0.124727 0.06191,-1.006436 -0.0027,-1.079538 -0.0371,-0.04196 -0.39402,-0.05492 -1.964697,-0.07098 -1.723656,-0.01769 -1.933832,-0.02633 -2.060487,-0.08437 -0.223128,-0.102332 -0.393901,-0.280245 -0.473665,-0.4935 -0.06877,-0.183791 -0.06992,-0.199916 -0.06992,-1.027055 v -0.840331 l 0.08212,-0.205189 c 0.09157,-0.228734 0.274547,-0.407232 0.502722,-0.490414 0.09379,-0.03424 0.640821,-0.0498 2.08862,-0.05958 2.123621,-0.01443 2.182174,-0.01 2.497109,0.187635 0.153039,0.09601 0.325992,0.314895 0.374172,0.473559 0.02088,0.06869 0.02148,0.129514 0.0027,0.199158 l -0.02786,0.100238 H 54.73068 c -1.440498,0 -2.183424,0.0129 -2.218652,0.03863 -0.04814,0.03511 -0.05299,0.08233 -0.05299,0.517084 0,0.410471 0.0074,0.486931 0.04854,0.538316 0.04329,0.05346 0.251035,0.06131 1.937316,0.07274 1.696973,0.0115 1.905473,0.01948 2.053093,0.07793 0.250031,0.09904 0.391633,0.235835 0.489976,0.473339 l 0.08504,0.205422 0.0091,0.791093 c 0.006,0.504531 -0.0027,0.866702 -0.02254,0.999833 -0.03876,0.254553 -0.164097,0.491359 -0.323898,0.611923 -0.239426,0.18062 -0.379937,0.190541 -2.633691,0.185919 -1.15212,-0.002 -2.131726,-0.01097 -2.176901,-0.01908 z m 6.777165,-2.64177 v -2.667815 l 0.08071,-0.07841 0.08071,-0.07842 2.445331,0.01044 2.445318,0.01044 0.186651,0.08633 c 0.229818,0.106248 0.435286,0.356366 0.481339,0.585944 0.0389,0.194444 0.03963,1.782063 5.58e-4,1.972743 -0.03557,0.174809 -0.191352,0.416762 -0.330733,0.513754 -0.252631,0.175793 -0.336066,0.182655 -2.241246,0.184563 -1.713197,0.002 -1.796319,0.0053 -1.855178,0.07185 -0.06104,0.06954 -0.06157,0.079 -0.06157,1.063167 v 0.993071 h -0.616099 -0.616112 z m 4.326448,-0.48173 c 0.18729,-0.06636 0.224299,-0.191984 0.213508,-0.724482 -0.0097,-0.477362 -0.03644,-0.54825 -0.229911,-0.609469 -0.05878,-0.01855 -0.752767,-0.03424 -1.542238,-0.03471 -1.297839,-5.59e-4 -1.440233,0.0047 -1.485514,0.06091 -0.04422,0.05466 -0.05007,0.126761 -0.05007,0.623167 0,0.524964 0.004,0.566961 0.05958,0.647795 l 0.05958,0.08643 1.425963,-0.0027 c 0.993296,-0.002 1.463345,-0.01629 1.5492,-0.04661 z m 5.769899,2.878782 c -0.0798,-0.148923 -0.200062,-0.37416 -0.26718,-0.500522 -0.06711,-0.126362 -0.174921,-0.273423 -0.239545,-0.326797 l -0.117479,-0.09708 h -1.710311 c -0.940655,0 -1.709912,-0.01263 -1.70946,-0.02793 4.05e-4,-0.01536 0.127386,-0.23809 0.282074,-0.49485 l 0.28125,-0.46685 1.16631,-0.0098 1.166296,-0.0098 0.01842,-0.09975 c 0.01416,-0.07714 -0.0013,-0.138257 -0.06943,-0.26952 -0.04827,-0.09337 -0.283064,-0.560877 -0.521825,-1.038871 l -0.434089,-0.869089 0.318438,-0.532298 c 0.175148,-0.292766 0.326013,-0.535929 0.335235,-0.540357 0.01543,-0.0078 3.017286,5.4489 3.037992,5.521975 0.0047,0.01775 -0.306025,0.03225 -0.691209,0.03225 h -0.700351 z m 3.585909,0.213799 c -0.348068,-0.09572 -0.553157,-0.350927 -0.619084,-0.770188 -0.04581,-0.290951 -0.03896,-3.623357 0.0074,-3.869619 0.08088,-0.425438 0.316477,-0.674339 0.71613,-0.756643 0.125637,-0.02593 0.908678,-0.03564 2.272743,-0.02853 l 2.08108,0.01097 0.191677,0.0878 c 0.143531,0.0657 0.219971,0.127805 0.304316,0.247212 0.105603,0.149528 0.202257,0.429674 0.202257,0.586284 0,0.06523 -0.09109,0.06807 -2.224829,0.06919 -1.806592,5.52e-4 -2.233846,0.01051 -2.272751,0.05087 -0.04422,0.04588 -0.04794,0.16893 -0.04794,1.635593 v 1.585997 l 0.06337,0.08125 0.06337,0.08125 h 2.198099 2.198086 l -0.01815,0.158731 c -0.02919,0.255723 -0.139342,0.529698 -0.25815,0.641997 -0.244972,0.23154 -0.165241,0.224199 -2.521579,0.232185 -1.733696,0.0053 -2.185705,-0.0027 -2.336536,-0.04422 z m 6.827274,-1.773066 v -1.830037 h 1.862013 1.862014 v 0.485514 0.485514 h -1.17268 -1.17268 l -0.05958,0.08643 c -0.05679,0.08252 -0.05958,0.118828 -0.05958,0.798421 0,0.616624 0.0066,0.718829 0.04528,0.763206 0.0371,0.04202 0.414055,0.05466 2.101605,0.06991 l 2.056351,0.01868 0.0074,0.476185 0.0074,0.476185 h -2.739082 -2.739068 z m 6.985253,1.697185 c -0.03158,-0.07303 -0.05652,-0.152892 -0.05526,-0.177401 0.0027,-0.04987 0.449768,-0.609556 0.846648,-1.059484 2.293031,-2.599507 5.402142,-4.678273 8.817179,-5.89519 1.183844,-0.421854 2.160225,-0.693882 3.467573,-0.966088 0.845425,-0.176039 1.191245,-0.229552 2.186915,-0.338407 0.46687,-0.051 0.93439,-0.102172 1.03894,-0.113622 0.35036,-0.03837 0.16628,0.01742 -0.24699,0.07479 -0.91616,0.127359 -2.24496,0.423763 -3.184972,0.710425 -1.039177,0.316902 -2.539624,0.91705 -3.45315,1.38118 -2.935826,1.491591 -5.324905,3.457033 -7.323939,6.025243 l -0.382451,0.491352 h -0.826514 -0.826508 z m 4.652321,-0.543948 c -0.368973,-0.369591 -0.76062,-0.757554 -0.870312,-0.862127 -0.109706,-0.104592 -0.19596,-0.202303 -0.191685,-0.217144 0.01064,-0.0369 0.412247,-0.480527 0.754683,-0.833715 l 0.281409,-0.290239 0.718058,0.717439 c 0.394925,0.394593 0.981262,0.978828 1.302959,1.298304 0.321696,0.31949 0.590199,0.599742 0.596682,0.622775 0.0067,0.02307 -5.58e-4,0.08682 -0.01609,0.141695 l -0.02779,0.09981 -0.938527,-0.002 -0.93854,-0.002 -0.670862,-0.671986 z M 87.617728,84.534725 C 87.263815,84.182568 86.88798,83.810191 86.782576,83.707227 86.677139,83.604264 86.515377,83.442229 86.423105,83.347151 l -0.16778,-0.17284 0.052,-0.138404 0.052,-0.138404 h 0.906418 0.906424 l 0.509964,0.509983 c 0.280485,0.280472 0.580465,0.57879 0.666626,0.66291 0.169782,0.165779 0.192263,0.226233 0.09665,0.259925 -0.03384,0.01197 -0.311284,0.207044 -0.616431,0.433557 -0.305161,0.226513 -0.557759,0.411681 -0.561343,0.411488 -0.004,-1.39e-4 -0.29609,-0.28849 -0.650023,-0.640641 z m -8.406436,-1.07701 v -0.523222 l 2.75879,0.0098 2.758783,0.0098 v 0.504199 0.504192 l -2.758783,0.0098 -2.75879,0.0098 z"
         style="fill:#000000;stroke-width:0.0319793" />
      <text
         id="text964-1"
         y="96.317665"
         x="50.31139"
         style="font-style:normal;font-variant:normal;font-weight:normal;font-stretch:normal;font-size:5.58028px;line-height:1.25;font-family:monospace;-inkscape-font-specification:monospace;letter-spacing:0px;word-spacing:0px;stroke-width:0.139507"
         xml:space="preserve"><tspan
           style="font-style:normal;font-variant:normal;font-weight:bold;font-stretch:normal;font-family:monospace;-inkscape-font-specification:'monospace Bold';stroke-width:0.139507"
           y="96.317665"
           x="50.31139"
           id="tspan962-8"
           sodipodi:role="line">raptor engine</tspan></text>
      <path
         id="path966-6"
         d="M 51.192642,90.447895 H 93.541849"
         style="fill:none;stroke:#000000;stroke-width:0.641652;stroke-linecap:round;stroke-linejoin:round;stroke-miterlimit:4;stroke-dasharray:none;stroke-opacity:1" />
      <path
         d="m 122.57422,37.238281 c -1.59235,2.246009 -2.57474,5.16687 -5.17529,6.489454 -2.85195,1.729641 -5.69827,3.468507 -8.53955,5.215624 -1.20721,-0.432778 -2.68601,0.379473 -2.95118,1.634766 -0.88811,0.976226 -2.65603,1.242185 -2.86132,2.75 -0.24817,0.778355 -0.43,1.575373 -0.63672,2.365234 -0.24714,-0.710168 -0.48369,-1.42385 -0.71094,-2.140625 1.05787,-0.0339 1.40083,-1.96277 0.21482,-2.071027 -0.55021,0.01282 -1.29171,-0.165228 -1.28808,-0.838084 -1.089003,-3.074377 -1.98855,-6.239985 -3.401351,-9.182685 -0.591323,-0.523395 -1.294301,0.275477 -1.948573,0.253631 -4.776268,0.944293 -9.249382,2.938194 -13.888058,4.359826 -3.42117,1.195232 -6.946943,2.186164 -10.184853,3.825996 -0.622439,0.160993 -1.199329,-0.279383 -1.838526,-0.191244 -0.74801,-0.0267 -1.496095,0.04628 -2.241552,0.09163 -0.315522,0.273022 -0.653461,1.032525 -1.158203,0.628907 -1.736216,-0.541017 -3.4362,-1.181873 -5.057965,-2.005977 -6.852857,-3.028556 -14.005265,-5.37386 -21.290038,-7.111143 -4.301305,-0.988237 -8.62975,-1.88537 -13.009419,-2.449287 -1.655911,0.405388 -2.134611,2.272133 -2.697339,3.654149 -1.753153,5.072616 -2.092453,10.483935 -2.45437,15.797596 -0.36093,7.493587 -0.09139,15.076334 1.5119,22.424566 0.494961,1.913783 1.025281,3.978689 2.434731,5.432283 1.093625,0.71138 2.378659,-0.0458 3.541928,-0.114442 10.913021,-1.923041 21.642171,-5.033435 31.73092,-9.645728 1.751292,-0.752203 3.434324,-1.670851 5.275283,-2.188092 0.50819,-0.307759 0.946706,-0.273922 1.395071,0.109532 0.780293,0.307407 1.312351,0.933834 1.824376,1.55748 2.042109,1.985995 4.9913,2.541173 7.716797,2.777344 0.43485,0.321392 0.676824,1.050159 1.353515,0.876953 0.620939,-0.01496 0.828565,-0.658457 1.101563,-1.0625 0.979758,-0.6902 2.250523,-0.218051 3.312645,-0.01247 0.784734,0.204649 1.396243,1.116212 2.277199,0.782002 0.409397,-0.14687 0.838963,0.0786 0.871868,0.52249 0.458643,1.166463 1.966077,2.055915 3.113295,1.249592 0.644111,-0.36333 0.894104,-1.139874 1.247258,-1.697863 0.406889,0.059 0.483127,0.695606 0.971446,0.657555 1.300442,0.335042 2.591924,-0.39359 3.903554,-0.182946 0.986667,-0.06751 1.536933,-1.031399 1.642579,-1.916015 -0.03555,-0.391202 0.312954,-0.847637 0.697265,-0.488282 0.609995,0.268103 1.280164,-0.0076 1.728934,-0.416254 1.51812,-0.363818 3.15789,0.03772 4.61482,-0.656011 0.55584,-0.324299 1.00174,-0.607059 1.24017,0.187011 1.64024,2.469076 3.65772,4.657135 5.45123,7.010254 0.4991,0.674716 1.52429,1.303052 2.26953,0.607422 0.7957,-0.797354 0.93518,-1.998472 1.50153,-2.94584 1.60894,-3.617178 3.27009,-7.221341 4.69769,-10.911582 0.23177,-1.108771 -0.60682,-2.078303 -1.59111,-2.449024 -0.40089,-0.221434 -0.81011,-0.427216 -1.20186,-0.672069 0.57184,-2.37703 1.79391,-4.658329 1.72898,-7.147101 -0.50775,-1.849805 -2.44204,-2.676793 -3.57578,-4.075772 -0.99771,-0.866182 -2.90464,-0.976306 -3.58288,0.342013 -0.39765,0.472184 -1.08574,0.467676 -1.57813,0.81836 -0.60492,0.271938 -0.38029,-0.818733 -0.96289,-0.748047 -0.74408,-0.08532 -1.30356,0.594813 -2.0332,0.59375 -0.1324,-0.510253 0.38416,-0.944123 0.56516,-1.39247 0.51174,-0.696028 1.14304,-1.428494 1.87833,-1.830781 1.71441,0.204549 3.17481,-2.041452 2.02916,-3.446671 -0.27844,-0.214087 -0.6336,-0.71089 -0.10757,-0.871702 3.26236,-2.007678 6.71864,-3.745787 9.75541,-6.089397 1.48302,-1.549074 2.31768,-3.565724 3.51623,-5.318198 0.0772,-0.605153 -0.7364,-0.676071 -1.14844,-0.746094 z m 0.29492,0.244141 c 0.43215,0.01734 0.84056,0.568251 0.38425,0.856126 -1.4977,2.314329 -2.7169,5.117614 -5.35684,6.351365 -2.66083,1.587738 -5.32166,3.175475 -7.98249,4.763212 -0.1908,-0.231372 -0.70111,-0.102847 -0.7207,-0.482422 3.35842,-2.097794 6.87601,-3.973121 10.06867,-6.315728 1.48954,-1.502545 2.19213,-3.570037 3.51727,-5.197944 z m -96.205078,1.576172 c 9.154876,1.436179 18.260636,3.433315 26.950518,6.70149 3.725149,1.343759 7.386101,2.873284 10.942061,4.614916 0.359728,-0.26987 0.634448,0.03152 0.998047,0.107422 1.00831,0.316904 1.79127,1.231794 1.780719,2.311712 0.981161,5.938844 0.856588,12.011195 0.260028,17.981537 -0.184724,1.184991 -0.367089,2.812989 -1.712818,3.226897 -1.029815,0.336567 -2.115881,0.532507 -3.037367,1.132906 -10.501508,5.047879 -21.73027,8.505479 -33.192323,10.54811 -1.156603,0.194646 -2.329705,0.485878 -3.490124,0.541078 -1.520635,-0.512515 -1.887624,-2.293982 -2.409774,-3.617331 -1.655156,-5.221196 -1.957031,-10.745205 -2.164443,-16.181969 -0.177077,-7.214785 0.211091,-14.500184 1.854773,-21.546456 0.499468,-1.888367 1.065818,-3.866373 2.361329,-5.36914 0.248375,-0.213214 0.532868,-0.391551 0.859374,-0.451172 z m 70.240235,2.498047 c 0.392887,0.07443 -0.09226,0.801548 -0.253906,0.333984 -0.08077,-0.169406 0.06587,-0.372394 0.253906,-0.333984 z m -0.722656,0.398437 c 0.171511,0.602526 -0.454438,0.899158 -0.915792,1.042345 -1.952693,0.985175 -4.032748,1.810678 -6.173355,2.230054 -0.503807,-0.115313 -1.09962,-0.175611 -1.475043,0.229899 -0.876696,0.254998 -1.890819,-0.08689 -2.665668,0.521118 -4.398105,1.785303 -8.58419,4.332967 -13.358033,4.992209 -0.492422,-0.0797 -0.474555,-0.996216 0.05397,-1.03225 3.609088,-1.849717 7.602302,-2.733116 11.382498,-4.153261 3.719903,-1.25783 7.412289,-2.636494 11.212852,-3.626747 0.622106,-0.117128 1.236326,-0.274756 1.862397,-0.371336 l 0.0413,0.09107 z m 1.345703,0.681641 c 0.776041,1.788563 1.289289,3.690363 1.988378,5.514672 0.367155,1.062818 0.734308,2.125635 1.101468,3.188453 -0.651838,0.165966 -1.430059,-0.273553 -1.400659,-0.991389 -0.885557,-2.742439 -2.028162,-5.404569 -2.698953,-8.213689 0.172689,0.206437 0.594679,0.236152 0.712891,-0.04297 0.09896,0.181641 0.197916,0.363281 0.296875,0.544922 z m -1.203125,0.560547 c 0.265632,0.446263 0.649319,1.025126 0.496093,1.570312 -0.454116,-0.327199 -0.346978,-0.989745 -0.552734,-1.457031 -0.0034,-0.01606 -0.0052,-0.144079 0.05664,-0.113281 z m -0.855469,0.236328 c 0.690111,2.532024 1.314074,5.081261 1.951172,7.626953 -0.647597,-0.08223 -1.301342,-0.409008 -1.957031,-0.191406 -1.582147,-1.656261 -2.868041,-3.626899 -4.759766,-4.960938 -0.327866,0.128193 -0.709206,-0.458055 -0.198465,-0.448712 1.680845,-0.578126 3.376391,-1.165594 4.909402,-2.080585 z m 0.490234,0.07617 c 0.150529,0.555992 0.52727,1.089288 0.41211,1.689453 -0.420782,-0.386347 -0.287603,-1.066716 -0.505868,-1.544836 -0.0033,-0.02844 0.01598,-0.264504 0.09376,-0.144617 z m -7.445312,1.902343 c 0.230282,0.401269 0.26403,1.005076 -0.126953,1.320313 -0.108179,-0.386933 0.140263,-0.792927 -0.02344,-1.179688 0.0084,-0.05213 0.05267,-0.278857 0.150391,-0.140625 z M 88.140625,45.5 c -0.02352,0.321353 -0.22504,-0.327917 0,0 z m 1.242187,-0.04297 c 0.422875,-0.0041 0.57986,0.288153 0.06055,0.285157 -0.377442,0.223978 -0.106232,0.939693 0.330079,0.839843 -0.370141,0.370493 -1.170668,-0.06714 -0.925782,-0.591797 -0.130066,-0.389411 0.215098,-0.527063 0.535156,-0.533203 z m 7.277344,0.439453 c 0.286257,0.436139 0.404718,0.970444 0.373047,1.488282 -0.5737,-0.08487 -0.296508,-0.869318 -0.574009,-1.233984 -0.0874,-0.170142 -0.05252,-0.674984 0.200962,-0.254298 z m -8.80664,-0.107422 c 0.393316,0.06363 0.08425,0.78733 -0.232422,0.53125 -2.057329,-0.286622 -3.766865,1.161458 -5.606582,1.812092 -2.812438,1.212341 -5.546477,2.65306 -8.448402,3.629196 -0.799235,0.11109 -1.608436,0.02344 -2.411813,0.02551 -0.192184,-0.655582 0.762774,-0.719178 1.179842,-0.543919 2.129211,0.159989 3.899245,-1.262842 5.808601,-1.963639 2.758038,-1.213037 5.461206,-2.621553 8.351768,-3.480914 0.452982,-0.0144 0.905868,-0.0145 1.359008,-0.0096 z m 1.845703,0.115235 c 2.082445,0.383504 3.050062,2.485963 4.449094,3.82909 0.251644,0.46144 1.146931,0.975408 0.966921,1.403332 -0.615078,0.07401 -0.802923,-0.792429 -1.237733,-1.093289 -1.165147,-1.313511 -2.175079,-2.875972 -3.801329,-3.666477 -0.263873,0.08403 -0.925009,-0.343264 -0.376953,-0.472656 z m -1.560547,0.550781 c -0.126327,0.406486 -0.129857,-0.09606 0,0 z m -0.53711,0.126953 c 0.381903,0.756339 1.294607,0.282151 1.923259,0.265561 0.660989,-0.244713 1.244006,0.09666 1.691976,0.570377 1.23731,1.278294 2.353481,2.669427 3.537109,3.998047 -0.527026,0.894534 -1.260942,1.696078 -2.205078,2.154296 -0.757671,-0.63562 -1.619966,-1.318714 -2.681339,-1.150368 -0.823137,0.01183 -1.519613,0.565171 -2.020464,1.116063 -0.695611,0.01545 -0.77008,-1.107719 -1.525606,-0.994651 -1.259233,-0.249507 -2.511369,0.292807 -3.749489,0.29195 -0.857584,-0.314497 -2.134584,-0.91725 -2.790367,0.05726 -0.44808,0.723595 -0.08461,1.593709 -0.195625,2.380918 -2.321087,-0.660221 -4.735089,-1.095246 -7.15625,-0.958984 -0.737055,-0.539822 -1.635732,-0.923078 -2.150391,-1.712891 0.391326,-0.03205 0.776137,-0.16902 1.005105,-0.470359 1.026871,-0.322475 2.168475,0.221172 3.154126,-0.35193 2.03462,-0.783276 3.952073,-1.839229 5.979578,-2.644011 2.30913,-1.021846 4.677709,-1.919834 7.113144,-2.592293 z m 10.21875,0.910157 c 0.2661,0.40968 0.523398,0.916582 0.529297,1.410156 -0.03437,0.443012 -0.539041,0.197158 -0.486328,-0.166016 -0.0094,-0.424055 -0.47802,-0.938624 -0.207031,-1.3125 0.06531,-0.03462 0.109203,0.0465 0.164062,0.06836 z m -0.636718,0.123046 c 0.05931,0.109166 -0.03076,-0.0039 0,0 z m -0.06055,0.269532 c 0.437413,0.375428 0.675321,1.124076 0.515625,1.703125 -0.54326,0.142589 -0.288579,-0.680198 -0.56836,-0.933594 -0.04498,-0.207355 -0.170663,-0.631954 0.05273,-0.769531 z m 11.064453,1.167968 c 1.60163,0.03283 3.13776,1.960818 2.22242,3.454829 -1.06896,1.297589 -3.24934,0.488639 -3.85084,-0.888883 -0.52693,-1.059014 0.18006,-2.658374 1.47839,-2.562448 0.05,0.0011 0.10001,-0.0036 0.15003,-0.0035 z m -0.24805,0.5 c -1.28614,0.169981 -1.3673,2.097318 -0.36163,2.696267 0.78816,0.786509 2.60064,0.537856 2.63647,-0.75511 0.0688,-1.157211 -1.16648,-2.127215 -2.27484,-1.941157 z m -9.437497,0.06836 c 0.38703,0.297184 0.495467,0.960044 0.601563,1.421875 -0.191783,0.427241 -0.77269,-0.07382 -0.675782,-0.421875 -0.04828,-0.302127 -0.473664,-0.919993 0.07422,-1 z m 9.873047,0.130859 c 0.90069,0.07866 1.7462,0.953565 1.58008,1.884766 0.0633,-0.970628 -1.0082,-1.815022 -1.73047,-1.876953 0.0503,0.0025 0.10019,-0.0079 0.15039,-0.0078 z m -39.984375,0.183594 c 0.89456,0.100064 2.094814,-0.273204 2.685547,0.628906 -0.08347,0.316607 -0.360411,-0.356649 -0.605469,-0.259765 -0.570772,-0.334083 -1.034208,0.845821 -1.542969,0.242187 -0.502709,-0.543284 -1.374051,-0.703661 -1.951172,-0.195313 -0.160269,-0.04815 0.303112,-0.401851 0.448998,-0.360652 0.31626,-0.07798 0.64257,-0.05658 0.965065,-0.05536 z m 39.744145,0.08789 c 1.03756,0.06793 1.94294,1.308664 1.39648,2.279296 -1.20367,0.743395 -2.95888,-0.839642 -2.2207,-2.09375 0.22299,-0.195224 0.54617,-0.189606 0.82422,-0.185546 z m -10.439458,0.03125 c 0.531366,0.07826 0.410236,0.748414 0.607422,1.111328 -0.584342,0.134391 -0.936856,-0.654895 -0.6875,-1.082032 l 0.07813,-0.0293 z m -30.109374,0.232421 c 1.302086,-0.02477 1.896237,1.403468 2.090439,2.488579 0.404538,1.862069 0.571695,3.763876 0.725967,5.659859 -0.699182,0.04967 -1.427617,-0.0153 -2.091797,0.251953 -0.186893,-2.501139 -0.242718,-5.068767 -1.097656,-7.453125 -0.584818,-0.221079 -0.09202,-0.995507 0.373047,-0.947266 z m 2.61914,0.197266 c 0.04629,0.223836 -0.591151,0.311698 -0.236328,0.04883 0.05097,-0.03772 0.185682,-0.127755 0.236328,-0.04883 z m 35.958982,0.355469 c 0.1497,1.418627 1.48669,2.611158 2.91992,2.560547 -0.67139,0.167379 -1.36571,-0.199383 -1.92773,-0.441407 -0.0961,0.566314 0.9957,0.26862 0.80664,0.841797 -1.00268,0.808301 -1.85794,1.858572 -2.23437,3.107422 -0.88347,0.04883 -1.76693,0.09766 -2.6504,0.146485 -0.54522,-1.083432 0.44371,-2.095398 0.81186,-3.061927 0.54388,-0.901577 1.22578,-1.728203 2.04752,-2.389245 0.0859,0.327127 0.50135,0.03219 0.24023,-0.171875 -0.0782,-0.121948 -0.0255,-1.060777 -0.0137,-0.591797 z M 70.583984,50.738281 c 0.546173,0.245588 0.340612,1.040544 0.201172,1.498047 -0.343436,0.177213 -0.586869,-0.358132 -0.326172,-0.576172 0.07331,-0.264567 -0.277772,-0.841358 0.125,-0.921875 z m -0.875,0.246094 c 0.694827,-0.173062 0.62107,1.319177 -0.0293,0.873047 -0.24169,-0.196152 -0.475048,-0.849974 0.0293,-0.873047 z m 26.199219,0.04883 c 2.076401,0.392907 4.210897,0.411208 6.291017,0.791016 0.583,0.444827 0.0553,1.646026 -0.67969,1.355469 -0.14383,-0.365044 0.64644,-0.264728 0.46485,-0.652344 0.14641,-0.624873 -0.78238,-0.471931 -1.14653,-0.518083 -1.652171,-0.142708 -3.31575,-0.248697 -4.943319,-0.573714 -0.79594,0.471665 -1.144362,1.401166 -1.886719,1.935547 -0.485261,-0.367343 0.237214,-0.830953 0.473161,-1.103047 0.39726,-0.472636 0.739062,-1.169491 1.42723,-1.234844 z m 9.867187,0.08594 c -0.73289,1.247327 -2.06979,2.112833 -2.51393,3.551446 -0.24121,0.522368 -0.42941,1.06724 -0.60521,1.614569 -0.16666,-1.000996 0.49109,-1.896818 0.57422,-2.875 0.37986,-1.178683 1.51717,-1.79924 2.54492,-2.291015 z m -9.472656,0.638671 c 0.576402,0.04689 1.569386,0.119706 1.535157,0.91211 0.03601,0.394463 0.356024,0.863368 0.259765,1.214844 -0.653671,-0.678459 -1.237911,-1.431594 -1.855468,-2.146485 z m -0.246093,0.210938 c 1.250915,1.199857 2.149,3.063864 4.033339,3.348879 -0.105035,-0.02752 -0.929426,-0.106715 -1.318894,-0.154579 -0.949355,-0.122397 -1.282282,-1.159143 -1.932502,-1.726551 -0.426012,-0.491203 -0.852025,-0.982406 -1.278037,-1.473608 0.142185,-0.273654 0.32111,-0.216271 0.496094,0.0059 z m 10.111329,-0.160156 c -0.24766,0.336758 0.46344,0.05703 0.004,-0.0078 z m 0.15039,0.169922 c -0.25281,0.03193 0.15181,0.435729 0.10156,0.0957 0.0223,0.01703 -0.12296,-0.174328 -0.10156,-0.0957 z m -7.195313,0.08203 c 0.640444,0.103313 1.095683,1.243478 0.382812,1.548828 -0.532792,-0.116927 -0.240857,-0.850812 -0.552734,-1.185547 -0.04717,-0.144077 -0.04482,-0.380171 0.169922,-0.363281 z m 1.142573,0.09766 c 0.78465,-0.07125 1.00016,0.773837 1.14239,1.367006 0.26179,0.770243 0.52357,1.540486 0.78535,2.310729 -0.56886,-0.388151 -1.54593,-0.534787 -1.5535,-1.390931 -0.2713,-0.761246 -0.56846,-1.515243 -0.76486,-2.300476 0.13021,0.0046 0.26042,0.0091 0.39062,0.01367 z m 1.12696,0.03906 c 0.49903,-0.125243 0.33339,0.812715 -0.043,0.460937 -0.12916,-0.113976 -0.19541,-0.429667 0.043,-0.460937 z m -31.558596,0.01563 c 0.303831,0.09716 -0.190221,0.06791 0,0 z m 28.69336,0.07617 c 0.371436,0.443153 0.485281,1.113454 0.455078,1.650391 -0.334319,0.27498 -0.774115,-0.117818 -0.630296,-0.479044 -0.08974,-0.382502 -0.528334,-1.108484 0.102952,-1.227987 z m -3.087891,-0.01367 c 0.953934,0.876307 1.698921,1.961111 2.617188,2.875 -1.25116,-0.190704 -2.488536,-0.655869 -3.586673,-1.241132 -0.342823,-0.677601 0.588895,-1.100692 0.850344,-1.626056 l 0.0625,-0.02344 z m -14.650391,0.298828 c 0.679301,0.03854 1.291784,0.361416 1.902344,0.630859 -0.253355,0.677957 -1.046873,0.134391 -1.457166,-0.06956 -0.564666,-0.217533 -1.145143,0.328383 -0.92174,0.899641 0.06318,0.411077 0.362473,1.11523 -0.208984,1.294922 -0.545107,-0.240618 -0.20787,-0.995973 -0.335938,-1.466797 0.0075,-0.584285 0.321176,-1.355536 1.021484,-1.289062 z m 25.884768,0.0059 c -0.22705,0.298378 0.6283,0.420892 0.25976,0.109375 -0.09,-0.02466 -0.1607,-0.149211 -0.25976,-0.109375 z m -16.474611,0.03516 c 0.868715,0.06183 1.650477,0.582804 2.154297,1.275391 -0.53097,0.705711 -1.505779,0.737096 -2.189454,1.226563 -0.597268,-0.346885 -1.055918,-1.065393 -1.820011,-0.990678 -0.369206,-0.130062 -0.38856,-0.669417 0.01549,-0.771182 0.507004,-0.440355 1.158582,-0.746255 1.839677,-0.740094 z m -3.791016,0.175782 c 1.118907,0.581628 1.297382,1.98354 2.00223,2.926961 0.734873,1.377891 1.465045,2.760737 2.202848,4.135539 1.404802,0.495005 2.887863,-0.09704 4.328872,-0.0021 3.978619,-0.24546 7.954317,-0.55216 11.938707,-0.691263 1.13585,0.623442 1.25614,2.06611 1.9375,3.054688 0.0591,0.232749 0.71412,1.060723 0.37194,0.984586 -0.86219,-0.735513 -1.07124,-1.93457 -1.68797,-2.842601 -0.12488,-0.607116 -0.74646,-0.976393 -1.33708,-0.811027 -3.68894,0.104918 -7.365827,0.46652 -11.051203,0.657419 -1.428738,0.0423 -2.903084,0.215269 -4.306891,0.0835 -1.093634,-0.769649 -1.337833,-2.191213 -2.078008,-3.241955 -0.678977,-1.284437 -1.351864,-2.577463 -2.072898,-3.833832 -1.166687,-0.234022 -2.514233,-0.250417 -3.556641,0.355468 -0.328766,0.456509 0.08409,1.10373 -0.283203,1.535156 -0.53543,-0.458838 -0.217314,-1.398288 0.195313,-1.847656 0.900287,-0.686131 2.122854,-0.432631 3.177734,-0.544922 0.07292,0.02734 0.145833,0.05469 0.21875,0.08203 z m -16.117187,0.273437 c 1.34805,1.263482 3.258138,1.933297 4.306046,3.497283 0.317141,0.684067 0.371039,1.449481 0.438094,2.190217 -0.367813,0.344624 -0.899079,0.115804 -1.33789,0.232422 -0.370714,-0.831183 -1.449901,-0.424912 -2.151661,-0.540073 -0.418916,0.136578 -1.118082,0.01904 -0.976269,-0.555634 -0.154434,-1.728369 -0.286046,-3.46671 -0.674805,-5.162106 0.132162,0.112631 0.264323,0.225261 0.396485,0.337891 z m 16.011718,0.208985 c 0.438514,0.170551 -0.01069,0.470058 -0.267974,0.503992 -0.601212,0.316628 -1.385327,0.05479 -1.864838,-0.345789 0.617357,-0.151762 1.445622,-0.101883 2.132812,-0.158203 z m -5.460937,0.03711 c 0.525027,0.256728 1.511373,0.223859 1.585937,0.978515 0.114391,0.493524 -0.116768,0.954952 -0.541015,1.212891 -0.275172,0.322609 -0.846721,0.432725 -1.010889,-0.03873 -0.461933,-0.539022 -0.299437,-1.3425 -0.272314,-1.982756 0.04583,-0.09084 0.135698,-0.159522 0.238281,-0.169922 z m 12.646484,0.002 c 0.630281,0.055 0.988384,1.125008 0.326172,1.396484 -0.266227,-0.391218 -0.664211,-0.921087 -0.541015,-1.373046 0.06835,-0.03219 0.142534,-0.0209 0.214843,-0.02344 z m -9.941406,0.25 c 1.330189,0.4712 2.704991,0.921064 3.931641,1.607422 0.366452,0.280398 -0.130457,0.548804 -0.369822,0.2762 -1.261012,-0.571402 -2.760773,-0.881828 -3.854788,-1.678544 0.02693,-0.134739 0.162973,-0.213041 0.292969,-0.205078 z m 9.277344,0.193359 c -0.04378,-0.02336 0.02299,-0.111734 0,0 z m -6.126953,0.13086 c 0.238323,0.103145 0.551494,0.664094 0.358256,0.712518 -0.337323,-0.139031 -1.136415,-0.241824 -1.089359,-0.552449 0.221472,-0.07522 0.499859,-0.292597 0.731103,-0.160069 z m 6.480468,0.111328 c 0.337653,0.385308 0.01956,0.635278 -0.09534,0.07653 -0.04024,-0.11528 -0.03552,-0.351989 0.09534,-0.07653 z m 6.732422,-0.0332 c 0.501004,0.127619 0.513314,0.736153 0.603514,1.146484 -0.588354,0.387504 -1.574133,-1.052941 -0.603514,-1.146484 z m -12.009765,0.113281 c 0.495959,0.331607 0.909561,0.785466 1.183593,1.316406 -0.680196,-0.07625 -1.086178,-0.749058 -1.24414,-1.355469 z m 4.880859,0.01953 c 0.397545,-0.08644 0.214498,0.821333 0.02148,0.285156 -0.03395,-0.07028 -0.169441,-0.258875 -0.02148,-0.285156 z m -9.529297,0.13086 c 0.540789,0.143771 1.035678,0.410493 1.558594,0.603515 -0.214267,0.381814 -0.863112,0.550209 -1.177017,0.530743 -0.293557,-0.255603 -0.745198,-0.748601 -0.422592,-1.130352 l 0.03711,-0.0039 z m 11.275391,0.0293 c 1.374109,0.483174 2.324024,1.695341 3.011718,2.925782 -0.169035,0.496491 -0.639031,-0.106303 -0.724678,-0.359709 -0.600705,-0.970745 -1.50206,-1.775025 -2.50579,-2.251619 -0.03744,-0.137782 0.04134,-0.355991 0.21875,-0.314454 z m -2.173828,0.101563 c 0.427918,0.02454 0.202415,0.777449 -0.171875,0.640625 -1.09684,0.367458 -2.099,1.180217 -3.308594,1.09375 -0.192922,-0.15357 -0.422134,-0.75877 0.05835,-0.549328 1.270225,0.155463 2.269191,-0.857018 3.422116,-1.185047 z m 6.71289,0.05664 c 0.429359,-0.146704 0.304353,0.729892 -0.0078,0.378906 -0.342119,-0.01757 -0.31675,-0.354549 0.0078,-0.378906 z m -10.277344,0.02734 c 0.349119,0.130664 0.926688,0.443764 0.796876,0.886719 -0.440502,-0.0029 -0.737017,-0.749249 -0.796876,-0.886719 z M 73.0625,54.490234 c 0.970187,0.0288 1.945102,0.04694 2.904297,0.212891 -0.737147,0.05864 -1.356719,1.157379 -2.115629,0.648826 -0.264283,-0.231605 -0.984538,-0.573333 -0.898043,-0.849998 l 0.09941,-0.01085 0.008,-8.74e-4 z m 20.351562,0.419922 c -0.09723,0.0025 -0.108487,-0.076 0,0 z m 0.949219,-0.02734 c 0.447908,0.08246 -0.02619,0.627321 -0.326172,0.425782 -0.477804,-0.233913 0.09115,-0.438398 0.326172,-0.425782 z m -17.013672,0.05078 c 0.633126,0.21186 1.379651,0.214848 1.939453,0.585937 0.272133,0.435776 -0.274008,0.732153 -0.658582,0.591359 -0.533334,0.113645 -0.395828,-0.712431 -0.886591,-0.78627 -0.08514,-0.09698 -0.496727,-0.281042 -0.39428,-0.391026 z m -0.765625,0.01953 c 0.210677,0.06171 1.048693,0.34921 0.712891,0.505859 -0.347163,-9.03e-4 -0.840165,0.258054 -0.699219,0.671875 -0.241131,0.235806 -0.706558,0.03512 -0.880859,0.359375 0.011,-0.49459 -0.956388,-0.911496 -0.411256,-1.323525 0.372769,-0.242813 0.852599,-0.213851 1.278443,-0.213584 z m 8.451172,0.002 c 0.547196,0.131195 1.083141,0.323252 1.564453,0.611328 -0.561336,-0.05333 -1.052645,-0.532248 -1.638671,-0.375 -0.07019,-0.07336 -0.04589,-0.243514 0.07422,-0.236328 z m 11.179688,0.02734 c 0.350272,0.252255 0.06866,0.203094 -0.103516,-0.02734 l 0.09668,0.02554 z m 0.550781,0.183594 c -0.151617,-0.08988 -0.344932,-0.259114 0,0 z m -3.804687,-0.0059 c 0.155629,0.270253 -0.481295,0.298523 -0.654297,0.240235 -0.302123,0.204321 -0.784073,-0.0195 -0.209666,-0.130524 0.271221,-0.07707 0.591775,-0.288124 0.863963,-0.109711 z m 2.015624,0.01172 c 0.468758,0.01758 -0.149781,0.328373 -0.15039,0.08008 0.05281,-0.01605 0.08724,-0.08451 0.15039,-0.08008 z m 5.251958,0.189453 c 0.36209,0.105912 1.11202,0.121219 1.11328,0.550781 -0.28165,0.219481 -0.54977,-0.07794 -0.65195,-0.301201 -0.0731,-0.105966 -0.53668,-0.280737 -0.46133,-0.24958 z m -17.533208,-0.0098 c 0.459372,-0.08411 0.960941,0.150926 0.835938,0.691407 -0.05099,0.55178 -0.876127,0.641177 -1.195312,0.302734 -0.25278,-0.330071 -0.139576,-1.002821 0.359374,-0.994141 z m 1.761719,0.04102 c 0.448639,0.193274 0.156279,0.42818 -0.169149,0.374581 -0.334341,0.09043 -0.448306,-0.265959 -0.07499,-0.333565 0.07619,-0.04347 0.162765,-0.02228 0.24414,-0.04102 z m -4.146484,0.117188 c 0.762064,0.06265 0.639287,1.319292 -0.129297,1.210937 -0.767401,0.149079 -0.925696,-1.112107 -0.183203,-1.205078 0.104116,-0.0045 0.208316,-0.0047 0.3125,-0.0059 z m 14.716797,0.03906 c 0.481257,0.04338 1.081437,0.33123 1.072265,0.888672 -1.867514,-0.02144 -3.774243,-0.100617 -5.574029,0.503551 -0.423804,0.05821 -1.137719,0.595279 -1.293158,-0.08754 -0.141201,-0.435142 0.258383,-0.635273 0.614156,-0.637059 1.678206,-0.515984 3.427283,-0.757115 5.180766,-0.667629 z m 5.205076,0.0059 c 0.58217,0.0076 0.32187,1.09289 -0.19922,0.849609 -0.863731,0.02793 -1.727662,0.0469 -2.591794,0.05664 -0.06,-0.328487 -0.706608,-0.474581 -0.464844,-0.841797 1.085287,-0.02147 2.170573,-0.04305 3.255858,-0.06445 z m 12.21289,0.05273 c 1.49444,1.043604 2.77548,2.384208 3.96105,3.750351 0.52643,0.833463 0.59082,2.138397 -0.32084,2.725811 -0.71429,0.959652 -0.67816,2.237253 -1.12478,3.316416 -0.0454,0.38871 -0.37995,1.04649 -0.83965,0.680078 -1.42238,-1.019926 -3.13499,-1.571575 -4.44336,-2.757812 0.23603,-0.215889 0.69168,-0.49841 0.98243,-0.261719 -0.23059,0.223621 0.13727,0.751403 0.26728,0.31182 0.13436,-0.773217 1.06359,-0.58315 1.60973,-0.838636 1.1607,-0.294131 2.33777,-0.557104 3.47455,-0.922403 0.51646,-1.636251 -0.61509,-3.229774 -1.89261,-4.140226 -0.6468,-0.639952 -1.29232,-1.280293 -1.98825,-1.867586 0.10482,0.0013 0.20963,0.0026 0.31445,0.0039 z m -30.390622,0.06445 c 0.08849,0.322718 -0.597291,0.234684 -0.15625,0.0293 0.02295,-0.02707 0.127269,-0.109982 0.15625,-0.0293 z m 29.550782,-0.01758 c 0.90289,0.431981 1.58481,1.285954 2.33008,1.95631 0.88049,0.887252 2.16104,1.818681 1.96484,3.237049 -0.0358,0.613551 -0.65659,-0.0207 -0.82536,-0.264637 -0.26685,-0.445217 -0.73772,-0.716351 -1.24691,-0.60841 -0.56369,-0.22983 -0.68396,-1.300682 -1.46289,-1 -0.40163,-0.03724 -0.40457,-0.51215 -0.15767,-0.720448 0.29587,-0.987157 -1.35832,-1.202196 -1.14311,-2.144786 0.081,-0.228719 0.27952,-0.457783 0.54102,-0.455078 z m -34.277345,0.04102 c 0.605663,-0.154718 1.054542,0.694697 0.570313,1.089844 -0.455102,0.21689 -1.276717,0.107045 -1.103516,-0.568359 0.01441,-0.285763 0.232245,-0.540026 0.533203,-0.521485 z m 9.753906,0.04688 c 0.682151,0.194801 0.327388,1.13958 0.408203,1.648437 0.178391,1.609931 0.237051,3.240071 0.28711,4.861328 -0.361771,-0.0718 -1.013877,0.08801 -0.584972,-0.440124 0.226581,-0.591478 0.01317,-1.346995 -0.534169,-1.684876 0.757735,-0.487975 0.620362,-1.786376 -0.173828,-2.166015 0.767686,-0.432833 0.706818,-1.711526 -0.04492,-2.126954 0.217961,0.0075 0.424338,-0.09575 0.642578,-0.0918 z m -1.064453,0.158203 c 1.096457,0.06307 0.74398,2.077586 -0.327726,1.698393 -0.948393,-0.13455 -0.812605,-1.848659 0.210539,-1.694487 0.03919,0.0062 0.0781,-0.0041 0.117187,-0.0039 z m -1.103516,0.0098 c 0.339628,0.109757 -0.216436,0.457699 -0.132812,0.703125 -0.05757,0.534158 0.205905,1.081475 0.642578,1.386719 -0.726264,0.46945 -0.677513,1.719688 0.08008,2.132812 -0.571996,0.551812 -0.714588,1.597602 0.03141,2.066896 0.521871,0.392297 -0.361219,0.01862 -0.535591,-0.01486 -0.352533,-0.239215 -0.973196,0.344765 -1.067624,-0.12788 0.002,-0.471089 0.485003,-0.8572 0.237823,-1.353848 -0.0037,-0.46852 0.667991,0.0063 0.685547,-0.505859 -0.0025,-0.724057 -0.09926,-1.461219 -0.152652,-2.186984 -0.03009,-0.589014 -0.601376,-0.261225 -0.950864,-0.43411 -0.380405,-0.313621 0.02732,-0.900031 -0.0078,-1.3125 0.167882,-0.53575 0.770859,-0.249741 1.169921,-0.353516 z m 16.798828,0.0625 c 0.15011,0.317192 0.89228,0.647454 0.60547,1.042969 -1.1215,0.20225 -2.27772,0.2288 -3.417969,0.199219 0.128923,-0.696359 1.037128,-0.244773 1.512069,-0.317351 0.52445,0.0032 1.32405,-0.170519 1.52699,-0.606477 -0.55568,0.21418 -1.15144,0.325823 -1.74609,0.345703 0.40075,-0.189042 0.75963,-0.489179 1.2207,-0.453125 0.10778,-0.05015 0.16932,-0.24031 0.29883,-0.210938 z m -13.880859,0.0059 c 0.384929,0.01999 0.340618,0.86973 -0.07422,0.644531 -0.08559,-0.169256 -0.271689,-0.627887 0.07422,-0.644531 z m -5.919922,0.142578 c 0.289554,0.380094 0.25173,0.942628 0.365235,1.357422 C 81.9847,58.0755 80.617319,57.934368 80.917969,57.125 c 0.126158,-0.414883 0.05056,-1.079099 0.668122,-1.01274 0.108976,-0.01913 0.217301,0.0012 0.326018,0.0088 z M 74.75,56.1875 c 0.61526,0.693542 0.651433,1.671134 0.787109,2.542969 -0.511879,0.145212 -0.265528,-0.617034 -0.382812,-0.884766 -0.1168,-0.574968 -0.285683,-1.137133 -0.445313,-1.701172 z m 4.373047,0.107422 c 0.459176,0.113554 0.135537,0.817147 0.476562,1.089844 0.145267,0.626509 -0.748018,0.682616 -1.160156,0.583984 -0.364962,-0.09958 -0.355445,-0.460039 -0.225147,-0.721037 -0.01814,-0.355061 0.02374,-1.080421 0.563038,-0.907869 0.115214,-0.01505 0.230151,-0.03269 0.345703,-0.04492 z m -2.818359,0.152344 c 0.557881,0.0789 0.257742,0.862367 0.59375,1.175781 0.07289,0.610844 -1.082989,0.744704 -0.875,0.02148 0.02435,-0.360631 -0.264545,-1.119983 0.28125,-1.197265 z m 9.537109,0.04883 c -0.567522,0.05071 0.179465,0.815442 0.304687,0.324218 0.02626,-0.168049 -0.12933,-0.352375 -0.304687,-0.324218 z m 9.705078,0.134765 c 0.435497,-0.02888 0.764747,0.385923 0.822266,0.785157 -0.515136,0.07774 -1.047395,0.182992 -1.566407,0.08594 0.284013,-0.311626 -0.630815,-0.642514 -0.130859,-0.816406 0.287483,-0.07068 0.594946,0.05768 0.875,-0.05469 z m -12.541016,0.02344 c 0.723701,0.109131 0.375661,1.404071 -0.318359,1.027344 -0.423174,-0.26143 -0.275114,-1.154005 0.318359,-1.027344 z m 24.904301,0.0059 c 0.35207,-0.07822 0.36174,0.273014 -0.0137,0.205078 -0.11664,-0.0798 -0.90216,0.05001 -0.44336,-0.113281 0.15209,-0.03262 0.30045,-0.08517 0.45704,-0.0918 z m -14.488285,0.01953 c 0.574956,0.07095 0.539654,1.164967 -0.113251,0.970105 -0.795441,0.0344 -1.676102,0.210198 -2.423858,0.09044 -0.299301,-0.42643 0.163028,-0.91038 0.61305,-0.819419 0.629864,-0.160446 1.274047,-0.256637 1.924059,-0.241127 z m 17.164065,0.01953 c 0.6128,0.07048 0.90088,0.686102 1.3164,1.058593 -0.52688,0.555271 -1.14136,-0.489745 -1.74489,-0.108367 -0.44625,0.104541 -1.0565,0.597345 -1.43675,0.110321 -0.0765,-0.622067 0.80305,-0.459699 1.1302,-0.783529 0.23247,-0.124226 0.46969,-0.245124 0.73504,-0.277018 z m -14.187502,0.02734 c 0.235822,0.100601 0.570706,0.463745 0.33789,0.691407 -0.220311,-0.04322 -0.512449,-0.520086 -0.33789,-0.691407 z m 1.388671,0 c 0.369712,-0.04064 0.190532,0.75273 0.01953,0.330079 -0.04123,-0.07327 -0.159534,-0.310202 -0.01953,-0.330079 z m -9.568359,0.05273 c 0.505376,0.192497 0.466359,1.052856 -0.15625,1.007812 -0.416912,0.02285 -0.364124,-0.430041 -0.353516,-0.705078 0.07554,-0.182041 0.304194,-0.385233 0.509766,-0.302734 z m -8.037109,0.06641 c 0.796612,-0.09675 0.608553,1.342849 -0.11542,1.045784 -0.462741,-0.143715 -0.398513,-1.0307 0.11542,-1.045784 z m 13.824218,0.03125 c 0.158017,0.167742 0.139787,0.745287 -0.01367,0.244141 0.0028,-0.03518 -0.140099,-0.348494 0.01367,-0.244141 z m -16.449218,0.160156 c 0.779286,0.0991 0.271152,1.419754 -0.357422,0.980469 -0.32501,-0.292264 -0.248511,-1.149521 0.357422,-0.980469 z m 30.539059,0.06055 c -0.67157,0.07862 -0.9506,-0.05942 -0.0793,-0.0164 -0.0528,0.02082 0.23782,-0.02487 0.0793,0.0164 z m -1.2207,0.0039 c -0.32995,-0.03726 -0.34383,0.458734 -0.50195,0.414063 -0.45665,-0.532262 -1.27552,-0.173879 -1.88112,-0.264898 -0.34146,-0.0634 -0.69424,0.188445 -1.01927,0.04224 1.10282,-0.15056 2.32241,-0.112408 3.40234,-0.191407 z m -16.537109,0.126954 c 0.569857,-0.05893 0.158845,1.050053 -0.185547,0.548828 -0.121831,-0.17669 -0.08377,-0.544244 0.185547,-0.548828 z m 17.501949,0.05273 c 0.76022,-0.08795 0.77517,1.461733 -0.0312,1.208984 -0.39893,-0.200792 -0.46909,-1.092579 0.0312,-1.208984 z m -0.6875,0.06836 c -0.24478,0.107668 -0.36974,-0.06737 0,0 z m -6.125,0.0957 c -0.15853,0.155149 -0.37213,-0.13077 0,0 z m -11.249996,-0.0293 c 0.385407,-0.01387 -0.01008,0.664184 -0.09766,0.242187 -0.06725,-0.07905 -0.02652,-0.26014 0.09766,-0.242187 z M 105.75,57.525391 c 0.53387,0.02782 0.50978,0.62167 0.43164,0.986328 0.0855,0.215195 0.39247,0.05188 0.35156,-0.140625 0.52649,0.636725 -0.25696,0.363391 -0.73824,0.465423 -2.09069,0.13162 -4.18349,0.226234 -6.275429,0.335358 -0.07766,-0.67763 -1.023099,-0.817113 -1.269531,-1.287109 0.578336,0.159251 1.195385,-0.388246 1.691406,0.101562 0.292904,0.273679 -0.204079,0.915204 0.283204,1.041016 0.27821,-0.407707 -0.0128,-0.926852 0.0488,-1.359375 0.85682,0.241013 1.40442,1.245637 2.30273,1.287109 -0.0165,-0.639093 -0.93981,-0.724068 -1.18359,-1.197266 0.51813,-0.08219 1.44027,-0.433577 1.69726,0.251954 0.0319,0.30634 -0.17016,0.764608 0.1836,0.9375 0.60427,-0.254762 -0.11471,-1.344212 0.67773,-1.382813 0.5991,-0.03459 1.19873,-0.08028 1.79883,-0.03906 z m -7.765625,0.04297 c 0.139647,0.462381 -0.707866,-0.120414 0,0 z m -0.982422,0.05859 c 0.05217,0.01267 -0.123815,0.0098 0,0 z m 10.123047,0.0078 c 0.42913,0.03897 0.38411,1.025901 -0.0625,0.777343 -0.10123,-0.17497 -0.26465,-0.758256 0.0625,-0.777343 z m -8.105469,0.01953 c -0.185814,0.0035 0.180002,-0.01029 0,0 z m -1.884765,0.04492 c 0.112381,0.496993 0.715996,0.228983 0.975863,0.606256 0.402195,0.30695 0.731714,0.774198 1.254605,0.876166 -0.690932,-0.01429 -1.519147,0.1311 -2.121093,0.107421 0.06932,-0.499846 0.0684,-1.201838 -0.109375,-1.589843 z m -10.636719,0.0039 c -0.455395,0.195047 -0.02007,0.0088 0,0 z m 20.236333,0.04492 c -0.002,0.248782 -0.0444,-0.161903 0,0 z m -11.824224,0.03906 c 0.240977,0.260189 -0.405493,-0.07288 0,0 z m -6.203125,0.0098 c 0.314616,0.291518 -1.034099,0.275616 -0.353515,0.07227 0.11805,-0.02233 0.231098,-0.07605 0.353515,-0.07227 z m 5.40625,0.02539 c 0.106451,0.543761 0.873328,0.379148 1.136077,0.824417 0.182988,0.152501 0.999318,0.580753 0.500642,0.753708 -0.769925,0.09654 -1.552174,0.04525 -2.324219,0.154297 0.05544,-0.562537 -0.709095,-0.663729 -0.964301,-1.050639 -0.646042,-0.301718 0.291167,-0.196818 0.528754,-0.289205 0.560766,-0.281267 1.3001,0.25263 1.020699,0.875353 -0.07028,0.244199 0.276575,0.363307 0.246879,0.05238 0.022,-0.455193 0.06068,-1.043866 -0.388671,-1.316406 0.07718,-0.01415 0.169513,-0.05515 0.24414,-0.0039 z m -9.693359,0.279296 c -0.03848,0.535682 0.201206,1.317455 -0.01187,1.698264 -2.738937,0.197575 -5.481062,0.345389 -8.222501,0.502908 -0.119685,-0.645719 -0.09548,-1.304209 -0.132813,-1.957031 2.778646,-0.170573 5.557292,-0.341146 8.335938,-0.511719 0.01042,0.08919 0.02083,0.178386 0.03125,0.267578 z m 26.492188,-0.230468 c 0.53079,0.23179 0.104,1.299833 -0.44922,0.976562 -0.12404,-0.334165 -0.0287,-1.050988 0.44922,-0.976562 z m -0.67383,0.06445 c 0.32196,0.454229 -0.37388,1.31083 -0.79297,0.712891 -0.32378,-0.283974 -0.0402,-0.605034 0.29492,-0.611329 0.14761,-0.04106 0.35479,-0.20926 0.49805,-0.101562 z m -8.88086,0.126953 c 0.23287,0.18059 -0.54418,-0.388494 0,0 z m -9.347654,0.01367 c 0.113681,0.229894 -0.480529,-0.07814 -0.128907,-0.115234 l 0.07455,0.06665 z m 4.294922,-0.107422 c 0.470161,-0.07874 0.901857,0.415299 0.669921,0.859375 0.170432,0.441829 0.270713,0.636933 -0.310819,0.412361 -0.49816,-0.329777 -0.921892,-0.778307 -1.421602,-1.094002 0.239197,-0.154923 0.757166,-0.0065 1.0625,-0.177734 z m 15.650392,0.300781 c 0.11593,0.369001 -0.55214,0.907964 -0.72656,0.417969 0.031,-0.405002 0.45462,-0.607235 0.80468,-0.681641 -0.026,0.08789 -0.0521,0.175782 -0.0781,0.263672 z M 86.185547,58.085938 c 1.06042,0.127393 0.704649,2.071805 -0.354761,1.713737 -0.962175,-0.149678 -0.830236,-1.909234 0.229761,-1.709831 0.04175,0.0039 0.08331,-0.004 0.125,-0.0039 z m -2.447266,0.03516 c -0.600693,0.13142 -1.243589,-0.0094 -1.828125,0.185547 -0.127906,0.411971 -0.09333,0.86896 0.04297,1.269531 0.706513,0.128573 1.513543,0.137328 2.173828,-0.109375 0.338605,-0.354024 -0.01856,-0.968238 -0.429687,-0.962891 0.0247,-0.1635 0.587975,-0.198672 0.261718,-0.375 -0.07334,-0.01475 -0.146643,-0.01316 -0.220703,-0.0078 z m 7.517578,0.152344 c 0.504696,0.221915 1.020538,0.406416 1.371094,0.851562 0.27504,0.342322 1.123971,0.501161 0.236492,0.481505 -0.720427,0.04343 -1.557538,0.162982 -2.199126,-0.186725 -0.277841,-0.247007 -0.691349,-1.082139 -0.04306,-1.079144 0.458064,0.04475 0.471482,0.532794 0.402175,0.874208 -0.02745,0.246382 0.261316,0.475092 0.247298,0.09479 0.135801,-0.268796 -0.280169,-1.23339 -0.01488,-1.036191 z m -2.453125,-0.09375 c 0.223561,0.03096 0.09422,0.128573 0,0 z m -0.632812,0.02734 c 0.145595,0.337218 -0.207145,0.731812 0.02011,1.060882 -0.05327,0.150772 0.08089,0.655301 0.257238,0.32779 0.07643,-0.328971 -0.293949,-0.868169 0.15625,-1.035156 0.522189,0.224889 1.044709,0.600189 1.230468,1.166015 -0.628102,0.02964 -1.381352,0.366913 -1.93164,-0.07422 -0.127707,-0.439704 -0.1272,-1.001411 0.302734,-1.259766 0.06216,-0.07563 -0.198758,-0.21696 -0.03516,-0.185547 z m 20.640628,0.0039 c 0.77557,0.985033 2.28301,1.864187 2.04198,3.330293 -0.1377,0.666397 -0.99692,0.5918 -1.48534,0.841581 -0.67159,-0.414016 -0.68071,-1.315245 -1.07617,-1.929687 -0.0302,-0.587094 0.77122,-0.915735 0.55598,-1.562346 0.006,-0.216487 -0.13127,-0.494953 -0.0364,-0.679841 z m -28.681644,0.146484 c -0.35268,0.140537 -1.257741,-0.168099 -1.097656,0.474609 -0.116672,0.201912 0.146896,1.259299 0.203125,0.804688 0.147305,0.0076 0.445098,0.482313 0.742187,0.195312 0.497176,-0.130472 1.390854,0.170912 1.574219,-0.49414 0.04441,-0.335293 -0.386562,-0.627137 -0.533203,-0.716797 0.206095,0.01085 0.624124,-0.320375 0.197266,-0.328125 -0.361979,0.02148 -0.723959,0.04297 -1.085938,0.06445 z m 2.853516,-0.01953 c 0.757186,-0.0862 0.643383,1.388789 -0.101563,1.085937 -0.484927,-0.158816 -0.405148,-1.028015 0.101563,-1.085937 z m -4.71875,0.07617 c -0.61986,0.211919 -1.338279,-0.0313 -1.916016,0.320313 -0.06998,0.380992 -0.01549,0.998503 0.197266,1.212891 -0.05635,-0.554348 0.323866,0.226435 0.623305,0.05007 0.458167,-0.07842 1.010965,0.0604 1.413804,-0.167257 0.364644,-0.313492 -0.01658,-0.953496 -0.234375,-1.029297 0.316203,-0.09721 0.25761,-0.461375 -0.08398,-0.386719 z M 80.261719,58.5 c 0.759955,-0.08018 0.671828,1.283878 -0.06836,1.099609 C 79.686703,59.499679 79.760597,58.54921 80.261719,58.5 Z m 1.890625,0.0039 c 0.392457,0.02396 -0.338875,0.532087 -0.113282,0.07422 0.02062,-0.04295 0.06312,-0.07482 0.113282,-0.07422 z m 21.468746,0.123047 c -0.35252,0.136796 0.28868,0.309016 0.0137,0.002 l -0.004,-0.0078 z m -24.124996,0.04297 c 0.304395,0.04502 -0.486666,0.660596 -0.253906,0.265625 0.02914,-0.121497 0.100214,-0.281626 0.253906,-0.265625 z m 6.460937,0.0059 c -0.518595,0.05115 0.146672,0.867303 0.277344,0.34961 0.03159,-0.162522 -0.08931,-0.385924 -0.277344,-0.34961 z m -13.33789,0.01172 c 0.25739,-0.0155 0.748365,-0.04303 0.746093,0.332031 -1.6339,-0.05719 -3.269994,-0.04079 -4.902343,0.05078 0.276574,-0.659239 1.137047,-0.214456 1.676493,-0.376355 0.826339,-0.02777 1.653191,-0.01054 2.479757,-0.0065 z m 4.892578,-0.002 c 0.793054,-0.103595 0.619876,1.368769 -0.13086,1.072265 -0.375428,-0.199542 -0.382587,-1.051806 0.13086,-1.072265 z m 30.384761,0.03906 c -0.27986,-0.01806 0.48897,-0.04498 0,0 z m -24.099605,0.0625 c 0.440574,-0.06301 0.07088,0.874087 -0.101563,0.398438 -0.01855,-0.1208 -0.132779,-0.420006 0.101563,-0.398438 z m -6.978516,0.06445 c 0.05627,0.234253 -0.465116,0.879912 -0.232421,0.171876 0.01963,-0.101483 0.141048,-0.15446 0.232421,-0.171876 z m 5.490235,0.05859 c 0.363948,-0.01228 -0.0683,0.752534 -0.0625,0.261719 -0.01262,-0.07027 -0.09134,-0.286599 0.0625,-0.261719 z m -1.212891,0.04297 c 0.467525,-0.04178 0.0035,0.887072 -0.134765,0.376953 -0.03123,-0.126216 -0.07014,-0.39001 0.134765,-0.376953 z m 27.189457,0.01758 c 0.52935,0.189657 -0.54201,0.271917 -0.71094,0.125 0.20944,-0.112832 0.4768,-0.114419 0.71094,-0.125 z m -28.687504,0.08398 c 0.396344,-0.0021 -0.04435,0.793667 -0.113281,0.33789 -0.008,-0.09606 -0.04378,-0.335238 0.113281,-0.33789 z m -4.255859,0.06445 c -0.568841,0.05343 -1.425271,-0.08561 -1.683594,0.580078 0.02652,-0.280081 -0.258702,-0.487038 -0.521484,-0.431641 0.770568,-0.08057 1.543737,-0.145088 2.318359,-0.167969 l -0.09855,0.01699 z m 34.837893,0 c 1.03426,0.196493 2.43193,-0.369835 3.15234,0.675781 0.33056,0.82101 -0.47621,1.713231 -1.30664,1.673828 -0.23568,0.163262 -0.93306,0.495355 -0.90039,-0.05859 0.0465,-0.867774 -0.41747,-1.663935 -1.03711,-2.224609 -0.0169,-0.04949 0.0522,-0.08008 0.0918,-0.06641 z m -38.734378,0.03906 c 0.403898,0.326774 -0.717209,0.433501 -0.589843,0.07227 0.190906,-0.05222 0.39134,-0.09279 0.589843,-0.07227 z m 6.882813,-0.0078 c 0.370355,0.03897 -0.01389,0.775382 -0.146484,0.339843 -0.058,-0.120877 -0.01665,-0.337036 0.146484,-0.339843 z m -8.066406,0.111328 c 0.161279,0.345644 -0.275928,0.734999 -0.08008,1.121093 0.09306,0.560636 0.695094,0.901679 1.219135,0.712009 0.689666,0.02763 1.40253,-0.082 2.067974,0.153226 -0.314498,0.435425 -0.925507,-0.04972 -1.367951,0.117898 -1.198476,0.01966 -2.402291,0.0028 -3.592987,0.161399 0.175716,-0.795479 1.485128,-2.52e-4 1.59375,-0.859375 0.180471,-0.404479 -0.476342,-1.294473 0.160157,-1.40625 z m 6.669922,0.0078 c 0.206875,0.3601 -0.218928,0.337135 -0.04492,-0.0059 z m -3.980469,0.04102 c -0.789547,0.06633 0.465996,-0.09479 0,0 z m -3.238281,-0.01953 c 0.03715,0.470106 0.313065,1.263941 -0.0057,1.558185 -0.396314,-0.06965 -1.174404,0.428627 -1.310676,-0.162092 -0.03119,-0.450399 -0.27274,-1.356455 0.447011,-1.351972 0.28856,-0.0344 0.578619,-0.05697 0.869396,-0.04412 z m 5.824218,0.0918 c 0.604956,0.05427 0.479421,1.147442 -0.0293,1.330079 -0.646509,0.03945 -1.447279,0.08245 -2.003906,0.103515 0.202719,-0.196918 0.07367,-0.614465 0.292969,-0.220703 0.447934,0.141187 -0.0469,-0.538038 0.160156,-0.742187 0.260405,-0.614915 1.060892,-0.377898 1.580078,-0.470704 z m -2.304687,0.111329 c 0.13762,0.0081 -0.158324,0.02567 0,0 z m -0.876953,0.01953 c 0.730277,0.03926 0.665368,1.309491 -0.0957,1.234375 -0.665388,7.38e-4 -0.57918,-1.325899 0.0957,-1.234375 z m -1.152344,0.0293 c 0.803281,0.109421 0.574964,1.677291 -0.261719,1.357422 -0.517763,-0.265114 -0.426964,-1.426971 0.261719,-1.357422 z m 37.068355,0.07227 c 0.17659,0.306811 -0.693,0.462668 -0.40234,0.02539 0.11484,-0.05218 0.29297,-0.0532 0.40234,-0.02539 z m -2.41015,0.08203 c 0.53789,-0.08234 0.1531,1.034199 -0.16992,0.609375 -0.0311,-0.189623 -0.17937,-0.619446 0.16992,-0.609375 z m 0.59179,0.01953 c 0.11868,0.159282 -0.0911,-0.01136 0,0 z m -33.212886,0.03125 c 0.481677,0.06442 0.171958,1.218558 -0.205078,0.697265 -0.06709,-0.218095 -0.106582,-0.655917 0.205078,-0.697265 z m -0.867187,0.03516 c -0.179482,0.380766 0.390971,-0.03932 0,0 z M 70.5,60.183594 c -0.01669,0.460149 -0.244692,-0.298398 -0.05469,-0.398438 0.01823,0.132813 0.03646,0.265625 0.05469,0.398438 z m 33.38672,-0.367188 c 0.44444,0.06906 -0.22245,0.676224 -0.22266,0.171875 -0.0238,-0.117621 0.12004,-0.198465 0.22266,-0.171875 z m 1.39648,0.126953 c 0.37917,0.167053 0.28475,1.180163 -0.17382,0.888672 -0.18918,-0.222067 -0.28063,-0.984334 0.17382,-0.888672 z m -2.13867,-0.01953 c 0.004,0.02573 -0.0383,-0.01985 0,0 z m 3.80274,0.0625 c 0.52626,0.253076 0.36295,0.991406 -0.09,1.216623 -0.22404,0.342522 -0.66437,0.479596 -0.98228,0.220877 -0.41554,-0.212884 0.0398,-0.713363 0.33594,-0.789062 0.22383,-0.203838 0.35791,-0.736054 0.73633,-0.648438 z m -17.173832,-0.0098 c 0.356213,0.142444 -0.294613,0.348598 -0.417969,0.167969 -0.43712,-0.02591 -0.88698,0.230912 -1.310547,0.03516 0.542677,-0.25928 1.162517,-0.05778 1.728516,-0.203126 z m -5.316407,0.05859 c 0.450131,0.216549 -0.540893,0.195638 0,0 z m 20.210939,0.0059 c 0.18628,0.09018 -0.15499,0.07449 0,0 z m -1.60156,0.191406 c 2.42859,0.993799 4.57349,2.53822 6.90145,3.729875 2.80621,1.594931 5.67568,3.095158 8.35636,4.897078 0.84773,1.203422 -0.13638,2.600014 -0.61768,3.735786 -1.69158,3.779981 -3.2387,7.627513 -5.10107,11.328667 -0.68056,0.639431 -1.7267,0.06262 -2.05987,-0.668822 -1.95008,-2.359496 -3.90541,-4.739078 -5.65498,-7.243287 -0.14739,-0.368137 0.38177,-1.049982 0.64145,-0.506945 1.30979,2.238675 3.17403,4.083241 4.72475,6.150573 0.48214,0.592262 0.96765,1.214764 1.49709,1.746997 0.72534,-0.636168 0.73605,-1.712494 1.24803,-2.496296 1.57266,-3.670671 3.19104,-7.324406 4.64259,-11.04472 -0.24955,-1.021756 -1.51949,-1.075253 -2.21951,-1.671777 -4.16362,-2.322903 -8.31491,-4.668228 -12.51486,-6.921973 -2.63291,-0.324865 -5.267514,0.225735 -7.904301,0.205078 -1.402791,0.09569 -2.642861,0.798221 -3.807354,1.509216 -0.973821,0.501453 -2.105884,0.673726 -3.175067,0.618034 -0.632969,-0.0888 -0.632741,-1.044222 0.01172,-1.101859 0.739115,-0.03392 1.499074,0.08674 2.186188,-0.280388 1.644265,-0.680282 3.146048,-1.966721 5.035185,-1.795555 2.490378,-0.109646 4.994411,-0.39199 7.480151,-0.3082 0.10991,0.03951 0.21982,0.07901 0.32973,0.118518 z M 72.408203,60.128906 c -0.257715,0.320041 0.443664,0.03813 0.0039,-0.0059 z m 11.564453,0.06055 c -0.107303,0.0032 -0.09023,-0.07096 0,0 z m -2.207031,-0.01563 c 0.531695,-0.02177 -0.132977,0.446554 -0.126953,0.03711 0.03558,-0.03089 0.08213,-0.0372 0.126953,-0.03711 z m 1.486328,0.0098 c 0.247285,0.18024 0.597546,0.495374 0.749575,0.767695 -0.05557,0.560143 -0.644218,0.05536 -0.983651,0.278722 -0.306207,0.19677 -1.033472,-0.127732 -0.598356,-0.470665 0.340347,-0.141808 0.172896,-0.595202 0.619541,-0.56794 0.07097,-0.0022 0.141918,-0.0057 0.212891,-0.0078 z m 30.847657,0.0098 c 0.67132,0.129054 1.00599,0.809581 1.47851,1.232422 -0.89553,0.495887 -1.96706,0.513529 -2.93167,0.829129 -1.02546,0.252369 -2.04503,0.531722 -3.08395,0.725559 -0.38315,-0.261664 0.15457,-0.570511 0.43213,-0.55103 1.32781,-0.493309 2.77899,-0.76975 3.96435,-1.564205 -0.0386,-0.342064 -0.47815,-0.611714 0.14063,-0.671875 z m -27.775391,0.08008 c 0.985104,0.166351 0.793129,1.980264 -0.285157,1.748046 -0.924519,-0.06548 -1.044393,-1.714943 -0.01953,-1.726562 0.09977,-0.02893 0.20266,-0.01816 0.304688,-0.02148 z m -5.123047,0.03711 c 0.397088,0.07226 -0.220652,0.05224 0,0 z m 23.382808,0.01172 c 0.34513,-0.02988 0.19685,0.713809 -0.0566,0.326172 -0.17658,-0.102302 -0.20219,-0.34682 0.0566,-0.326172 z m -23.855464,0.162109 c 0.172356,0.267301 0.796616,0.551443 0.371093,0.861328 -0.405224,0.115131 -0.832246,0.0082 -1.25,0.06055 -0.42753,-0.05936 -0.228823,-0.438008 -0.0072,-0.61 0.106917,-0.370314 0.59878,-0.634717 0.88615,-0.311875 z m -1.56836,-0.08203 c 0.157658,0.290364 -0.676708,0.09772 -0.239926,-0.02553 0.07643,0.02135 0.178935,-0.05176 0.239926,0.02553 z m 10.947266,-0.0078 c 0.437712,0.233113 0.229839,0.909118 0.248047,1.316407 -0.361765,0.746272 -1.370761,0.390575 -2.017578,0.601562 -0.608641,-0.18293 -0.163124,-1.016249 -0.392579,-1.464844 -0.05195,-0.625824 0.81162,-0.313099 1.180373,-0.418531 0.321922,-0.05208 0.656691,-0.04005 0.981737,-0.03459 z m -10.556641,0.02344 c 0.182871,0.01428 -0.214607,0.0484 0,0 z m 11.169922,0.06641 c 0.56582,0.128604 0.62102,1.165419 -0.0039,1.234375 -0.271667,-0.361603 -0.137871,-0.836295 -0.08594,-1.244141 z m -13.109375,-0.0059 c 0.426694,-0.127962 0.389377,0.508004 0.804688,0.503906 0.229469,0.221908 -0.06186,0.761703 -0.361328,0.517578 -0.397812,-0.01304 -1.192884,0.326872 -1.259766,-0.300781 0.390999,-0.09681 0.368484,-0.739876 0.816406,-0.720703 z M 78.5,60.5 c -0.124974,0.0509 -0.223896,-0.04612 0,0 z m -2.166016,0.002 c 0.508326,0.110442 -0.223577,0.302897 0,0 z m 37.306636,0.07422 c 0.28351,0.126898 -0.29292,0.649167 -0.19726,0.238281 0.007,-0.101034 0.0314,-0.345132 0.19726,-0.238281 z m -21.798823,-0.0098 c 0.238933,0.118798 0.859533,-0.08505 0.902344,0.07227 -0.487134,0.160484 -0.869194,0.697488 -1.417969,0.615234 -0.180231,-0.332365 0.202909,-0.669937 0.515625,-0.6875 z m -9.798828,0.138672 c -0.0035,0.440623 0.04226,0.883222 0.404297,1.175781 0.226413,0.712051 -1.068359,1.154855 -1.216797,0.339844 -0.08781,-0.457377 0.493549,-0.784759 0.207031,-1.236328 -0.114442,-0.330732 0.176773,-0.400765 0.429688,-0.359375 0.07857,0.01975 0.185825,-0.09664 0.175781,0.08008 z m -3.140625,0.03906 c 0.747178,-0.0709 0.262783,0.962512 0.769531,1.201171 0.44193,0.786435 -1.157625,1.23057 -1.255164,0.350744 -0.06339,-0.39789 0.53818,-0.621104 0.273777,-1.058741 -0.05794,-0.189389 -0.07771,-0.517934 0.211856,-0.493174 z m -2.570313,0.128906 c 0.229998,0.01214 0.446418,0.28115 0.234375,0.46875 -0.0028,0.505931 0.723685,1.043359 0.208985,1.501953 -0.28428,0.243904 -0.728819,0.02944 -0.555202,-0.353809 -0.0093,-0.542919 -0.10667,-1.095039 0.0083,-1.632519 l 0.09888,0.01492 z m 9.708985,0.01367 c -0.511742,0.165324 0.362914,0.817759 0.353515,0.273437 0.01479,-0.176818 -0.188911,-0.322995 -0.353515,-0.273437 z m -10.544922,0.002 c 0.347675,0.07784 -0.450205,0.157722 -0.589844,0.103516 -1.135811,0.02504 0.415808,-0.06684 0.589844,-0.103516 z m 32.031246,0.341797 c 0.11302,0.217567 0.18631,1.255548 -0.13998,0.777613 -0.21866,-0.242829 -0.0948,-1.108996 0.10524,-0.991408 0.0116,0.07126 0.0232,0.14253 0.0347,0.213795 z m -32.662106,-0.02148 c 0.765079,0.08852 0.357692,1.040865 0.407179,1.547222 -0.102286,1.961927 0.09401,4.159647 -1.088868,5.843264 -1.327484,1.084053 -2.819148,1.958827 -4.07417,3.132952 0.112942,-1.671636 0.476252,-3.318369 0.490488,-5.000393 0.0906,-1.569904 0.103406,-3.142731 0.142325,-4.714451 0.971349,-0.111988 2.07157,0.237984 2.933593,-0.355469 -0.0078,-0.620288 0.818506,-0.397579 1.189453,-0.453125 z m 0.773438,0.07031 c 0.437877,0.49335 -0.0079,1.199828 0.135783,1.783869 -0.05579,1.75456 -0.08464,3.588528 -0.872111,5.198553 -0.288535,-0.27555 0.306467,-0.625599 0.177734,-0.962891 0.418717,-1.998751 0.37443,-4.050559 0.476563,-6.080078 l 0.08046,0.05938 z m 26.937498,0.07617 c 0.40771,-0.143428 0.48085,0.678313 0.0605,0.464843 -1.06374,-0.0672 -2.18387,0.211805 -3.197267,-0.228515 0.628457,-0.36524 1.401507,-0.07729 2.089847,-0.21875 0.3483,-0.01737 0.69851,-0.04769 1.04687,-0.01758 z m -19.410154,0.03711 c 0.864401,-0.06206 0.847634,1.574464 -0.05469,1.365234 -0.414942,-0.03116 -0.575745,-0.433748 -0.466582,-0.780731 -0.05495,-0.30993 0.209577,-0.598047 0.52127,-0.584503 z m 23.750004,0.05469 c 0.34808,0.104819 -0.22571,0.719623 -0.20118,0.25 0.0622,-0.07821 0.085,-0.227405 0.20118,-0.25 z m 1.05664,0.255859 c 0.21064,0.19445 0.0563,1.035464 -0.14649,0.527344 -0.0695,-0.138899 -0.0305,-1.129662 0.14649,-0.527344 z m -9.779301,-0.146484 c 0.539187,0.42984 0.105969,1.213284 0.209855,1.793455 -0.108058,2.036822 -0.415663,4.349852 -2.013944,5.780955 -0.439746,0.23084 -1.063139,0.192457 -1.387317,-0.216989 1.515678,-0.607726 1.832597,-2.440118 2.133796,-3.858685 0.215298,-1.097406 0.121849,-2.270371 0.233392,-3.342486 0.187151,-0.213915 0.576786,-0.237332 0.824218,-0.15625 z m -26.6875,0.0039 c 0.539323,0.0421 -0.22078,0.299825 -0.389038,0.20874 -0.508499,-0.0075 -0.689871,-0.317261 -0.01812,-0.184208 0.135975,0.0027 0.274345,0.01105 0.407163,-0.02453 z m 8.955079,0.0078 c 0.85056,-0.01145 0.753121,1.572657 -0.115235,1.345703 -0.697741,-0.05264 -0.589954,-1.390973 0.115235,-1.345703 z m 16.496093,0.06641 c 0.493787,0.482418 -0.0072,1.233152 0.121572,1.824564 -0.117341,1.813601 -0.365597,3.949222 -1.919691,5.120291 -0.214591,0.153455 -0.965046,0.176653 -0.876481,-0.04609 0.251381,-0.215043 0.155157,-0.641629 0.444131,-0.82845 -0.110872,-0.302517 -0.01401,-0.558058 0.234376,-0.71289 0.199117,-0.443552 -0.635659,-0.86758 -0.696077,-0.268716 -0.08019,0.362372 -0.486427,1.70176 -0.223671,0.684035 0.441634,-1.853759 0.57562,-3.767721 0.554513,-5.669226 0.366308,0.130709 -0.06365,0.907112 0.472656,0.820313 0.312524,-0.07179 0.650056,-0.558664 0.300782,-0.791016 0.455946,-0.240521 1.004586,7.77e-4 1.482421,-0.195312 l 0.08603,0.05098 z m -23.847656,-0.05078 c 0.343268,0.03118 -0.09032,0.06533 0,0 z m 25.683594,0.716797 c 0.03938,2.164907 -0.252168,4.461943 -1.464844,6.302735 -0.595853,0.617401 -0.393046,0.302349 0.01025,-0.203805 1.314959,-1.998207 1.177708,-4.487137 1.397955,-6.770805 0.01888,0.223959 0.03776,0.447917 0.05664,0.671875 z M 70.076172,61.671875 c 0.769553,0.16647 0.311069,1.138182 0.407877,1.670287 -0.111269,3.503829 0.03223,7.203149 -1.487302,10.446071 -0.489566,0.555107 -1.554134,0.714029 -2.000653,0.02427 0.505807,-0.654084 0.676007,-1.440401 0.789062,-2.238281 0.607226,-3.227522 0.554369,-6.525334 0.634766,-9.794922 0.555447,0.01219 1.101042,-0.113617 1.65625,-0.107422 z m 29.013672,0.06641 c 0.01863,1.952361 -0.0632,3.989447 -0.896485,5.792969 0.804822,-1.810229 0.794485,-3.908156 0.896485,-5.792969 z m -21.414063,-0.02344 c 0.875025,-0.03321 0.776379,1.558325 -0.0918,1.349609 -0.704796,-0.06408 -0.565871,-1.340552 0.0918,-1.349609 z m 16.56836,0.0957 c 0.363802,0.717922 -0.01634,1.558473 0.06799,2.326773 -0.227947,2.868043 -1.139753,5.625971 -2.18518,8.288461 -0.83435,-0.416601 -1.778358,-0.694247 -2.441406,-1.382812 -0.04975,-0.407051 0.468603,-0.781793 0.253906,-1.158203 -0.466549,0.186959 -0.117491,1.277193 -0.814453,1.027343 -0.266881,-0.06484 -1.100173,-0.36321 -0.605469,-0.673828 0.71734,-0.233302 1.471598,-0.595966 1.691795,-1.38198 0.871787,-1.696791 0.983837,-3.640128 1.132424,-5.506692 0.790134,-0.761256 1.798356,-1.248532 2.832031,-1.585937 z m 9.191409,0.05273 c 0.31886,-0.0315 0.17195,0.787649 -0.004,0.289063 -0.51706,-0.06742 -0.54682,-0.277738 0.002,-0.289063 z m 0.55273,0.103516 c 0.32429,-0.002 -1.8e-4,0.712717 -0.0937,0.308594 -0.006,-0.09138 -0.0807,-0.329537 0.0937,-0.308594 z m -4.460936,0.03516 c -0.226677,0.08767 -0.103728,-0.0267 0,0 z m 16.812496,0.646485 c -0.34246,1.333365 -0.7971,2.633694 -1.1875,3.953124 -0.52432,-0.492824 0.17947,-1.1375 0.21267,-1.694675 0.33631,-0.938382 0.35525,-2.058136 1.09983,-2.795559 -0.0417,0.179037 -0.0833,0.358073 -0.125,0.53711 z m -13.5332,-0.417969 c 0.50855,0.337081 -0.10768,1.119926 0.39063,1.46289 0.46435,-0.174417 0.35132,0.582306 0.22461,0.810547 -0.20256,1.138836 -0.44988,2.345373 -1.22461,3.248047 -0.83092,-0.788173 -2.05208,-0.441609 -3.076176,-0.490234 -0.403665,-0.503381 0.452679,-0.863503 0.863671,-0.689168 0.860635,-0.02921 1.838785,0.110051 2.618755,0.163777 -0.90156,-0.947863 -2.32946,-0.02894 -3.38477,-0.53125 -0.247789,-0.166818 0.379411,-0.345694 0.318359,-0.666016 0.169526,-0.41549 0.812441,-0.03822 1.171871,-0.185546 0.7498,-0.03226 1.63748,0.10942 2.30469,0.06836 -0.61584,-0.632654 -1.54101,-0.131056 -2.28515,-0.390625 -0.28316,0.01889 -1.283812,0.307383 -1.119145,0.002 0.376669,-0.328329 -0.574051,-0.669089 -0.03745,-0.878704 0.926522,-0.584477 2.086232,-0.194769 3.113622,-0.269733 0.48003,0.05497 0.66266,-0.208756 0.0391,-0.22461 -0.4192,-0.327409 -1.15611,-0.113275 -1.69336,-0.158203 -0.45063,0.0091 -1.1242,0.0515 -1.431641,-0.09961 0.324523,-0.171221 0.301506,-0.837065 -0.134765,-0.8125 0.409608,-0.561952 1.241146,-0.254458 1.839336,-0.345636 0.50089,-0.0012 1.0015,-0.0409 1.50246,-0.01374 z m 5.5,0.130859 c 0.39263,0.324674 -0.42109,0.454853 -0.0391,-0.01172 z m -23.488281,0.01758 c 0.597829,0.210632 0.184416,1.033201 0.376953,1.478516 -0.223989,0.420248 -0.802861,-0.01912 -0.574218,-0.400391 0.04,-0.305221 -0.218953,-0.955131 0.197265,-1.078125 z m 18.572261,0.0625 c 0.28364,0.09085 -0.0353,0.852966 -0.0723,0.308594 -0.0119,-0.07288 -0.114,-0.381581 0.0723,-0.308594 z m -16.20312,-0.0098 c 0.301075,0.335991 0.326852,0.979867 0.09766,1.310547 -0.438323,0.09447 -0.268107,-0.608398 -0.380859,-0.857422 -0.01327,-0.176142 0.03664,-0.492434 0.283203,-0.453125 z m 17.47852,0.0059 c 0.34752,0.01947 0.71045,0.458731 0.3025,0.68683 -0.28299,0.396683 -0.96047,0.609409 -1.32594,0.205748 0.34569,-0.286185 0.53379,-0.816603 1.02344,-0.892578 z m -20.316411,0.398438 c 0.137086,0.232172 0.07998,1.381676 -0.04496,0.619063 -0.137183,-0.415571 -0.11906,0.332141 -0.392542,0.328202 -0.699873,0.27052 -1.48335,0.0069 -2.214298,0.158118 -1.697523,0.08083 -3.395149,0.163146 -5.094295,0.201257 -0.06616,-0.316651 -0.272717,-1.118972 0.287109,-1.050781 1.000274,0.569722 2.089626,-0.570843 3.095703,-0.02344 1.006903,0.127579 2.05656,-0.629862 3.015625,-0.07031 0.38315,0.06106 0.987469,-0.448546 1.173828,0.07227 0.263283,-0.108744 -0.01283,-0.937024 0.173828,-0.234374 z m 1.628907,-0.308594 c 0.804134,-0.0418 0.772177,1.330484 -0.01172,1.285156 -0.737702,0.115074 -0.928885,-1.023073 -0.277344,-1.242188 0.09666,-0.01224 0.19271,-0.02891 0.289063,-0.04297 z m 8.875,0.07813 c -0.281328,0.262532 -0.236313,1.182421 0.310546,0.919922 0.462264,-0.107831 0.412845,-0.832595 -0.07062,-0.847763 -0.06636,-0.05222 -0.151176,-0.103393 -0.239926,-0.07216 z m -8.105469,0.310547 c 0.09266,0.657906 -0.105336,0.416967 -0.06609,-0.07647 0.02836,-0.223406 0.05587,-0.03957 0.06609,0.07647 z m 12.654297,0.121093 c -0.0079,0.0021 -0.01283,-0.02222 0,0 z m -4.31836,0.132813 c -0.04223,-0.0049 -0.113586,-0.09866 0,0 z m 10.699216,0.08398 c 0.5875,-0.09448 1.31496,0.585515 0.86524,1.142578 -0.21105,0.682658 -0.6471,1.66546 -1.27735,1.837891 0.0587,-0.421252 -0.63837,-0.354941 -0.90464,-0.354392 -0.45512,0.08808 -0.83368,-0.199684 -0.1614,-0.193093 0.50036,-0.02649 1.04867,0.177487 1.50745,0.154907 -0.30813,-0.662345 -1.19273,-0.262954 -1.74805,-0.330078 -0.39783,-0.115673 -0.0885,-0.533625 0.2211,-0.421875 0.6371,-0.06589 1.29268,0.123992 1.90781,0.08594 0.12013,-0.266778 -0.45441,-0.337371 -0.65383,-0.358797 -0.51431,-0.108348 -1.2153,0.25162 -1.60398,-0.149015 0.0179,-0.588639 0.83649,-0.377425 1.22679,-0.398698 0.43883,0.0093 0.95745,0.170569 1.34547,-0.03294 -0.42412,-0.553202 -1.2871,-0.23358 -1.88314,-0.226899 -0.77607,-0.0082 -0.0923,-0.362902 0.30502,-0.470367 0.23301,-0.206929 0.53325,-0.33898 0.85351,-0.285156 z m -14.763669,0.175782 c 0.281334,0.532733 -0.131179,1.149604 -0.06194,1.723546 -0.19677,1.627183 -0.507906,3.402075 -1.734933,4.594813 -0.481416,0.0029 0.199792,-0.581414 0.244828,-0.812128 0.818774,-1.678997 0.966551,-3.572736 1.139938,-5.404669 0.120715,-0.02739 0.303212,-0.26375 0.412109,-0.101562 z m 3.806641,0.201171 c -0.30765,0.263291 -0.273434,1.233853 0.294922,0.923829 0.447326,-0.227593 0.352923,-0.92648 -0.179688,-0.925782 0.06293,0.132545 -0.100151,-0.0318 -0.115234,0.002 z m -4.769531,0.01367 c 0.59702,-0.02923 0.139017,0.686738 0.212341,1.003304 -0.197505,1.945027 -0.522327,4.101028 -2.048279,5.484977 -0.726315,0.268641 -1.655858,0.289006 -2.181968,-0.349873 -0.333147,-0.161451 -0.861918,-0.153607 -0.966469,-0.593486 0.95255,0.05174 1.71769,-0.664727 1.954145,-1.549463 0.489497,-1.157085 0.442095,-2.466114 0.747027,-3.649756 0.514618,-0.404875 1.251497,-0.07903 1.849609,-0.28125 0.143592,-0.02907 0.287525,-0.05228 0.433594,-0.06445 z m 17.197269,0.25 c 0.0728,0.314599 -0.30715,0.543175 -0.0937,0.08008 -0.0152,-0.05393 0.0469,-0.110499 0.0937,-0.08008 z m -20.671879,0.07617 c 0.322681,-0.03923 1.109892,0.0032 0.882813,0.515625 -0.306844,1.530685 -0.297714,3.472311 -1.765625,4.410156 -0.219663,0.1195 -0.754598,-0.06417 -0.4375,-0.333984 0.913507,-1.36786 0.851362,-3.078962 1.261719,-4.617188 z m 12.732422,0.01953 c 0.0661,0.41096 -0.07735,-0.238851 0,0 z m -13.515625,-0.03516 c 0.723983,0.127549 0.225875,1.026786 0.200294,1.485655 -0.180346,1.241163 -0.321317,2.775074 -1.534278,3.465517 -0.45556,-0.0086 -0.616028,-0.588867 -0.285711,-0.849682 0.224363,-0.761364 0.862992,-1.291282 1.315887,-1.889547 0.199282,-0.558916 -0.09201,-1.148474 -0.416895,-1.596709 0.08288,-0.326966 0.384537,-0.58492 0.720703,-0.615234 z M 83.8125,64.136719 c 0.363764,0.54312 -0.07961,1.218919 -0.04513,1.823625 -0.145942,0.964684 -0.35309,1.918527 -0.540805,2.875594 -0.633421,-0.225238 -0.916825,-1.021091 -0.581151,-1.594376 0.20395,-1.030564 0.358528,-2.072401 0.41123,-3.122421 0.242215,0.02344 0.557526,-0.145909 0.755859,0.01758 z m -0.998047,0.240234 c -0.110778,1.12868 -0.194906,2.282518 -0.615234,3.347656 -0.742154,0.09956 -1.032569,-0.790627 -1.638672,-1.033203 -0.348328,-0.629396 0.07377,-1.742845 -0.818359,-2.001953 -0.447912,-0.04348 -0.494029,-0.612193 0.06717,-0.440412 1.003457,-0.0017 2.002997,-0.103551 3.005099,-0.143572 0,0.0905 0,0.180989 0,0.271484 z m -6.324219,-0.125 c 0.706892,0.442021 1.540253,-0.153104 2.289063,0.0957 -0.237251,0.430671 -0.92654,0.03811 -1.236333,0.454374 -1.138367,0.698931 -1.329683,2.684664 -0.101558,3.391329 0.319297,-0.0536 0.838585,0.265872 0.394532,0.544922 -0.619476,0.801411 -1.96488,1.033309 -2.714844,0.285157 1.152454,-1.344584 1.003366,-3.220953 1.251953,-4.865235 l 0.07809,0.06247 z m 18.410157,-0.07031 c 0.141246,0.101536 -0.01373,0.03047 0,0 z m 13.070309,0.05469 c 0.2935,0.02801 0.087,0.588751 -0.01,0.152344 -0.027,-0.0337 -0.0841,-0.165336 0.01,-0.152344 z m -23.703122,0.05664 c 0.2348,-0.0075 0.840234,-0.02041 0.498047,0.34375 -0.235108,0.178681 -0.812659,-0.07438 -0.578125,-0.388672 z m 23.119142,0.488281 c -0.089,0.451922 -0.2437,1.262273 -0.7793,1.257812 -0.40387,-0.469442 0.3701,-0.850258 0.47266,-1.292968 0.2087,-0.323529 0.50096,-0.713984 0.30664,0.03516 z m 0.46875,-0.162109 c 0.26234,0.204878 0.57847,0.823404 0.0469,0.910156 -0.063,0.173003 -0.68893,0.583266 -0.5625,0.130859 0.22293,-0.279097 0.13526,-1.103402 0.48286,-1.071962 z m 0.65234,-0.03516 c 0.26989,0.0579 0.46113,0.330293 0.17969,0.490235 -0.23468,0.260165 -0.53431,-0.587029 -0.17969,-0.490235 z m -13.824216,0.04687 c -0.289136,0.299491 -0.161962,1.164812 0.380859,0.845703 0.463159,-0.214191 0.244774,-0.919466 -0.259765,-0.84375 0.02419,0.09323 -0.100719,-0.03264 -0.121094,-0.002 z m -15.400391,0.201172 c 0.648594,0.04642 1.067857,0.810837 0.869141,1.404297 -0.493657,-0.748232 -1.845789,-1.084255 -2.308594,-0.125 -0.351796,0.586262 -0.104078,1.458201 0.527344,1.738281 -0.197058,0.568824 -1.081943,0.115705 -1.213058,-0.313867 -0.564902,-1.298165 0.873801,-2.663035 2.125167,-2.703711 z m 5.25,0.13086 c 0.920931,-0.09912 1.110586,1.48435 0.232422,1.669921 -0.282586,0.324478 -1.122629,0.0816 -0.783203,-0.398437 0.134745,-0.42414 -0.06822,-1.198089 0.550781,-1.271484 z m -6.810547,0.271484 c -0.317181,0.255623 -0.650578,0.848067 -0.748047,1.056641 0.173355,-0.503089 0.517625,-0.94448 0.964844,-1.232422 -0.07227,0.05859 -0.144531,0.117187 -0.216797,0.175781 z m 17.242188,-0.117187 c -0.03211,0.212219 -0.149518,0.06761 0,0 z m 14.306636,0.08984 c -0.34153,0.41512 -0.92923,0.535716 -1.32563,0.902756 -0.26047,0.103084 -0.71182,0.522418 -0.28179,0.726151 0.27728,0.408646 -0.18595,0.876649 -0.61091,0.800667 -1.37084,0.369075 -2.8034,0.239024 -4.20549,0.230583 0.27603,-0.479119 0.94568,-0.09677 1.38945,-0.221577 1.09845,-0.01922 2.36504,0.09027 3.31562,-0.46983 -0.44076,-0.207127 -0.54501,-1.043413 0.0469,-1.111328 0.55401,-0.312792 1.0034,-0.912216 1.68945,-0.916015 z m 0.4961,0.04883 c 0.41476,0.03072 0.0925,0.717852 -0.18946,0.410157 -0.33575,-0.05184 0.006,-0.437216 0.18946,-0.410157 z m -32.615236,0.279297 c -0.05903,-0.02628 0.38011,-0.446423 0,0 z m 33.199216,0.113282 c 1.09704,0.528754 2.1452,1.179393 3.21485,1.777343 -1.13618,-0.442652 -2.23449,-0.973906 -3.34375,-1.478515 -0.0101,-0.105583 -0.0119,-0.282092 0.1289,-0.298828 z m -0.97265,0.117187 c 0.28524,0.273618 -0.37518,0.476131 -0.58974,0.353331 -0.40257,-0.08544 0.24529,-0.453596 0.42177,-0.409972 l 0.0948,0.03195 z m -30.326176,0.04492 c 1.300871,0.685227 2.166594,1.947151 3.403717,2.7358 1.030188,0.783817 2.206843,1.433716 3.084849,2.382617 0.398083,0.94774 -1.147665,1.819729 -1.740037,0.936987 -2.087068,-1.473453 -4.215618,-2.950637 -5.898919,-4.893295 -0.128781,-0.601715 0.524248,-1.431018 1.15039,-1.162109 z m 31.300786,0.453125 c 1.38694,0.428874 1.70855,2.499142 3.31836,2.460937 0.83627,0.129133 1.7792,-0.435314 2.50094,0.157247 0.53592,0.270426 1.46015,0.599459 1.12015,1.379863 -1.23961,2.765396 -2.35361,5.597793 -3.5918,8.369932 -0.63086,1.45221 -1.26172,2.90442 -1.89258,4.35663 -1.31402,-1.168445 -2.22458,-2.704935 -3.40793,-3.997779 -0.98733,-1.20003 -1.99959,-2.394339 -2.75808,-3.75808 0.19047,-1.000138 1.10607,-1.715626 1.1171,-2.78086 0.33867,-1.465094 0.21024,-2.981651 0.11337,-4.467187 0.51916,-0.05284 1.2947,-0.443606 1.08984,-1.074219 -0.43731,-0.246513 0.14801,-0.82496 0.48633,-0.601562 0.4795,-0.01278 1.0694,0.108013 1.43164,-0.292969 0.15755,0.08268 0.3151,0.165365 0.47266,0.248047 z m -4.07618,-0.123047 c 0.18746,0.366958 0.48706,1.190441 -0.1582,1.255859 -0.85206,-0.02145 -1.70733,0.01876 -2.56055,0.01953 -0.16404,-0.367511 -0.28163,-1.250288 0.34766,-1.177735 0.74004,0.365382 1.75225,0.582001 2.37109,-0.09766 z m -1.38867,0.04297 c 0.73867,0.101437 -0.0805,0.197553 0,0 z m 1.83399,0.154297 c 0.17527,0.20206 0.66994,0.82503 0.16992,0.919921 -0.27055,-0.119617 -0.10286,-0.527509 -0.26758,-0.748046 0.006,-0.04432 4.7e-4,-0.210671 0.0977,-0.171875 z m -12.064457,0.427734 c -0.110443,0.03318 -0.195473,-0.08505 0,0 z m 17.388677,0.265625 c 0.604,0.307285 1.23836,0.549093 1.84374,0.853516 -0.0609,0.639471 -1.10557,0.777399 -1.30468,0.154296 -0.38438,-0.391002 -0.71806,-0.82713 -1.07617,-1.242187 0.17903,0.07813 0.35807,0.15625 0.53711,0.234375 z m -28.019536,-0.0625 c 0.568052,0.07249 0.108122,0.782189 -0.08594,1.025391 0.02733,0.256455 -0.543795,0.609213 -0.320491,0.139187 0.162691,-0.361968 -0.09327,-1.008341 0.406429,-1.164578 z m 15.130859,0.484375 c 1.011457,0.0282 2.035167,0.0193 3.019527,0.320313 -0.37392,0.394013 -0.99791,0.972715 -1.54882,0.634765 0.35046,-0.174649 -0.31343,-0.338226 -0.34571,-0.375 0.40348,-0.109693 0.8016,0.398497 1.15235,0.236328 -0.60882,-0.843254 -1.75366,-0.201421 -2.564456,-0.580078 0.02053,-0.145186 0.146048,-0.23224 0.287109,-0.236328 z m 15.458987,0.564453 c -0.0893,0.368208 -0.52096,0.520686 -0.86328,0.476563 0.2651,-0.163865 0.4255,-0.56791 0.22851,-0.839844 0.21159,0.121094 0.42318,0.242187 0.63477,0.363281 z m -32.369143,-0.06055 c 0.05139,0.224991 -0.161738,-0.05349 0,0 z M 104.2832,68.0625 c 0.74103,0.204404 1.58178,-0.19123 2.29102,0.119141 0.36181,0.572256 0.0431,1.319426 0.20203,1.957699 0.1192,2.384144 -0.90514,5.161525 -3.31904,6.022542 -1.38587,0.504464 -2.88507,0.394138 -4.33221,0.488509 -0.200848,-0.824123 0.220713,-1.705836 -0.209368,-2.500292 -0.211954,-0.396332 0.111875,-0.519409 0.262102,-0.09346 0.475126,0.596268 1.161416,-0.01046 1.755036,0.02135 1.07275,-0.174089 2.17432,0.0015 3.23203,0.05529 0.60738,-0.163374 1.67218,-0.253785 1.55786,-1.131319 -0.017,-0.490984 -0.45489,-1.053625 -0.99219,-0.876953 -0.24511,0.01036 -0.9249,-0.396373 -0.31836,-0.367188 0.59434,-0.113367 1.61205,-0.273923 1.46988,-1.10582 0.007,-0.529869 -0.54941,-1.094597 -1.09293,-0.882461 -0.39207,-0.197413 -1.21195,-0.266504 -1.07422,-0.888672 -0.13643,-0.373389 0.14688,-0.852463 0.56836,-0.818359 z m -5.12695,0.08984 c 0.95656,0.03477 1.96237,1.076635 2.86914,0.316406 0.26034,-0.253963 0.73168,-0.162178 0.60156,0.285156 0.0871,0.330473 0.45953,1.07551 -0.16239,1.071595 -0.9661,0.0089 -1.95468,-0.227407 -2.900234,-0.184196 -1.061753,0.491346 -0.565611,2.584465 0.677864,2.272757 1.01114,-0.224433 2.09147,-0.452922 3.10351,-0.107421 -0.51449,0.6216 -1.41997,0.210011 -2.10169,0.37164 -0.76835,-0.06604 -1.818233,-0.570857 -2.33776,0.28461 -0.588371,0.48486 -1.407651,0.111516 -2.091797,0.28125 -0.79827,-0.223 -0.678567,-1.396282 -1.433642,-1.728789 -0.610257,-0.419217 -1.382825,-0.284503 -2.035108,-0.09543 -0.582546,-0.152594 -0.122536,-0.86709 0.06836,-1.175781 0.28543,-0.48667 0.805273,-1.078568 1.376954,-0.625 0.839342,0.550845 1.948671,0.551985 2.7642,-0.0369 0.543649,-0.265925 0.940065,-1.036804 1.601034,-0.929902 z m 15.78711,0.01172 c 0.49001,0.02924 -0.20253,0.648801 -0.25391,0.226563 0.0431,-0.107074 0.12512,-0.22518 0.25391,-0.226563 z m -36.367188,0.13086 c 0.54611,0.15764 0.940266,0.707464 1.415224,1.029622 0.525255,0.519194 1.238919,0.931985 1.680846,1.476113 0.069,0.673969 -0.12842,1.773306 -1.030029,1.633256 -0.549907,-0.06518 -1.130632,0.07708 -1.653932,-0.02571 -0.449195,-0.315335 -0.996235,-0.874102 -1.568359,-0.453125 -0.416295,0.337387 -0.698902,1.010087 -1.356211,0.820377 -1.757932,0.02035 -3.891043,0.247616 -5.204336,-1.169986 -0.05367,-0.625251 0.849116,-0.694005 1.176263,-1.09307 0.793755,-0.586305 1.591964,-1.166519 2.390143,-1.746774 0.840236,1.055485 2.876837,1.41216 3.583985,0.03125 0.138717,-0.206808 0.304844,-0.44979 0.566406,-0.501953 z m 5.134766,0.43164 c 0.323265,0.467758 1.257392,0.244289 1.294921,0.929688 -0.522396,0.300205 -0.968652,-0.342418 -1.384765,-0.564453 -0.0704,-0.09502 -0.09652,-0.404261 0.08984,-0.365235 z m 1.814453,1.121094 c 1.102345,0.314558 0.942916,1.896631 0.203196,2.524303 -0.505064,0.62914 -1.734946,0.899319 -2.144603,0.04406 -0.119354,-0.511311 0.309265,-0.31444 0.508218,-0.06088 1.035097,0.56327 2.338346,-0.938178 1.50936,-1.851229 -0.156019,-0.171012 -0.779415,-0.402511 -0.527343,-0.640625 0.148313,-0.03093 0.301209,-0.0388 0.451172,-0.01563 z m 14.064453,0.06836 c 0.355174,0.497638 0.428786,1.24044 0.03125,1.738281 -0.454886,-0.418717 -0.532455,-1.406051 -0.03125,-1.738281 z m 0.703126,0.01367 c 0.48481,-0.01819 -0.0357,0.594512 -0.24805,0.230468 -0.130005,-0.154079 0.14596,-0.230653 0.24805,-0.230468 z m 3.54101,0.132812 c 0.0338,0.285352 -0.31809,-0.230978 0,0 z m -0.71093,0.06641 c 0.0973,0.209942 -0.79439,0.08297 -1.04961,0.127804 -0.24067,0.03086 -1.17105,0.0034 -0.44258,-0.108272 0.49898,-0.01 0.99235,-0.0015 1.49219,-0.01953 z m 1.32617,0.140625 c 0.26531,-0.03726 0.50486,0.487351 0.11133,0.425781 -0.30075,0.146399 -0.57284,-0.438778 -0.11133,-0.425781 z m -3.99024,0.08398 c 0.43645,0.108516 -0.0824,0.740075 -0.32226,0.363281 -0.214362,-0.22538 0.085,-0.440113 0.32226,-0.363281 z m -13.570308,0.445312 c 0.430814,0.55055 1.05595,0.949098 1.459296,1.495906 0.498246,1.183567 -1.187673,2.704561 -2.213202,1.728704 -0.328579,-0.267968 -0.724863,-0.319912 -0.08984,-0.347657 0.958837,-0.27502 1.650344,-1.457855 1.220703,-2.404297 -0.05995,1.037852 -0.80152,2.001306 -1.707031,2.423828 -0.229139,-0.0798 -1.304246,-0.403784 -0.720703,-0.537109 1.159557,-0.326914 1.893875,-1.617585 1.621093,-2.783203 0.14323,0.141276 0.286459,0.282552 0.429688,0.423828 z m 17.060548,-0.378906 c 0.10977,0.357198 -0.43471,-0.109469 0,0 z m 1.45898,-0.01172 c 0.52963,0.150655 -0.54046,0.403453 -0.19336,0.03125 0.0631,-0.01814 0.12868,-0.02252 0.19336,-0.03125 z m -2.08593,0.02734 c 0.4294,0.141741 -0.17551,0.378525 -0.37428,0.23137 -0.55911,-0.11002 -1.23592,0.215526 -1.72729,-0.07707 0.42283,-0.340844 1.10152,0.04802 1.61951,-0.136611 0.16101,0.0064 0.32039,-0.02755 0.48206,-0.01769 z m -16.013676,0.03906 c 2.451507,0.563812 4.378874,2.834292 7.041316,2.556296 1.677519,-0.08847 3.357472,-0.09227 5.036809,-0.103171 0.165602,0.58954 -0.705953,0.539244 -1.06875,0.472419 -2.450809,-0.05219 -5.124645,0.619542 -7.357448,-0.730979 -1.265493,-0.626049 -2.509538,-1.295083 -3.786693,-1.89769 -0.06372,-0.108372 -0.01899,-0.309999 0.134766,-0.296875 z m 17.263676,0.332032 c 0.49942,0.200978 -0.33343,0.663357 -0.42579,0.24414 0.012,-0.21301 0.2677,-0.229538 0.42579,-0.24414 z m 0.94726,0.0059 c 0.34122,0.196033 -0.57931,0.278362 -0.24805,0.02344 0.0845,0.0078 0.16344,-0.03217 0.24805,-0.02344 z m -1.59765,0.0625 c 0.0785,0.243183 -0.33549,0.207316 -0.0879,-0.02539 z m -1.20313,0.01367 c 0.11535,0.0129 1.06586,-0.08809 0.5957,0.11914 -0.62176,0.167179 -1.29135,0.07986 -1.91934,0.0379 -0.0346,-0.234992 0.77369,-0.136134 1.04704,-0.162706 0.0922,0.0019 0.1844,0.0038 0.2766,0.0057 z m -20.371094,0.24414 c 0.703375,0.451585 0.03004,1.308123 0.08386,1.943047 -0.0063,0.536124 -0.44398,1.469807 -1.093626,1.066719 -0.196458,-0.155377 -0.244408,-0.592532 0.07422,-0.617187 0.254761,-0.858921 0.349,-1.754775 0.574219,-2.621094 0.120443,0.07617 0.240886,0.152344 0.361328,0.228515 z m 18.259764,-0.183593 c 0.34186,0.288942 -0.637607,0.579479 -0.51758,0.113281 0.10278,-0.153586 0.35931,-0.1684 0.51758,-0.113281 z m -6.562498,0.08398 c -0.326571,-0.02041 -0.541367,0.135835 -0.638672,0.412109 -0.315584,0.326925 -0.52682,-0.0091 -0.132812,-0.21289 0.21943,-0.12088 0.526365,-0.293241 0.771484,-0.199219 z m 11.277348,0.150391 c 0.44734,0.04869 -0.43265,0.170308 0,0 z m -10.005864,0.146484 c 0.334499,0.347046 0.567859,0.793692 0.640625,1.271484 -0.346492,-0.418337 -0.432453,-0.990712 -0.783203,-1.404296 l 0.07317,0.06816 z m -2.34375,-0.05664 c -0.188254,0.151595 0.172595,-0.206896 0,0 z m 1.574219,-0.002 c 0.179832,0.242622 -0.358868,0.39492 -0.552734,0.328125 -0.246867,0.133371 -0.548124,0.739541 -0.837891,0.378907 0.185212,-0.521852 0.873261,-0.854004 1.390625,-0.707032 z m 8.652345,0.0293 c -0.54315,0.108128 -1.10135,0.06715 -1.65039,0.03906 0.54705,-0.07222 1.10044,-0.03807 1.65039,-0.03906 z m 0.54883,0.04297 c 0.2362,0.03239 -0.0947,0.05656 0,0 z m -15.783206,0.06641 c -0.149561,-0.05875 -0.178828,-0.08561 0,0 z m 16.484376,-0.04297 c 0.33008,0.220661 -0.70122,0.213479 -0.1836,0.03125 0.0586,-0.02152 0.12174,-0.02888 0.1836,-0.03125 z m -3.97852,0.109374 c 0.0687,0.361742 -0.843079,0.07487 -0.20703,-0.01172 0.0648,0.02091 0.15976,-0.08056 0.20703,0.01172 z m -17.398434,0.166016 c 0.480105,0.09362 0.167422,0.999333 -0.279297,0.785156 0.08046,-0.243915 -0.08819,-0.746673 0.279297,-0.785156 z M 70.8125,71.917969 c 1.625091,1.462712 3.965891,1.089231 5.965916,1.029025 0.686023,-0.159373 1.237622,0.516105 1.131854,1.165436 0.182057,1.369791 0.393817,2.831408 -0.156364,4.147336 -0.882475,0.324879 -1.84432,-0.0073 -2.752986,-0.04153 -2.513283,-0.380784 -5.114509,-1.448781 -6.584904,-3.622536 0.202465,-0.432915 0.826148,-0.480836 0.945066,-0.995495 0.386117,-0.647554 0.469628,-1.55967 1.20923,-1.934192 0.08073,0.08398 0.161459,0.167968 0.242188,0.251953 z m 24.021484,-0.222657 c 0.433636,0.08597 0.07382,0.824556 -0.273437,0.585938 -0.400701,0.0496 -0.721956,0.634557 -1.144531,0.367188 0.02448,-0.695664 0.868122,-0.880405 1.417968,-0.953126 z m -2.097656,0.183594 c 0.173117,0.228285 0.628146,0.90289 0.05859,0.927735 -0.413791,-0.08647 -0.404483,-0.571576 -0.205732,-0.836839 0.0018,-0.101298 0.08515,-0.361688 0.147138,-0.0909 z m -4.373047,-0.07617 c 1.375377,0.956074 -0.03557,3.407462 -1.561098,2.933824 -0.613486,-0.284779 0.20418,-0.108532 0.441958,-0.199449 1.104355,-0.292712 1.834417,-1.811124 1.0625,-2.759765 z m -10.361328,0.267578 c 0.814419,0.105233 0.499996,1.148301 0.533693,1.703515 0.0057,0.454941 -0.09081,1.159601 0.46826,1.333595 0.232014,1.154361 0.07958,2.368638 -0.139044,3.510884 -0.0041,0.318245 -0.641407,0.972041 -0.640253,0.344585 0.441538,-1.245431 0.392676,-2.62097 0.337891,-3.931641 -0.05803,-1.003505 -0.376712,-2.027802 -0.607422,-2.953125 L 78,72.070312 Z m 26.029297,0.140626 c 0.46245,-0.05079 0.0553,0.625037 -0.13477,0.248046 -0.12845,-0.111119 -0.005,-0.256869 0.13477,-0.248046 z m -14.507812,0.02734 c 0.683592,0.347264 1.400842,0.641002 2.029296,1.085938 -0.705475,-0.270685 -1.58108,-0.449271 -2.029296,-1.085938 z m 9.849609,0.02734 c 0.436569,0.433242 0.569179,1.304561 0.03906,1.728516 -0.401906,-0.288677 0.12717,-0.47775 0.251953,-0.617188 0.100691,-0.319441 -0.112455,-0.770151 -0.486328,-0.740234 0.01458,-0.122688 0.01605,-0.379102 0.195313,-0.371094 z m -9.839844,0.335937 c 0.857908,0.496588 2.074506,1.319121 1.633165,2.479628 -0.277868,1.248847 -2.139075,1.802859 -2.927573,0.70536 -0.301433,-0.250434 -0.778005,-0.330067 -0.939967,-0.72405 1.204103,-0.248193 2.097596,-1.558025 1.810547,-2.769531 0.141276,0.102864 0.282552,0.205729 0.423828,0.308593 z m 10.613277,-0.291015 c 0.53079,0.22332 -0.452682,0.591505 -0.314449,0.0625 0.09046,-0.06041 0.212659,-0.04071 0.314449,-0.0625 z m 3.54493,0.0918 c -0.12995,0.208893 -0.24422,-0.189167 0,0 z m -8.380863,0.05469 c 0.145457,0.376554 -0.468439,0.412207 -0.697266,0.322266 -0.16085,0.23762 -0.707285,-0.140572 -0.248047,-0.181641 0.296478,-0.134623 0.625166,-0.146285 0.945313,-0.140625 z m 9.871093,0.04492 c -0.16725,0.192089 -0.49385,-0.119211 0,0 z m -2.20703,-0.01172 c 0.35418,0.154621 -0.62361,0.160601 -0.77412,0.143943 -0.34851,-0.08226 -0.88563,0.102501 -1.12237,-0.07168 0.60529,-0.12488 1.27595,-0.03879 1.89649,-0.07227 z m -19.585938,0.0625 c 0.454133,0.02233 -0.111025,0.890942 -0.146484,0.316407 -0.0199,-0.114731 -0.03705,-0.345166 0.146484,-0.316407 z m 21.017578,0.101563 c 0.44924,0.100372 -9.1e-4,0.698759 -0.2832,0.345703 -0.2819,-0.192604 0.1092,-0.365391 0.2832,-0.345703 z m -4.15039,0.05078 c 0.3562,0.02213 0.33127,0.557504 -0.0332,0.466797 -0.405433,0.07705 -0.347076,-0.525922 0.0332,-0.466797 z m -20.183594,0.07422 c 0.406827,0.138779 0.89767,-0.191087 1.255859,0.113281 -0.256844,0.460635 -0.65694,1.335112 0.07422,1.580078 0.456369,0.162384 0.960624,-0.323724 1.126953,-0.55664 0.08393,0.283201 0.779257,0.397846 0.474609,0.746093 -0.87767,0.291824 -1.819953,0.01449 -2.724609,0.138672 -0.460668,-0.09533 -1.34789,0.142723 -1.492738,-0.317085 0.04337,-0.545552 -0.173552,-1.368177 0.08292,-1.742268 0.400928,0.01262 0.801856,0.02525 1.202784,0.03787 z M 103.76172,72.75 c 0.29403,0.297024 -0.46118,0.154061 0,0 z m -20.839845,0.0098 c 0.400887,0.16942 -0.105087,0.81585 -0.324219,0.699218 -0.06458,-0.276356 -0.01842,-0.648931 0.324219,-0.699218 z m 22.373045,0.01563 c 0.17769,0.436153 -0.69151,0.144332 -0.17383,-0.01367 0.0553,0.0215 0.12214,-0.02576 0.17383,0.01367 z m -2.08984,0.03906 c 0.30977,0.127435 -0.4222,0.328701 -0.5761,0.240368 -0.47109,-0.153166 -1.04608,0.193743 -1.45125,-0.04701 0.10769,-0.320483 0.76135,-0.08563 1.05561,-0.172413 0.32363,-0.01897 0.64803,-0.004 0.97174,-0.02095 z m -19.208986,0.308594 c 0.317155,0.338095 -0.18645,0.653843 -0.455078,0.779297 -0.216209,0.24262 -0.966757,0.05617 -0.642492,-0.264436 0.373905,-0.133569 0.706231,-0.520476 1.09757,-0.514861 z m 20.554686,0.08594 c 0.25984,0.320541 -0.75111,0.569796 -0.4707,0.105469 0.11952,-0.08497 0.33966,-0.224644 0.4707,-0.105469 z m 0.625,-0.04492 c 0.48143,0.06564 -0.4233,0.424908 -0.17578,0.0293 0.056,-0.02259 0.11671,-0.02248 0.17578,-0.0293 z m -1.92773,0.08398 c 0.054,0.216972 -0.64689,0.217769 -0.8752,0.224231 -0.42432,-0.09781 -0.87299,0.106001 -1.28691,-0.0504 0.40235,-0.37557 1.02653,-0.01394 1.51849,-0.172542 0.21436,-0.01364 0.42905,-0.0015 0.64362,-0.0013 z m -2.77344,0.07617 c 0.38756,0.309662 -0.700321,0.576844 -0.498048,0.08984 0.134738,-0.100066 0.340118,-0.146177 0.498048,-0.08984 z m -9.371094,0.04883 c 1.227514,0.49611 1.027149,2.291432 0.140625,3.029297 -0.544944,0.649071 -1.889515,0.918982 -2.333985,0.160156 0.37365,-0.07159 0.753895,0.326977 1.120474,0.01617 1.208215,-0.421956 1.946308,-2.170386 0.990854,-3.180229 0.221625,0.05356 -0.107027,-0.08801 0.08203,-0.02539 z m -6.615235,0.162109 c 0.794679,0.947757 0.334751,2.26506 0.467044,3.38119 -0.04284,0.764859 -0.133756,1.627261 -0.726809,2.179357 -0.604937,-0.184033 0.118669,-0.767483 0.152907,-1.126054 0.50031,-1.433105 0.0066,-2.974521 0.106858,-4.434493 z m 20.828129,0.02734 c -0.32033,0.207838 -0.29214,-0.0818 0,0 z m -12.996098,0.06445 c 0.457417,0.07221 1.24828,0.03536 1.172495,0.702975 0.07264,0.609492 0.08787,1.223646 0.120474,1.836088 -0.748427,-0.391819 -0.135103,-1.538852 -0.885164,-1.953524 -0.102382,-0.113541 -0.885527,-0.714222 -0.407805,-0.585539 z m 4.769532,0 c 0.474386,0.05177 1.36242,-0.154747 1.33233,0.587301 0.153228,0.988798 0.31656,2.133422 -0.322565,2.988871 -0.486574,0.109629 -1.298501,-0.04721 -1.246093,-0.6875 -0.237506,-0.41352 0.375207,-0.88152 -0.04883,-1.265625 -0.121413,-0.338138 0.201008,-0.710929 -0.0957,-1.007812 -0.152902,-0.343912 -0.0389,-0.661604 0.38086,-0.615235 z m 6.523436,0.05273 c 0.18079,0.300388 -0.26222,-0.04584 0,0 z m -0.68359,-0.01758 c -0.50515,0.117337 -1.03103,0.08759 -1.54297,0.03711 0.51304,-0.04783 1.0284,-0.03899 1.54297,-0.03711 z m -7.550784,0.04883 c 0.38409,0.167484 -0.0088,0.631994 -0.320312,0.527343 -0.340179,0.140838 0.23158,0.30159 0.363281,0.173828 0.440569,-0.139369 0.446008,0.470149 0.185547,0.660157 -0.05504,0.301262 0.541517,0.704734 0.05078,0.873046 -0.206635,0.01037 -0.617321,-0.132325 -0.664062,0.132813 0.475708,-0.09392 1.197367,0.591597 0.601562,0.910156 -0.605336,0.04568 -1.458048,-0.200445 -1.650391,-0.855469 0.0047,-0.435822 0.682568,0.108254 0.773438,-0.255859 -0.223887,-0.204769 -0.703916,-0.0601 -0.5,-0.400391 -0.388852,-0.0661 -0.492815,-0.469074 -0.03125,-0.509765 -0.07036,-0.258193 -0.114798,-0.328665 0.337311,-0.338118 0.396846,-0.139113 -0.165824,-0.303007 -0.328378,-0.177337 -0.388642,0.151538 -0.491303,-0.267991 -0.250977,-0.503417 0.203045,-0.486079 0.856867,-0.04615 1.24226,-0.234621 0.06345,-0.009 0.127441,-0.0021 0.19119,-0.0024 z m 8.957034,0.05273 c 0.055,0.258995 -0.6402,0.167925 -0.30469,-0.0059 0.0984,0.0031 0.21338,-0.05738 0.30469,0.0059 z m -20.099612,0.568359 c 0.255486,1.365718 0.26735,2.830997 -0.296875,4.125 -1.05473,0.210721 -1.947388,-0.721057 -3.017969,-0.541015 -0.558049,-0.0012 -1.109471,0.09694 -1.655859,0.201172 0.08726,-0.880219 0.09558,-1.76288 0.0957,-2.640626 0.118723,-0.569541 0.738786,-0.219816 0.93308,0.09822 0.229428,0.190207 0.73119,-0.183983 0.72903,0.304128 0.05137,0.639936 1.169611,0.625813 1.417968,0.103516 -0.106745,-0.332569 -0.254495,-1.003127 0.337891,-0.847656 0.457248,-0.0038 0.572476,-0.482691 0.59375,-0.839844 0.191958,-0.300977 0.894111,-0.795854 0.826861,-0.127071 l 0.02166,0.09763 z m 12.117188,-0.164062 c 0.234918,1.588412 0.243059,3.323406 -0.445694,4.797555 -0.526598,0.738063 -0.0046,-0.170571 0.09218,-0.481149 0.514132,-1.513532 0.268509,-3.132618 0.240234,-4.695313 0.03776,0.126303 0.07552,0.252605 0.113282,0.378907 z M 85.109375,73.808594 c 0.664884,0.353066 0.31133,1.246461 0.44171,1.848393 0.0347,1.147094 0.05978,2.41577 -0.650694,3.385982 -0.417701,0.120057 -0.0034,-0.495815 0.0332,-0.638672 0.405697,-1.505942 0.232136,-3.079563 0.08984,-4.609375 z m 15.054685,0.0098 c 0.57306,0.10826 -0.522309,0.366201 -0.193357,0.03711 0.06567,2.68e-4 0.127687,-0.03749 0.193357,-0.03711 z m -8.078122,0.13086 c 1.599576,0.879494 0.811707,3.569159 -0.902344,3.761719 -0.488076,0.09296 -1.046287,-0.02554 -1.378906,-0.414063 1.590047,-0.07362 2.718893,-1.874019 2.28125,-3.347656 z m 3.730468,0.07227 c 0.01049,0.261545 -0.181004,-0.172486 0,0 z m -10.042968,0.154297 c 0.508388,1.043832 0.09897,2.233034 0.171175,3.337438 -0.04362,0.497967 -0.196991,1.012385 -0.569613,1.361781 0.5817,-1.549951 0.402155,-3.236889 0.304688,-4.851562 l 0.05241,0.08517 z m 0.695312,0.679688 c 0.514963,0.31982 1.215042,0.79177 0.950518,1.494529 0.01651,0.719408 -0.137206,1.8535 -1.067706,1.858986 -0.478028,-0.181829 0.03122,-0.590551 -0.08398,-0.894922 0.121109,-0.861517 0.06908,-1.729217 0.02539,-2.597265 0.05859,0.04622 0.117187,0.09245 0.175781,0.138672 z m 9.496094,0.236328 c 0.04434,0.291288 -0.262182,-0.137951 0,0 z m -14.269532,0.0098 c 0.504588,-0.06319 0.485625,0.711513 0.0078,0.66211 -0.444365,-0.03615 -0.532154,-0.680918 -0.0078,-0.66211 z m -0.939453,0.03125 c 0.465858,0.04905 0.137117,0.494144 -0.167968,0.310547 -0.372096,-0.156056 -0.09464,-0.340789 0.167968,-0.310547 z M 81.75,75.869141 c 0.488804,0.07944 -0.297957,0.42272 -0.320312,0.0957 0.09071,-0.07171 0.212989,-0.06833 0.320312,-0.0957 z m 6.164062,0.06445 c 0.191798,0.251834 -0.04837,0.575538 -0.125,0.832031 0.07246,-0.217774 -0.114477,-0.731941 0.125,-0.832031 z M 93.4375,76.34375 c 0.701956,0.46993 1.881233,1.088386 1.511719,2.117188 -0.425037,0.969998 -2.240977,1.090074 -2.457031,-0.08594 0.151989,-0.462573 0.467868,0.104425 0.6875,0.195312 0.442123,0.168575 0.131463,-0.379275 -0.113282,-0.40625 -0.413738,-0.168209 -1.078234,-0.651033 -0.496094,-1.011718 0.32288,-0.219059 0.478662,-1.391836 0.867188,-0.808594 z m -5.001953,0.08203 c 0.402634,0.67991 1.234172,0.955047 1.726562,1.511719 0.152733,0.706284 -0.423211,1.31325 -0.588074,1.971048 -0.452777,0.99145 -1.82773,1.629388 -2.722473,0.79653 -0.629697,-0.471606 -1.271585,-1.425446 -0.828124,-2.183594 0.453345,-0.206785 1.25622,-0.0066 1.354135,-0.686359 0.256417,-0.622049 -0.08555,0.562665 -0.09046,0.752766 -0.09914,0.525836 0.249165,0.04721 0.257716,-0.180201 0.189123,-0.467752 0.04709,-1.030211 0.431737,-1.386206 0.09002,-0.202949 0.162406,-1.340456 0.458985,-0.595703 z m 7.417969,-0.203125 c -0.218598,-0.09779 -0.124856,-0.05654 0,0 z M 95.003906,77.125 c 0.421171,-0.09965 1.037275,0.645683 0.462891,0.8125 -0.405664,-0.05219 -0.226695,-0.635836 -0.529297,-0.8125 z m -3.283203,0.814453 c -0.05298,0.234522 -0.114687,0.567992 -0.378906,0.634766 0.03093,-0.21595 0.243633,-0.571206 0.378906,-0.634766 z m -0.628906,0.0098 c 0.623256,0.14915 -0.427919,1.069235 -0.572266,0.425781 -0.05914,-0.385229 0.293732,-0.428478 0.572266,-0.425781 z M 91.949219,78.125 c -0.02732,0.574066 0.219633,1.191885 0.71875,1.501953 -0.636939,-0.222792 -1.039428,-1.065359 -0.69336,-1.669922 l -0.01495,0.09888 z m 3.470703,0.119141 c 0.267699,0.199513 -0.187408,0.71283 -0.234375,0.439453 0.0974,-0.129713 -0.01627,-0.481165 0.234375,-0.439453 z m -3.796875,0.550781 c 0.03814,0.451774 0.612725,0.614681 0.650391,1.0625 -0.590904,0.230839 -1.493365,-0.187127 -1.394532,-0.900391 0.272734,0.04149 0.644244,0.07237 0.744141,-0.248047 z m -1.021485,0.05859 c 0.196065,0.343982 0.09633,0.865615 -0.184695,0.278591 -0.138113,-0.140922 0.0025,-0.451547 0.184695,-0.278591 z m 4.44336,0.134765 c 0.301547,0.289096 -0.68478,0.5204 -0.392578,0.136719 0.106853,-0.07331 0.259154,-0.198724 0.392578,-0.136719 z m 0.320312,0.02539 c 0.05383,0.04206 -0.0686,0.0511 0,0 z m -0.695312,0.49414 c -0.170568,0.161428 -0.500958,-0.04721 -0.08789,-0.02148 0.03202,3.83e-4 0.06725,-0.01862 0.08789,0.02148 z"
         style="fill:#000000;stroke-width:0.0398114"
         id="path927-2" />
    </g>
  </g>
</svg>
