999
"DXF R12 Output" (www.mydxf.blogspot.com)
 0 
SECTION
 2 
HEADER
 9 
$ACADVER
 1 
AC1009
 9 
$EXTMIN
 10 
 0 
 20 
 0 
 9 
$EXTMAX
 10 
 8.5 
 20 
 11 
 0 
ENDSEC
 0 
SECTION
 2 
ENTITIES
0
LINE
8
Layer 1
10
3.000000
20
-3.000000
11
-3.000000
21
3.000000
0
LINE
8
Layer 1
10
0.000000
20
-5.000000
11
0.000000
21
5.000000
0
LINE
8
Layer 1
10
8.000000
20
4.000000
11
4.000000
21
8.000000
0
LINE
8
Layer 1
10
6.000000
20
2.000000
11
2.000000
21
6.000000
0
LINE
8
Layer 1
10
4.000000
20
0.000000
11
0.000000
21
4.000000
0
LINE
8
Layer 1
10
545.102000
20
898.915000
11
457.965000
21
996.511100
0
LINE
8
Layer 1
10
429.770000
20
1009.130000
11
433.778298
21
1008.917422
0
LINE
8
Layer 1
10
433.778298
20
1008.917422
11
437.708577
21
1008.287905
0
LINE
8
Layer 1
10
437.708577
20
1008.287905
11
441.530680
21
1007.254947
0
LINE
8
Layer 1
10
441.530680
20
1007.254947
11
445.214448
21
1005.832046
0
LINE
8
Layer 1
10
445.214448
20
1005.832046
11
448.729723
21
1004.032703
0
LINE
8
Layer 1
10
448.729723
20
1004.032703
11
452.046345
21
1001.870415
0
LINE
8
Layer 1
10
452.046345
20
1001.870415
11
455.134157
21
999.358681
0
LINE
8
Layer 1
10
455.134157
20
999.358681
11
457.963000
21
996.511000
0
LINE
8
Layer 1
10
564.839000
20
890.079000
11
562.033039
21
890.228098
0
LINE
8
Layer 1
10
562.033039
20
890.228098
11
559.281729
21
890.669083
0
LINE
8
Layer 1
10
559.281729
20
890.669083
11
556.606184
21
891.392501
0
LINE
8
Layer 1
10
556.606184
20
891.392501
11
554.027517
21
892.388899
0
LINE
8
Layer 1
10
554.027517
20
892.388899
11
551.566841
21
893.648823
0
LINE
8
Layer 1
10
551.566841
20
893.648823
11
549.245271
21
895.162820
0
LINE
8
Layer 1
10
549.245271
20
895.162820
11
547.083920
21
896.921437
0
LINE
8
Layer 1
10
547.083920
20
896.921437
11
545.103900
21
898.915220
0
LINE
8
Layer 1
10
182.126000
20
1009.130000
11
429.770000
21
1009.130000
0
LINE
8
Layer 1
10
564.839000
20
890.079000
11
730.122000
21
890.079000
0
LINE
8
Layer 1
10
144.331000
20
971.339000
11
144.515945
21
975.074601
0
LINE
8
Layer 1
10
144.515945
20
975.074601
11
145.063936
21
978.746929
0
LINE
8
Layer 1
10
145.063936
20
978.746929
11
145.964709
21
982.331202
0
LINE
8
Layer 1
10
145.964709
20
982.331202
11
147.207996
21
985.802635
0
LINE
8
Layer 1
10
147.207996
20
985.802635
11
148.783533
21
989.136446
0
LINE
8
Layer 1
10
148.783533
20
989.136446
11
150.681054
21
992.307852
0
LINE
8
Layer 1
10
150.681054
20
992.307852
11
152.890294
21
995.292068
0
LINE
8
Layer 1
10
152.890294
20
995.292068
11
155.400987
21
998.064313
0
LINE
8
Layer 1
10
155.400987
20
998.064313
11
158.173232
21
1000.575006
0
LINE
8
Layer 1
10
158.173232
20
1000.575006
11
161.157448
21
1002.784246
0
LINE
8
Layer 1
10
161.157448
20
1002.784246
11
164.328854
21
1004.681767
0
LINE
8
Layer 1
10
164.328854
20
1004.681767
11
167.662665
21
1006.257304
0
LINE
8
Layer 1
10
167.662665
20
1006.257304
11
171.134098
21
1007.500591
0
LINE
8
Layer 1
10
171.134098
20
1007.500591
11
174.718371
21
1008.401364
0
LINE
8
Layer 1
10
174.718371
20
1008.401364
11
178.390699
21
1008.949355
0
LINE
8
Layer 1
10
178.390699
20
1008.949355
11
182.126300
21
1009.134300
0
LINE
8
Layer 1
10
749.857000
20
898.915000
11
747.876975
21
896.921231
0
LINE
8
Layer 1
10
747.876975
20
896.921231
11
745.715619
21
895.162628
0
LINE
8
Layer 1
10
745.715619
20
895.162628
11
743.394046
21
893.648644
0
LINE
8
Layer 1
10
743.394046
20
893.648644
11
740.933371
21
892.388733
0
LINE
8
Layer 1
10
740.933371
20
892.388733
11
738.354704
21
891.392348
0
LINE
8
Layer 1
10
738.354704
20
891.392348
11
735.679162
21
890.668942
0
LINE
8
Layer 1
10
735.679162
20
890.668942
11
732.927856
21
890.227968
0
LINE
8
Layer 1
10
732.927856
20
890.227968
11
730.121900
21
890.078880
0
LINE
8
Layer 1
10
144.331000
20
480.000000
11
144.331000
21
971.339000
0
LINE
8
Layer 1
10
749.858000
20
898.915000
11
781.322600
21
934.156100
0
LINE
8
Layer 1
10
182.126000
20
442.205000
11
178.261694
21
442.400159
0
LINE
8
Layer 1
10
178.261694
20
442.400159
11
174.509016
21
442.972910
0
LINE
8
Layer 1
10
174.509016
20
442.972910
11
170.886963
21
443.904256
0
LINE
8
Layer 1
10
170.886963
20
443.904256
11
167.414533
21
445.175198
0
LINE
8
Layer 1
10
167.414533
20
445.175198
11
164.110723
21
446.766740
0
LINE
8
Layer 1
10
164.110723
20
446.766740
11
160.994530
21
448.659883
0
LINE
8
Layer 1
10
160.994530
20
448.659883
11
158.084952
21
450.835632
0
LINE
8
Layer 1
10
158.084952
20
450.835632
11
155.400987
21
453.274987
0
LINE
8
Layer 1
10
155.400987
20
453.274987
11
152.961632
21
455.958952
0
LINE
8
Layer 1
10
152.961632
20
455.958952
11
150.785883
21
458.868530
0
LINE
8
Layer 1
10
150.785883
20
458.868530
11
148.892740
21
461.984723
0
LINE
8
Layer 1
10
148.892740
20
461.984723
11
147.301198
21
465.288533
0
LINE
8
Layer 1
10
147.301198
20
465.288533
11
146.030256
21
468.760963
0
LINE
8
Layer 1
10
146.030256
20
468.760963
11
145.098910
21
472.383016
0
LINE
8
Layer 1
10
145.098910
20
472.383016
11
144.526159
21
476.135694
0
LINE
8
Layer 1
10
144.526159
20
476.135694
11
144.331000
21
480.000000
0
LINE
8
Layer 1
10
781.324000
20
934.156000
11
783.304019
21
936.149784
0
LINE
8
Layer 1
10
783.304019
20
936.149784
11
785.465370
21
937.908402
0
LINE
8
Layer 1
10
785.465370
20
937.908402
11
787.786940
21
939.422401
0
LINE
8
Layer 1
10
787.786940
20
939.422401
11
790.247616
21
940.682326
0
LINE
8
Layer 1
10
790.247616
20
940.682326
11
792.826283
21
941.678725
0
LINE
8
Layer 1
10
792.826283
20
941.678725
11
795.501828
21
942.402145
0
LINE
8
Layer 1
10
795.501828
20
942.402145
11
798.253138
21
942.843131
0
LINE
8
Layer 1
10
798.253138
20
942.843131
11
801.059100
21
942.992230
0
LINE
8
Layer 1
10
429.770000
20
442.205000
11
182.126000
21
442.205000
0
LINE
8
Layer 1
10
801.060000
20
942.992000
11
902.600000
21
942.992000
0
LINE
8
Layer 1
10
457.963000
20
454.828000
11
455.134390
21
451.979763
0
LINE
8
Layer 1
10
455.134390
20
451.979763
11
452.046738
21
449.467477
0
LINE
8
Layer 1
10
452.046738
20
449.467477
11
448.730205
21
447.304648
0
LINE
8
Layer 1
10
448.730205
20
447.304648
11
445.214954
21
445.504779
0
LINE
8
Layer 1
10
445.214954
20
445.504779
11
441.531145
21
444.081375
0
LINE
8
Layer 1
10
441.531145
20
444.081375
11
437.708942
21
443.047941
0
LINE
8
Layer 1
10
437.708942
20
443.047941
11
433.778507
21
442.417981
0
LINE
8
Layer 1
10
433.778507
20
442.417981
11
429.770000
21
442.205000
0
LINE
8
Layer 1
10
902.600000
20
942.992000
11
906.489879
21
942.893637
0
LINE
8
Layer 1
10
906.489879
20
942.893637
11
910.328692
21
942.601725
0
LINE
8
Layer 1
10
910.328692
20
942.601725
11
914.111691
21
942.121013
0
LINE
8
Layer 1
10
914.111691
20
942.121013
11
917.834127
21
941.456250
0
LINE
8
Layer 1
10
917.834127
20
941.456250
11
921.491249
21
940.612187
0
LINE
8
Layer 1
10
921.491249
20
940.612187
11
925.078308
21
939.593572
0
LINE
8
Layer 1
10
925.078308
20
939.593572
11
928.590555
21
938.405156
0
LINE
8
Layer 1
10
928.590555
20
938.405156
11
932.023241
21
937.051687
0
LINE
8
Layer 1
10
932.023241
20
937.051687
11
935.371615
21
935.537915
0
LINE
8
Layer 1
10
935.371615
20
935.537915
11
938.630928
21
933.868590
0
LINE
8
Layer 1
10
938.630928
20
933.868590
11
941.796431
21
932.048461
0
LINE
8
Layer 1
10
941.796431
20
932.048461
11
944.863374
21
930.082278
0
LINE
8
Layer 1
10
944.863374
20
930.082278
11
947.827009
21
927.974790
0
LINE
8
Layer 1
10
947.827009
20
927.974790
11
950.682584
21
925.730746
0
LINE
8
Layer 1
10
950.682584
20
925.730746
11
953.425351
21
923.354897
0
LINE
8
Layer 1
10
953.425351
20
923.354897
11
956.050561
21
920.851990
0
LINE
8
Layer 1
10
956.050561
20
920.851990
11
958.553464
21
918.226777
0
LINE
8
Layer 1
10
958.553464
20
918.226777
11
960.929310
21
915.484007
0
LINE
8
Layer 1
10
960.929310
20
915.484007
11
963.173350
21
912.628429
0
LINE
8
Layer 1
10
963.173350
20
912.628429
11
965.280834
21
909.664792
0
LINE
8
Layer 1
10
965.280834
20
909.664792
11
967.247013
21
906.597846
0
LINE
8
Layer 1
10
967.247013
20
906.597846
11
969.067138
21
903.432340
0
LINE
8
Layer 1
10
969.067138
20
903.432340
11
970.736459
21
900.173025
0
LINE
8
Layer 1
10
970.736459
20
900.173025
11
972.250226
21
896.824649
0
LINE
8
Layer 1
10
972.250226
20
896.824649
11
973.603690
21
893.391962
0
LINE
8
Layer 1
10
973.603690
20
893.391962
11
974.792102
21
889.879713
0
LINE
8
Layer 1
10
974.792102
20
889.879713
11
975.810712
21
886.292652
0
LINE
8
Layer 1
10
975.810712
20
886.292652
11
976.654770
21
882.635529
0
LINE
8
Layer 1
10
976.654770
20
882.635529
11
977.319528
21
878.913093
0
LINE
8
Layer 1
10
977.319528
20
878.913093
11
977.800235
21
875.130093
0
LINE
8
Layer 1
10
977.800235
20
875.130093
11
978.092142
21
871.291279
0
LINE
8
Layer 1
10
978.092142
20
871.291279
11
978.190500
21
867.401400
0
LINE
8
Layer 1
10
545.102000
20
552.423000
11
457.965000
21
454.828000
0
LINE
8
Layer 1
10
978.191000
20
867.402000
11
978.191000
21
583.937000
0
LINE
8
Layer 1
10
545.104000
20
552.424000
11
547.084020
21
554.417783
0
LINE
8
Layer 1
10
547.084020
20
554.417783
11
549.245371
21
556.176400
0
LINE
8
Layer 1
10
549.245371
20
556.176400
11
551.566941
21
557.690397
0
LINE
8
Layer 1
10
551.566941
20
557.690397
11
554.027617
21
558.950321
0
LINE
8
Layer 1
10
554.027617
20
558.950321
11
556.606284
21
559.946719
0
LINE
8
Layer 1
10
556.606284
20
559.946719
11
559.281829
21
560.670137
0
LINE
8
Layer 1
10
559.281829
20
560.670137
11
562.033139
21
561.111122
0
LINE
8
Layer 1
10
562.033139
20
561.111122
11
564.839100
21
561.260220
0
LINE
8
Layer 1
10
978.191000
20
583.937000
11
978.098118
21
580.188652
0
LINE
8
Layer 1
10
978.098118
20
580.188652
11
977.821144
21
576.465745
0
LINE
8
Layer 1
10
977.821144
20
576.465745
11
977.362645
21
572.774474
0
LINE
8
Layer 1
10
977.362645
20
572.774474
11
976.725186
21
569.121034
0
LINE
8
Layer 1
10
976.725186
20
569.121034
11
975.911334
21
565.511622
0
LINE
8
Layer 1
10
975.911334
20
565.511622
11
974.923655
21
561.952435
0
LINE
8
Layer 1
10
974.923655
20
561.952435
11
973.764717
21
558.449667
0
LINE
8
Layer 1
10
973.764717
20
558.449667
11
972.437085
21
555.009515
0
LINE
8
Layer 1
10
972.437085
20
555.009515
11
970.943325
21
551.638174
0
LINE
8
Layer 1
10
970.943325
20
551.638174
11
969.286005
21
548.341841
0
LINE
8
Layer 1
10
969.286005
20
548.341841
11
967.467690
21
545.126711
0
LINE
8
Layer 1
10
967.467690
20
545.126711
11
965.490948
21
541.998981
0
LINE
8
Layer 1
10
965.490948
20
541.998981
11
963.358344
21
538.964847
0
LINE
8
Layer 1
10
963.358344
20
538.964847
11
961.072444
21
536.030503
0
LINE
8
Layer 1
10
961.072444
20
536.030503
11
958.635816
21
533.202147
0
LINE
8
Layer 1
10
958.635816
20
533.202147
11
956.051026
21
530.485974
0
LINE
8
Layer 1
10
956.051026
20
530.485974
11
953.334853
21
527.901184
0
LINE
8
Layer 1
10
953.334853
20
527.901184
11
950.506497
21
525.464556
0
LINE
8
Layer 1
10
950.506497
20
525.464556
11
947.572153
21
523.178656
0
LINE
8
Layer 1
10
947.572153
20
523.178656
11
944.538019
21
521.046052
0
LINE
8
Layer 1
10
944.538019
20
521.046052
11
941.410289
21
519.069310
0
LINE
8
Layer 1
10
941.410289
20
519.069310
11
938.195159
21
517.250995
0
LINE
8
Layer 1
10
938.195159
20
517.250995
11
934.898826
21
515.593675
0
LINE
8
Layer 1
10
934.898826
20
515.593675
11
931.527485
21
514.099915
0
LINE
8
Layer 1
10
931.527485
20
514.099915
11
928.087333
21
512.772283
0
LINE
8
Layer 1
10
928.087333
20
512.772283
11
924.584565
21
511.613345
0
LINE
8
Layer 1
10
924.584565
20
511.613345
11
921.025378
21
510.625666
0
LINE
8
Layer 1
10
921.025378
20
510.625666
11
917.415966
21
509.811814
0
LINE
8
Layer 1
10
917.415966
20
509.811814
11
913.762526
21
509.174355
0
LINE
8
Layer 1
10
913.762526
20
509.174355
11
910.071255
21
508.715856
0
LINE
8
Layer 1
10
910.071255
20
508.715856
11
906.348348
21
508.438882
0
LINE
8
Layer 1
10
906.348348
20
508.438882
11
902.600000
21
508.346000
0
LINE
8
Layer 1
10
730.122000
20
561.260000
11
564.839000
21
561.260000
0
LINE
8
Layer 1
10
902.600000
20
508.346000
11
801.060000
21
508.346000
0
LINE
8
Layer 1
10
730.122000
20
561.260000
11
732.927956
21
561.110912
0
LINE
8
Layer 1
10
732.927956
20
561.110912
11
735.679262
21
560.669938
0
LINE
8
Layer 1
10
735.679262
20
560.669938
11
738.354804
21
559.946532
0
LINE
8
Layer 1
10
738.354804
20
559.946532
11
740.933471
21
558.950147
0
LINE
8
Layer 1
10
740.933471
20
558.950147
11
743.394146
21
557.690236
0
LINE
8
Layer 1
10
743.394146
20
557.690236
11
745.715719
21
556.176252
0
LINE
8
Layer 1
10
745.715719
20
556.176252
11
747.877075
21
554.417649
0
LINE
8
Layer 1
10
747.877075
20
554.417649
11
749.857100
21
552.423880
0
LINE
8
Layer 1
10
801.060000
20
508.346000
11
798.254039
21
508.495098
0
LINE
8
Layer 1
10
798.254039
20
508.495098
11
795.502729
21
508.936083
0
LINE
8
Layer 1
10
795.502729
20
508.936083
11
792.827184
21
509.659501
0
LINE
8
Layer 1
10
792.827184
20
509.659501
11
790.248517
21
510.655899
0
LINE
8
Layer 1
10
790.248517
20
510.655899
11
787.787841
21
511.915823
0
LINE
8
Layer 1
10
787.787841
20
511.915823
11
785.466271
21
513.429820
0
LINE
8
Layer 1
10
785.466271
20
513.429820
11
783.304920
21
515.188437
0
LINE
8
Layer 1
10
783.304920
20
515.188437
11
781.324900
21
517.182220
0
LINE
8
Layer 1
10
781.323000
20
517.183000
11
749.858400
21
552.423300
0
LINE
8
Layer 1
10
704.175000
20
725.669000
11
704.049348
21
721.891047
0
LINE
8
Layer 1
10
704.049348
20
721.891047
11
703.676404
21
718.159482
0
LINE
8
Layer 1
10
703.676404
20
718.159482
11
703.062131
21
714.484631
0
LINE
8
Layer 1
10
703.062131
20
714.484631
11
702.212491
21
710.876822
0
LINE
8
Layer 1
10
702.212491
20
710.876822
11
701.133445
21
707.346382
0
LINE
8
Layer 1
10
701.133445
20
707.346382
11
699.830958
21
703.903638
0
LINE
8
Layer 1
10
699.830958
20
703.903638
11
698.310990
21
700.558919
0
LINE
8
Layer 1
10
698.310990
20
700.558919
11
696.579504
21
697.322550
0
LINE
8
Layer 1
10
696.579504
20
697.322550
11
694.642463
21
694.204860
0
LINE
8
Layer 1
10
694.642463
20
694.204860
11
692.505828
21
691.216175
0
LINE
8
Layer 1
10
692.505828
20
691.216175
11
690.175562
21
688.366823
0
LINE
8
Layer 1
10
690.175562
20
688.366823
11
687.657628
21
685.667131
0
LINE
8
Layer 1
10
687.657628
20
685.667131
11
684.957987
21
683.127426
0
LINE
8
Layer 1
10
684.957987
20
683.127426
11
682.082603
21
680.758036
0
LINE
8
Layer 1
10
682.082603
20
680.758036
11
679.037436
21
678.569287
0
LINE
8
Layer 1
10
679.037436
20
678.569287
11
675.828450
21
676.571508
0
LINE
8
Layer 1
10
675.828450
20
676.571508
11
672.493830
21
674.791335
0
LINE
8
Layer 1
10
672.493830
20
674.791335
11
669.075735
21
673.248517
0
LINE
8
Layer 1
10
669.075735
20
673.248517
11
665.586091
21
671.943056
0
LINE
8
Layer 1
10
665.586091
20
671.943056
11
662.036822
21
670.874952
0
LINE
8
Layer 1
10
662.036822
20
670.874952
11
658.439854
21
670.044204
0
LINE
8
Layer 1
10
658.439854
20
670.044204
11
654.807111
21
669.450813
0
LINE
8
Layer 1
10
654.807111
20
669.450813
11
651.150518
21
669.094778
0
LINE
8
Layer 1
10
651.150518
20
669.094778
11
647.482000
21
668.976100
0
LINE
8
Layer 1
10
647.482000
20
668.976100
11
643.813482
21
669.094778
0
LINE
8
Layer 1
10
643.813482
20
669.094778
11
640.156889
21
669.450813
0
LINE
8
Layer 1
10
640.156889
20
669.450813
11
636.524146
21
670.044204
0
LINE
8
Layer 1
10
636.524146
20
670.044204
11
632.927178
21
670.874952
0
LINE
8
Layer 1
10
632.927178
20
670.874952
11
629.377909
21
671.943056
0
LINE
8
Layer 1
10
629.377909
20
671.943056
11
625.888265
21
673.248517
0
LINE
8
Layer 1
10
625.888265
20
673.248517
11
622.470170
21
674.791335
0
LINE
8
Layer 1
10
622.470170
20
674.791335
11
619.135550
21
676.571508
0
LINE
8
Layer 1
10
619.135550
20
676.571508
11
615.926564
21
678.569287
0
LINE
8
Layer 1
10
615.926564
20
678.569287
11
612.881398
21
680.758036
0
LINE
8
Layer 1
10
612.881398
20
680.758036
11
610.006013
21
683.127426
0
LINE
8
Layer 1
10
610.006013
20
683.127426
11
607.306373
21
685.667131
0
LINE
8
Layer 1
10
607.306373
20
685.667131
11
604.788441
21
688.366823
0
LINE
8
Layer 1
10
604.788441
20
688.366823
11
602.458177
21
691.216175
0
LINE
8
Layer 1
10
602.458177
20
691.216175
11
600.321546
21
694.204860
0
LINE
8
Layer 1
10
600.321546
20
694.204860
11
598.384508
21
697.322550
0
LINE
8
Layer 1
10
598.384508
20
697.322550
11
596.653028
21
700.558919
0
LINE
8
Layer 1
10
596.653028
20
700.558919
11
595.133067
21
703.903638
0
LINE
8
Layer 1
10
595.133067
20
703.903638
11
593.830587
21
707.346382
0
LINE
8
Layer 1
10
593.830587
20
707.346382
11
592.751552
21
710.876822
0
LINE
8
Layer 1
10
592.751552
20
710.876822
11
591.901923
21
714.484631
0
LINE
8
Layer 1
10
591.901923
20
714.484631
11
591.287663
21
718.159482
0
LINE
8
Layer 1
10
591.287663
20
718.159482
11
590.914734
21
721.891047
0
LINE
8
Layer 1
10
590.914734
20
721.891047
11
590.789100
21
725.669000
0
LINE
8
Layer 1
10
590.789100
20
725.669000
11
590.914743
21
729.446953
0
LINE
8
Layer 1
10
590.914743
20
729.446953
11
591.287679
21
733.178518
0
LINE
8
Layer 1
10
591.287679
20
733.178518
11
591.901946
21
736.853369
0
LINE
8
Layer 1
10
591.901946
20
736.853369
11
592.751580
21
740.461178
0
LINE
8
Layer 1
10
592.751580
20
740.461178
11
593.830621
21
743.991618
0
LINE
8
Layer 1
10
593.830621
20
743.991618
11
595.133104
21
747.434362
0
LINE
8
Layer 1
10
595.133104
20
747.434362
11
596.653069
21
750.779081
0
LINE
8
Layer 1
10
596.653069
20
750.779081
11
598.384552
21
754.015450
0
LINE
8
Layer 1
10
598.384552
20
754.015450
11
600.321591
21
757.133140
0
LINE
8
Layer 1
10
600.321591
20
757.133140
11
602.458225
21
760.121825
0
LINE
8
Layer 1
10
602.458225
20
760.121825
11
604.788489
21
762.971177
0
LINE
8
Layer 1
10
604.788489
20
762.971177
11
607.306423
21
765.670869
0
LINE
8
Layer 1
10
607.306423
20
765.670869
11
610.006063
21
768.210574
0
LINE
8
Layer 1
10
610.006063
20
768.210574
11
612.881448
21
770.579964
0
LINE
8
Layer 1
10
612.881448
20
770.579964
11
615.926614
21
772.768713
0
LINE
8
Layer 1
10
615.926614
20
772.768713
11
619.135600
21
774.766492
0
LINE
8
Layer 1
10
619.135600
20
774.766492
11
622.470220
21
776.546665
0
LINE
8
Layer 1
10
622.470220
20
776.546665
11
625.888315
21
778.089483
0
LINE
8
Layer 1
10
625.888315
20
778.089483
11
629.377959
21
779.394944
0
LINE
8
Layer 1
10
629.377959
20
779.394944
11
632.927228
21
780.463048
0
LINE
8
Layer 1
10
632.927228
20
780.463048
11
636.524196
21
781.293796
0
LINE
8
Layer 1
10
636.524196
20
781.293796
11
640.156939
21
781.887187
0
LINE
8
Layer 1
10
640.156939
20
781.887187
11
643.813532
21
782.243222
0
LINE
8
Layer 1
10
643.813532
20
782.243222
11
647.482050
21
782.361900
0
LINE
8
Layer 1
10
647.482050
20
782.361900
11
651.150568
21
782.243222
0
LINE
8
Layer 1
10
651.150568
20
782.243222
11
654.807161
21
781.887187
0
LINE
8
Layer 1
10
654.807161
20
781.887187
11
658.439904
21
781.293796
0
LINE
8
Layer 1
10
658.439904
20
781.293796
11
662.036872
21
780.463048
0
LINE
8
Layer 1
10
662.036872
20
780.463048
11
665.586141
21
779.394944
0
LINE
8
Layer 1
10
665.586141
20
779.394944
11
669.075785
21
778.089483
0
LINE
8
Layer 1
10
669.075785
20
778.089483
11
672.493880
21
776.546665
0
LINE
8
Layer 1
10
672.493880
20
776.546665
11
675.828500
21
774.766492
0
LINE
8
Layer 1
10
675.828500
20
774.766492
11
679.037486
21
772.768713
0
LINE
8
Layer 1
10
679.037486
20
772.768713
11
682.082652
21
770.579964
0
LINE
8
Layer 1
10
682.082652
20
770.579964
11
684.958037
21
768.210574
0
LINE
8
Layer 1
10
684.958037
20
768.210574
11
687.657677
21
765.670869
0
LINE
8
Layer 1
10
687.657677
20
765.670869
11
690.175609
21
762.971177
0
LINE
8
Layer 1
10
690.175609
20
762.971177
11
692.505873
21
760.121825
0
LINE
8
Layer 1
10
692.505873
20
760.121825
11
694.642504
21
757.133140
0
LINE
8
Layer 1
10
694.642504
20
757.133140
11
696.579542
21
754.015450
0
LINE
8
Layer 1
10
696.579542
20
754.015450
11
698.311022
21
750.779081
0
LINE
8
Layer 1
10
698.311022
20
750.779081
11
699.830983
21
747.434362
0
LINE
8
Layer 1
10
699.830983
20
747.434362
11
701.133463
21
743.991618
0
LINE
8
Layer 1
10
701.133463
20
743.991618
11
702.212498
21
740.461178
0
LINE
8
Layer 1
10
702.212498
20
740.461178
11
703.062127
21
736.853369
0
LINE
8
Layer 1
10
703.062127
20
736.853369
11
703.676387
21
733.178518
0
LINE
8
Layer 1
10
703.676387
20
733.178518
11
704.049316
21
729.446953
0
LINE
8
Layer 1
10
704.049316
20
729.446953
11
704.174950
21
725.669000
0
LINE
8
Layer 1
10
704.174950
20
725.669000
11
704.175000
21
725.669000
0
LINE
8
Layer 1
10
311.008000
20
536.693000
11
310.876497
21
534.636656
0
LINE
8
Layer 1
10
310.876497
20
534.636656
11
310.480133
21
532.641952
0
LINE
8
Layer 1
10
310.480133
20
532.641952
11
309.831969
21
530.731603
0
LINE
8
Layer 1
10
309.831969
20
530.731603
11
308.945069
21
528.928323
0
LINE
8
Layer 1
10
308.945069
20
528.928323
11
307.832495
21
527.254828
0
LINE
8
Layer 1
10
307.832495
20
527.254828
11
306.507310
21
525.733830
0
LINE
8
Layer 1
10
306.507310
20
525.733830
11
304.982578
21
524.388044
0
LINE
8
Layer 1
10
304.982578
20
524.388044
11
303.271361
21
523.240184
0
LINE
8
Layer 1
10
303.271361
20
523.240184
11
301.423217
21
522.329025
0
LINE
8
Layer 1
10
301.423217
20
522.329025
11
299.496466
21
521.678197
0
LINE
8
Layer 1
10
299.496466
20
521.678197
11
297.517309
21
521.287701
0
LINE
8
Layer 1
10
297.517309
20
521.287701
11
295.511950
21
521.157535
0
LINE
8
Layer 1
10
295.511950
20
521.157535
11
293.506591
21
521.287701
0
LINE
8
Layer 1
10
293.506591
20
521.287701
11
291.527434
21
521.678197
0
LINE
8
Layer 1
10
291.527434
20
521.678197
11
289.600683
21
522.329025
0
LINE
8
Layer 1
10
289.600683
20
522.329025
11
287.752539
21
523.240184
0
LINE
8
Layer 1
10
287.752539
20
523.240184
11
286.041322
21
524.388044
0
LINE
8
Layer 1
10
286.041322
20
524.388044
11
284.516590
21
525.733830
0
LINE
8
Layer 1
10
284.516590
20
525.733830
11
283.191405
21
527.254828
0
LINE
8
Layer 1
10
283.191405
20
527.254828
11
282.078831
21
528.928323
0
LINE
8
Layer 1
10
282.078831
20
528.928323
11
281.191931
21
530.731603
0
LINE
8
Layer 1
10
281.191931
20
530.731603
11
280.543767
21
532.641952
0
LINE
8
Layer 1
10
280.543767
20
532.641952
11
280.147403
21
534.636656
0
LINE
8
Layer 1
10
280.147403
20
534.636656
11
280.015900
21
536.693000
0
LINE
8
Layer 1
10
280.015900
20
536.693000
11
280.147403
21
538.749344
0
LINE
8
Layer 1
10
280.147403
20
538.749344
11
280.543767
21
540.744048
0
LINE
8
Layer 1
10
280.543767
20
540.744048
11
281.191931
21
542.654397
0
LINE
8
Layer 1
10
281.191931
20
542.654397
11
282.078831
21
544.457677
0
LINE
8
Layer 1
10
282.078831
20
544.457677
11
283.191405
21
546.131172
0
LINE
8
Layer 1
10
283.191405
20
546.131172
11
284.516590
21
547.652170
0
LINE
8
Layer 1
10
284.516590
20
547.652170
11
286.041322
21
548.997956
0
LINE
8
Layer 1
10
286.041322
20
548.997956
11
287.752539
21
550.145816
0
LINE
8
Layer 1
10
287.752539
20
550.145816
11
289.600683
21
551.056975
0
LINE
8
Layer 1
10
289.600683
20
551.056975
11
291.527434
21
551.707803
0
LINE
8
Layer 1
10
291.527434
20
551.707803
11
293.506591
21
552.098299
0
LINE
8
Layer 1
10
293.506591
20
552.098299
11
295.511950
21
552.228465
0
LINE
8
Layer 1
10
295.511950
20
552.228465
11
297.517309
21
552.098299
0
LINE
8
Layer 1
10
297.517309
20
552.098299
11
299.496466
21
551.707803
0
LINE
8
Layer 1
10
299.496466
20
551.707803
11
301.423217
21
551.056975
0
LINE
8
Layer 1
10
301.423217
20
551.056975
11
303.271361
21
550.145816
0
LINE
8
Layer 1
10
303.271361
20
550.145816
11
304.982578
21
548.997956
0
LINE
8
Layer 1
10
304.982578
20
548.997956
11
306.507310
21
547.652170
0
LINE
8
Layer 1
10
306.507310
20
547.652170
11
307.832495
21
546.131172
0
LINE
8
Layer 1
10
307.832495
20
546.131172
11
308.945069
21
544.457677
0
LINE
8
Layer 1
10
308.945069
20
544.457677
11
309.831969
21
542.654397
0
LINE
8
Layer 1
10
309.831969
20
542.654397
11
310.480133
21
540.744048
0
LINE
8
Layer 1
10
310.480133
20
540.744048
11
310.876497
21
538.749344
0
LINE
8
Layer 1
10
310.876497
20
538.749344
11
311.008000
21
536.693000
0
LINE
8
Layer 1
10
311.008000
20
536.693000
11
311.008000
21
536.693000
0
LINE
8
Layer 1
10
311.008000
20
914.646000
11
310.876497
21
912.589656
0
LINE
8
Layer 1
10
310.876497
20
912.589656
11
310.480133
21
910.594952
0
LINE
8
Layer 1
10
310.480133
20
910.594952
11
309.831969
21
908.684603
0
LINE
8
Layer 1
10
309.831969
20
908.684603
11
308.945069
21
906.881323
0
LINE
8
Layer 1
10
308.945069
20
906.881323
11
307.832495
21
905.207828
0
LINE
8
Layer 1
10
307.832495
20
905.207828
11
306.507310
21
903.686830
0
LINE
8
Layer 1
10
306.507310
20
903.686830
11
304.982578
21
902.341044
0
LINE
8
Layer 1
10
304.982578
20
902.341044
11
303.271361
21
901.193184
0
LINE
8
Layer 1
10
303.271361
20
901.193184
11
301.423217
21
900.282025
0
LINE
8
Layer 1
10
301.423217
20
900.282025
11
299.496466
21
899.631197
0
LINE
8
Layer 1
10
299.496466
20
899.631197
11
297.517309
21
899.240701
0
LINE
8
Layer 1
10
297.517309
20
899.240701
11
295.511950
21
899.110535
0
LINE
8
Layer 1
10
295.511950
20
899.110535
11
293.506591
21
899.240701
0
LINE
8
Layer 1
10
293.506591
20
899.240701
11
291.527434
21
899.631197
0
LINE
8
Layer 1
10
291.527434
20
899.631197
11
289.600683
21
900.282025
0
LINE
8
Layer 1
10
289.600683
20
900.282025
11
287.752539
21
901.193184
0
LINE
8
Layer 1
10
287.752539
20
901.193184
11
286.041322
21
902.341044
0
LINE
8
Layer 1
10
286.041322
20
902.341044
11
284.516590
21
903.686830
0
LINE
8
Layer 1
10
284.516590
20
903.686830
11
283.191405
21
905.207828
0
LINE
8
Layer 1
10
283.191405
20
905.207828
11
282.078831
21
906.881323
0
LINE
8
Layer 1
10
282.078831
20
906.881323
11
281.191931
21
908.684603
0
LINE
8
Layer 1
10
281.191931
20
908.684603
11
280.543767
21
910.594952
0
LINE
8
Layer 1
10
280.543767
20
910.594952
11
280.147403
21
912.589656
0
LINE
8
Layer 1
10
280.147403
20
912.589656
11
280.015900
21
914.646000
0
LINE
8
Layer 1
10
280.015900
20
914.646000
11
280.147403
21
916.702344
0
LINE
8
Layer 1
10
280.147403
20
916.702344
11
280.543767
21
918.697048
0
LINE
8
Layer 1
10
280.543767
20
918.697048
11
281.191931
21
920.607397
0
LINE
8
Layer 1
10
281.191931
20
920.607397
11
282.078831
21
922.410677
0
LINE
8
Layer 1
10
282.078831
20
922.410677
11
283.191405
21
924.084172
0
LINE
8
Layer 1
10
283.191405
20
924.084172
11
284.516590
21
925.605170
0
LINE
8
Layer 1
10
284.516590
20
925.605170
11
286.041322
21
926.950956
0
LINE
8
Layer 1
10
286.041322
20
926.950956
11
287.752539
21
928.098816
0
LINE
8
Layer 1
10
287.752539
20
928.098816
11
289.600683
21
929.009975
0
LINE
8
Layer 1
10
289.600683
20
929.009975
11
291.527434
21
929.660803
0
LINE
8
Layer 1
10
291.527434
20
929.660803
11
293.506591
21
930.051299
0
LINE
8
Layer 1
10
293.506591
20
930.051299
11
295.511950
21
930.181465
0
LINE
8
Layer 1
10
295.511950
20
930.181465
11
297.517309
21
930.051299
0
LINE
8
Layer 1
10
297.517309
20
930.051299
11
299.496466
21
929.660803
0
LINE
8
Layer 1
10
299.496466
20
929.660803
11
301.423217
21
929.009975
0
LINE
8
Layer 1
10
301.423217
20
929.009975
11
303.271361
21
928.098816
0
LINE
8
Layer 1
10
303.271361
20
928.098816
11
304.982578
21
926.950956
0
LINE
8
Layer 1
10
304.982578
20
926.950956
11
306.507310
21
925.605170
0
LINE
8
Layer 1
10
306.507310
20
925.605170
11
307.832495
21
924.084172
0
LINE
8
Layer 1
10
307.832495
20
924.084172
11
308.945069
21
922.410677
0
LINE
8
Layer 1
10
308.945069
20
922.410677
11
309.831969
21
920.607397
0
LINE
8
Layer 1
10
309.831969
20
920.607397
11
310.480133
21
918.697048
0
LINE
8
Layer 1
10
310.480133
20
918.697048
11
310.876497
21
916.702344
0
LINE
8
Layer 1
10
310.876497
20
916.702344
11
311.008000
21
914.646000
0
LINE
8
Layer 1
10
311.008000
20
914.646000
11
311.008000
21
914.646000
0
LINE
8
Layer 1
10
915.829000
20
725.669000
11
915.712653
21
723.916785
0
LINE
8
Layer 1
10
915.712653
20
723.916785
11
915.371067
21
722.217503
0
LINE
8
Layer 1
10
915.371067
20
722.217503
11
914.815373
21
720.590432
0
LINE
8
Layer 1
10
914.815373
20
720.590432
11
914.056700
21
719.054850
0
LINE
8
Layer 1
10
914.056700
20
719.054850
11
913.106177
21
717.630034
0
LINE
8
Layer 1
10
913.106177
20
717.630034
11
911.974933
21
716.335261
0
LINE
8
Layer 1
10
911.974933
20
716.335261
11
910.674098
21
715.189809
0
LINE
8
Layer 1
10
910.674098
20
715.189809
11
909.214800
21
714.212956
0
LINE
8
Layer 1
10
909.214800
20
714.212956
11
907.639172
21
713.437594
0
LINE
8
Layer 1
10
907.639172
20
713.437594
11
905.996764
21
712.883764
0
LINE
8
Layer 1
10
905.996764
20
712.883764
11
904.309837
21
712.551466
0
LINE
8
Layer 1
10
904.309837
20
712.551466
11
902.600650
21
712.440700
0
LINE
8
Layer 1
10
902.600650
20
712.440700
11
900.891463
21
712.551466
0
LINE
8
Layer 1
10
900.891463
20
712.551466
11
899.204536
21
712.883764
0
LINE
8
Layer 1
10
899.204536
20
712.883764
11
897.562128
21
713.437594
0
LINE
8
Layer 1
10
897.562128
20
713.437594
11
895.986500
21
714.212956
0
LINE
8
Layer 1
10
895.986500
20
714.212956
11
894.527203
21
715.189809
0
LINE
8
Layer 1
10
894.527203
20
715.189809
11
893.226368
21
716.335261
0
LINE
8
Layer 1
10
893.226368
20
716.335261
11
892.095126
21
717.630034
0
LINE
8
Layer 1
10
892.095126
20
717.630034
11
891.144606
21
719.054850
0
LINE
8
Layer 1
10
891.144606
20
719.054850
11
890.385939
21
720.590432
0
LINE
8
Layer 1
10
890.385939
20
720.590432
11
889.830254
21
722.217503
0
LINE
8
Layer 1
10
889.830254
20
722.217503
11
889.488681
21
723.916785
0
LINE
8
Layer 1
10
889.488681
20
723.916785
11
889.372350
21
725.669000
0
LINE
8
Layer 1
10
889.372350
20
725.669000
11
889.488689
21
727.421215
0
LINE
8
Layer 1
10
889.488689
20
727.421215
11
889.830268
21
729.120497
0
LINE
8
Layer 1
10
889.830268
20
729.120497
11
890.385958
21
730.747568
0
LINE
8
Layer 1
10
890.385958
20
730.747568
11
891.144628
21
732.283150
0
LINE
8
Layer 1
10
891.144628
20
732.283150
11
892.095149
21
733.707966
0
LINE
8
Layer 1
10
892.095149
20
733.707966
11
893.226392
21
735.002739
0
LINE
8
Layer 1
10
893.226392
20
735.002739
11
894.527228
21
736.148191
0
LINE
8
Layer 1
10
894.527228
20
736.148191
11
895.986525
21
737.125044
0
LINE
8
Layer 1
10
895.986525
20
737.125044
11
897.562153
21
737.900406
0
LINE
8
Layer 1
10
897.562153
20
737.900406
11
899.204561
21
738.454236
0
LINE
8
Layer 1
10
899.204561
20
738.454236
11
900.891488
21
738.786534
0
LINE
8
Layer 1
10
900.891488
20
738.786534
11
902.600675
21
738.897300
0
LINE
8
Layer 1
10
902.600675
20
738.897300
11
904.309862
21
738.786534
0
LINE
8
Layer 1
10
904.309862
20
738.786534
11
905.996789
21
738.454236
0
LINE
8
Layer 1
10
905.996789
20
738.454236
11
907.639197
21
737.900406
0
LINE
8
Layer 1
10
907.639197
20
737.900406
11
909.214825
21
737.125044
0
LINE
8
Layer 1
10
909.214825
20
737.125044
11
910.674122
21
736.148191
0
LINE
8
Layer 1
10
910.674122
20
736.148191
11
911.974957
21
735.002739
0
LINE
8
Layer 1
10
911.974957
20
735.002739
11
913.106199
21
733.707966
0
LINE
8
Layer 1
10
913.106199
20
733.707966
11
914.056719
21
732.283150
0
LINE
8
Layer 1
10
914.056719
20
732.283150
11
914.815386
21
730.747568
0
LINE
8
Layer 1
10
914.815386
20
730.747568
11
915.371071
21
729.120497
0
LINE
8
Layer 1
10
915.371071
20
729.120497
11
915.712644
21
727.421215
0
LINE
8
Layer 1
10
915.712644
20
727.421215
11
915.828975
21
725.669000
0
LINE
8
Layer 1
10
915.828975
20
725.669000
11
915.829000
21
725.669000
0
LINE
8
Layer 1
10
799.419000
20
583.937000
11
799.329259
21
582.585290
0
LINE
8
Layer 1
10
799.329259
20
582.585290
11
799.065759
21
581.274414
0
LINE
8
Layer 1
10
799.065759
20
581.274414
11
798.637088
21
580.019243
0
LINE
8
Layer 1
10
798.637088
20
580.019243
11
798.051829
21
578.834650
0
LINE
8
Layer 1
10
798.051829
20
578.834650
11
797.318571
21
577.735505
0
LINE
8
Layer 1
10
797.318571
20
577.735505
11
796.445897
21
576.736679
0
LINE
8
Layer 1
10
796.445897
20
576.736679
11
795.442395
21
575.853044
0
LINE
8
Layer 1
10
795.442395
20
575.853044
11
794.316650
21
575.099471
0
LINE
8
Layer 1
10
794.316650
20
575.099471
11
793.101164
21
574.501333
0
LINE
8
Layer 1
10
793.101164
20
574.501333
11
791.834162
21
574.074093
0
LINE
8
Layer 1
10
791.834162
20
574.074093
11
790.532817
21
573.817748
0
LINE
8
Layer 1
10
790.532817
20
573.817748
11
789.214300
21
573.732300
0
LINE
8
Layer 1
10
789.214300
20
573.732300
11
787.895783
21
573.817748
0
LINE
8
Layer 1
10
787.895783
20
573.817748
11
786.594438
21
574.074093
0
LINE
8
Layer 1
10
786.594438
20
574.074093
11
785.327436
21
574.501333
0
LINE
8
Layer 1
10
785.327436
20
574.501333
11
784.111950
21
575.099471
0
LINE
8
Layer 1
10
784.111950
20
575.099471
11
782.986205
21
575.853044
0
LINE
8
Layer 1
10
782.986205
20
575.853044
11
781.982703
21
576.736679
0
LINE
8
Layer 1
10
781.982703
20
576.736679
11
781.110029
21
577.735505
0
LINE
8
Layer 1
10
781.110029
20
577.735505
11
780.376771
21
578.834650
0
LINE
8
Layer 1
10
780.376771
20
578.834650
11
779.791512
21
580.019243
0
LINE
8
Layer 1
10
779.791512
20
580.019243
11
779.362841
21
581.274414
0
LINE
8
Layer 1
10
779.362841
20
581.274414
11
779.099341
21
582.585290
0
LINE
8
Layer 1
10
779.099341
20
582.585290
11
779.009600
21
583.937000
0
LINE
8
Layer 1
10
779.009600
20
583.937000
11
779.099341
21
585.288710
0
LINE
8
Layer 1
10
779.099341
20
585.288710
11
779.362841
21
586.599586
0
LINE
8
Layer 1
10
779.362841
20
586.599586
11
779.791512
21
587.854757
0
LINE
8
Layer 1
10
779.791512
20
587.854757
11
780.376771
21
589.039350
0
LINE
8
Layer 1
10
780.376771
20
589.039350
11
781.110029
21
590.138495
0
LINE
8
Layer 1
10
781.110029
20
590.138495
11
781.982703
21
591.137321
0
LINE
8
Layer 1
10
781.982703
20
591.137321
11
782.986205
21
592.020956
0
LINE
8
Layer 1
10
782.986205
20
592.020956
11
784.111950
21
592.774529
0
LINE
8
Layer 1
10
784.111950
20
592.774529
11
785.327436
21
593.372667
0
LINE
8
Layer 1
10
785.327436
20
593.372667
11
786.594438
21
593.799907
0
LINE
8
Layer 1
10
786.594438
20
593.799907
11
787.895783
21
594.056252
0
LINE
8
Layer 1
10
787.895783
20
594.056252
11
789.214300
21
594.141700
0
LINE
8
Layer 1
10
789.214300
20
594.141700
11
790.532817
21
594.056252
0
LINE
8
Layer 1
10
790.532817
20
594.056252
11
791.834162
21
593.799907
0
LINE
8
Layer 1
10
791.834162
20
593.799907
11
793.101164
21
593.372667
0
LINE
8
Layer 1
10
793.101164
20
593.372667
11
794.316650
21
592.774529
0
LINE
8
Layer 1
10
794.316650
20
592.774529
11
795.442395
21
592.020956
0
LINE
8
Layer 1
10
795.442395
20
592.020956
11
796.445897
21
591.137321
0
LINE
8
Layer 1
10
796.445897
20
591.137321
11
797.318571
21
590.138495
0
LINE
8
Layer 1
10
797.318571
20
590.138495
11
798.051829
21
589.039350
0
LINE
8
Layer 1
10
798.051829
20
589.039350
11
798.637088
21
587.854757
0
LINE
8
Layer 1
10
798.637088
20
587.854757
11
799.065759
21
586.599586
0
LINE
8
Layer 1
10
799.065759
20
586.599586
11
799.329259
21
585.288710
0
LINE
8
Layer 1
10
799.329259
20
585.288710
11
799.419000
21
583.937000
0
LINE
8
Layer 1
10
799.419000
20
583.937000
11
799.419000
21
583.937000
0
LINE
8
Layer 1
10
515.955000
20
583.937000
11
515.865259
21
582.585290
0
LINE
8
Layer 1
10
515.865259
20
582.585290
11
515.601759
21
581.274414
0
LINE
8
Layer 1
10
515.601759
20
581.274414
11
515.173088
21
580.019243
0
LINE
8
Layer 1
10
515.173088
20
580.019243
11
514.587829
21
578.834650
0
LINE
8
Layer 1
10
514.587829
20
578.834650
11
513.854571
21
577.735505
0
LINE
8
Layer 1
10
513.854571
20
577.735505
11
512.981897
21
576.736679
0
LINE
8
Layer 1
10
512.981897
20
576.736679
11
511.978395
21
575.853044
0
LINE
8
Layer 1
10
511.978395
20
575.853044
11
510.852650
21
575.099471
0
LINE
8
Layer 1
10
510.852650
20
575.099471
11
509.637164
21
574.501333
0
LINE
8
Layer 1
10
509.637164
20
574.501333
11
508.370162
21
574.074093
0
LINE
8
Layer 1
10
508.370162
20
574.074093
11
507.068817
21
573.817748
0
LINE
8
Layer 1
10
507.068817
20
573.817748
11
505.750300
21
573.732300
0
LINE
8
Layer 1
10
505.750300
20
573.732300
11
504.431783
21
573.817748
0
LINE
8
Layer 1
10
504.431783
20
573.817748
11
503.130438
21
574.074093
0
LINE
8
Layer 1
10
503.130438
20
574.074093
11
501.863436
21
574.501333
0
LINE
8
Layer 1
10
501.863436
20
574.501333
11
500.647950
21
575.099471
0
LINE
8
Layer 1
10
500.647950
20
575.099471
11
499.522205
21
575.853044
0
LINE
8
Layer 1
10
499.522205
20
575.853044
11
498.518703
21
576.736679
0
LINE
8
Layer 1
10
498.518703
20
576.736679
11
497.646029
21
577.735505
0
LINE
8
Layer 1
10
497.646029
20
577.735505
11
496.912771
21
578.834650
0
LINE
8
Layer 1
10
496.912771
20
578.834650
11
496.327512
21
580.019243
0
LINE
8
Layer 1
10
496.327512
20
580.019243
11
495.898841
21
581.274414
0
LINE
8
Layer 1
10
495.898841
20
581.274414
11
495.635341
21
582.585290
0
LINE
8
Layer 1
10
495.635341
20
582.585290
11
495.545600
21
583.937000
0
LINE
8
Layer 1
10
495.545600
20
583.937000
11
495.635341
21
585.288710
0
LINE
8
Layer 1
10
495.635341
20
585.288710
11
495.898841
21
586.599586
0
LINE
8
Layer 1
10
495.898841
20
586.599586
11
496.327512
21
587.854757
0
LINE
8
Layer 1
10
496.327512
20
587.854757
11
496.912771
21
589.039350
0
LINE
8
Layer 1
10
496.912771
20
589.039350
11
497.646029
21
590.138495
0
LINE
8
Layer 1
10
497.646029
20
590.138495
11
498.518703
21
591.137321
0
LINE
8
Layer 1
10
498.518703
20
591.137321
11
499.522205
21
592.020956
0
LINE
8
Layer 1
10
499.522205
20
592.020956
11
500.647950
21
592.774529
0
LINE
8
Layer 1
10
500.647950
20
592.774529
11
501.863436
21
593.372667
0
LINE
8
Layer 1
10
501.863436
20
593.372667
11
503.130438
21
593.799907
0
LINE
8
Layer 1
10
503.130438
20
593.799907
11
504.431783
21
594.056252
0
LINE
8
Layer 1
10
504.431783
20
594.056252
11
505.750300
21
594.141700
0
LINE
8
Layer 1
10
505.750300
20
594.141700
11
507.068817
21
594.056252
0
LINE
8
Layer 1
10
507.068817
20
594.056252
11
508.370162
21
593.799907
0
LINE
8
Layer 1
10
508.370162
20
593.799907
11
509.637164
21
593.372667
0
LINE
8
Layer 1
10
509.637164
20
593.372667
11
510.852650
21
592.774529
0
LINE
8
Layer 1
10
510.852650
20
592.774529
11
511.978395
21
592.020956
0
LINE
8
Layer 1
10
511.978395
20
592.020956
11
512.981897
21
591.137321
0
LINE
8
Layer 1
10
512.981897
20
591.137321
11
513.854571
21
590.138495
0
LINE
8
Layer 1
10
513.854571
20
590.138495
11
514.587829
21
589.039350
0
LINE
8
Layer 1
10
514.587829
20
589.039350
11
515.173088
21
587.854757
0
LINE
8
Layer 1
10
515.173088
20
587.854757
11
515.601759
21
586.599586
0
LINE
8
Layer 1
10
515.601759
20
586.599586
11
515.865259
21
585.288710
0
LINE
8
Layer 1
10
515.865259
20
585.288710
11
515.955000
21
583.937000
0
LINE
8
Layer 1
10
515.955000
20
583.937000
11
515.955000
21
583.937000
0
LINE
8
Layer 1
10
515.955000
20
867.402000
11
515.865259
21
866.050290
0
LINE
8
Layer 1
10
515.865259
20
866.050290
11
515.601759
21
864.739414
0
LINE
8
Layer 1
10
515.601759
20
864.739414
11
515.173088
21
863.484243
0
LINE
8
Layer 1
10
515.173088
20
863.484243
11
514.587829
21
862.299650
0
LINE
8
Layer 1
10
514.587829
20
862.299650
11
513.854571
21
861.200505
0
LINE
8
Layer 1
10
513.854571
20
861.200505
11
512.981897
21
860.201679
0
LINE
8
Layer 1
10
512.981897
20
860.201679
11
511.978395
21
859.318044
0
LINE
8
Layer 1
10
511.978395
20
859.318044
11
510.852650
21
858.564471
0
LINE
8
Layer 1
10
510.852650
20
858.564471
11
509.637164
21
857.966333
0
LINE
8
Layer 1
10
509.637164
20
857.966333
11
508.370162
21
857.539093
0
LINE
8
Layer 1
10
508.370162
20
857.539093
11
507.068817
21
857.282748
0
LINE
8
Layer 1
10
507.068817
20
857.282748
11
505.750300
21
857.197300
0
LINE
8
Layer 1
10
505.750300
20
857.197300
11
504.431783
21
857.282748
0
LINE
8
Layer 1
10
504.431783
20
857.282748
11
503.130438
21
857.539093
0
LINE
8
Layer 1
10
503.130438
20
857.539093
11
501.863436
21
857.966333
0
LINE
8
Layer 1
10
501.863436
20
857.966333
11
500.647950
21
858.564471
0
LINE
8
Layer 1
10
500.647950
20
858.564471
11
499.522205
21
859.318044
0
LINE
8
Layer 1
10
499.522205
20
859.318044
11
498.518703
21
860.201679
0
LINE
8
Layer 1
10
498.518703
20
860.201679
11
497.646029
21
861.200505
0
LINE
8
Layer 1
10
497.646029
20
861.200505
11
496.912771
21
862.299650
0
LINE
8
Layer 1
10
496.912771
20
862.299650
11
496.327512
21
863.484243
0
LINE
8
Layer 1
10
496.327512
20
863.484243
11
495.898841
21
864.739414
0
LINE
8
Layer 1
10
495.898841
20
864.739414
11
495.635341
21
866.050290
0
LINE
8
Layer 1
10
495.635341
20
866.050290
11
495.545600
21
867.402000
0
LINE
8
Layer 1
10
495.545600
20
867.402000
11
495.635341
21
868.753710
0
LINE
8
Layer 1
10
495.635341
20
868.753710
11
495.898841
21
870.064586
0
LINE
8
Layer 1
10
495.898841
20
870.064586
11
496.327512
21
871.319757
0
LINE
8
Layer 1
10
496.327512
20
871.319757
11
496.912771
21
872.504350
0
LINE
8
Layer 1
10
496.912771
20
872.504350
11
497.646029
21
873.603495
0
LINE
8
Layer 1
10
497.646029
20
873.603495
11
498.518703
21
874.602321
0
LINE
8
Layer 1
10
498.518703
20
874.602321
11
499.522205
21
875.485956
0
LINE
8
Layer 1
10
499.522205
20
875.485956
11
500.647950
21
876.239529
0
LINE
8
Layer 1
10
500.647950
20
876.239529
11
501.863436
21
876.837667
0
LINE
8
Layer 1
10
501.863436
20
876.837667
11
503.130438
21
877.264907
0
LINE
8
Layer 1
10
503.130438
20
877.264907
11
504.431783
21
877.521252
0
LINE
8
Layer 1
10
504.431783
20
877.521252
11
505.750300
21
877.606700
0
LINE
8
Layer 1
10
505.750300
20
877.606700
11
507.068817
21
877.521252
0
LINE
8
Layer 1
10
507.068817
20
877.521252
11
508.370162
21
877.264907
0
LINE
8
Layer 1
10
508.370162
20
877.264907
11
509.637164
21
876.837667
0
LINE
8
Layer 1
10
509.637164
20
876.837667
11
510.852650
21
876.239529
0
LINE
8
Layer 1
10
510.852650
20
876.239529
11
511.978395
21
875.485956
0
LINE
8
Layer 1
10
511.978395
20
875.485956
11
512.981897
21
874.602321
0
LINE
8
Layer 1
10
512.981897
20
874.602321
11
513.854571
21
873.603495
0
LINE
8
Layer 1
10
513.854571
20
873.603495
11
514.587829
21
872.504350
0
LINE
8
Layer 1
10
514.587829
20
872.504350
11
515.173088
21
871.319757
0
LINE
8
Layer 1
10
515.173088
20
871.319757
11
515.601759
21
870.064586
0
LINE
8
Layer 1
10
515.601759
20
870.064586
11
515.865259
21
868.753710
0
LINE
8
Layer 1
10
515.865259
20
868.753710
11
515.955000
21
867.402000
0
LINE
8
Layer 1
10
515.955000
20
867.402000
11
515.955000
21
867.402000
0
LINE
8
Layer 1
10
799.419000
20
867.402000
11
799.329259
21
866.050290
0
LINE
8
Layer 1
10
799.329259
20
866.050290
11
799.065759
21
864.739414
0
LINE
8
Layer 1
10
799.065759
20
864.739414
11
798.637088
21
863.484243
0
LINE
8
Layer 1
10
798.637088
20
863.484243
11
798.051829
21
862.299650
0
LINE
8
Layer 1
10
798.051829
20
862.299650
11
797.318571
21
861.200505
0
LINE
8
Layer 1
10
797.318571
20
861.200505
11
796.445897
21
860.201679
0
LINE
8
Layer 1
10
796.445897
20
860.201679
11
795.442395
21
859.318044
0
LINE
8
Layer 1
10
795.442395
20
859.318044
11
794.316650
21
858.564471
0
LINE
8
Layer 1
10
794.316650
20
858.564471
11
793.101164
21
857.966333
0
LINE
8
Layer 1
10
793.101164
20
857.966333
11
791.834162
21
857.539093
0
LINE
8
Layer 1
10
791.834162
20
857.539093
11
790.532817
21
857.282748
0
LINE
8
Layer 1
10
790.532817
20
857.282748
11
789.214300
21
857.197300
0
LINE
8
Layer 1
10
789.214300
20
857.197300
11
787.895783
21
857.282748
0
LINE
8
Layer 1
10
787.895783
20
857.282748
11
786.594438
21
857.539093
0
LINE
8
Layer 1
10
786.594438
20
857.539093
11
785.327436
21
857.966333
0
LINE
8
Layer 1
10
785.327436
20
857.966333
11
784.111950
21
858.564471
0
LINE
8
Layer 1
10
784.111950
20
858.564471
11
782.986205
21
859.318044
0
LINE
8
Layer 1
10
782.986205
20
859.318044
11
781.982703
21
860.201679
0
LINE
8
Layer 1
10
781.982703
20
860.201679
11
781.110029
21
861.200505
0
LINE
8
Layer 1
10
781.110029
20
861.200505
11
780.376771
21
862.299650
0
LINE
8
Layer 1
10
780.376771
20
862.299650
11
779.791512
21
863.484243
0
LINE
8
Layer 1
10
779.791512
20
863.484243
11
779.362841
21
864.739414
0
LINE
8
Layer 1
10
779.362841
20
864.739414
11
779.099341
21
866.050290
0
LINE
8
Layer 1
10
779.099341
20
866.050290
11
779.009600
21
867.402000
0
LINE
8
Layer 1
10
779.009600
20
867.402000
11
779.099341
21
868.753710
0
LINE
8
Layer 1
10
779.099341
20
868.753710
11
779.362841
21
870.064586
0
LINE
8
Layer 1
10
779.362841
20
870.064586
11
779.791512
21
871.319757
0
LINE
8
Layer 1
10
779.791512
20
871.319757
11
780.376771
21
872.504350
0
LINE
8
Layer 1
10
780.376771
20
872.504350
11
781.110029
21
873.603495
0
LINE
8
Layer 1
10
781.110029
20
873.603495
11
781.982703
21
874.602321
0
LINE
8
Layer 1
10
781.982703
20
874.602321
11
782.986205
21
875.485956
0
LINE
8
Layer 1
10
782.986205
20
875.485956
11
784.111950
21
876.239529
0
LINE
8
Layer 1
10
784.111950
20
876.239529
11
785.327436
21
876.837667
0
LINE
8
Layer 1
10
785.327436
20
876.837667
11
786.594438
21
877.264907
0
LINE
8
Layer 1
10
786.594438
20
877.264907
11
787.895783
21
877.521252
0
LINE
8
Layer 1
10
787.895783
20
877.521252
11
789.214300
21
877.606700
0
LINE
8
Layer 1
10
789.214300
20
877.606700
11
790.532817
21
877.521252
0
LINE
8
Layer 1
10
790.532817
20
877.521252
11
791.834162
21
877.264907
0
LINE
8
Layer 1
10
791.834162
20
877.264907
11
793.101164
21
876.837667
0
LINE
8
Layer 1
10
793.101164
20
876.837667
11
794.316650
21
876.239529
0
LINE
8
Layer 1
10
794.316650
20
876.239529
11
795.442395
21
875.485956
0
LINE
8
Layer 1
10
795.442395
20
875.485956
11
796.445897
21
874.602321
0
LINE
8
Layer 1
10
796.445897
20
874.602321
11
797.318571
21
873.603495
0
LINE
8
Layer 1
10
797.318571
20
873.603495
11
798.051829
21
872.504350
0
LINE
8
Layer 1
10
798.051829
20
872.504350
11
798.637088
21
871.319757
0
LINE
8
Layer 1
10
798.637088
20
871.319757
11
799.065759
21
870.064586
0
LINE
8
Layer 1
10
799.065759
20
870.064586
11
799.329259
21
868.753710
0
LINE
8
Layer 1
10
799.329259
20
868.753710
11
799.419000
21
867.402000
0
LINE
8
Layer 1
10
799.419000
20
867.402000
11
799.419000
21
867.402000
 0 
ENDSEC
 0 
EOF